<svg xmlns="http://www.w3.org/2000/svg" width="107.006" height="78.321" viewBox="0 0 107.006 78.321">
  <g id="Cancel_Sub" data-name="Cancel Sub" transform="translate(3858 -11226)">
    <g id="Group_457" data-name="Group 457" transform="translate(-4532.454 11000.766)">
      <rect id="Rectangle_71" data-name="Rectangle 71" width="40.585" height="75.797" rx="2.243" transform="translate(707.663 226.496)" fill="#ececee"/>
    </g>
    <g id="Group_459" data-name="Group 459" transform="translate(-4532.454 11000.766)">
      <path id="Path_7792" data-name="Path 7792" d="M707.663,290.994v5.635a5.664,5.664,0,0,0,5.664,5.664h29.257a5.664,5.664,0,0,0,5.664-5.664v-5.635Z" fill="#c1c2c3"/>
    </g>
    <g id="Group_461" data-name="Group 461" transform="translate(-4532.454 11000.766)">
      <path id="Path_7793" data-name="Path 7793" d="M742.585,303.555H713.327a6.934,6.934,0,0,1-6.927-6.927V232.161a6.934,6.934,0,0,1,6.927-6.927h29.258a6.934,6.934,0,0,1,6.926,6.927v64.467A6.934,6.934,0,0,1,742.585,303.555ZM713.327,227.76a4.407,4.407,0,0,0-4.4,4.4v64.467a4.408,4.408,0,0,0,4.4,4.4h29.258a4.408,4.408,0,0,0,4.4-4.4V232.161a4.407,4.407,0,0,0-4.4-4.4Z" fill="#0a0c23"/>
    </g>
    <g id="Group_463" data-name="Group 463" transform="translate(-4532.454 11000.766)">
      <path id="Path_7794" data-name="Path 7794" d="M731.587,235.448h-7.262a1.262,1.262,0,1,1,0-2.525h7.262a1.262,1.262,0,0,1,0,2.525Z" fill="#0a0c23"/>
    </g>
    <g id="Group_466" data-name="Group 466" transform="translate(-4532.454 11000.766)">
      <g id="Group_465" data-name="Group 465">
        <rect id="Rectangle_72" data-name="Rectangle 72" width="24.049" height="24.049" rx="3.488" transform="translate(715.931 253.801)" fill="#ffc10b"/>
      </g>
    </g>
    <g id="Group_468" data-name="Group 468" transform="translate(-4532.454 11000.766)">
      <g id="Group_467" data-name="Group 467">
        <path id="Path_7795" data-name="Path 7795" d="M736.491,279.112H719.42a4.756,4.756,0,0,1-4.752-4.751V257.289a4.755,4.755,0,0,1,4.752-4.749h17.071a4.755,4.755,0,0,1,4.752,4.749v17.072A4.755,4.755,0,0,1,736.491,279.112ZM719.42,255.065a2.228,2.228,0,0,0-2.227,2.224v17.072a2.229,2.229,0,0,0,2.227,2.226h17.071a2.229,2.229,0,0,0,2.227-2.226V257.289a2.228,2.228,0,0,0-2.227-2.224Z" fill="#0a0c23"/>
      </g>
    </g>
    <g id="Group_470" data-name="Group 470" transform="translate(-4532.454 11000.766)">
      <path id="Path_7796" data-name="Path 7796" d="M735.769,255.065a1.262,1.262,0,0,1-1.263-1.263,6.552,6.552,0,0,0-13.1,0,1.262,1.262,0,1,1-2.525,0,9.077,9.077,0,1,1,18.154,0A1.262,1.262,0,0,1,735.769,255.065Z" fill="#0a0c23"/>
    </g>
    <g id="Group_472" data-name="Group 472" transform="translate(-4532.454 11000.766)">
      <path id="Path_7797" data-name="Path 7797" d="M727.954,265.71a3.816,3.816,0,1,1,3.818-3.815A3.819,3.819,0,0,1,727.954,265.71Zm0-5.107a1.291,1.291,0,1,0,1.293,1.292A1.293,1.293,0,0,0,727.954,260.6Z" fill="#0a0c23"/>
    </g>
    <g id="Group_474" data-name="Group 474" transform="translate(-4532.454 11000.766)">
      <path id="Path_7798" data-name="Path 7798" d="M726.329,273.855H725.4a1.263,1.263,0,0,1,0-2.525h.927a.364.364,0,0,0,.363-.363v-6.519a1.262,1.262,0,1,1,2.525,0v6.519A2.891,2.891,0,0,1,726.329,273.855Z" fill="#0a0c23"/>
    </g>
    <g id="Group_476" data-name="Group 476" transform="translate(-4532.454 11000.766)">
      <path id="Path_7799" data-name="Path 7799" d="M730,269.784h-2.05a1.262,1.262,0,0,1,0-2.525H730a1.262,1.262,0,0,1,0,2.525Z" fill="#0a0c23"/>
    </g>
    <g id="Group_478" data-name="Group 478" transform="translate(-4532.454 11000.766)">
      <path id="Path_7800" data-name="Path 7800" d="M694.655,266.174h-8.838a1.263,1.263,0,1,1,0-2.525h8.838a1.263,1.263,0,0,1,0,2.525Z" fill="#c1c2c3"/>
    </g>
    <g id="Group_480" data-name="Group 480" transform="translate(-4532.454 11000.766)">
      <path id="Path_7801" data-name="Path 7801" d="M679.5,266.174h-3.788a1.263,1.263,0,0,1,0-2.525H679.5a1.263,1.263,0,0,1,0,2.525Z" fill="#c1c2c3"/>
    </g>
    <g id="Group_482" data-name="Group 482" transform="translate(-4532.454 11000.766)">
      <path id="Path_7802" data-name="Path 7802" d="M701.608,252.939h-8.2a1.262,1.262,0,0,1,0-2.525h8.2a1.262,1.262,0,1,1,0,2.525Z" fill="#c1c2c3"/>
    </g>
    <g id="Group_484" data-name="Group 484" transform="translate(-4532.454 11000.766)">
      <path id="Path_7803" data-name="Path 7803" d="M701.608,279.408h-8.2a1.262,1.262,0,0,1,0-2.525h8.2a1.262,1.262,0,1,1,0,2.525Z" fill="#c1c2c3"/>
    </g>
    <g id="Group_486" data-name="Group 486" transform="translate(-4532.454 11000.766)">
      <path id="Path_7804" data-name="Path 7804" d="M770.1,266.174h-8.838a1.263,1.263,0,0,1,0-2.525H770.1a1.263,1.263,0,1,1,0,2.525Z" fill="#c1c2c3"/>
    </g>
    <g id="Group_488" data-name="Group 488" transform="translate(-4532.454 11000.766)">
      <path id="Path_7805" data-name="Path 7805" d="M780.2,266.174H776.41a1.263,1.263,0,1,1,0-2.525H780.2a1.263,1.263,0,1,1,0,2.525Z" fill="#c1c2c3"/>
    </g>
    <g id="Group_490" data-name="Group 490" transform="translate(-4532.454 11000.766)">
      <path id="Path_7806" data-name="Path 7806" d="M694.655,239.7h-3.788a1.262,1.262,0,1,1,0-2.525h3.788a1.262,1.262,0,0,1,0,2.525Z" fill="#c1c2c3"/>
    </g>
    <g id="Group_492" data-name="Group 492" transform="translate(-4532.454 11000.766)">
      <path id="Path_7807" data-name="Path 7807" d="M765.047,239.7h-3.788a1.262,1.262,0,0,1,0-2.525h3.788a1.262,1.262,0,0,1,0,2.525Z" fill="#c1c2c3"/>
    </g>
    <g id="Group_494" data-name="Group 494" transform="translate(-4532.454 11000.766)">
      <path id="Path_7808" data-name="Path 7808" d="M694.655,292.645h-3.788a1.262,1.262,0,1,1,0-2.525h3.788a1.262,1.262,0,0,1,0,2.525Z" fill="#c1c2c3"/>
    </g>
    <g id="Group_496" data-name="Group 496" transform="translate(-4532.454 11000.766)">
      <path id="Path_7809" data-name="Path 7809" d="M765.047,292.645h-3.788a1.262,1.262,0,0,1,0-2.525h3.788a1.262,1.262,0,0,1,0,2.525Z" fill="#c1c2c3"/>
    </g>
    <g id="Group_498" data-name="Group 498" transform="translate(-4532.454 11000.766)">
      <path id="Path_7810" data-name="Path 7810" d="M762.5,252.939h-8.2a1.262,1.262,0,1,1,0-2.525h8.2a1.262,1.262,0,1,1,0,2.525Z" fill="#c1c2c3"/>
    </g>
    <g id="Group_500" data-name="Group 500" transform="translate(-4532.454 11000.766)">
      <path id="Path_7811" data-name="Path 7811" d="M762.5,279.408h-8.2a1.262,1.262,0,1,1,0-2.525h8.2a1.262,1.262,0,1,1,0,2.525Z" fill="#c1c2c3"/>
    </g>
    <g id="Group_502" data-name="Group 502" transform="translate(-4532.454 11000.766)">
      <path id="Path_7812" data-name="Path 7812" d="M748.249,292.645H707.662a1.262,1.262,0,0,1,0-2.525h40.587a1.262,1.262,0,0,1,0,2.525Z" fill="#0a0c23"/>
    </g>
    <g id="Group_504" data-name="Group 504" transform="translate(-4532.454 11000.766)">
      <path id="Path_7813" data-name="Path 7813" d="M687.03,252.939h-1.85a1.262,1.262,0,0,1,0-2.525h1.85a1.262,1.262,0,0,1,0,2.525Z" fill="#c1c2c3"/>
    </g>
    <g id="Group_506" data-name="Group 506" transform="translate(-4532.454 11000.766)">
      <path id="Path_7814" data-name="Path 7814" d="M770.728,252.939h-1.847a1.262,1.262,0,0,1,0-2.525h1.847a1.262,1.262,0,1,1,0,2.525Z" fill="#c1c2c3"/>
    </g>
    <g id="Group_508" data-name="Group 508" transform="translate(-4532.454 11000.766)">
      <path id="Path_7815" data-name="Path 7815" d="M687.03,279.408h-1.85a1.262,1.262,0,0,1,0-2.525h1.85a1.262,1.262,0,0,1,0,2.525Z" fill="#c1c2c3"/>
    </g>
    <g id="Group_510" data-name="Group 510" transform="translate(-4532.454 11000.766)">
      <path id="Path_7816" data-name="Path 7816" d="M770.847,279.4H769a1.263,1.263,0,0,1,0-2.525h1.85a1.263,1.263,0,0,1,0,2.525Z" fill="#c1c2c3"/>
    </g>
    <g id="Group_512" data-name="Group 512" transform="translate(-4532.454 11000.766)">
      <path id="Path_7817" data-name="Path 7817" d="M744.079,244.491a1.262,1.262,0,0,1-1.263-1.263v-9.042a1.263,1.263,0,1,1,2.526,0v9.042A1.262,1.262,0,0,1,744.079,244.491Z" fill="#fff"/>
    </g>
    <g id="Group_514" data-name="Group 514" transform="translate(-4532.454 11000.766)">
      <path id="Path_7818" data-name="Path 7818" d="M744.079,252.224a1.262,1.262,0,0,1-1.263-1.263v-2.424a1.263,1.263,0,0,1,2.526,0v2.424A1.262,1.262,0,0,1,744.079,252.224Z" fill="#fff"/>
    </g>
  </g>
</svg>
