<svg xmlns="http://www.w3.org/2000/svg" width="123.111" height="107.841" viewBox="0 0 123.111 107.841">
  <g id="Group_2841" data-name="Group 2841" transform="translate(16777 -3637.257)">
    <path id="Path_10006" data-name="Path 10006" d="M0,69.406q.4-3.688.8-7.375c.491-4.571.776-9.176,1.519-13.706a53.257,53.257,0,0,1,6.947-18.1A82.78,82.78,0,0,1,30.622,5.639a28.707,28.707,0,0,1,13.1-5.48C50.936-.991,56.79,4.308,58.449,9.2c1.187,3.5.211,6.826-1.638,9.821a4.174,4.174,0,0,1-2.884,1.48c-7.357.641-13.085,4.354-18.1,9.4-3.523,3.546-6.21,7.625-7.16,12.651-.914,4.835.883,7.846,5.7,8.932A99.461,99.461,0,0,0,44.66,53.044c7.2.845,10.995,3.5,12.27,13.106.912,6.87.1,13.716-.732,20.527A64.591,64.591,0,0,1,54.043,97.93c-1.755,5.669-5.955,8.676-11.844,9.473-6.193.839-12.351.3-18.519-.191-3.778-.3-7.575-.484-11.132-2.019A16.034,16.034,0,0,1,2.914,94.545,69.379,69.379,0,0,1,.234,79.11,10.688,10.688,0,0,0,0,77.81Z" transform="translate(-16718.031 3745.097) rotate(180)" fill="#ffc10b"/>
    <path id="Path_10007" data-name="Path 10007" d="M0,69.406q.4-3.688.8-7.375c.491-4.571.776-9.176,1.519-13.706a53.257,53.257,0,0,1,6.947-18.1A82.78,82.78,0,0,1,30.622,5.639a28.707,28.707,0,0,1,13.1-5.48C50.936-.991,56.79,4.308,58.449,9.2c1.187,3.5.211,6.826-1.638,9.821a4.174,4.174,0,0,1-2.884,1.48c-7.357.641-13.085,4.354-18.1,9.4-3.523,3.546-6.21,7.625-7.16,12.651-.914,4.835.883,7.846,5.7,8.932A99.461,99.461,0,0,0,44.66,53.044c7.2.845,10.995,3.5,12.27,13.106.912,6.87.1,13.716-.732,20.527A64.591,64.591,0,0,1,54.043,97.93c-1.755,5.669-5.955,8.676-11.844,9.473-6.193.839-12.351.3-18.519-.191-3.778-.3-7.575-.484-11.132-2.019A16.034,16.034,0,0,1,2.914,94.545,69.379,69.379,0,0,1,.234,79.11,10.688,10.688,0,0,0,0,77.81Z" transform="translate(-16653.889 3745.097) rotate(180)" fill="#ffc10b"/>
  </g>
</svg>
