<svg xmlns="http://www.w3.org/2000/svg" width="11.631" height="15.057" viewBox="0 0 11.631 15.057">
  <g id="surface1" transform="translate(-0.5)">
    <path id="Path_9371" data-name="Path 9371" d="M280.559,19.8h1.956l-2.987-3.135v2.107A1.026,1.026,0,0,0,280.559,19.8Zm0,0" transform="translate(-270.821 -16.17)" fill="#858997"/>
    <path id="Path_9372" data-name="Path 9372" d="M8.068,2.6V0H1.95A1.457,1.457,0,0,0,.5,1.446V13.611a1.457,1.457,0,0,0,1.45,1.446h8.731a1.457,1.457,0,0,0,1.45-1.446V4.262H9.737A1.665,1.665,0,0,1,8.068,2.6Zm-4.3,5.19a.32.32,0,0,1,.45.016L6,9.715V5.166a.319.319,0,0,1,.637,0V9.719L8.415,7.807a.318.318,0,0,1,.466.434L6.547,10.747a.319.319,0,0,1-.235.1.325.325,0,0,1-.235-.1L3.742,8.241A.333.333,0,0,1,3.766,7.787Zm6.146,4.84a.32.32,0,0,1-.319.319H3.037a.319.319,0,1,1,0-.637H9.6A.316.316,0,0,1,9.912,12.627Zm0,0" fill="#858997"/>
  </g>
</svg>
