<svg xmlns="http://www.w3.org/2000/svg" xmlns:xlink="http://www.w3.org/1999/xlink" width="422.086" height="380.142" viewBox="0 0 422.086 380.142">
  <defs>
    <linearGradient id="linear-gradient" x1="-0.575" y1="0.5" x2="1" y2="0.5" gradientUnits="objectBoundingBox">
      <stop offset="0" stop-color="#2c481f"/>
      <stop offset="0.01" stop-color="#2c481f"/>
      <stop offset="1" stop-color="#56882f"/>
    </linearGradient>
    <linearGradient id="linear-gradient-2" x1="-9.643" y1="10" x2="-1.193" y2="2.049" xlink:href="#linear-gradient"/>
    <linearGradient id="linear-gradient-3" x1="-0.006" y1="0.5" x2="0.884" y2="0.5" xlink:href="#linear-gradient"/>
    <linearGradient id="linear-gradient-4" x1="-1.087" y1="2.187" x2="1.191" y2="-0.209" xlink:href="#linear-gradient"/>
    <linearGradient id="linear-gradient-5" x1="0.052" y1="0.5" x2="2.005" y2="0.5" gradientUnits="objectBoundingBox">
      <stop offset="0" stop-color="#d5ddd0"/>
      <stop offset="0.01" stop-color="#d5ddd0"/>
      <stop offset="1" stop-color="#dee9d1"/>
    </linearGradient>
    <linearGradient id="linear-gradient-6" x1="-0.144" y1="1.122" x2="0.903" y2="0.213" xlink:href="#linear-gradient-5"/>
    <linearGradient id="linear-gradient-7" x1="0.019" y1="0.5" x2="1.743" y2="0.5" xlink:href="#linear-gradient-5"/>
    <linearGradient id="linear-gradient-8" x1="-0.382" y1="0.885" x2="3.221" y2="-0.737" xlink:href="#linear-gradient-5"/>
    <linearGradient id="linear-gradient-9" x1="1.491" y1="0.5" x2="-0.431" y2="0.5" gradientUnits="objectBoundingBox">
      <stop offset="0" stop-color="#fff9ef"/>
      <stop offset="1" stop-color="#fdecf0"/>
    </linearGradient>
    <linearGradient id="linear-gradient-10" x1="1.38" y1="0.5" x2="-0.399" y2="0.5" xlink:href="#linear-gradient-9"/>
    <linearGradient id="linear-gradient-11" x1="2.127" y1="0.5" x2="-0.615" y2="0.5" xlink:href="#linear-gradient-9"/>
    <linearGradient id="linear-gradient-12" x1="0.149" y1="0.5" x2="0.874" y2="0.5" gradientUnits="objectBoundingBox">
      <stop offset="0" stop-color="#3fbcd2"/>
      <stop offset="1" stop-color="#375ba6"/>
    </linearGradient>
    <linearGradient id="linear-gradient-13" x1="0.025" y1="0.5" x2="0.987" y2="0.5" xlink:href="#linear-gradient-12"/>
    <linearGradient id="linear-gradient-14" x1="0" y1="0.5" x2="1" y2="0.5" xlink:href="#linear-gradient-12"/>
    <linearGradient id="linear-gradient-15" x1="0.115" y1="0.5" x2="0.881" y2="0.5" xlink:href="#linear-gradient-12"/>
    <linearGradient id="linear-gradient-16" y1="0.5" x2="1" y2="0.5" gradientUnits="objectBoundingBox">
      <stop offset="0" stop-color="#f67823"/>
      <stop offset="1" stop-color="#ffc120"/>
    </linearGradient>
    <linearGradient id="linear-gradient-17" y1="0.5" x2="1" y2="0.5" gradientUnits="objectBoundingBox">
      <stop offset="0" stop-color="#bc581b"/>
      <stop offset="1" stop-color="#ffc120"/>
    </linearGradient>
    <linearGradient id="linear-gradient-18" x1="1" y1="0.5" x2="0" y2="0.5" xlink:href="#linear-gradient-12"/>
    <linearGradient id="linear-gradient-19" y1="0.5" x2="1" y2="0.5" gradientUnits="objectBoundingBox">
      <stop offset="0" stop-color="#ffae3d"/>
      <stop offset="1" stop-color="#e6133f"/>
    </linearGradient>
  </defs>
  <g id="Group_2844" data-name="Group 2844" transform="translate(13258 1637)">
    <g id="Group_2843" data-name="Group 2843" transform="translate(-13962.37 -4546.301)">
      <path id="Path_706" data-name="Path 706" d="M237.557,482.576s-.5,3.454-.559,3.973-5.536-.306-5.536-.306l-.443-4.112S236.873,482.089,237.557,482.576Z" transform="translate(542.555 2793.603)" fill="#1d2c5b" fill-rule="evenodd"/>
      <path id="Path_707" data-name="Path 707" d="M237.057,486.1a14.793,14.793,0,0,0,3.412,2.989c1.677.907,4.312,1.266,5.3,2.205.715.678,2.608,3.6-4.359,3.537s-10.324.413-11.071-.706,1.079-8.258,1.079-8.258S233.074,486.461,237.057,486.1Z" transform="translate(542.553 2793.611)" fill="#03112a" fill-rule="evenodd"/>
      <path id="Path_708" data-name="Path 708" d="M272.556,482.608s-.5,3.453-.56,3.974-5.536-.307-5.536-.307l-.442-4.112S271.871,482.121,272.556,482.608Z" transform="translate(542.623 2793.603)" fill="#1d2c5b" fill-rule="evenodd"/>
      <path id="Path_709" data-name="Path 709" d="M272.056,486.134a14.775,14.775,0,0,0,3.412,2.988c1.678.907,7.849,1.652,8.841,2.592.715.678,1.907,3.406-7.894,3.151-6.964-.181-10.325.413-11.072-.707s1.08-8.257,1.08-8.257S267.977,486.534,272.056,486.134Z" transform="translate(542.622 2793.611)" fill="#03112a" fill-rule="evenodd"/>
      <path id="Path_719" data-name="Path 719" d="M207.166,490.643l.662,1.861,27.955-8.661-1.34-3.77Z" transform="translate(542.508 2793.599)" fill="#7d706c" fill-rule="evenodd"/>
      <path id="Path_720" data-name="Path 720" d="M263.332,490.643l-.661,1.861-27.956-8.661,1.228-4.006Z" transform="translate(542.562 2793.599)" fill="#7d706c" fill-rule="evenodd"/>
      <path id="Path_721" data-name="Path 721" d="M243.636,492.305v2.166l-8.921-10.628,1.228-4.006Z" transform="translate(542.562 2793.599)" fill="#7d706c" fill-rule="evenodd"/>
      <path id="Path_722" data-name="Path 722" d="M265.894,493.211a2.613,2.613,0,1,1-2.613-2.613A2.613,2.613,0,0,1,265.894,493.211Z" transform="translate(542.613 2793.62)" fill="#afa19a" fill-rule="evenodd"/>
      <path id="Path_723" data-name="Path 723" d="M243.85,493.211a2.613,2.613,0,1,1-2.613-2.613A2.613,2.613,0,0,1,243.85,493.211Z" transform="translate(542.57 2793.62)" fill="#afa19a" fill-rule="evenodd"/>
      <path id="Path_724" data-name="Path 724" d="M209.783,493.211a2.613,2.613,0,1,1-2.612-2.613A2.612,2.612,0,0,1,209.783,493.211Z" transform="translate(542.503 2793.62)" fill="#afa19a" fill-rule="evenodd"/>
      <path id="Path_733" data-name="Path 733" d="M567.518,480.459s.543,3.823.611,4.4,6.07-.338,6.07-.338l.486-4.552S568.266,479.92,567.518,480.459Z" transform="translate(543.215 2793.599)" fill="#433a32" fill-rule="evenodd"/>
      <path id="Path_734" data-name="Path 734" d="M568.085,484.362a16.294,16.294,0,0,1-3.739,3.309c-1.84,1-4.731,1.4-5.817,2.441-.784.749-2.859,3.981,4.777,3.916s11.322.457,12.14-.783-1.184-9.141-1.184-9.141S572.454,484.76,568.085,484.362Z" transform="translate(543.195 2793.607)" fill="#1f262a" fill-rule="evenodd"/>
      <path id="Path_735" data-name="Path 735" d="M524.6,480.459s.547,3.823.613,4.4,6.07-.338,6.07-.338l.488-4.552S525.35,479.92,524.6,480.459Z" transform="translate(543.131 2793.599)" fill="#433a32" fill-rule="evenodd"/>
      <path id="Path_736" data-name="Path 736" d="M525.177,484.362a16.25,16.25,0,0,1-3.741,3.309c-1.839,1-8.608,1.829-9.694,2.868-.785.75-2.089,3.771,8.659,3.489,7.634-.2,11.318.457,12.137-.783s-1.186-9.141-1.186-9.141S529.648,484.805,525.177,484.362Z" transform="translate(543.104 2793.607)" fill="#1f262a" fill-rule="evenodd"/>
      <path id="Path_751" data-name="Path 751" d="M454.093,484.881s-4.132,2.51-6,3.446-9.192,1.286-9.905,1.983-.424,2.883.793,3.09,10.123.907,13.085.177,8.526.372,9.752-.061.352-7.052-.142-8.534S454.093,484.881,454.093,484.881Z" transform="translate(542.96 2793.607)" fill="#03112a" fill-rule="evenodd"/>
      <path id="Path_752" data-name="Path 752" d="M453.683,482.178l.379,2.707s5.578.972,7.252.1l-.45-2.812Z" transform="translate(542.992 2793.603)" fill="#172551" fill-rule="evenodd"/>
      <path id="Path_754" data-name="Path 754" d="M435.7,484.881s-4.132,2.51-6,3.446-9.192,1.286-9.907,1.983-.424,2.883.793,3.09,10.125.907,13.085.177,8.528.372,9.752-.061.352-7.052-.142-8.534S435.7,484.881,435.7,484.881Z" transform="translate(542.924 2793.607)" fill="#03112a" fill-rule="evenodd"/>
      <path id="Path_755" data-name="Path 755" d="M435.288,482.178l.38,2.707s5.576.972,7.25.1l-.45-2.812Z" transform="translate(542.955 2793.603)" fill="#172551" fill-rule="evenodd"/>
      <g id="Group_431" data-name="Group 431" transform="translate(704.37 2909.301)">
        <path id="Path_669" data-name="Path 669" d="M526.759,206.93V171.314a11.1,11.1,0,0,0-.246-2.33,45.276,45.276,0,0,1,4.511-4.353l-.788-.946a46.013,46.013,0,0,0-4.118,3.914,11.024,11.024,0,0,0-10.378-7.305h-.418c2.386-2.29,5.071-4.873,8.119-7.932q1.189-1.193,2.224-2.387a54.181,54.181,0,0,1,20.886-4.072c8.631,0,18.292,1.876,29.079,6.3a28.872,28.872,0,0,0-5.776-.536c-6.972,0-18.361,2.229-23.274,15.76C541.465,181.489,538.656,195.919,526.759,206.93Z" transform="translate(-161.257 -116.357)" fill-rule="evenodd" fill="url(#linear-gradient)"/>
        <path id="Path_670" data-name="Path 670" d="M526.492,168.949a11.025,11.025,0,0,0-.395-1.385,46.018,46.018,0,0,1,4.118-3.914l.788.946A45.277,45.277,0,0,0,526.492,168.949Z" transform="translate(-161.236 -116.322)" fill-rule="evenodd" fill="url(#linear-gradient-2)"/>
        <path id="Path_671" data-name="Path 671" d="M515.372,160.352H503.5c2.637-5.192,5.221-9,6.6-10.377,3.783-3.778,6.278-9.118,7.217-11.131.16-.333.309-.65.356-.724l-.772-.491c-.078.119-.178.34-.411.83-.922,1.971-3.368,7.2-7.039,10.863-1.737,1.733-4.4,5.75-7.027,11.031H490.086c1.672-17.5,11.218-36.691,42.525-43.937,0,0,7.989,16.5-6.9,33.619q-1.037,1.192-2.224,2.387C520.442,155.479,517.757,158.062,515.372,160.352Z" transform="translate(-161.307 -116.415)" fill-rule="evenodd" fill="url(#linear-gradient-3)"/>
        <path id="Path_672" data-name="Path 672" d="M503.48,160.311h-1.075c2.622-5.28,5.289-9.3,7.027-11.031,3.671-3.659,6.117-8.892,7.039-10.863.232-.49.333-.71.411-.83l.772.491c-.047.074-.2.392-.356.724-.939,2.013-3.434,7.352-7.217,11.131C508.7,151.309,506.117,155.118,503.48,160.311Z" transform="translate(-161.283 -116.373)" fill-rule="evenodd" fill="url(#linear-gradient-4)"/>
        <path id="Path_673" data-name="Path 673" d="M516.254,407.161H377.038V384.5h48.969v-3.435H377.038v-4.578h37.176v-3.436H377.038V343.13h52.126a2.564,2.564,0,0,0,2.566-2.564v-41.8a2.566,2.566,0,0,0-2.566-2.566H377.038v-4.963h52.126a2.565,2.565,0,0,0,2.566-2.565v-6.36a2.566,2.566,0,0,0-2.566-2.566H374.942c-.046,0-.091,0-.136,0a10.462,10.462,0,0,0-8.251-4.017H253.434V171.286a11.02,11.02,0,0,1,11.02-11.02h226.1A75.727,75.727,0,0,0,492,182.56c-.833,1.44-1.61,2.857-2.334,4.232-6.87,13.084-11.008,25.59-6.785,31.5h0a7.346,7.346,0,0,0,.827.966h0c1.681,1.651,4.269,2.578,7.95,2.578,3.586,0,8.21-.881,14.045-2.83,9.526-3.182,16.406-7.318,21.571-12.1v46.007H462.1a9.92,9.92,0,0,0-9.919,9.919V389.135a9.92,9.92,0,0,0,9.919,9.919h64.785A11.022,11.022,0,0,1,516.254,407.161Z" transform="translate(-161.771 -116.329)" fill="#fbfbfb" fill-rule="evenodd"/>
        <path id="Path_674" data-name="Path 674" d="M491.211,221.833c-3.68,0-6.268-.927-7.95-2.578,5.976-3.174,17.452-9.969,23.126-17.985a123.677,123.677,0,0,0,7.431-12.616c3.664-6.813,7.433-13.809,12.763-19.7a11.1,11.1,0,0,1,.246,2.33V206.9c-5.165,4.782-12.046,8.918-21.571,12.1-5.835,1.949-10.459,2.83-14.045,2.83Zm-8.776-3.544c5.824-3.092,17.418-9.908,22.95-17.729a120.706,120.706,0,0,0,7.355-12.486c3.821-7.1,7.749-14.4,13.446-20.5a11.024,11.024,0,0,0-10.378-7.305h-.418c-11.3,10.842-15.881,15.142-20.21,32.344-.119.466-.237.952-.359,1.439-.022-.058-.229-.575-.545-1.487a82.707,82.707,0,0,1-2.723-10c-.833,1.44-1.61,2.857-2.334,4.232-6.87,13.084-11.008,25.59-6.785,31.5Zm11.842-25.726Zm.9.048" transform="translate(-161.325 -116.329)" fill-rule="evenodd" fill="url(#linear-gradient-5)"/>
        <path id="Path_675" data-name="Path 675" d="M483.258,219.24a7.346,7.346,0,0,1-.827-.966h0c5.824-3.092,17.418-9.908,22.95-17.729a120.7,120.7,0,0,0,7.355-12.486c3.822-7.1,7.749-14.4,13.446-20.5a11.026,11.026,0,0,1,.395,1.385c-5.33,5.889-9.1,12.884-12.763,19.7a123.684,123.684,0,0,1-7.431,12.616c-5.674,8.017-17.151,14.811-23.126,17.985Z" transform="translate(-161.322 -116.315)" fill-rule="evenodd" fill="url(#linear-gradient-6)"/>
        <path id="Path_676" data-name="Path 676" d="M495.163,192.61c-.528-11.4,3.982-23.763,8.342-32.344h11.867c-11.3,10.842-15.881,15.142-20.21,32.344Zm-.9-.048c-.454-11.123,3.792-23.474,8.171-32.3H490.087a75.727,75.727,0,0,0,1.449,22.294A82.707,82.707,0,0,0,494.259,192.562Z" transform="translate(-161.307 -116.329)" fill-rule="evenodd" fill="url(#linear-gradient-7)"/>
        <path id="Path_677" data-name="Path 677" d="M494.8,194.049c-.022-.058-.229-.575-.545-1.487h0c-.454-11.123,3.792-23.474,8.171-32.3H503.5c-4.361,8.582-8.87,20.942-8.342,32.344h0C495.035,193.076,494.916,193.562,494.8,194.049Z" transform="translate(-161.299 -116.329)" fill-rule="evenodd" fill="url(#linear-gradient-8)"/>
        <path id="Rectangle_12" data-name="Rectangle 12" d="M2.561,0H56.793a2.561,2.561,0,0,1,2.561,2.561v6.37a2.56,2.56,0,0,1-2.56,2.56H2.561A2.561,2.561,0,0,1,0,8.93V2.561A2.561,2.561,0,0,1,2.561,0Z" transform="translate(210.605 163.421)" fill="#a8caeb"/>
        <path id="Path_678" data-name="Path 678" d="M428.922,342.864H376.8V295.938h52.126a2.566,2.566,0,0,1,2.566,2.566v41.8A2.564,2.564,0,0,1,428.922,342.864Z" transform="translate(-161.529 -116.063)" fill="#e2e3e2" fill-rule="evenodd"/>
        <rect id="Rectangle_13" data-name="Rectangle 13" width="33.47" height="3.357" transform="translate(308.682 81.414)" fill="#a8caeb"/>
        <rect id="Rectangle_14" data-name="Rectangle 14" width="38.467" height="3.357" transform="translate(308.682 91.809)" fill="#a8caeb"/>
        <rect id="Rectangle_15" data-name="Rectangle 15" width="19.901" height="3.358" transform="translate(308.625 102.146)" fill="#a8caeb"/>
        <rect id="Rectangle_16" data-name="Rectangle 16" width="30.663" height="3.36" transform="translate(308.625 112.482)" fill="#a8caeb"/>
        <rect id="Rectangle_17" data-name="Rectangle 17" width="146.44" height="3.436" transform="translate(106.003 256.724)" fill="#fff"/>
        <rect id="Rectangle_18" data-name="Rectangle 18" width="158.233" height="3.435" transform="translate(106.003 264.737)" fill="#fff"/>
        <rect id="Rectangle_19" data-name="Rectangle 19" width="102.671" height="3.435" transform="translate(106.003 272.751)" fill="#fff"/>
        <path id="Path_679" data-name="Path 679" d="M543.257,398.873H526.349a10.991,10.991,0,0,0,.389-2.913V252.728h16.519a9.92,9.92,0,0,1,9.919,9.919V388.954A9.92,9.92,0,0,1,543.257,398.873Z" transform="translate(-161.236 -116.148)" fill="#f9f8fc" fill-rule="evenodd"/>
        <path id="Path_680" data-name="Path 680" d="M526.5,398.873H461.71a9.92,9.92,0,0,1-9.919-9.919V262.647a9.92,9.92,0,0,1,9.919-9.919h65.174V395.96A10.991,10.991,0,0,1,526.5,398.873Z" transform="translate(-161.382 -116.148)" fill="#f3f3f3" fill-rule="evenodd"/>
        <rect id="Rectangle_20" data-name="Rectangle 20" width="73.057" height="5.19" rx="1.407" transform="translate(302.671 225.723)" fill="#c8d2da"/>
        <path id="Rectangle_21" data-name="Rectangle 21" d="M1.407,0h49.18a1.407,1.407,0,0,1,1.407,1.407V3.781a1.408,1.408,0,0,1-1.408,1.408H1.409A1.409,1.409,0,0,1,0,3.78V1.407A1.407,1.407,0,0,1,1.407,0Z" transform="translate(302.671 237.173)" fill="#c8d2da"/>
        <path id="Rectangle_22" data-name="Rectangle 22" d="M1.408,0H60.356a1.407,1.407,0,0,1,1.407,1.407V3.782a1.407,1.407,0,0,1-1.407,1.407H1.408A1.408,1.408,0,0,1,0,3.781V1.408A1.408,1.408,0,0,1,1.408,0Z" transform="translate(302.671 248.624)" fill="#c8d2da"/>
        <path id="Rectangle_23" data-name="Rectangle 23" d="M5.082,0H21.9a5.082,5.082,0,0,1,5.082,5.082V21.9a5.08,5.08,0,0,1-5.08,5.08H5.08A5.08,5.08,0,0,1,0,21.9V5.082A5.082,5.082,0,0,1,5.082,0Z" transform="translate(327.686 262.698)" fill="#fff"/>
        <rect id="Rectangle_24" data-name="Rectangle 24" width="2.554" height="10.734" transform="translate(339.898 270.819)" fill="#b6bec5"/>
        <rect id="Rectangle_25" data-name="Rectangle 25" width="10.733" height="2.553" transform="translate(335.81 274.909)" fill="#b6bec5"/>
        <path id="Path_681" data-name="Path 681" d="M366.649,433.09H215.531a10.483,10.483,0,0,1-10.484-10.483V285.994a10.484,10.484,0,0,1,10.484-10.483h38v120.4a11.019,11.019,0,0,0,11.02,11.02H377.133v15.672A10.483,10.483,0,0,1,366.649,433.09Z" transform="translate(-161.866 -116.103)" fill="#fbfbfb" fill-rule="evenodd"/>
        <path id="Path_682" data-name="Path 682" d="M377.038,406.935H264.454a11.019,11.019,0,0,1-11.02-11.02v-120.4h113.12a10.462,10.462,0,0,1,8.251,4.017,2.567,2.567,0,0,0-2.43,2.562v6.36a2.566,2.566,0,0,0,2.566,2.565h2.1v4.963h-2.1a2.567,2.567,0,0,0-2.566,2.566v41.8a2.565,2.565,0,0,0,2.566,2.564h2.1v29.923H267.774v3.436H377.038v4.578H267.774v3.435H377.038v22.66Zm-55.8-14.647h49.21v-3.435H267.774v3.435Z" transform="translate(-161.771 -116.103)" fill="#fbfbfb" fill-rule="evenodd"/>
        <path id="Path_683" data-name="Path 683" d="M376.805,291.007h-2.1a2.566,2.566,0,0,1-2.566-2.565v-6.36a2.567,2.567,0,0,1,2.43-2.562,10.432,10.432,0,0,1,2.232,6.466Z" transform="translate(-161.538 -116.095)" fill="#f9fdff" fill-rule="evenodd"/>
        <path id="Path_684" data-name="Path 684" d="M376.805,342.864h-2.1a2.565,2.565,0,0,1-2.566-2.564V298.5a2.567,2.567,0,0,1,2.566-2.566h2.1Z" transform="translate(-161.538 -116.063)" fill="#fff" fill-rule="evenodd"/>
        <path id="Path_685" data-name="Path 685" d="M377.01,376.072H344v-3.436h-76.25v0H377.01Z" transform="translate(-161.743 -115.912)" fill="#fff" fill-rule="evenodd"/>
        <path id="Path_686" data-name="Path 686" d="M377.01,384.069H350.136v-3.435h-82.39v0H377.01Z" transform="translate(-161.743 -115.897)" fill="#fff" fill-rule="evenodd"/>
        <path id="Path_687" data-name="Path 687" d="M370.417,392.067H321.205v-3.435H267.746v0H370.417Z" transform="translate(-161.743 -115.881)" fill="#fff" fill-rule="evenodd"/>
        <rect id="Rectangle_26" data-name="Rectangle 26" width="76.25" height="3.436" transform="translate(106.003 256.724)" fill="url(#linear-gradient-9)"/>
        <rect id="Rectangle_27" data-name="Rectangle 27" width="82.39" height="3.435" transform="translate(106.003 264.737)" fill="url(#linear-gradient-10)"/>
        <rect id="Rectangle_28" data-name="Rectangle 28" width="53.459" height="3.435" transform="translate(106.003 272.751)" fill="url(#linear-gradient-11)"/>
        <path id="Path_688" data-name="Path 688" d="M356.489,330.5l-.149-.91-22.168,3.632-7.188,15.317-23.9,1.622-7.743,11.422-18.274-.454-.023.921,18.777.466,7.772-11.465,24-1.628L334.8,334.05Z" transform="translate(-161.725 -115.997)" fill="#3e96d4" fill-rule="evenodd"/>
        <path id="Path_689" data-name="Path 689" d="M329.3,299.633h23.889a2.731,2.731,0,1,0,0-5.462H329.3a2.731,2.731,0,0,0,0,5.462Z" transform="translate(-161.628 -116.066)" fill="#006db7" fill-rule="evenodd"/>
        <path id="Path_690" data-name="Path 690" d="M329.3,309.143h23.889a2.732,2.732,0,1,0,0-5.464H329.3a2.732,2.732,0,0,0,0,5.464Z" transform="translate(-161.628 -116.048)" fill="#3e96d4" fill-rule="evenodd"/>
        <path id="Path_691" data-name="Path 691" d="M329.3,318.651h23.889a2.731,2.731,0,1,0,0-5.463H329.3a2.731,2.731,0,0,0,0,5.463Z" transform="translate(-161.628 -116.029)" fill="#3e96d4" fill-rule="evenodd"/>
        <path id="Rectangle_29" data-name="Rectangle 29" d="M2.824,0H88.608a2.825,2.825,0,0,1,2.825,2.825v7.468a2.823,2.823,0,0,1-2.823,2.823H2.824A2.824,2.824,0,0,1,0,10.291V2.824A2.824,2.824,0,0,1,2.824,0Z" transform="translate(57.682 177.247)" fill="#3e96d4"/>
        <path id="Rectangle_30" data-name="Rectangle 30" d="M2.824,0H88.608a2.825,2.825,0,0,1,2.825,2.825v7.468a2.825,2.825,0,0,1-2.825,2.825H2.824A2.824,2.824,0,0,1,0,10.294V2.824A2.824,2.824,0,0,1,2.824,0Z" transform="translate(57.682 196.063)" fill="#006db7"/>
        <path id="Path_692" data-name="Path 692" d="M345.049,395.351a17.226,17.226,0,0,1-23.392-2.819q-.37-.439-.714-.911a17.247,17.247,0,1,1,24.106,3.73Zm8.373-27.506A23,23,0,1,0,316.3,395.024c.306.417.623.823.951,1.213a23.005,23.005,0,0,0,36.174-28.392Z" transform="translate(-161.656 -115.94)" fill="#3e96d4" fill-rule="evenodd"/>
        <path id="Path_693" data-name="Path 693" d="M317.613,381.187l-5.757-.082a23.036,23.036,0,0,1,15.8-21.528l1.8,5.47a17.271,17.271,0,0,0-11.846,16.141Z" transform="translate(-161.656 -115.938)" fill="#004173" fill-rule="evenodd"/>
        <path id="Path_694" data-name="Path 694" d="M321.657,392.487l-4.409,3.705c-.328-.391-.645-.8-.951-1.213a22.908,22.908,0,0,1-4.442-13.916l5.757.082a17.165,17.165,0,0,0,3.33,10.431Q321.287,392.048,321.657,392.487Z" transform="translate(-161.656 -115.896)" fill="#005ca6" fill-rule="evenodd"/>
        <path id="Path_695" data-name="Path 695" d="M322.286,400.646a22.928,22.928,0,0,1-5.048-4.476l4.409-3.705a17.13,17.13,0,0,0,3.783,3.357Z" transform="translate(-161.646 -115.874)" fill="#0072bb" fill-rule="evenodd"/>
        <path id="Path_696" data-name="Path 696" d="M166.6,333.552c4.593-2.2,9.162,12.421,9.162,12.421,7.805,10.313,18.712-3.407,17.646,12.009-1.867,26.978,31.052,8.483,15.865,36.648s13.409,15.925,3.972,38.636,2.794,49.794-11.405,38.665c0,0-12.5-27.418-25.4-35.9s7.724-18.55,3.69-30.071c-5.859-16.736-19.978-16.078-9.8-34.063S150.995,341.017,166.6,333.552Z" transform="translate(-161.951 -115.989)" fill-rule="evenodd" fill="url(#linear-gradient-12)"/>
        <path id="Path_697" data-name="Path 697" d="M206.3,461.557c-6.156-4.329-13.359-34.5-13.789-52.464-.22-9.2-2.941-13.038-5.341-16.421-2.294-3.233-4.275-6.027-3.121-12.438,2.205-12.256-3.594-17.545-3.653-17.6l.671-.765c.259.224,6.3,5.681,3.984,18.542-1.079,5.991.7,8.5,2.95,11.669,2.362,3.329,5.3,7.472,5.528,16.986.461,19.283,7.826,47.765,13.357,51.654Z" transform="translate(-161.914 -115.933)" fill="#fff" fill-rule="evenodd"/>
        <path id="Path_698" data-name="Path 698" d="M238.3,406.1a13.938,13.938,0,0,0-3.169,2.752c-2.735,2.865-6.14,6.431-14.765,6.471-4.294.02-6.7.58-7.8,1.815-1.2,1.351-.94,3.691-.577,6.93.137,1.223.293,2.609.388,4.116a24.313,24.313,0,0,1-4.953,16.01c-3.09,3.678-6.588,11-5.126,15.179a4.722,4.722,0,0,0,3.865,3.059c6.962,1.407,8.883-2.949,12.069-10.164.584-1.326,1.187-2.693,1.874-4.141,3.688-7.788,7.13-9.138,12.339-11.182,1.25-.492,2.667-1.047,4.214-1.742,6.584-2.959,5.4-7.021,4.138-11.323-.18-.616-.359-1.228-.515-1.836-.793-3.1.771-4.69,2.749-6.709a20.419,20.419,0,0,0,4.31-5.764c.668-1.4,1.22-3.3.051-4.4-1.538-1.459-5.448-1.057-9.094.933Zm-29.735,57.612a13.131,13.131,0,0,1-2.6-.283,5.672,5.672,0,0,1-4.623-3.72c-1.66-4.745,2.184-12.453,5.3-16.169a23.722,23.722,0,0,0,4.718-15.293c-.094-1.483-.247-2.856-.384-4.067-.392-3.5-.675-6.03.829-7.72,1.325-1.489,3.884-2.133,8.554-2.155,8.192-.038,11.431-3.43,14.033-6.156a14.824,14.824,0,0,1,3.418-2.943c4.083-2.229,8.406-2.556,10.282-.779.891.845,1.642,2.5.166,5.582a21.482,21.482,0,0,1-4.5,6.036c-1.89,1.93-3.14,3.205-2.49,5.745.153.6.33,1.2.506,1.8,1.263,4.319,2.694,9.215-4.7,12.537-1.569.705-3,1.266-4.259,1.761-5.16,2.025-8.274,3.248-11.791,10.669-.68,1.438-1.282,2.8-1.863,4.116C216.392,458.959,214.294,463.711,208.565,463.711Z" transform="translate(-161.874 -115.852)" fill-rule="evenodd" fill="url(#linear-gradient-13)"/>
        <path id="Path_699" data-name="Path 699" d="M206.064,469.572l-1.017-.053c.051-.955,1.334-23.468,10.372-30.057,9.916-7.228,13.044-15,14.532-20.21,1.754-6.145,10.685-7.786,11.065-7.853l.177,1c-.087.016-8.684,1.6-10.263,7.131-1.531,5.358-4.741,13.339-14.911,20.753C207.368,446.591,206.076,469.342,206.064,469.572Z" transform="translate(-161.866 -115.836)" fill-rule="evenodd" fill="url(#linear-gradient-14)"/>
        <path id="Path_700" data-name="Path 700" d="M226.757,356.227c-6.425-2.2-5.09,10.179-7.805,19.342s-30.2,4-18.664,26.939S185.7,410.179,193.5,430.2s.679,41.433,9.163,35.986,4.765-30.656,13.589-33.653,10.262-6.49,1.526-14.634,22.89-16.229,15.086-32.673S234.18,358.771,226.757,356.227Z" transform="translate(-161.891 -115.945)" fill-rule="evenodd" fill="url(#linear-gradient-15)"/>
        <path id="Path_701" data-name="Path 701" d="M206.58,465.17c-.809-3.428-7.708-33.59-1.27-37.235,5.674-3.214,5.535-15.711,4.649-27.514-.784-10.446,12.635-15.33,13.206-15.534l.341.96c-.133.048-13.257,4.829-12.532,14.5.909,12.12,1.007,24.983-5.163,28.476-4.889,2.769-.388,27.008,1.759,36.116Z" transform="translate(-161.871 -115.888)" fill="#fff" fill-rule="evenodd"/>
        <path id="Path_702" data-name="Path 702" d="M221.224,454.294l-9.173,34.8h-20.5l-9.173-34.8Z" transform="translate(-161.91 -115.752)" fill-rule="evenodd" fill="url(#linear-gradient-16)"/>
        <path id="Path_703" data-name="Path 703" d="M221.224,454.294s-20.194,3.791-20.194,34.8h-9.478l-9.173-34.8Z" transform="translate(-161.91 -115.752)" fill-rule="evenodd" fill="url(#linear-gradient-17)"/>
        <path id="Path_704" data-name="Path 704" d="M273.35,144.437v2.953H244.58v28.768h-2.953V144.437Z" transform="translate(-161.794 -116.36)" fill-rule="evenodd" fill="url(#linear-gradient-18)"/>
        <rect id="Rectangle_31" data-name="Rectangle 31" width="28.898" height="1.713" transform="translate(87.781 293.336)" fill="#d9c6bd"/>
        <rect id="Rectangle_32" data-name="Rectangle 32" width="2.532" height="78.014" transform="translate(91.654 299.516)" fill="#584f4b"/>
        <rect id="Rectangle_33" data-name="Rectangle 33" width="20.087" height="2.45" transform="translate(112.156 292.848)" fill="#c1ada7"/>
        <rect id="Rectangle_34" data-name="Rectangle 34" width="7.606" height="23.103" transform="translate(118.396 271.946)" fill="#847670"/>
        <rect id="Rectangle_35" data-name="Rectangle 35" width="111.295" height="4.436" transform="translate(77.414 295.08)" fill="#a5785a"/>
        <path id="Path_705" data-name="Path 705" d="M217.913,384.135s-1.217,17.07,2.118,19.113c2.089,1.28,10.42,5.6,10.173,6.407s-4.7,7.2-4.7,7.2-16-10.539-16.517-13.859c-.5-3.244.788-24.994,2.987-26,1.647-.749,2.517-.129,4.593,1.413C219.476,380.577,217.913,384.135,217.913,384.135Z" transform="translate(-161.858 -115.904)" fill="#c1563c" fill-rule="evenodd"/>
        <path id="Path_710" data-name="Path 710" d="M219.935,423.029s19.9,3.367,24.394,4.072,28.864,6.77,31.911,8.618c2.425,1.471-1.272,36.8-2.136,50.272h-9.6l-.7-40.428c-11.518.288-19.737-2.693-28.125-1.42s-15.38,3.084-20.71-4.064C214.974,440.079,214.777,424.59,219.935,423.029Z" transform="translate(-161.846 -115.813)" fill="#03112a" fill-rule="evenodd"/>
        <path id="Path_711" data-name="Path 711" d="M239.556,486.016l-9.353-.579-.912-39.882a56.871,56.871,0,0,1-10.671-.676l-7.553-17.555c6.619,1.323,27.825,6.673,30.654,8.387C244.146,437.181,240.421,472.538,239.556,486.016Z" transform="translate(-161.854 -115.805)" fill="#03112a" fill-rule="evenodd"/>
        <path id="Path_712" data-name="Path 712" d="M229.078,348.586s7.294-2.016,10.077,3.647,1.522,16.4-2.154,17.407-8.964-.152-10.49-3.677-2.743-8.532-2.379-11.774S227.141,349.36,229.078,348.586Z" transform="translate(-161.829 -115.96)" fill="#eb936d" fill-rule="evenodd"/>
        <path id="Path_713" data-name="Path 713" d="M235.091,368.481s-.08,4.306.395,5.224-10.157.688-10.157.688,1.675-5.17.724-9.578C225.113,360.456,235.091,368.481,235.091,368.481Z" transform="translate(-161.826 -115.93)" fill="#eb936d" fill-rule="evenodd"/>
        <path id="Path_714" data-name="Path 714" d="M225.484,363.217s.569,1.155,3.321.969,6.382-3.507,7.551-3.8,1.237-.962,1.237-.962l.619,1.1,1.2.181s-.814-3.328.959-4.5-.8-10.609-9.772-8.332c0,0-6.848,1.254-6.941,5.078S224.155,361.191,225.484,363.217Z" transform="translate(-161.829 -115.962)" fill="#1d242c" fill-rule="evenodd"/>
        <path id="Path_715" data-name="Path 715" d="M236.045,373.581s-.029-1.753-.825-1.922-8.357-1.208-9.334-.825l-.419,2.315S227.348,374.307,236.045,373.581Z" transform="translate(-161.826 -115.916)" fill="#d9c6bd" fill-rule="evenodd"/>
        <path id="Path_716" data-name="Path 716" d="M238.214,358.618c-.2-1.438-1.839-3.088-2.775-.85s.632,5.5,1.683,5.326S238.491,360.569,238.214,358.618Z" transform="translate(-161.807 -115.944)" fill="#eb936d" fill-rule="evenodd"/>
        <path id="Path_717" data-name="Path 717" d="M267.638,394.26h0Z" transform="translate(-161.743 -115.87)" fill="#0b193c" fill-rule="evenodd"/>
        <path id="Path_718" data-name="Path 718" d="M226.953,349.61s-8.894-.419-1.552,13.466Z" transform="translate(-161.832 -115.958)" fill="#1d242c" fill-rule="evenodd"/>
        <rect id="Rectangle_36" data-name="Rectangle 36" width="3.178" height="30.392" transform="translate(71.703 336.422)" fill="#7d706c"/>
        <rect id="Rectangle_37" data-name="Rectangle 37" width="18.741" height="1.791" transform="translate(63.921 334.806)" fill="#453e3a"/>
        <path id="Rectangle_38" data-name="Rectangle 38" d="M3.343,0H41.056A3.342,3.342,0,0,1,44.4,3.342v.1a3.341,3.341,0,0,1-3.341,3.341H3.341A3.341,3.341,0,0,1,0,3.442v-.1A3.343,3.343,0,0,1,3.343,0Z" transform="translate(51.216 328.023)" fill="#d9c6bd"/>
        <rect id="Rectangle_39" data-name="Rectangle 39" width="2.532" height="78.014" transform="translate(171.938 299.516)" fill="#584f4b"/>
        <path id="Rectangle_40" data-name="Rectangle 40" d="M3.334,0H62.349a3.334,3.334,0,0,1,3.334,3.334V43a3.334,3.334,0,0,1-3.334,3.334H3.335A3.335,3.335,0,0,1,0,43V3.334A3.334,3.334,0,0,1,3.334,0Z" transform="translate(89.358 236.74)" fill="#a89790"/>
        <rect id="Rectangle_41" data-name="Rectangle 41" width="60.538" height="36.568" transform="translate(91.931 239.246)" fill="#f4f7fc"/>
        <path id="Path_725" data-name="Path 725" d="M311.446,395.137A2.523,2.523,0,1,1,309,393.255,2.216,2.216,0,0,1,311.446,395.137Z" transform="translate(-161.667 -115.872)" fill="#7c6f69" fill-rule="evenodd"/>
        <path id="Path_726" data-name="Path 726" d="M297.516,410.987v-.825s-1.159-5.128-9.358-5.128-8.035,5.953-8.035,5.953Z" transform="translate(-161.719 -115.849)" fill="#847670" fill-rule="evenodd"/>
        <path id="Path_727" data-name="Path 727" d="M280.028,405.8a8.084,8.084,0,0,0,2.435-.531c.652-.395,4.556-3.02,5.474-2.6s7.021,2.29,6.808,3.182-.777.807-1.207.649a31.353,31.353,0,0,0-5.253-.932s4.354,1.588,4.371,2.746-.911,1.442-1.324,1.88-.909,1.526-2.03,1.61-6.6-1.822-7.723-1.908a27.306,27.306,0,0,1-3.354-.115A31.121,31.121,0,0,1,280.028,405.8Z" transform="translate(-161.722 -115.854)" fill="#eb936d" fill-rule="evenodd"/>
        <path id="Path_728" data-name="Path 728" d="M247.732,376.008c-5.679-1-11.658-2.432-11.658-2.432l-10.578-.431s-9.708,2.136-13.531,3.864c-.363.164-.365,8.661-1.36,10.888l3.169,6.687s1.832,13.246,2.211,19.137c.174,2.705-.493,26.138-.493,26.138s.95.468,8.169,1.264,25.256-.288,25.37-1.14-3.493-31.748-3.653-33.349c-.244-2.456.709-13.8.709-13.8,1.361,1.827,4.828,10.078,8.443,14,2.126,2.311,12.654,3.726,14.638,3.791,4.319.145,12.2,1,12.429.584.184-.251.686-6.994.193-7.159-.433-.143-15.064-.986-18.814-2.975-1.371-.727-5.472-9.667-5.472-9.667S250.865,377.415,247.732,376.008Z" transform="translate(-161.855 -115.911)" fill="#e66748" fill-rule="evenodd"/>
        <rect id="Rectangle_42" data-name="Rectangle 42" width="30.618" height="42.406" rx="6.418" transform="translate(40.843 280.865)" fill="#d9c6bd"/>
        <path id="Path_729" data-name="Path 729" d="M227.888,448.93a14.029,14.029,0,0,1-10.882-4.506c-6.121-6.758-5.021-18.637-4.972-19.139a1.7,1.7,0,0,1,3.391.336c-.013.135-.988,10.9,4.112,16.523a10.62,10.62,0,0,0,8.351,3.378,1.7,1.7,0,0,1,0,3.409Z" transform="translate(-161.852 -115.812)" fill="#d9c6bd" fill-rule="evenodd"/>
        <path id="Rectangle_43" data-name="Rectangle 43" d="M.477,0H17.256a.478.478,0,0,1,.478.478v.976a.479.479,0,0,1-.479.479H.478A.478.478,0,0,1,0,1.455V.477A.477.477,0,0,1,.477,0Z" transform="translate(96.223 242.157)" fill="#d7dae3"/>
        <path id="Rectangle_44" data-name="Rectangle 44" d="M.479,0H17.256a.478.478,0,0,1,.478.478v.976a.478.478,0,0,1-.478.478H.478A.478.478,0,0,1,0,1.454V.479A.479.479,0,0,1,.479,0Z" transform="translate(96.223 246.302)" fill="#d7dae3"/>
        <path id="Rectangle_45" data-name="Rectangle 45" d="M1.606,0H16.127a1.607,1.607,0,0,1,1.607,1.607V20.241a1.607,1.607,0,0,1-1.607,1.607H1.608A1.608,1.608,0,0,1,0,20.24V1.606A1.606,1.606,0,0,1,1.606,0Z" transform="translate(96.223 251.055)" fill="#d7dae3"/>
        <path id="Rectangle_46" data-name="Rectangle 46" d="M2.545,0h26.49a2.544,2.544,0,0,1,2.544,2.544V28.2a2.545,2.545,0,0,1-2.545,2.545H2.545A2.545,2.545,0,0,1,0,28.2V2.545A2.545,2.545,0,0,1,2.545,0Z" transform="translate(117.536 242.157)" fill="#d7dae3"/>
        <rect id="Rectangle_47" data-name="Rectangle 47" width="0.567" height="59.453" transform="translate(110.692 77.457)" fill="#d9d9d7"/>
        <rect id="Rectangle_48" data-name="Rectangle 48" width="0.567" height="59.453" transform="translate(150.984 77.457)" fill="#d9d9d7"/>
        <rect id="Rectangle_49" data-name="Rectangle 49" width="0.566" height="59.453" transform="translate(191.276 77.457)" fill="#d9d9d7"/>
        <rect id="Rectangle_50" data-name="Rectangle 50" width="0.567" height="59.453" transform="translate(231.567 77.457)" fill="#d9d9d7"/>
        <rect id="Rectangle_51" data-name="Rectangle 51" width="0.566" height="59.453" transform="translate(271.859 77.457)" fill="#d9d9d7"/>
        <rect id="Rectangle_52" data-name="Rectangle 52" width="6.411" height="2.067" transform="translate(110.976 140.431)" fill="#a9a8a7"/>
        <rect id="Rectangle_53" data-name="Rectangle 53" width="9.651" height="1.55" transform="translate(110.976 70.132)" fill="#d0cfcf"/>
        <rect id="Rectangle_54" data-name="Rectangle 54" width="13.69" height="1.548" transform="translate(110.976 72.996)" fill="#d0cfcf"/>
        <rect id="Rectangle_55" data-name="Rectangle 55" width="11.33" height="1.55" transform="translate(150.834 70.132)" fill="#d0cfcf"/>
        <rect id="Rectangle_56" data-name="Rectangle 56" width="7.244" height="1.548" transform="translate(150.834 72.996)" fill="#d0cfcf"/>
        <rect id="Rectangle_57" data-name="Rectangle 57" width="7.022" height="1.55" transform="translate(191.842 70.132)" fill="#d0cfcf"/>
        <rect id="Rectangle_58" data-name="Rectangle 58" width="8.184" height="1.548" transform="translate(191.842 72.996)" fill="#d0cfcf"/>
        <rect id="Rectangle_59" data-name="Rectangle 59" width="10.227" height="1.55" transform="translate(232.135 70.132)" fill="#d0cfcf"/>
        <rect id="Rectangle_60" data-name="Rectangle 60" width="8.183" height="1.548" transform="translate(232.135 72.996)" fill="#d0cfcf"/>
        <rect id="Rectangle_61" data-name="Rectangle 61" width="6.108" height="1.55" transform="translate(272.143 70.132)" fill="#d0cfcf"/>
        <rect id="Rectangle_62" data-name="Rectangle 62" width="4.887" height="1.548" transform="translate(272.143 72.996)" fill="#d0cfcf"/>
        <rect id="Rectangle_63" data-name="Rectangle 63" width="6.411" height="2.067" transform="translate(151.267 140.431)" fill="#a9a8a7"/>
        <rect id="Rectangle_64" data-name="Rectangle 64" width="6.411" height="2.067" transform="translate(191.842 140.431)" fill="#a9a8a7"/>
        <rect id="Rectangle_65" data-name="Rectangle 65" width="6.41" height="2.067" transform="translate(232.135 140.431)" fill="#a9a8a7"/>
        <rect id="Rectangle_66" data-name="Rectangle 66" width="6.411" height="2.067" transform="translate(272.425 140.431)" fill="#a9a8a7"/>
        <path id="Path_730" data-name="Path 730" d="M419.912,235.479c-12.566,0-23.491-5.433-34.881-11.1-14.059-6.992-28.6-14.221-47.969-12.242-12.369,1.263-20.133,6.3-26.983,10.745-6.2,4.026-12.067,7.564-20.008,7.867-12.835.487-17.288-4.987-17.362-5.321v-3.513c.016.061,2.819,6.206,17.348,6.133,7.156-.037,12.436-3.463,18.552-7.431,7.107-4.61,15.161-9.836,28.179-11.167,20.145-2.059,35.042,5.347,49.446,12.51,15.074,7.5,29.455,14.524,47.641,8.426v2.888A41.031,41.031,0,0,1,419.912,235.479Z" transform="translate(-161.733 -116.233)" fill-rule="evenodd" fill="url(#linear-gradient-19)"/>
        <path id="Path_731" data-name="Path 731" d="M344.479,234.821c-9.276,0-16.634-6.239-23.837-12.345-5.462-4.63-11.128-9.364-17.669-11.7-19.961-7.127-30.173,5.887-30.264,6v-3.959c.108-.135,1.93-2.5,7.2-4.759,4.8-2.057,12.849-3.7,23.953.166,7.035,2.446,12.877,7.4,18.527,12.19,11.461,9.718,21.361,18.109,38.549,4.965,13.02-9.956,25.295-19.444,37.369-22.91,11.813-3.392,24.127-.909,35.653,10.618l-.084,3.6c-24.484-24.593-45.333-9.012-71.3,10.841C355.7,232.784,349.776,234.821,344.479,234.821Z" transform="translate(-161.733 -116.249)" fill-rule="evenodd" fill="url(#linear-gradient-14)"/>
        <path id="Path_732" data-name="Path 732" d="M471.819,262.067a7.3,7.3,0,0,0-7.285,7.288v53.3a7.294,7.294,0,0,0,7.285,7.286h60.225a7.294,7.294,0,0,0,7.285-7.286v-53.3a7.3,7.3,0,0,0-7.285-7.288Zm60.225,68.889H471.819a8.307,8.307,0,0,1-8.3-8.3v-53.3a8.307,8.307,0,0,1,8.3-8.3h60.225a8.306,8.306,0,0,1,8.3,8.3v53.3A8.306,8.306,0,0,1,532.044,330.956Z" transform="translate(-161.359 -116.131)" fill="#68b3e5" fill-rule="evenodd"/>
        <path id="Path_737" data-name="Path 737" d="M565.422,381.945s3.191,9.488,2.772,17.663,1.651,17.124,2.5,25.663c.944,9.523,4.808,32.064,4.95,37.157s-.6,21.359-.6,21.359l-7.736.177s-6.5-39.407-8.18-43.428-10.027-32.688-10.307-35.9S565.422,381.945,565.422,381.945Z" transform="translate(-161.192 -115.894)" fill="#131a1f" fill-rule="evenodd"/>
        <path id="Path_738" data-name="Path 738" d="M532.949,383.635s-4.25,22.409-4.81,27.413-.934,24.217-1.215,27.345-1.872,40.927-3.366,45.573h9.891s7.59-27.479,7.59-40.48,5.864-28.264,9.652-36.842,12.451-8.781,14.781-24.7C565.472,381.947,536.1,378.588,532.949,383.635Z" transform="translate(-161.241 -115.896)" fill="#1f262a" fill-rule="evenodd"/>
        <path id="Path_739" data-name="Path 739" d="M553.018,307.2s-7.8-2.912-11.392,3.022-3.246,17.816.683,19.276,9.832.7,11.844-3.016,3.827-9.082,3.74-12.669S555.064,308.232,553.018,307.2Z" transform="translate(-161.211 -116.042)" fill="#eb936d" fill-rule="evenodd"/>
        <path id="Path_740" data-name="Path 740" d="M543.607,329.1a6.527,6.527,0,0,1-.205,3.051c-.52,1,9.807,1.031,9.807,1.031a67.945,67.945,0,0,1,2.426-10.1C557.226,318.455,543.607,329.1,543.607,329.1Z" transform="translate(-161.202 -116.012)" fill="#eb936d" fill-rule="evenodd"/>
        <path id="Path_741" data-name="Path 741" d="M555.642,323.113s-.709,1.176-3.62.72-6.458-4.327-7.673-4.752-1.226-1.138-1.226-1.138l-.762,1.111-1.29.08s1.176-3.461-.6-4.873,1.842-11.208,11.174-7.948c0,0,7.163,1.977,6.9,6.051S557.246,321.083,555.642,323.113Z" transform="translate(-161.209 -116.044)" fill="#ffc08d" fill-rule="evenodd"/>
        <path id="Path_742" data-name="Path 742" d="M542.792,332.016s.034-1.923.9-2.108,9.626-1.026,10.695-.605v2.241S552.328,332.812,542.792,332.016Z" transform="translate(-161.203 -115.998)" fill="#d9c6bd" fill-rule="evenodd"/>
        <path id="Path_743" data-name="Path 743" d="M543.31,316.443c.165-.684,1.9-2.638,2.567-.546s-1.007,4.9-1.939,4.664S542.894,318.175,543.31,316.443Z" transform="translate(-161.203 -116.026)" fill="#eb936d" fill-rule="evenodd"/>
        <path id="Path_744" data-name="Path 744" d="M542.856,332.011s-4.8,1.724-10.356,4.086a11.661,11.661,0,0,0-7.082,9.445c-.37,3.748-4.358,23.633-5.106,25.317s-9.595,28.715-9.9,29.276,7.218,3.687,7.715,3.438,8.566-24.655,9.378-26.463c0,0,4.643-14.633,4.769-16.815,0,0,.132,6.218.381,7.963s-4.13,35.631-4,36.566,19.9,2.123,27.818,1.25a96.917,96.917,0,0,0,14.3-2.694s-6.228-26.741-6.039-29.707c.42-6.46,2.575-18.627,2.575-18.627l6.455,12.168L565.5,388.467l1.891,6.459s15.351-23.2,15.849-25.317-.752-4.819-1.562-6.564-6.132-15.027-7.377-16.9-3.353-9.356-8.445-11.441a79.611,79.611,0,0,0-11.4-3.168Z" transform="translate(-161.267 -115.993)" fill="#e66748" fill-rule="evenodd"/>
        <rect id="Rectangle_67" data-name="Rectangle 67" width="26.045" height="37.335" transform="matrix(0.248, -0.969, 0.969, 0.248, 334.868, 287.118)" fill="#cdcecd"/>
        <path id="Path_745" data-name="Path 745" d="M507.264,405.507s-1.034,1.67-1.412,2.147.928.776,1.488.293S507.264,405.507,507.264,405.507Z" transform="translate(-161.276 -115.848)" fill="#bc6946" fill-rule="evenodd"/>
        <path id="Path_746" data-name="Path 746" d="M514.793,411.223a4.03,4.03,0,0,0,.742-1.045s.18-.762.344-1.3a3.8,3.8,0,0,1,.142-.407,7.337,7.337,0,0,0,.826-2.2c.161-1.03.609-5.656.609-5.656l-2.8-.706-2.252-.476s-4.859,4.849-5.121,5.793a2.714,2.714,0,0,0-.058.273,9.364,9.364,0,0,0,.071,1.93c-.01.16.015,1.769.389,2.07a1.569,1.569,0,0,0,1.485.358,3.75,3.75,0,0,0,1.934.727,2.333,2.333,0,0,0,2.026.378S514.18,411.617,514.793,411.223Z" transform="translate(-161.273 -115.86)" fill="#d88763" fill-rule="evenodd"/>
        <path id="Path_747" data-name="Path 747" d="M525.722,382s-6.42,19.44-7.6,21.479a21.166,21.166,0,0,1-7.715-3.438l7.043-20.979Z" transform="translate(-161.267 -115.9)" fill="#e66748" fill-rule="evenodd"/>
        <path id="Path_748" data-name="Path 748" d="M432.41,381.528a24.485,24.485,0,0,0-2.806-.167c-.9.05-4.887,2.287-6.23,2.224s-10.318-3-10.733-3.233.109-.877.109-.877l19.859-1.947Z" transform="translate(-161.459 -115.903)" fill="#eb936d" fill-rule="evenodd"/>
        <path id="Path_749" data-name="Path 749" d="M448.339,349.575l2.049,20.918s.894,2.584-4.963,3.535c-5.98.973-15.323,3-15.323,3s.155,6.977.944,7.018c2.278.121,19.247-2.751,25.969-4.172,5.33-1.125,1.99-29.644,1.99-29.644Z" transform="translate(-161.424 -115.958)" fill="#c72b2e" fill-rule="evenodd"/>
        <path id="Path_750" data-name="Path 750" d="M432.124,374.51a24.488,24.488,0,0,1-2.752.581c-.9.084-5.171-1.538-6.491-1.275s-9.76,4.495-10.136,4.788.238.85.238.85l19.927-1.019Z" transform="translate(-161.459 -115.91)" fill="#eb936d" fill-rule="evenodd"/>
        <path id="Path_753" data-name="Path 753" d="M442.709,387.548c-.157,1.872-.282,5.958-.376,10.251-.021.956-.038,1.92-.055,2.874-.106,5.781-.159,11.133-.159,11.133.274,7.27,1.424,23.006,3.59,26.542,2.921,4.769,6.31,44.463,6.31,44.463l10.732,1.153s.664-26.538-.94-33.469c-1.791-7.738-5.227-18.29-3.263-25.33,1.232-4.419,3.8-18.638,3.8-18.638s2.747-15.992-.1-28.267C461.534,375.193,442.709,387.548,442.709,387.548Z" transform="translate(-161.401 -115.902)" fill="#03112a" fill-rule="evenodd"/>
        <path id="Path_756" data-name="Path 756" d="M432.986,483.615h11s3.694-21.276,4-30.652a24.164,24.164,0,0,0-.03-2.591c-.159-1.988-.4-4.167-.615-6.423l-.005-.047c-.647-6.71-1.124-14.079,1.1-19.066,1.868-4.19,6.489-17.882,6.489-17.882s5.057-15.418,4.033-27.979c-.259-3.137-19.8,4.749-19.8,4.749a115.4,115.4,0,0,0-2.2,11.854c-2.645,24.39-1.654,40.278-1.654,40.278C436.805,441.243,432.986,483.615,432.986,483.615Z" transform="translate(-161.419 -115.901)" fill="#03112a" fill-rule="evenodd"/>
        <path id="Path_757" data-name="Path 757" d="M440.85,331.821s-3.821,9.074-4.607,13.933,2.436,18.166,2.58,20.914c.452,8.531.659,17.965.659,17.965l18.627,8.3a170.325,170.325,0,0,0,3.305-16.855,75.462,75.462,0,0,0-.486-22.624c-2.592-16.729-13.063-24.823-13.063-24.823Z" transform="translate(-161.413 -115.999)" fill="#c4ada5" fill-rule="evenodd"/>
        <path id="Path_758" data-name="Path 758" d="M426.742,315.533s-1.293,5,.057,5.393c1.112.326.063,5.176-.038,5.952s2.064.786,2.61,1.133,3.212,5.632,4.935,5.387,8.651-4.747,10.185-7.4.84-12.759-1.545-16.506S429.042,306.795,426.742,315.533Z" transform="translate(-161.432 -116.04)" fill="#eb936d" fill-rule="evenodd"/>
        <path id="Path_759" data-name="Path 759" d="M437.228,327.834s.135.49.328,1.247c.081.318.172.681.269,1.077.072.3.152.619.226.948.03.118.056.236.085.359.127.552.255,1.13.368,1.7a18.452,18.452,0,0,1,.483,3.709c-.1,2.23,7.857-8.317,7.857-8.317a107.916,107.916,0,0,1-2.667-15C443.363,305.526,437.228,327.834,437.228,327.834Z" transform="translate(-161.41 -116.032)" fill="#eb936d" fill-rule="evenodd"/>
        <path id="Path_760" data-name="Path 760" d="M426.506,316.609a6.981,6.981,0,0,1-.063-8.786c3.541-4.62,13.2-.424,14.178-.413s6.166-.917,5.889,8.865c-.246,8.708-.675,8.332-.675,8.332s-2.683-3.655-3.808-4.112c-1.754-.713-4.957.351-4.957.351s.537-4.515-2.038-4.5S428.74,315.089,426.506,316.609Z" transform="translate(-161.435 -116.044)" fill="#03112a" fill-rule="evenodd"/>
        <path id="Path_761" data-name="Path 761" d="M439.048,317.824c.075-.62.168-3.227,2.61-2.312s.182,6.341-.167,6.491S438.419,323.036,439.048,317.824Z" transform="translate(-161.407 -116.025)" fill="#eb936d" fill-rule="evenodd"/>
        <path id="Path_762" data-name="Path 762" d="M438.29,387.555s.856-4.02,1.021-4.621l25.132,4.181-.256,3.248S446.076,389.28,438.29,387.555Z" transform="translate(-161.408 -115.892)" fill="#0a0e1c" fill-rule="evenodd"/>
        <path id="Path_763" data-name="Path 763" d="M464.485,367.482a79.45,79.45,0,0,0,7.543,36.274c1.086,2.294-16.638,2.175-16.638,2.175Z" transform="translate(-161.375 -115.922)" fill="#e66748" fill-rule="evenodd"/>
        <path id="Path_764" data-name="Path 764" d="M438.625,352c.328,1.929.613,3.879.858,5.827h0c.49,3.886.824,7.783,1.039,11.586.023.4.043.793.064,1.185q.05.96.089,1.908.05,1.262.087,2.508a86.509,86.509,0,0,0,6.9,30.918s12.7.87,15.975-.908a261.249,261.249,0,0,0,1.245-38.727c-.079-1.486-.178-2.972-.3-4.446v0c-1.292-15.593-7.387-30.669-16.718-33.218C447.641,328.843,436.9,341.859,438.625,352Z" transform="translate(-161.408 -115.999)" fill="#e66748" fill-rule="evenodd"/>
        <rect id="Rectangle_68" data-name="Rectangle 68" width="33.187" height="3.04" transform="translate(236.04 263.764) rotate(-2.315)" fill="#6a574c"/>
        <rect id="Rectangle_69" data-name="Rectangle 69" width="3.04" height="33.187" transform="translate(224.935 235.567) rotate(-19.757)" fill="#6a574c"/>
        <path id="Path_765" data-name="Path 765" d="M442.9,433.9c.935,6.048,4.972,18.691,5.063,18.971a24.149,24.149,0,0,0-.03-2.591c-.159-1.988-.4-4.167-.615-6.423l-.005-.047c-.209-1.962-1.616-5.576-2.55-8.033-.945-2.478-1.863-12.3-1.863-12.3A31.173,31.173,0,0,0,442.9,433.9Z" transform="translate(-161.4 -115.813)" fill="#090b10" fill-rule="evenodd"/>
        <path id="Path_766" data-name="Path 766" d="M438.134,331.436c.127.552.255,1.13.368,1.7,2.342-1.608,5.03-5.882,5.2-6.148C442.744,328.375,438.2,331.387,438.134,331.436Z" transform="translate(-161.409 -116.002)" fill="#955d45" fill-rule="evenodd"/>
        <path id="Path_767" data-name="Path 767" d="M440.58,368.386q.035.582.063,1.156.051.938.089,1.863c2.852-.582,8.266-2.036,9.9-4.923,2.221-3.936-3.316-13.132-3.438-13.329.051.245,2.37,11.568,0,12.693C445.653,366.576,442.462,367.574,440.58,368.386Z" transform="translate(-161.404 -115.951)" fill="#9e1b20" fill-rule="evenodd"/>
        <path id="Path_768" data-name="Path 768" d="M438.675,339.528a68.919,68.919,0,0,0-.234,21.235c1.426,9.672,1.978,16.613,1.978,16.613L439.7,380.1l-1.3-2.1s-2.245-12.388-2.663-17.538c-.424-5.194-.868-12.17,2.138-21Z" transform="translate(-161.414 -115.977)" fill="#041027" fill-rule="evenodd"/>
        <path id="Path_769" data-name="Path 769" d="M438.8,339.544a1.388,1.388,0,0,1-.622.427c-.388.117-1.046-.429.57-3.393Z" transform="translate(-161.41 -115.983)" fill="#041027" fill-rule="evenodd"/>
        <path id="Path_770" data-name="Path 770" d="M446.565,327.425s-4.907,6.241-8.13,7.94l.126,5.254,9.3-11.982Z" transform="translate(-161.408 -116.001)" fill="#ead0c8" fill-rule="evenodd"/>
        <path id="Path_771" data-name="Path 771" d="M457.237,344.549c-.378-2.388-3.163-12.538-8.9-11.045s-4.121,8.4-2.87,13.6c1.309,5.445,6,18.594,5.18,19.415s-7.456,3.829-8.9,4.328-10.647,3.419-11.356,3.723c-.693.3,3.559,7.823,3.559,7.823s22.93-7.819,26.82-10.349S457.237,344.549,457.237,344.549Z" transform="translate(-161.424 -115.989)" fill="#e66748" fill-rule="evenodd"/>
      </g>
    </g>
  </g>
</svg>
