<svg xmlns="http://www.w3.org/2000/svg" width="173.65" height="36.748" viewBox="0 0 173.65 36.748">
  <g id="Group_1396" data-name="Group 1396" transform="translate(0)">
    <ellipse id="Ellipse_98" data-name="Ellipse 98" cx="2.779" cy="2.779" rx="2.779" ry="2.779" transform="translate(30.237 11.215)" fill="#fff"/>
    <path id="Path_6475" data-name="Path 6475" d="M505.977,377.445" transform="translate(-409.989 -377.445)" fill="#1f19ff"/>
    <path id="Path_6476" data-name="Path 6476" d="M233.848,437.768v-22h14.73v4.159H238.8v4.6h8.7v4.159h-8.7v9.079Z" transform="translate(-233.848 -402.251)" fill="#fff"/>
    <path id="Path_6477" data-name="Path 6477" d="M292.871,434.349q-.636-.159-1.492-.333a9.25,9.25,0,0,0-1.841-.175,8.608,8.608,0,0,0-1.064.079,6.291,6.291,0,0,0-.936.175v12.762h-4.73V431.047a28.547,28.547,0,0,1,3-.841,17.3,17.3,0,0,1,3.857-.4q.381,0,.921.048t1.079.127q.54.08,1.079.191a5.126,5.126,0,0,1,.921.27Z" transform="translate(-265.538 -411.339)" fill="#fff"/>
    <path id="Path_6478" data-name="Path 6478" d="M325.518,447.5h-4.73V430.8h4.73Z" transform="translate(-290.122 -411.98)" fill="#fff"/>
    <path id="Path_6479" data-name="Path 6479" d="M344.547,438.459a10.208,10.208,0,0,1,.682-3.889,8.331,8.331,0,0,1,1.794-2.778,7.459,7.459,0,0,1,2.555-1.682,8,8,0,0,1,2.968-.571,7.379,7.379,0,0,1,5.619,2.175q2.063,2.175,2.064,6.4,0,.413-.032.9t-.064.873H349.4a3.14,3.14,0,0,0,1.365,2.317,5.486,5.486,0,0,0,3.238.857,13.667,13.667,0,0,0,2.555-.238,9.635,9.635,0,0,0,2.048-.587l.635,3.841a6.562,6.562,0,0,1-1.016.381,13.331,13.331,0,0,1-1.413.333q-.778.143-1.667.238a16.677,16.677,0,0,1-1.778.1,10.522,10.522,0,0,1-3.921-.667,7.633,7.633,0,0,1-2.762-1.825,7.24,7.24,0,0,1-1.619-2.746A10.873,10.873,0,0,1,344.547,438.459Zm11.111-1.81a4.907,4.907,0,0,0-.206-1.175,2.942,2.942,0,0,0-.54-1.016,2.88,2.88,0,0,0-.921-.73,3,3,0,0,0-1.381-.286,3.176,3.176,0,0,0-1.365.27,2.831,2.831,0,0,0-.952.714,3.2,3.2,0,0,0-.587,1.032,6.759,6.759,0,0,0-.3,1.19Z" transform="translate(-305.5 -411.164)" fill="#fff"/>
    <path id="Path_6480" data-name="Path 6480" d="M399.357,430.671a26.485,26.485,0,0,1,3.111-.651,25.565,25.565,0,0,1,4-.3,9.753,9.753,0,0,1,3.54.555,5.328,5.328,0,0,1,2.238,1.571,6.137,6.137,0,0,1,1.175,2.413,12.852,12.852,0,0,1,.349,3.111V446.8h-4.73v-8.857a6.38,6.38,0,0,0-.6-3.238,2.461,2.461,0,0,0-2.254-.952q-.508,0-1.079.048t-1.016.111V446.8h-4.73Z" transform="translate(-340.977 -411.281)" fill="#fff"/>
    <path id="Path_6481" data-name="Path 6481" d="M465.639,432.394q-.635.191-1.46.365t-1.73.3q-.9.126-1.841.206t-1.794.079a10.5,10.5,0,0,1-3.683-.6,7.388,7.388,0,0,1-2.73-1.73,7.5,7.5,0,0,1-1.7-2.73,10.409,10.409,0,0,1-.588-3.6,12.323,12.323,0,0,1,.508-3.667,7.974,7.974,0,0,1,1.46-2.778,6.252,6.252,0,0,1,2.333-1.746,7.827,7.827,0,0,1,3.159-.6,7.419,7.419,0,0,1,1.762.191,9.578,9.578,0,0,1,1.572.539v-7.555l4.73-.762Zm-10.7-7.936a5.793,5.793,0,0,0,.984,3.524,3.4,3.4,0,0,0,2.92,1.333q.635,0,1.175-.048t.889-.111v-8.6a4.116,4.116,0,0,0-1.159-.476,5.586,5.586,0,0,0-1.444-.19Q454.94,419.886,454.941,424.458Z" transform="translate(-373.831 -397.416)" fill="#fff"/>
    <path id="Path_6482" data-name="Path 6482" d="M509.712,443.285a4.716,4.716,0,0,0,1.841-.254.981.981,0,0,0,.54-.984,1.206,1.206,0,0,0-.7-1,13.33,13.33,0,0,0-2.127-.968,21.575,21.575,0,0,1-2.016-.857,5.927,5.927,0,0,1-1.54-1.063,4.3,4.3,0,0,1-.984-1.476,5.464,5.464,0,0,1-.349-2.064,4.462,4.462,0,0,1,1.746-3.714,7.6,7.6,0,0,1,4.794-1.365,15.4,15.4,0,0,1,2.92.27,13.639,13.639,0,0,1,2.223.587l-.826,3.682a17.465,17.465,0,0,0-1.794-.508,9.772,9.772,0,0,0-2.174-.222q-2.222,0-2.222,1.238a1.27,1.27,0,0,0,.1.508,1.081,1.081,0,0,0,.381.429,5.348,5.348,0,0,0,.778.446q.491.24,1.254.528a19.431,19.431,0,0,1,2.571,1.137,6.143,6.143,0,0,1,1.6,1.209,3.738,3.738,0,0,1,.826,1.442,6.408,6.408,0,0,1,.238,1.837,4.234,4.234,0,0,1-1.857,3.738,9.265,9.265,0,0,1-5.254,1.267,15.093,15.093,0,0,1-3.7-.381,14.929,14.929,0,0,1-2.048-.635l.794-3.841a15.473,15.473,0,0,0,2.476.746A12.046,12.046,0,0,0,509.712,443.285Z" transform="translate(-408.667 -411.164)" fill="#fff"/>
    <path id="Path_6483" data-name="Path 6483" d="M621.155,415.049q4.921,0,7.556,1.73t2.635,5.667q0,3.969-2.667,5.73t-7.619,1.762H619.5V437.3h-4.953V415.62a28.063,28.063,0,0,1,3.428-.444Q619.79,415.049,621.155,415.049Zm.318,4.222q-.54,0-1.064.032t-.9.063v6.349h1.555a8.429,8.429,0,0,0,3.873-.7,2.683,2.683,0,0,0,1.3-2.6,3.124,3.124,0,0,0-.333-1.524,2.536,2.536,0,0,0-.952-.968,4.3,4.3,0,0,0-1.508-.508A12.448,12.448,0,0,0,621.473,419.271Z" transform="translate(-480.267 -401.785)" fill="#fff"/>
    <path id="Path_6484" data-name="Path 6484" d="M687.274,437.768q-2.128-3.777-4.6-7.46a75.917,75.917,0,0,0-5.27-6.952v14.412h-4.889v-22h4.032q1.048,1.048,2.318,2.571t2.587,3.254q1.317,1.731,2.619,3.587t2.444,3.571V415.769h4.92v22Z" transform="translate(-517.782 -402.251)" fill="#fff"/>
    <path id="Path_6485" data-name="Path 6485" d="M562.793,417.685a.272.272,0,0,0,.493-.037l12.532-33.573a.755.755,0,0,0-.707-1.018h0a.754.754,0,0,0-.665.4L562.7,404.678l-10.147-7.72a.586.586,0,0,0-.76.058h0a.586.586,0,0,0-.1.7Z" transform="translate(-439.533 -381.077)" fill="#ffc10b"/>
  </g>
</svg>
