<?xml version="1.0" standalone="no"?>
<!DOCTYPE svg PUBLIC "-//W3C//DTD SVG 20010904//EN"
 "http://www.w3.org/TR/2001/REC-SVG-20010904/DTD/svg10.dtd">
<svg version="1.0" xmlns="http://www.w3.org/2000/svg"
 width="1176.000000pt" height="597.000000pt" viewBox="0 0 1176.000000 597.000000"
 preserveAspectRatio="xMidYMid meet">

<g transform="translate(0.000000,597.000000) scale(0.100000,-0.100000)"
fill="#000000" stroke="none">
<path d="M3981 5614 c-99 -83 -9 -243 110 -194 45 19 69 56 69 107 0 38 -5 50
-34 79 -44 44 -99 47 -145 8z m121 -5 c32 -17 51 -74 38 -114 -30 -90 -162
-83 -186 9 -8 32 12 82 40 101 24 18 79 20 108 4z"/>
<path d="M4022 5564 c-12 -8 -22 -26 -22 -38 0 -54 77 -64 95 -12 8 24 6 31
-14 47 -28 23 -31 23 -59 3z"/>
<path d="M1413 4995 c-83 -36 -90 -160 -11 -201 49 -25 96 -18 134 20 28 28
34 42 34 75 0 51 -24 89 -67 107 -40 17 -49 17 -90 -1z m105 -30 c38 -32 46
-65 28 -110 -28 -67 -114 -79 -161 -23 -75 89 44 208 133 133z"/>
<path d="M1422 4928 c-18 -18 -14 -53 9 -74 19 -17 23 -17 47 -3 32 17 39 50
17 73 -19 19 -56 21 -73 4z"/>
<path d="M11100 4992 c-22 -10 -42 -32 -54 -55 -37 -77 17 -157 108 -157 56 0
106 52 106 109 0 51 -24 89 -67 107 -42 18 -51 18 -93 -4z m108 -27 c55 -46
44 -133 -20 -159 -44 -19 -83 -10 -113 26 -75 89 44 208 133 133z"/>
<path d="M11112 4928 c-18 -18 -14 -53 9 -74 19 -17 23 -17 47 -3 32 17 39 50
17 73 -19 19 -56 21 -73 4z"/>
<path d="M2231 4874 c-51 -43 -54 -118 -6 -166 85 -85 231 12 185 123 -30 71
-120 93 -179 43z m102 7 c58 -22 85 -89 57 -142 -17 -30 -68 -52 -106 -45 -90
17 -100 151 -14 185 32 13 34 13 63 2z"/>
<path d="M2273 4828 c-29 -38 -12 -88 31 -88 30 0 46 18 46 52 0 40 -54 65
-77 36z"/>
<path d="M5846 4789 c-61 -17 -93 -78 -75 -144 13 -47 55 -75 112 -75 37 0 51
5 76 31 26 26 31 38 31 79 0 40 -5 53 -30 78 -32 32 -70 42 -114 31z m104 -44
c58 -59 14 -160 -70 -160 -78 0 -126 90 -80 148 42 53 104 58 150 12z"/>
<path d="M5846 4714 c-30 -30 -9 -84 33 -84 22 0 51 30 51 53 0 21 -27 47 -50
47 -10 0 -26 -7 -34 -16z"/>
<path d="M7372 4635 c-63 -53 -79 -127 -44 -195 20 -38 89 -80 132 -80 43 0
112 42 132 80 34 65 20 137 -36 190 -21 19 -40 25 -89 28 -57 4 -66 1 -95 -23z
m155 -15 c94 -57 74 -195 -34 -231 -70 -23 -151 34 -160 113 -11 103 104 174
194 118z"/>
<path d="M7427 4569 c-27 -16 -39 -55 -25 -84 22 -48 99 -46 116 2 21 62 -36
114 -91 82z"/>
<path d="M8566 4456 c-77 -29 -126 -99 -126 -182 0 -229 329 -267 379 -44 33
147 -113 278 -253 226z m127 -30 c44 -18 95 -78 103 -122 13 -70 -26 -148 -90
-178 -110 -52 -236 26 -236 146 0 73 28 117 95 152 37 19 85 20 128 2z"/>
<path d="M8595 4349 c-33 -19 -45 -41 -45 -80 0 -45 36 -79 84 -79 103 1 113
147 10 165 -16 3 -38 0 -49 -6z"/>
<path d="M3188 4424 c-76 -41 -74 -159 2 -199 103 -53 208 53 154 156 -26 52
-102 73 -156 43z m123 -33 c38 -39 39 -87 3 -130 -56 -66 -164 -25 -164 63 0
52 44 96 95 96 27 0 44 -8 66 -29z"/>
<path d="M3212 4358 c-21 -21 -15 -68 11 -77 44 -17 86 39 57 75 -15 17 -52
18 -68 2z"/>
<path d="M1900 4327 c-135 -71 -109 -267 40 -307 153 -41 271 148 167 267 -58
66 -132 80 -207 40z m153 -24 c41 -20 67 -70 67 -126 0 -42 -5 -53 -38 -88
-31 -33 -46 -42 -83 -46 -89 -10 -159 50 -159 136 0 117 106 178 213 124z"/>
<path d="M1960 4252 c-31 -10 -50 -36 -50 -69 0 -65 71 -96 118 -53 53 50 0
143 -68 122z"/>
<path d="M6280 4128 c-126 -85 -69 -278 83 -278 91 0 150 59 151 150 0 86 -54
142 -144 148 -45 3 -61 0 -90 -20z m177 -42 c28 -31 33 -43 33 -87 0 -46 -4
-55 -39 -90 -33 -33 -45 -39 -82 -39 -56 0 -106 30 -125 75 -18 45 -18 69 3
112 24 52 67 75 127 70 42 -4 55 -10 83 -41z"/>
<path d="M6332 4058 c-46 -23 -39 -105 11 -122 58 -21 115 66 70 106 -26 22
-55 28 -81 16z"/>
<path d="M8060 3237 c-46 -31 -72 -77 -72 -132 0 -162 217 -217 294 -75 25 46
20 125 -10 167 -45 63 -149 83 -212 40z m148 -17 c80 -49 94 -143 29 -207 -86
-86 -227 -30 -227 91 0 102 112 168 198 116z"/>
<path d="M8097 3153 c-25 -29 -26 -73 -1 -97 21 -22 77 -20 97 2 22 25 21 75
-1 95 -24 22 -75 22 -95 0z"/>
<path d="M6453 2840 c-18 -4 -49 -20 -68 -34 -112 -86 -95 -265 30 -326 131
-64 280 26 280 170 -1 128 -119 221 -242 190z m104 -31 c40 -15 91 -67 104
-107 24 -71 -15 -163 -83 -198 -22 -11 -49 -15 -90 -12 -47 4 -64 10 -89 34
-44 41 -59 76 -59 132 0 63 30 109 90 140 49 24 84 28 127 11z"/>
<path d="M6480 2733 c-89 -33 -72 -164 22 -163 86 1 117 106 45 151 -33 20
-42 21 -67 12z"/>
<path d="M3190 2413 c-76 -39 -89 -128 -28 -185 24 -22 40 -28 75 -28 38 0 50
5 79 34 37 37 45 82 22 130 -24 53 -93 76 -148 49z m111 -31 c52 -47 39 -130
-24 -157 -43 -18 -82 -9 -112 27 -42 49 -28 114 30 146 35 19 73 14 106 -16z"/>
<path d="M3202 2348 c-28 -28 -2 -88 38 -88 11 0 27 11 36 25 15 23 15 27 0
50 -18 27 -54 33 -74 13z"/>
<path d="M3635 1866 c-154 -68 -108 -296 59 -296 99 0 160 64 154 160 -5 67
-27 102 -84 130 -46 23 -86 25 -129 6z m133 -33 c33 -21 62 -73 62 -113 0
-109 -133 -171 -214 -100 -19 17 -40 47 -47 67 -37 113 96 211 199 146z"/>
<path d="M3652 1770 c-39 -37 -24 -94 31 -113 26 -10 65 12 75 42 24 68 -53
120 -106 71z"/>
<path d="M6304 1671 c-95 -58 -111 -172 -36 -253 110 -118 300 -26 279 135 -6
47 -31 83 -77 115 -42 28 -122 30 -166 3z m164 -30 c17 -12 38 -41 47 -65 58
-152 -150 -259 -245 -126 -45 64 -19 168 53 204 41 21 105 16 145 -13z"/>
<path d="M6339 1582 c-28 -23 -30 -73 -4 -102 27 -30 78 -27 105 7 52 66 -35
148 -101 95z"/>
<path d="M9462 1383 c-49 -24 -75 -68 -80 -132 -6 -97 55 -161 153 -161 93 0
155 62 155 155 0 120 -119 192 -228 138z m134 -19 c95 -45 98 -191 5 -239
-132 -68 -266 100 -164 207 47 50 98 61 159 32z"/>
<path d="M9487 1292 c-33 -37 -14 -104 33 -113 34 -7 70 11 77 39 9 34 5 52
-14 75 -21 23 -75 22 -96 -1z"/>
</g>
</svg>
