<svg xmlns="http://www.w3.org/2000/svg" width="27.7" height="22.498" viewBox="0 0 27.7 22.498">
  <path id="Icon_awesome-twitter" data-name="Icon awesome-twitter" d="M24.853,8.988c.018.246.018.492.018.738,0,7.505-5.712,16.153-16.153,16.153A16.043,16.043,0,0,1,0,23.33a11.745,11.745,0,0,0,1.371.07,11.37,11.37,0,0,0,7.048-2.426,5.687,5.687,0,0,1-5.308-3.937,7.159,7.159,0,0,0,1.072.088,6,6,0,0,0,1.494-.193A5.678,5.678,0,0,1,1.125,11.36v-.07a5.717,5.717,0,0,0,2.566.721A5.686,5.686,0,0,1,1.933,4.418a16.137,16.137,0,0,0,11.706,5.941,6.409,6.409,0,0,1-.141-1.3,5.683,5.683,0,0,1,9.825-3.884,11.177,11.177,0,0,0,3.6-1.371,5.662,5.662,0,0,1-2.5,3.129A11.381,11.381,0,0,0,27.7,6.052,12.2,12.2,0,0,1,24.853,8.988Z" transform="translate(0 -3.381)" fill="#f5f5f5"/>
</svg>
