<svg xmlns="http://www.w3.org/2000/svg" width="24.238" height="24.237" viewBox="0 0 24.238 24.237">
  <path id="Icon_awesome-linkedin-in" data-name="Icon awesome-linkedin-in" d="M5.425,24.238H.4V8.056H5.425ZM2.91,5.849A2.924,2.924,0,1,1,5.82,2.911,2.935,2.935,0,0,1,2.91,5.849ZM24.232,24.238H19.218V16.361c0-1.877-.038-4.285-2.613-4.285-2.613,0-3.013,2.04-3.013,4.15v8.013H8.573V8.056h4.819v2.207h.07A5.28,5.28,0,0,1,18.217,7.65c5.086,0,6.02,3.349,6.02,7.7v8.889Z" transform="translate(0 -0.001)" fill="#f5f5f5"/>
</svg>
