<svg xmlns="http://www.w3.org/2000/svg" width="23.736" height="23.737" viewBox="0 0 23.736 23.737">
  <path id="Icon_metro-instagram" data-name="Icon metro-instagram" d="M22.367,1.928H6.511A3.952,3.952,0,0,0,2.571,5.869V21.724a3.952,3.952,0,0,0,3.941,3.941H22.367a3.952,3.952,0,0,0,3.941-3.941V5.869a3.952,3.952,0,0,0-3.941-3.941Zm-12.2,10.385h8.54a4.52,4.52,0,1,1-8.54,0Zm13.171,0v8.9A1.488,1.488,0,0,1,21.857,22.7H7.021a1.488,1.488,0,0,1-1.484-1.484v-8.9H7.858a6.745,6.745,0,1,0,13.161,0H23.34Zm0-5.194a.744.744,0,0,1-.742.742H21.115a.744.744,0,0,1-.742-.742V5.637a.744.744,0,0,1,.742-.742H22.6a.744.744,0,0,1,.742.742Z" transform="translate(-2.571 -1.928)" fill="#f5f5f5"/>
</svg>
