<svg xmlns="http://www.w3.org/2000/svg" xmlns:xlink="http://www.w3.org/1999/xlink" width="717.902" height="491.706" viewBox="0 0 717.902 491.706">
  <defs>
    <linearGradient id="linear-gradient" y1="0.5" x2="1" y2="0.5" gradientUnits="objectBoundingBox">
      <stop offset="0" stop-color="#f84e49"/>
      <stop offset="1" stop-color="#ffc10b"/>
    </linearGradient>
    <clipPath id="clip-path">
      <rect id="Rectangle_764" data-name="Rectangle 764" width="717.902" height="491.706" transform="translate(0)" fill="none"/>
    </clipPath>
    <clipPath id="clip-path-2">
      <rect id="Rectangle_743" data-name="Rectangle 743" width="717.902" height="491.706" fill="none"/>
    </clipPath>
    <clipPath id="clip-path-3">
      <rect id="Rectangle_728" data-name="Rectangle 728" width="204.804" height="18.861" fill="none"/>
    </clipPath>
    <clipPath id="clip-path-4">
      <rect id="Rectangle_729" data-name="Rectangle 729" width="375.54" height="18.861" fill="none"/>
    </clipPath>
    <clipPath id="clip-path-5">
      <rect id="Rectangle_730" data-name="Rectangle 730" width="238.626" height="18.861" fill="none"/>
    </clipPath>
    <clipPath id="clip-path-6">
      <rect id="Rectangle_731" data-name="Rectangle 731" width="47.735" height="9.98" fill="none"/>
    </clipPath>
    <clipPath id="clip-path-7">
      <rect id="Rectangle_732" data-name="Rectangle 732" width="90.489" height="90.489" fill="none"/>
    </clipPath>
    <clipPath id="clip-path-8">
      <rect id="Rectangle_733" data-name="Rectangle 733" width="53.715" height="53.715" fill="none"/>
    </clipPath>
    <clipPath id="clip-path-9">
      <rect id="Rectangle_734" data-name="Rectangle 734" width="113.798" height="153.391" fill="none"/>
    </clipPath>
    <clipPath id="clip-path-10">
      <rect id="Rectangle_735" data-name="Rectangle 735" width="129.728" height="137.272" fill="none"/>
    </clipPath>
    <clipPath id="clip-path-11">
      <rect id="Rectangle_736" data-name="Rectangle 736" width="105.301" height="52.303" fill="none"/>
    </clipPath>
    <clipPath id="clip-path-12">
      <rect id="Rectangle_737" data-name="Rectangle 737" width="188.291" height="9.364" fill="none"/>
    </clipPath>
    <clipPath id="clip-path-13">
      <rect id="Rectangle_738" data-name="Rectangle 738" width="188.291" height="9.366" fill="none"/>
    </clipPath>
    <clipPath id="clip-path-18">
      <path id="Path_9923" data-name="Path 9923" d="M-372.474,8.631c-19.982,6.635-41.41,5.837-41.41,5.837s0,72.662,24.915,101.935c23.4,27.491,50.853,32.336,50.853,32.336s27.459-4.845,50.857-32.336c24.915-29.273,24.915-101.935,24.915-101.935s-21.429.8-41.41-5.837c-22.313-7.411-34.362-21.1-34.362-21.1S-350.16,1.22-372.474,8.631" transform="translate(413.884 12.473)" fill="url(#linear-gradient)"/>
    </clipPath>
    <clipPath id="clip-path-20">
      <rect id="Rectangle_745" data-name="Rectangle 745" width="128.368" height="134.462" fill="#24275d"/>
    </clipPath>
    <clipPath id="clip-path-21">
      <path id="Path_9926" data-name="Path 9926" d="M-376.787,12.781A136.6,136.6,0,0,1-407.5,18.813c1.5,23.775,6.742,61.394,20.86,77.981,15.608,18.339,32.949,24.778,39.53,26.673,6.579-1.895,23.918-8.334,39.528-26.673,14.078-16.537,19.327-54.188,20.848-77.981a136.725,136.725,0,0,1-30.7-6.032A104.814,104.814,0,0,1-347.111-2.658a104.874,104.874,0,0,1-29.676,15.439" transform="translate(407.501 2.658)" fill="#ffc10b"/>
    </clipPath>
    <clipPath id="clip-path-23">
      <rect id="Rectangle_748" data-name="Rectangle 748" width="75.77" height="161.214" fill="none"/>
    </clipPath>
    <clipPath id="clip-path-24">
      <path id="Path_9930" data-name="Path 9930" d="M-437.679-41.428A18.221,18.221,0,0,0-455.9-23.208v8.677h315.863v-8.677a18.219,18.219,0,0,0-18.22-18.22Z" transform="translate(455.901 41.428)" fill="#ffc10b"/>
    </clipPath>
    <clipPath id="clip-path-26">
      <path id="Path_9980" data-name="Path 9980" d="M-279.467-57.774c2.578-3.489,12.222-15.177,25.518-15.177s22.938,11.688,25.52,15.177c-2.582,3.487-12.226,15.177-25.52,15.177s-22.94-11.69-25.518-15.177m-3.68-.969-.625.969.625.969c.468.724,11.69,17.773,29.2,17.773s28.729-17.049,29.2-17.773l.625-.969-.625-.969c-.47-.724-11.692-17.773-29.2-17.773s-28.731,17.049-29.2,17.773" transform="translate(283.772 76.516)" fill="none"/>
    </clipPath>
    <clipPath id="clip-path-27">
      <path id="Path_9982" data-name="Path 9982" d="M-274.237-61.875a10.605,10.605,0,0,0,10.605,10.6,10.6,10.6,0,0,0,10.6-10.6,10.6,10.6,0,0,0-10.6-10.6,10.6,10.6,0,0,0-10.605,10.6" transform="translate(274.237 72.478)" fill="url(#linear-gradient)"/>
    </clipPath>
    <clipPath id="clip-path-29">
      <path id="Path_9984" data-name="Path 9984" d="M-524.358-39.07a3.32,3.32,0,0,0-3.32,3.322V-5.1a3.319,3.319,0,0,0,3.32,3.322h4.279l10.664,7-1.354-7h33.449A3.319,3.319,0,0,0-474-5.1V-35.748a3.321,3.321,0,0,0-3.322-3.322Z" transform="translate(527.678 39.07)" fill="#ffc10b"/>
    </clipPath>
    <clipPath id="clip-path-31">
      <path id="Path_9988" data-name="Path 9988" d="M-499.131-39.015h-30.228l30.228,28.741,30.224-28.741Z" transform="translate(529.359 39.015)" fill="none"/>
    </clipPath>
    <clipPath id="clip-path-33">
      <path id="Rectangle_760" data-name="Rectangle 760" d="M3.188,0h97.478a3.188,3.188,0,0,1,3.188,3.188V68.957a3.189,3.189,0,0,1-3.189,3.189H3.188A3.188,3.188,0,0,1,0,68.958V3.188A3.188,3.188,0,0,1,3.188,0Z" fill="none"/>
    </clipPath>
    <clipPath id="clip-path-34">
      <path id="Path_9995" data-name="Path 9995" d="M-302.5-87.008l-2.947,15.2,23.156-15.2Z" transform="translate(305.449 87.008)" fill="none"/>
    </clipPath>
  </defs>
  <g id="Group_1355" data-name="Group 1355" transform="translate(573.001 121.982)">
    <g id="Group_1354" data-name="Group 1354" transform="translate(-573.001 -121.982)" clip-path="url(#clip-path)">
      <g id="Group_1315" data-name="Group 1315" transform="translate(12.928)">
        <g id="Group_1314" data-name="Group 1314" clip-path="url(#clip-path-2)">
          <g id="Group_1271" data-name="Group 1271" transform="translate(9.275 395.756)" opacity="0.55" style="mix-blend-mode: multiply;isolation: isolate">
            <g id="Group_1270" data-name="Group 1270" transform="translate(0 0)">
              <g id="Group_1269" data-name="Group 1269" clip-path="url(#clip-path-3)">
                <path id="Path_9888" data-name="Path 9888" d="M-353.6,83.806c0,5.208-45.846,9.43-102.4,9.43s-102.4-4.222-102.4-9.43,45.848-9.43,102.4-9.43,102.4,4.222,102.4,9.43" transform="translate(558.399 -74.375)" fill="#d9e8ff"/>
              </g>
            </g>
          </g>
          <g id="Group_1274" data-name="Group 1274" transform="translate(188.91 411.612)" opacity="0.55" style="mix-blend-mode: multiply;isolation: isolate">
            <g id="Group_1273" data-name="Group 1273" transform="translate(0 0)">
              <g id="Group_1272" data-name="Group 1272" clip-path="url(#clip-path-4)">
                <path id="Path_9889" data-name="Path 9889" d="M-93.731,91.674c0,5.208-84.068,9.43-187.771,9.43s-187.769-4.222-187.769-9.43S-385.2,82.242-281.5,82.242s187.771,4.224,187.771,9.432" transform="translate(469.272 -82.243)" fill="#d9e8ff"/>
              </g>
            </g>
          </g>
          <g id="Group_1277" data-name="Group 1277" transform="translate(479.277 449.252)" opacity="0.55" style="mix-blend-mode: multiply;isolation: isolate">
            <g id="Group_1276" data-name="Group 1276" transform="translate(0 0)">
              <g id="Group_1275" data-name="Group 1275" clip-path="url(#clip-path-5)">
                <path id="Path_9890" data-name="Path 9890" d="M-86.578,110.348c0,5.21-53.418,9.433-119.313,9.433S-325.2,115.559-325.2,110.348s53.416-9.43,119.313-9.43,119.313,4.222,119.313,9.43" transform="translate(325.203 -100.918)" fill="#d9e8ff"/>
              </g>
            </g>
          </g>
          <g id="Group_1280" data-name="Group 1280" transform="translate(431.542 444.356)" opacity="0.55" style="mix-blend-mode: multiply;isolation: isolate">
            <g id="Group_1279" data-name="Group 1279">
              <g id="Group_1278" data-name="Group 1278" clip-path="url(#clip-path-6)">
                <path id="Path_9891" data-name="Path 9891" d="M-301.153,103.479c0,2.755-10.686,4.99-23.867,4.99s-23.867-2.235-23.867-4.99,10.686-4.99,23.867-4.99,23.867,2.235,23.867,4.99" transform="translate(348.887 -98.489)" fill="#d9e8ff"/>
              </g>
            </g>
          </g>
          <g id="Group_1283" data-name="Group 1283" transform="translate(422.482 124.863)" opacity="0.5">
            <g id="Group_1282" data-name="Group 1282">
              <g id="Group_1281" data-name="Group 1281" clip-path="url(#clip-path-7)">
                <path id="Path_9892" data-name="Path 9892" d="M-263.239-9.194a45.221,45.221,0,0,0,.161-9.684,45.232,45.232,0,0,0-1.9-9.5l-11.627,2.8a33.192,33.192,0,0,0-4.736-9.015l8.906-7.979a45.472,45.472,0,0,0-14.8-12.331l-6.246,10.2A33.1,33.1,0,0,0-303.2-47.74l.653-11.944a45.479,45.479,0,0,0-9.684-.161,45.488,45.488,0,0,0-9.5,1.9l2.8,11.629a33.15,33.15,0,0,0-9.013,4.734l-7.979-8.9a45.472,45.472,0,0,0-12.331,14.8l10.2,6.246a33.1,33.1,0,0,0-3.031,9.719l-11.942-.653a45.326,45.326,0,0,0-.165,9.682,45.6,45.6,0,0,0,1.907,9.5l11.629-2.793a33.112,33.112,0,0,0,4.734,9.011l-8.9,7.981a45.429,45.429,0,0,0,14.8,12.331l6.244-10.2a33.07,33.07,0,0,0,9.721,3.031l-.655,11.942a45.343,45.343,0,0,0,9.684.163,45.335,45.335,0,0,0,9.5-1.907l-2.8-11.627A33.1,33.1,0,0,0-288.328,12l7.981,8.906a45.474,45.474,0,0,0,12.331-14.8l-10.2-6.244a33.047,33.047,0,0,0,3.031-9.721ZM-306.465,3.613a18.474,18.474,0,0,1-20.068-16.727,18.472,18.472,0,0,1,16.725-20.068,18.472,18.472,0,0,1,20.068,16.727A18.472,18.472,0,0,1-306.465,3.613" transform="translate(353.383 60.03)" fill="#b3c9ff"/>
              </g>
            </g>
          </g>
          <g id="Group_1286" data-name="Group 1286" transform="translate(384.819 69.434)" opacity="0.5">
            <g id="Group_1285" data-name="Group 1285">
              <g id="Group_1284" data-name="Group 1284" clip-path="url(#clip-path-8)">
                <path id="Path_9893" data-name="Path 9893" d="M-318.561-57.357a26.93,26.93,0,0,0,.1-5.75,27.07,27.07,0,0,0-1.131-5.635l-6.9,1.659a19.646,19.646,0,0,0-2.812-5.349l5.287-4.738a26.967,26.967,0,0,0-8.784-7.318l-3.707,6.053a19.592,19.592,0,0,0-5.768-1.8l.387-7.09a27.048,27.048,0,0,0-5.748-.095,26.8,26.8,0,0,0-5.637,1.131l1.659,6.9a19.643,19.643,0,0,0-5.349,2.81l-4.738-5.285a26.99,26.99,0,0,0-7.32,8.781l6.055,3.706a19.744,19.744,0,0,0-1.8,5.77l-7.09-.389a26.937,26.937,0,0,0-.095,5.75,26.934,26.934,0,0,0,1.131,5.635l6.905-1.659a19.591,19.591,0,0,0,2.808,5.351l-5.285,4.738a27.015,27.015,0,0,0,8.783,7.318l3.7-6.052a19.744,19.744,0,0,0,5.77,1.8l-.389,7.088a26.931,26.931,0,0,0,5.75.1,26.954,26.954,0,0,0,5.637-1.131l-1.659-6.905a19.616,19.616,0,0,0,5.349-2.81l4.736,5.287a27,27,0,0,0,7.32-8.783l-6.054-3.706a19.6,19.6,0,0,0,1.8-5.768Zm-25.659,7.6a10.966,10.966,0,0,1-11.911-9.928A10.963,10.963,0,0,1-346.2-71.594a10.964,10.964,0,0,1,11.911,9.926,10.966,10.966,0,0,1-9.928,11.914" transform="translate(372.069 87.533)" fill="#b3c9ff"/>
              </g>
            </g>
          </g>
          <path id="Path_9894" data-name="Path 9894" d="M-276.869,106.349c5.655-7.086,11.482-14.528,13.316-23.4,1.7-8.225,4.13-17.24,3.838-25.635a68,68,0,0,1,4.037-24.724c8.7-24.871,19.095-20.784,22.765-18.375,3.606,2.366,4.918,6.772,4.311,13.54-.486,5.446-7.373,30.365,1.354,27.622,10.1-3.174,13.048-29.716,15.64-38.359,3.88-12.931,11.031-26.377,22.269-34.306,5.539-3.906,13.276-6.317,18.948-2.6,3.4,2.221,5.27,6.2,6.1,10.17,2.491,11.968-2.967,23.408-8.794,33.516C-175.521,28.017-193.4,46.735-180.5,46.3c3.084-.1,30.748-16.731,30.676,4.047-.026,7.316-9.005,13.711-22.952,21.372-8.709,4.783-40.155,16.194-39.655,24.351s18.472-2.542,14.689,12.065c-2.122,8.181-13.788,12.816-21.588,15.036-3.71,1.054-7.619,1.366-11.252,2.662-4.311,1.538-9.886,5.859-7.389,11.055,1.09,2.269,3.576,3.644,4.591,5.95A7.159,7.159,0,0,1-234.724,150a16.6,16.6,0,0,1-6.246,4.333c-14.923,6.786-32.469,6.006-48.033.861s-29.462-14.332-42.613-24.119" transform="translate(797.969 223.775)" fill="#acc9f9"/>
          <g id="Group_1289" data-name="Group 1289" transform="translate(522.132 215.77)" opacity="0.25">
            <g id="Group_1288" data-name="Group 1288" transform="translate(0 0)">
              <g id="Group_1287" data-name="Group 1287" clip-path="url(#clip-path-9)">
                <path id="Path_9895" data-name="Path 9895" d="M-212.531-14.427s-27.566,84.82-87.037,132.448" transform="translate(308.381 15.433)" fill="none" stroke="#fff" stroke-linecap="round" stroke-linejoin="round" stroke-width="1"/>
                <path id="Path_9896" data-name="Path 9896" d="M-219.28,15.482s-32.314,19.331-56.958,19.629" transform="translate(332.072 45.805)" fill="none" stroke="#fff" stroke-linecap="round" stroke-linejoin="round" stroke-width="1"/>
                <path id="Path_9897" data-name="Path 9897" d="M-283.2,1.2c-3.239,13.472-9.191,51.461,1.457,71.471" transform="translate(320.322 31.299)" fill="none" stroke="#fff" stroke-linecap="round" stroke-linejoin="round" stroke-width="1"/>
                <path id="Path_9898" data-name="Path 9898" d="M-246.01,43.44s-12.814,8.566-49.121,8.175" transform="translate(312.887 74.196)" fill="none" stroke="#fff" stroke-linecap="round" stroke-linejoin="round" stroke-width="1"/>
                <path id="Path_9899" data-name="Path 9899" d="M-269.311,66.09s-18.889.957-34.13-10.755" transform="translate(304.448 86.275)" fill="none" stroke="#fff" stroke-linecap="round" stroke-linejoin="round" stroke-width="1"/>
              </g>
            </g>
          </g>
          <path id="Path_9900" data-name="Path 9900" d="M-245.09,112.444c-6.566-22.608-1.689-46.985,6.065-69.212,1.864-5.341,4-10.8,7.989-14.808,2.04-2.05,4.867-3.733,7.7-3.158,4.162.844,5.913,5.8,6.383,10.023,2.961,26.649-14.6,51.074-19.04,77.516" transform="translate(882.717 271.395)" fill="#bdd0ff"/>
          <path id="Path_9901" data-name="Path 9901" d="M-240.643,80.724c-1.284-6.71-3.076-13.393-6.26-19.437s-7.865-11.45-13.909-14.634c-2.683-1.413-6.262-2.263-8.53-.25-2.493,2.211-1.691,6.288-.22,9.275,8.066,16.368,28.674,23.7,36.512,40.181" transform="translate(859.578 291.764)" fill="#bdd0ff"/>
          <path id="Path_9902" data-name="Path 9902" d="M-243.532,103.535c-5.113-9.545-10.047-19.294-12.871-29.749s-3.422-21.769.1-32.006c1.088-3.158,3.8-6.772,6.955-5.684a6.334,6.334,0,0,1,2.767,2.364c5.881,7.741,8.139,17.631,9.2,27.3s1.1,19.478,3.219,28.967a8.149,8.149,0,0,0,1.709,3.936,3.044,3.044,0,0,0,3.91.615,4.151,4.151,0,0,0,1.2-2.082c1.35-4.226,22.317-47.761,41.313-50.818a14.432,14.432,0,0,1,4.652-.163c23.819,3.956-29.843,53.733-30.246,61.144,19.417-16.642,23.529-19.709,32.369-21.3,6.81-1.227,18.678,4.813,14.774,13.139-2.7,5.76-9.441,8.334-15.68,9.58-6.814,1.358-13.818,1.8-20.5,3.694s-13.262,5.555-16.664,11.615" transform="translate(871.978 282.308)" fill="#bdd0ff"/>
          <path id="Path_9903" data-name="Path 9903" d="M-411.548,50.435c-19.175-10.09-7.873-28.727-10.712-40.882-4.674-20.01-9.981-24.023-20.935-20.115-5.357,1.913-8.348,9.7-9.537,14.735-1.888,8-.453,16.315.631,24.317.939,6.921,5.067,21.888-3.194,24.524s-9.529-8.31-19.542-16.255c-4.5-3.571-16.648-5.069-19.339,3.8-4.781,15.743,2.64,23.235,39.893,44.091,6.347,3.553,20.076,7.29,19.278,10.853-.788,3.531-10.487-.709-17.647,1.733-11.573,3.95-6.353,11.232-2.282,13.584,32.383,18.708,58.7,10.474,71.35,16.331,5.508,2.548,9.16,7.818,13.471,12.093,9.529,9.453,13.129,7.786,26.546,7.441,7.842-.2,15.888-2.423,21.745-7.643,2.39-2.13,4.491-5.345,3.424-8.364-.677-1.919-2.455-3.2-4.182-4.267-12.079-7.471-26.332-10.718-38.693-17.706A73.207,73.207,0,0,1-396.94,57.617" transform="translate(631.576 233.764)" fill="#acc9f9"/>
          <g id="Group_1292" data-name="Group 1292" transform="translate(146.137 235.647)" opacity="0.25">
            <g id="Group_1291" data-name="Group 1291">
              <g id="Group_1290" data-name="Group 1290" clip-path="url(#clip-path-10)">
                <path id="Path_9904" data-name="Path 9904" d="M-467.458-4.564c-.073,5.26,1.125,10.448,2.314,15.572C-461.106,28.407-457,46-448.968,61.959c10.5,20.889,27.187,37.94,44.1,54.082,5.954,5.682,12.137,11.41,19.7,14.653" transform="translate(513.882 5.572)" fill="none" stroke="#fff" stroke-linecap="round" stroke-linejoin="round" stroke-width="1"/>
                <path id="Path_9905" data-name="Path 9905" d="M-489.993,19.036c18.972,18.712,45.534,27.493,71.635,32.858" transform="translate(491.002 29.537)" fill="none" stroke="#fff" stroke-linecap="round" stroke-linejoin="round" stroke-width="1"/>
                <path id="Path_9906" data-name="Path 9906" d="M-469.271,47.061c14.608,2.959,43.728,9.58,56.484,7.05" transform="translate(512.045 57.996)" fill="none" stroke="#fff" stroke-linecap="round" stroke-linejoin="round" stroke-width="1"/>
              </g>
            </g>
          </g>
          <path id="Path_9907" data-name="Path 9907" d="M-208.4-61.961l9.495-7.072a58.876,58.876,0,0,0-18.123-18.121l-7.07,9.495a46.442,46.442,0,0,0-13.217-5.48l1.715-11.728a58.609,58.609,0,0,0-12.817-1.449,58.609,58.609,0,0,0-12.816,1.449l1.715,11.728a46.465,46.465,0,0,0-13.218,5.48l-7.07-9.495a58.861,58.861,0,0,0-18.123,18.123l9.495,7.07a46.5,46.5,0,0,0-5.48,13.218l-11.73-1.717a58.792,58.792,0,0,0-1.445,12.818,58.792,58.792,0,0,0,1.445,12.819l11.73-1.717a46.523,46.523,0,0,0,5.48,13.218l-9.495,7.07A58.883,58.883,0,0,0-279.8,11.87l7.07-9.495a46.522,46.522,0,0,0,13.218,5.48l-1.715,11.728a58.732,58.732,0,0,0,12.816,1.447A58.732,58.732,0,0,0-235.6,19.584l-1.715-11.728A46.5,46.5,0,0,0-224.1,2.375l7.07,9.495A58.882,58.882,0,0,0-198.9-6.253l-9.495-7.07a46.41,46.41,0,0,0,5.48-13.218l11.73,1.717a58.791,58.791,0,0,0,1.447-12.819,58.791,58.791,0,0,0-1.447-12.818l-11.73,1.717a46.387,46.387,0,0,0-5.48-13.218M-248.414-6.5a31.141,31.141,0,0,1-31.141-31.141,31.143,31.143,0,0,1,31.141-31.143,31.144,31.144,0,0,1,31.143,31.143A31.143,31.143,0,0,1-248.414-6.5" transform="translate(822.878 148.044)" fill="#b3c9ff"/>
          <path id="Path_9908" data-name="Path 9908" d="M-416.383-40.567l3.985-5.726a34.67,34.67,0,0,0-13.516-6.736l-2.175,6.627a27.333,27.333,0,0,0-8.411-.591l-1.233-6.873a34.66,34.66,0,0,0-7.433,1.588,34.6,34.6,0,0,0-6.891,3.2l3.154,6.234a27.383,27.383,0,0,0-6.363,5.533l-5.724-3.983a34.647,34.647,0,0,0-6.736,13.514L-461.1-25.6a27.339,27.339,0,0,0-.59,8.411l-6.873,1.233a34.636,34.636,0,0,0,1.588,7.433,34.548,34.548,0,0,0,3.2,6.891l6.232-3.152A27.429,27.429,0,0,0-452,1.577L-455.985,7.3a34.7,34.7,0,0,0,13.514,6.736l2.175-6.627A27.4,27.4,0,0,0-431.886,8l1.234,6.875a34.757,34.757,0,0,0,7.433-1.588,34.606,34.606,0,0,0,6.891-3.207l-3.152-6.23a27.515,27.515,0,0,0,6.361-5.535L-407.4,2.3a34.7,34.7,0,0,0,6.738-13.516l-6.627-2.175A27.4,27.4,0,0,0-406.7-21.8l6.875-1.233a34.645,34.645,0,0,0-1.588-7.433,34.665,34.665,0,0,0-3.207-6.891l-6.23,3.154a27.346,27.346,0,0,0-5.537-6.361M-428.609-2.815a17.592,17.592,0,0,1-22.263-11.1,17.59,17.59,0,0,1,11.1-22.263,17.59,17.59,0,0,1,22.263,11.1,17.593,17.593,0,0,1-11.1,22.263" transform="translate(658.902 191.154)" fill="#b3c9ff"/>
          <path id="Path_9909" data-name="Path 9909" d="M-140.038,217.282H-455.9V-23.206a18.222,18.222,0,0,1,18.22-18.222h279.423a18.221,18.221,0,0,1,18.22,18.222Z" transform="translate(671.759 203.783)" fill="#fff"/>
          <g id="Group_1295" data-name="Group 1295" transform="translate(238.791 349.224)" opacity="0.55">
            <g id="Group_1294" data-name="Group 1294">
              <g id="Group_1293" data-name="Group 1293" clip-path="url(#clip-path-11)">
                <path id="Path_9910" data-name="Path 9910" d="M-343.4,103.59H-440.34a4.182,4.182,0,0,1-4.182-4.182V55.47a4.182,4.182,0,0,1,4.182-4.182H-343.4a4.182,4.182,0,0,1,4.182,4.182V99.408a4.182,4.182,0,0,1-4.182,4.182" transform="translate(444.523 -51.288)" fill="#dbe0fe"/>
              </g>
            </g>
          </g>
          <g id="Group_1298" data-name="Group 1298" transform="translate(238.791 202.034)" opacity="0.55">
            <g id="Group_1297" data-name="Group 1297" transform="translate(0 0)">
              <g id="Group_1296" data-name="Group 1296" clip-path="url(#clip-path-12)">
                <path id="Path_9911" data-name="Path 9911" d="M-258.6-12.377H-442.156a2.366,2.366,0,0,1-2.366-2.368v-4.632a2.364,2.364,0,0,1,2.366-2.364H-258.6a2.367,2.367,0,0,1,2.368,2.364v4.632a2.369,2.369,0,0,1-2.368,2.368" transform="translate(444.523 21.741)" fill="#dbe0fe"/>
              </g>
            </g>
          </g>
          <g id="Group_1301" data-name="Group 1301" transform="translate(238.791 221.385)" opacity="0.55">
            <g id="Group_1300" data-name="Group 1300" transform="translate(0 0)">
              <g id="Group_1299" data-name="Group 1299" clip-path="url(#clip-path-13)">
                <path id="Path_9912" data-name="Path 9912" d="M-258.6-2.775H-442.156a2.366,2.366,0,0,1-2.366-2.368V-9.775a2.364,2.364,0,0,1,2.366-2.364H-258.6a2.367,2.367,0,0,1,2.368,2.364v4.632A2.369,2.369,0,0,1-258.6-2.775" transform="translate(444.523 12.141)" fill="#dbe0fe"/>
              </g>
            </g>
          </g>
          <g id="Group_1304" data-name="Group 1304" transform="translate(238.791 240.738)" opacity="0.55">
            <g id="Group_1303" data-name="Group 1303" transform="translate(0 0)">
              <g id="Group_1302" data-name="Group 1302" clip-path="url(#clip-path-12)">
                <path id="Path_9913" data-name="Path 9913" d="M-258.6,6.827H-442.156a2.366,2.366,0,0,1-2.366-2.368V-.173a2.364,2.364,0,0,1,2.366-2.364H-258.6a2.367,2.367,0,0,1,2.368,2.364V4.459A2.369,2.369,0,0,1-258.6,6.827" transform="translate(444.523 2.539)" fill="#dbe0fe"/>
              </g>
            </g>
          </g>
          <g id="Group_1307" data-name="Group 1307" transform="translate(238.791 260.088)" opacity="0.55">
            <g id="Group_1306" data-name="Group 1306" transform="translate(0 0)">
              <g id="Group_1305" data-name="Group 1305" clip-path="url(#clip-path-13)">
                <path id="Path_9914" data-name="Path 9914" d="M-258.6,16.428H-442.156a2.366,2.366,0,0,1-2.366-2.368V9.428a2.364,2.364,0,0,1,2.366-2.364H-258.6a2.367,2.367,0,0,1,2.368,2.364V14.06a2.369,2.369,0,0,1-2.368,2.368" transform="translate(444.523 -7.062)" fill="#dbe0fe"/>
              </g>
            </g>
          </g>
          <g id="Group_1310" data-name="Group 1310" transform="translate(238.791 279.441)" opacity="0.55">
            <g id="Group_1309" data-name="Group 1309">
              <g id="Group_1308" data-name="Group 1308" clip-path="url(#clip-path-12)">
                <path id="Path_9915" data-name="Path 9915" d="M-258.6,26.03H-442.156a2.366,2.366,0,0,1-2.366-2.368V19.03a2.364,2.364,0,0,1,2.366-2.364H-258.6a2.367,2.367,0,0,1,2.368,2.364v4.632A2.369,2.369,0,0,1-258.6,26.03" transform="translate(444.523 -16.664)" fill="#dbe0fe"/>
              </g>
            </g>
          </g>
          <g id="Group_1313" data-name="Group 1313" transform="translate(238.791 298.793)" opacity="0.55">
            <g id="Group_1312" data-name="Group 1312" transform="translate(0 0)">
              <g id="Group_1311" data-name="Group 1311" clip-path="url(#clip-path-12)">
                <path id="Path_9916" data-name="Path 9916" d="M-258.6,35.631H-442.156a2.366,2.366,0,0,1-2.366-2.368V28.631a2.364,2.364,0,0,1,2.366-2.364H-258.6a2.367,2.367,0,0,1,2.368,2.364v4.632a2.369,2.369,0,0,1-2.368,2.368" transform="translate(444.523 -26.266)" fill="#dbe0fe"/>
              </g>
            </g>
          </g>
          <path id="Path_9917" data-name="Path 9917" d="M-347.461,71.513l1.877,3.8,4.192.611-3.033,2.955.713,4.176-3.749-1.971-3.749,1.971.715-4.176-3.033-2.955,4.192-.611Z" transform="translate(775.718 318.473)" fill="#dbe0fe"/>
          <path id="Path_9918" data-name="Path 9918" d="M-338.234,71.513l1.876,3.8,4.192.611-3.035,2.955.715,4.176-3.749-1.971-3.749,1.971.715-4.176-3.033-2.955,4.192-.611Z" transform="translate(785.087 318.473)" fill="#dbe0fe"/>
          <path id="Path_9919" data-name="Path 9919" d="M-329.007,71.513l1.874,3.8,4.192.611-3.033,2.955.715,4.176-3.749-1.971-3.749,1.971.715-4.176-3.035-2.955,4.192-.611Z" transform="translate(794.456 318.473)" fill="#dbe0fe"/>
          <path id="Path_9920" data-name="Path 9920" d="M-319.78,71.513l1.874,3.8,4.192.611-3.033,2.955.715,4.176-3.749-1.971-3.749,1.971.713-4.176-3.033-2.955,4.192-.611Z" transform="translate(803.825 318.473)" fill="#dbe0fe"/>
          <path id="Path_9921" data-name="Path 9921" d="M-310.556,71.513l1.876,3.8,4.192.611-3.033,2.955.716,4.176-3.751-1.971-3.749,1.971.716-4.176-3.033-2.955,4.192-.611Z" transform="translate(813.195 318.473)" fill="#dbe0fe"/>
        </g>
      </g>
      <g id="Group_1317" data-name="Group 1317" transform="translate(313.47 220.714)">
        <path id="Path_9922" data-name="Path 9922" d="M-372.474,8.631c-19.982,6.635-41.41,5.837-41.41,5.837s0,72.662,24.915,101.935c23.4,27.491,50.853,32.336,50.853,32.336s27.459-4.845,50.857-32.336c24.915-29.273,24.915-101.935,24.915-101.935s-21.429.8-41.41-5.837c-22.313-7.411-34.362-21.1-34.362-21.1S-350.16,1.22-372.474,8.631" transform="translate(413.884 12.473)" fill="url(#linear-gradient)"/>
        <g id="Group_1316" data-name="Group 1316" transform="translate(0 0)" clip-path="url(#clip-path-18)">
          <rect id="Rectangle_744" data-name="Rectangle 744" width="151.54" height="161.213" transform="translate(0.001 0)" fill="url(#linear-gradient)"/>
        </g>
      </g>
      <g id="Group_1322" data-name="Group 1322" transform="translate(12.928)">
        <g id="Group_1321" data-name="Group 1321" clip-path="url(#clip-path-2)">
          <g id="Group_1320" data-name="Group 1320" transform="translate(309.607 235.888)" opacity="0.75">
            <g id="Group_1319" data-name="Group 1319" transform="translate(0 0)">
              <g id="Group_1318" data-name="Group 1318" clip-path="url(#clip-path-20)">
                <path id="Path_9924" data-name="Path 9924" d="M-345.2,129.518c-6.19-1.7-25.474-8.312-42.281-28.062-15.406-18.1-20.651-59.743-21.9-83.657a136.291,136.291,0,0,0,33.37-6.127A101.247,101.247,0,0,0-345.2-4.943a101.205,101.205,0,0,0,30.809,16.616A136.365,136.365,0,0,0-281.017,17.8c-1.252,23.912-6.5,65.554-21.906,83.657-16.807,19.75-36.089,26.359-42.279,28.062" transform="translate(409.386 4.945)" fill="#24275d"/>
              </g>
            </g>
          </g>
        </g>
      </g>
      <g id="Group_1324" data-name="Group 1324" transform="translate(326.335 240.496)">
        <path id="Path_9925" data-name="Path 9925" d="M-376.787,12.781A136.6,136.6,0,0,1-407.5,18.813c1.5,23.775,6.742,61.394,20.86,77.981,15.608,18.339,32.949,24.778,39.53,26.673,6.579-1.895,23.918-8.334,39.528-26.673,14.078-16.537,19.327-54.188,20.848-77.981a136.725,136.725,0,0,1-30.7-6.032A104.814,104.814,0,0,1-347.111-2.658a104.874,104.874,0,0,1-29.676,15.439" transform="translate(407.501 2.658)" fill="url(#linear-gradient)"/>
        <g id="Group_1323" data-name="Group 1323" transform="translate(0 0)" clip-path="url(#clip-path-21)">
          <rect id="Rectangle_747" data-name="Rectangle 747" width="120.766" height="126.125" transform="translate(0.001 0)" fill="#ffc10b"/>
        </g>
      </g>
      <g id="Group_1329" data-name="Group 1329" transform="translate(12.928)">
        <g id="Group_1328" data-name="Group 1328" clip-path="url(#clip-path-2)">
          <path id="Path_9927" data-name="Path 9927" d="M-358.4,27.471a12.725,12.725,0,0,1-12.724,12.724,12.724,12.724,0,0,1-12.726-12.724,12.723,12.723,0,0,1,12.726-12.724A12.724,12.724,0,0,1-358.4,27.471" transform="translate(744.922 260.828)" fill="#fff"/>
          <path id="Path_9928" data-name="Path 9928" d="M-374.841,60.873h0a5.359,5.359,0,0,1-5.359-5.359V26.18a5.358,5.358,0,0,1,5.359-5.359,5.358,5.358,0,0,1,5.359,5.359V55.514a5.359,5.359,0,0,1-5.359,5.359" transform="translate(748.632 266.997)" fill="#fff"/>
          <g id="Group_1327" data-name="Group 1327" transform="translate(376.378 220.712)" opacity="0.3" style="mix-blend-mode: multiply;isolation: isolate">
            <g id="Group_1326" data-name="Group 1326" transform="translate(0 0)">
              <g id="Group_1325" data-name="Group 1325" clip-path="url(#clip-path-23)">
                <path id="Path_9929" data-name="Path 9929" d="M-343.179,8.632c-22.315-7.411-34.362-21.106-34.362-21.106V148.741s27.457-4.845,50.857-32.336c24.914-29.275,24.914-101.935,24.914-101.935s-21.429.8-41.408-5.837" transform="translate(377.54 12.474)" fill="#5890f4"/>
              </g>
            </g>
          </g>
        </g>
      </g>
      <g id="Group_1331" data-name="Group 1331" transform="translate(228.786 162.355)">
        <g id="Group_1330" data-name="Group 1330" transform="translate(0 0)" clip-path="url(#clip-path-24)">
          <rect id="Rectangle_750" data-name="Rectangle 750" width="315.863" height="26.897" transform="translate(0.001 0)" fill="#ffc10b"/>
        </g>
      </g>
      <g id="Group_1333" data-name="Group 1333" transform="translate(12.928)">
        <g id="Group_1332" data-name="Group 1332" clip-path="url(#clip-path-2)">
          <path id="Path_9931" data-name="Path 9931" d="M-319.5-33.286a2.918,2.918,0,0,1-2.918,2.918,2.918,2.918,0,0,1-2.918-2.918,2.918,2.918,0,0,1,2.918-2.918,2.918,2.918,0,0,1,2.918,2.918" transform="translate(804.349 209.088)" fill="#fff"/>
          <path id="Path_9932" data-name="Path 9932" d="M-312.3-33.286a2.918,2.918,0,0,1-2.918,2.918,2.918,2.918,0,0,1-2.918-2.918A2.918,2.918,0,0,1-315.22-36.2a2.918,2.918,0,0,1,2.918,2.918" transform="translate(811.655 209.088)" fill="#fff"/>
          <path id="Path_9933" data-name="Path 9933" d="M-305.106-33.286a2.918,2.918,0,0,1-2.918,2.918,2.918,2.918,0,0,1-2.918-2.918,2.918,2.918,0,0,1,2.918-2.918,2.918,2.918,0,0,1,2.918,2.918" transform="translate(818.962 209.088)" fill="#fff"/>
          <path id="Path_9934" data-name="Path 9934" d="M-480.653,124.492h-74.23c-14.485,0-12.133-17.176,28.162-9.533-9.886-4.521-9.944-10.571-9.106-12.184.772-1.485,3.594-2.437,5.259-2.3,5.125.441,9.017,3.582,13.508,6.091A28.83,28.83,0,0,1-529.905,81.9c.089-2.662.665-5.518,2.622-7.326,2.2-2.03,5.8-3.382,8.733-2.8,5.44,1.08,15.432,10.158,19.419,14.014-20.3-18.678-28.036-48.106-15.036-54.817,21.882-11.3,38.413,52.721,38.413,52.721s-10.886-48.11,7.373-48.394,3.412,55.891,3.412,55.891" transform="translate(563.001 275.947)" fill="#acc9f9"/>
          <path id="Path_9935" data-name="Path 9935" d="M-138.289,95.794a29.951,29.951,0,0,0-9.59,1.594A46.535,46.535,0,0,0-194.39,52.213a46.544,46.544,0,0,0-46.546,46.544c0,1.177.059,2.34.145,3.495a25.75,25.75,0,0,0-22.174-12.675,25.785,25.785,0,0,0-25.784,25.784,25.731,25.731,0,0,0,.7,5.861,18.392,18.392,0,0,0-8.979-2.33,18.488,18.488,0,0,0-18.486,18.486,18.485,18.485,0,0,0,18.486,18.486h158.744a30.033,30.033,0,0,0,30.035-30.033,30.037,30.037,0,0,0-30.035-30.037" transform="translate(814.315 298.875)" fill="#fff"/>
          <path id="Path_9936" data-name="Path 9936" d="M-514.631,75.118a21.247,21.247,0,0,1,6.824,1.133A33.107,33.107,0,0,1-474.72,44.112a33.112,33.112,0,0,1,33.11,33.112c0,.836-.04,1.663-.1,2.483a18.319,18.319,0,0,1,15.773-9.013A18.34,18.34,0,0,1-407.6,89.035a18.256,18.256,0,0,1-.494,4.172,13.057,13.057,0,0,1,6.385-1.661A13.151,13.151,0,0,1-388.552,104.7a13.15,13.15,0,0,1-13.153,13.149H-514.631A21.366,21.366,0,0,1-536,96.484a21.367,21.367,0,0,1,21.366-21.366" transform="translate(590.423 290.648)" fill="#fff"/>
          <path id="Path_9937" data-name="Path 9937" d="M-264.671,19.195l7.447-2.671a39.342,39.342,0,0,0-8.054-15.116l-6.369,4.69A31.115,31.115,0,0,0-279.029.019l3.382-7.163a39.265,39.265,0,0,0-7.911-3.424,39.293,39.293,0,0,0-8.475-1.572l-1.189,7.832a31.086,31.086,0,0,0-9.519.927l-2.669-7.449a39.393,39.393,0,0,0-15.118,8.054l4.692,6.373a31.121,31.121,0,0,0-6.081,7.381l-7.161-3.384a39.153,39.153,0,0,0-3.424,7.913,39.394,39.394,0,0,0-1.574,8.477l7.834,1.189a31,31,0,0,0,.927,9.515l-7.447,2.673a39.291,39.291,0,0,0,8.054,15.116l6.369-4.692a31.076,31.076,0,0,0,7.383,6.079l-3.384,7.165a39.4,39.4,0,0,0,7.913,3.422,39.269,39.269,0,0,0,8.475,1.572l1.189-7.83a31.268,31.268,0,0,0,9.517-.927l2.671,7.447a39.406,39.406,0,0,0,15.118-8.054l-4.692-6.371a31.156,31.156,0,0,0,6.079-7.381l7.163,3.38a39.141,39.141,0,0,0,3.422-7.911,39.143,39.143,0,0,0,1.574-8.477l-7.832-1.187a31.138,31.138,0,0,0-.927-9.517m-35.382,24.343a17.353,17.353,0,0,1-11.539-21.656,17.354,17.354,0,0,1,21.658-11.537A17.351,17.351,0,0,1-278.4,32a17.35,17.35,0,0,1-21.656,11.537" transform="translate(795.471 233.525)" fill="#dbe0fe"/>
          <path id="Path_9938" data-name="Path 9938" d="M-249.482,122.022c0,2.832-17.706,5.131-39.55,5.131s-39.548-2.3-39.548-5.131,17.706-5.133,39.548-5.133,39.55,2.3,39.55,5.133" transform="translate(801.052 364.552)" fill="#acc9f9"/>
          <path id="Path_9939" data-name="Path 9939" d="M-299.113,112.882s.5,5.462.7,6.851,4.646,1.191,5.115.433.294-7.179.294-7.179" transform="translate(830.975 360.483)" fill="#ffccb0"/>
          <path id="Path_9940" data-name="Path 9940" d="M-286.56,118.5a29.58,29.58,0,0,1-.147,3.852l-5.119.343-.31-.836a8.013,8.013,0,0,1-2.906,1.052l-4.321.292c-3.162.212-4.986-.071-5.1-.623-.492-2.3,3.3-2.451,4.279-2.517,2.826-.189,5.795-1.717,6.365-3.2.415-1.072.183-1.32.78-1.165a1.457,1.457,0,0,1,.929.7,2.6,2.6,0,0,0,2.767,1.276,3.084,3.084,0,0,0,1.673-.951,1.875,1.875,0,0,1,1.115,1.778" transform="translate(825.493 363.3)" fill="#7c3327"/>
          <path id="Path_9941" data-name="Path 9941" d="M-316.425,114.664a41.833,41.833,0,0,0,.238,5.248c.274,1.375,4.706.931,5.131.149s-.1-7.187-.1-7.187" transform="translate(813.393 360.475)" fill="#ffccb0"/>
          <path id="Path_9942" data-name="Path 9942" d="M-303.817,118.465c.121,1.453.113,4.2.113,4.2l-4.543,1.094-.578-.772a7.951,7.951,0,0,1-2.671,1.455,17.7,17.7,0,0,1-4.285.413c-3.753-.252-6.343-1.421-6.47-1.971-.54-2.294,4.45-2.007,5.462-2.09a6.587,6.587,0,0,0,5.45-3.825c.411-1.08.169-1.324.788-1.181a1.517,1.517,0,0,1,.97.681,2.7,2.7,0,0,0,2.872,1.223,3.235,3.235,0,0,0,1.717-.982,1.873,1.873,0,0,1,1.175,1.758" transform="translate(807.438 363.393)" fill="#7c3327"/>
          <path id="Path_9943" data-name="Path 9943" d="M-302.887,57.537c.443-.522.713,5.629,6.921,8.753,6.246,3.144,16.257,1.439,19.46.163,5.029-2,3.376-34.443-2.509-44.887-1.377-2.441-6.726-3.642-10-4.327-.931,8.8,2.455,30.291,7.435,39.346-.28,1.663-21.3.951-21.3.951" transform="translate(827.143 263.359)" fill="#f4713d"/>
          <path id="Path_9944" data-name="Path 9944" d="M-281.5,52.086c1.469-2.013-.732-24.593-.6-28.072l-6.925,12.6c1.24,5.168-3.924,14.237-10.108,14.173l-.889,1.252c3.644.847,17.055,2.058,18.524.044" transform="translate(830.05 270.239)" fill="#e25833"/>
          <path id="Path_9945" data-name="Path 9945" d="M-304.153,109.892a170.8,170.8,0,0,0,2.2,21.816c.943,4.841,11.9,1.929,11.623-2.358-.387-6.093,2.31-17.218,4.726-46.169.351-4.38,2.32-4.886,3.628-13.9,1.29-9.027-3.71-18.432-3.71-18.432l-18.7-1.2-.272,26.294-.083,8.892s-.046,12.2.588,25.057" transform="translate(825.258 296.271)" fill="#30334c"/>
          <path id="Path_9946" data-name="Path 9946" d="M-291.289,91.494s3.537,6.653,4.057,12.986c.76,9.267-.179,39.764-.179,39.764s-4.785,1.038-7.34.286c0,0-8.654-50.9-9.066-56.716s12.528,3.68,12.528,3.68" transform="translate(826.188 333.111)" fill="#30334c"/>
          <path id="Path_9947" data-name="Path 9947" d="M-304.153,105.793a163.2,163.2,0,0,1,6.133-17.067c3.029-6.456,4.8-10.327,4.8-10.327,10.71-11.238,1.151-24.714,1.151-24.714s-5.345,7.224-5.954,7.975c-.578.7-4.065,6.835-6.639,10.184l-.083,8.892s-.046,12.2.588,25.057" transform="translate(825.258 300.369)" fill="#262a3f"/>
          <path id="Path_9948" data-name="Path 9948" d="M-305.572,104.59c-.431-6.806,4.495-15.148,4.495-15.148s-14.274-10.938-14.5-13.476c0,0-2.033,16.021-2.761,20.963-1.268,8.584,3.015,57.55,3.015,57.55a17.641,17.641,0,0,0,7.234.1s.772-18.913,3.864-31.724c1.465-6.077-.836-16.581-1.348-18.266" transform="translate(811.216 322.995)" fill="#30334c"/>
          <path id="Path_9949" data-name="Path 9949" d="M-304.915,51.485c-5.573,12.438-11.625,52.57-13.077,66.424-.615,5.875,4.277,14.774,9.975,9.461,6.8-6.339,16.368-37.4,19.786-42.531s16.211-9.83,7.473-35.845" transform="translate(811.751 295.606)" fill="#30334c"/>
          <path id="Path_9950" data-name="Path 9950" d="M-286.21,32.474s-1.52-5.148-.855-8.945,2.943-10.636,2.088-15.763-7.312-9.4-14.147-8.735-8.832,7.215-9.971,11.015-.949,9.592-.665,12.726,2,5.6,3.134,6.266,5.426-.214,6.179.607,1.322,5.659,1.322,5.659" transform="translate(819.944 244.8)" fill="#ffccb0"/>
          <path id="Path_9951" data-name="Path 9951" d="M-286.807,20.6s-.129-3.019-1.1-4.156-7.945-1.645-10.059-1.514-7.465,2.368-8.189,2.872.415,3.477.415,3.477Z" transform="translate(823.579 260.995)" fill="#e25833"/>
          <path id="Path_9952" data-name="Path 9952" d="M-287.159,28.81s-9.34.254-11.3,0c-2.691-.351-5.97-2.455-6.21-5.682,2.285-.06,2.467-4.819,1.231-6.623s-2.81-.705-3,1.006-.012,1.171-.46,1.4c-.607.306-1.455.264-1.221-3.035a12.4,12.4,0,0,1,1.254-5.484c.853-1.9,1.316-1.792,2.088-2.136-.83-.4-1.729-.451-3.372-3.015-1.9-2.967-1.655-6.115,1.9-9.041.056.849,1.076,2.344,3.2,2.926,4.12,1.131,11.6.185,15.235,2.312,1.548.9,2.925,2.924,2.171,4.493,0,0,3-.474,3.18,5.458.363,12.018-3.7,13.1-3.987,14.955s.238,2.044-.713,2.471" transform="translate(820.61 241.989)" fill="#7c3327"/>
          <path id="Path_9953" data-name="Path 9953" d="M-310.749,84.007c.889.324,1.673.855,2.594,1.131,2.193.655,4.5.284,6.734.087,2.312-.208,4.626-.421,6.939-.6,12.075-.514,16.217,2.386,18.174-.548a3.363,3.363,0,0,0,.415-2.475c-.415-2.658-1.29-3.571-.939-6.244.3-2.241.714-4.916,1.3-7.973,1.991-10.579,5.942-26.737,6.478-36.454.764-13.907-13.365-13.786-13.365-13.786-20.761-1.294-28.495,4.684-29.626,13.6-.083.633-.131,1.314-.179,2.026-.532,9.2,2.08,28.223,3.408,39.318.367,3.055-3.7,11.271-1.929,11.918" transform="translate(817.585 263.084)" fill="#f4713d"/>
          <path id="Path_9954" data-name="Path 9954" d="M-311.37,77.519c.871.756,3.432.961,6.988.661-3.207.232-6.526-1.77-5.811-3.412.714-1.661,2.7-5.21,2.931-8.249.84-11.178.623-42.867,1.058-42.349-.5,1-1.927,2.392-5.946,3.324-.083,9.251,1.627,25.627,2.263,35.993.633,10.279-4.781,11.176-1.483,14.034" transform="translate(817.438 270.39)" fill="#e25833"/>
          <path id="Path_9955" data-name="Path 9955" d="M-333.144,12.325c.052-.54.75-.282.931.161a2.76,2.76,0,0,1,.1.385c-.069-.889-.115-1.612-.1-1.79.052-.512.7-.324.917.075-.016-.357-.022-.627-.014-.74.054-.657.758-.391.939.151a7.745,7.745,0,0,1,.163.9,4.387,4.387,0,0,1-.008-.5c.054-.54.677-.405.859.038a7.02,7.02,0,0,1,.194,1.044c.087.54.244,1.121.318,1.663.069.494.679,2.816,1.838,3.045,1.776.357.611-2.709,1.85-3.416.387-.224.836,2.161.885,3.511a14.831,14.831,0,0,1-.052,2.822,19.128,19.128,0,0,0-.456,2.413,11.713,11.713,0,0,0,.615,1.76l-4.085,1.7a10.377,10.377,0,0,0-1.1-3.007,11.266,11.266,0,0,1-3.265-4.777,19.858,19.858,0,0,1-.56-3.614s.006-1.651.024-1.828" transform="translate(796.393 256.037)" fill="#ffccb0"/>
          <path id="Path_9956" data-name="Path 9956" d="M-331.081,18.029s1.381,7.989,2.739,14.383a62.409,62.409,0,0,0,4.769,14.731c.016.034.016.083.032.117,1.346,2.922,4.678,7.248,6.268,7.979,7.78,3.586,25.476-17.275,29.567-15.961,8.395,2.241,14.633-21.741,14.633-21.741s-9.906.145-15.836,1.4c-6.355,1.35-23.305,22.547-24.16,22.6s-2.271-3.128-4.162-6.732c-4.237-8.086-8.935-18.274-8.935-18.274s-3.854,1.147-3.918,1.181Z" transform="translate(798.512 262.643)" fill="#f4713d"/>
          <path id="Path_9957" data-name="Path 9957" d="M-308.491,5.8s-2.959,4.428-2.6,5.377,3.2.887,3.2.887" transform="translate(818.777 251.748)" fill="#ffccb0"/>
          <path id="Path_9958" data-name="Path 9958" d="M-493.081,36.143c3.791,4.533,6.881,15.235,10.751,19.7,1.9,2.2,15.576,14.05,24.772,19.119.425-2.755,6.254-1.042,4.182-2.906-6.441-5.8-17.579-11.712-21.368-22.348-2.493-7-11.728-22.549-11.728-22.549" transform="translate(634.003 273.43)" fill="#db856e"/>
          <path id="Path_9959" data-name="Path 9959" d="M-419.825,70.952H-488.1v-41.7a5.914,5.914,0,0,1,5.915-5.915h25.732a2.754,2.754,0,0,1,1.778.649l6.254,5.273a2.915,2.915,0,0,0,1.886.689h20.794a5.915,5.915,0,0,1,5.915,5.915Z" transform="translate(639.062 269.546)" fill="#37f"/>
          <path id="Path_9960" data-name="Path 9960" d="M-429.067,60.643h-53.346a3.5,3.5,0,0,1-3.5-3.5V31.237a3.5,3.5,0,0,1,3.5-3.5h53.346a3.5,3.5,0,0,1,3.5,3.5V57.142a3.5,3.5,0,0,1-3.5,3.5" transform="translate(641.281 274.019)" fill="#fff"/>
          <path id="Path_9961" data-name="Path 9961" d="M-426.421,74.251H-481.5a6.6,6.6,0,0,1-6.6-6.6V37.64a6.6,6.6,0,0,1,6.6-6.6h55.081a6.6,6.6,0,0,1,6.6,6.6V67.654a6.6,6.6,0,0,1-6.6,6.6" transform="translate(639.062 277.377)" fill="#6490ff"/>
          <path id="Path_9962" data-name="Path 9962" d="M-455.5,44.4h-1.334V41.56a8.532,8.532,0,0,0-8.521-8.523,8.535,8.535,0,0,0-8.526,8.523V44.4h-1.334a1.658,1.658,0,0,0-1.659,1.659v13.3A4.935,4.935,0,0,0-471.94,64.3h13.161a4.935,4.935,0,0,0,4.938-4.936v-13.3A1.659,1.659,0,0,0-455.5,44.4m-15.253-2.836a5.4,5.4,0,0,1,5.4-5.4,5.4,5.4,0,0,1,5.393,5.4V44.4h-10.791Z" transform="translate(650.459 279.402)" fill="#2660ef"/>
          <path id="Path_9963" data-name="Path 9963" d="M-466.664,43.55a2.989,2.989,0,0,0-2.989-2.989,2.991,2.991,0,0,0-2.993,2.989,2.974,2.974,0,0,0,1.733,2.691V51.59a1.258,1.258,0,0,0,1.26,1.26,1.26,1.26,0,0,0,1.26-1.26V46.241a2.971,2.971,0,0,0,1.729-2.691" transform="translate(654.755 287.042)" fill="#fff"/>
          <path id="Path_9964" data-name="Path 9964" d="M-518.126,119.016c0,3.136,19.588,5.678,43.75,5.678s43.746-2.542,43.746-5.678-19.586-5.678-43.746-5.678-43.75,2.542-43.75,5.678" transform="translate(608.57 360.946)" fill="#acc9f9"/>
          <path id="Path_9965" data-name="Path 9965" d="M-485.494,58.058l-17.339-14.225s-7.826,10.928-4.68,21.322c1.55,5.115,3.438,7.633,4.277,10.057.784,2.265,6.385,34.4,6.032,36.756s-3.029,8.987-3.993,15.928c-1.157,8.35-.566,35.495-1.455,42.706s5.778,8.34,6.111,5.9c2.838-20.858,10.644-53.406,11.656-63.828s.278-29.47-.609-54.616" transform="translate(618.59 290.365)" fill="#ed9c80"/>
          <path id="Path_9966" data-name="Path 9966" d="M-493.164,61.079l-7.217,17.2a38.317,38.317,0,0,1,5.446,17.857c.171,3.3-.075,6.609.06,9.908a3.341,3.341,0,0,0,.111.716c.933-4.906,1.622-8.947,1.878-11.579.713-7.361.556-19.046.091-34.13a2.853,2.853,0,0,0-.369.024" transform="translate(626.59 307.854)" fill="#db856e"/>
          <path id="Path_9967" data-name="Path 9967" d="M-496.662,107.078s-1.491,7.576-1.05,8.532,2.026,3.733,3.62,4.722c1.675,1.04,5.367,2.249,5.668,2.7a1.143,1.143,0,0,1-.191,1.548,7.623,7.623,0,0,1-5.22,1.4c-4.992-.754-5.539-2.951-8.447-3.263-.5-.054-1.419.7-2.816.01a3.3,3.3,0,0,1-1.985-3.172c.177-2.082,1.322-3.811,2.134-5.363s1.3-8.6,1.3-8.6" transform="translate(619.773 353.085)" fill="#ed9c80"/>
          <path id="Path_9968" data-name="Path 9968" d="M-487.856,119.99c.357-.629.435-1.568.095-1.794a29.043,29.043,0,0,0-3.128-1.824c-.971-.431-2.511-.8-1.965-.518s-.435,1.389-1.342,1.344c-3.124-.147-5.458-2.193-7.242-2.612-2.578-.6-3.692-3.624-3.813-4.114a11.978,11.978,0,0,0-1.794,3.541,6.108,6.108,0,0,0-.344,2.691,6.281,6.281,0,0,1,.32,2.556,4.915,4.915,0,0,0,1.854.641,7.309,7.309,0,0,0,1.987,0l.2-1.616a7.338,7.338,0,0,1,1.59.135,8.609,8.609,0,0,1,2.443,1.1c.361.419.657,1.191,1.133,1.423a9.954,9.954,0,0,0,4.11.965c3.35.147,5.293-.851,5.9-1.921" transform="translate(619.408 358.037)" fill="#222b70"/>
          <path id="Path_9969" data-name="Path 9969" d="M-464.77,187.781c-.369-.407-4.339-1.052-6.2-1.832a10.693,10.693,0,0,1-4.341-4.136c-.417-1.012-.324-6.137-.27-8.288.371-14.824,3.112-51.042,3.507-59.717.689-15.08-1.268-30.639-7.068-54.843l-21.6-16.577s-6.048,11.244-4.023,22c1.175,6.24,6.351,7.2,7.223,9.624s13.943,41.515,13.943,41.515a73.71,73.71,0,0,0-2.689,17.71c-.125,7.9,3.459,31.744,4.124,40.826.076,1.776.385,6.024-.139,7.379-.643,1.657-2.275,3.6-2.193,5.694a3.214,3.214,0,0,0,2.455,2.844c1.53.474,2.382-.411,2.908-.433,3.047-.125,3.89,1.969,9.146,1.967a8.315,8.315,0,0,0,5.22-2.171,1.11,1.11,0,0,0,0-1.558" transform="translate(621.713 288.897)" fill="#ed9c80"/>
          <path id="Path_9970" data-name="Path 9970" d="M-474.441,118.881c.286-.673.248-1.618-.131-1.79a30.484,30.484,0,0,0-3.467-1.338c-1.06-.28-2.7-.419-2.1-.218s-.274,1.441-1.215,1.534c-3.249.32-5.917-1.354-7.818-1.506-2.739-.214-3.745-3.033-3.932-3.5a12.626,12.626,0,0,0-1.937,3.779,5.952,5.952,0,0,0-.014,2.717,5.926,5.926,0,0,1,.657,2.483,5.112,5.112,0,0,0,2,.357,7.9,7.9,0,0,0,2.054-.294V119.47a7.978,7.978,0,0,1,1.663-.1,5.513,5.513,0,0,1,2.679.947c.445.337.917.9,1.443,1.036a11.062,11.062,0,0,0,4.267.322c3.483-.357,5.361-1.639,5.853-2.789" transform="translate(631.838 359.649)" fill="#222b70"/>
          <path id="Path_9971" data-name="Path 9971" d="M-501.33,44.484c-5.543,5.682-9.08,13.865-7.086,22.906.526,2.394,3.545,8.836,4.13,11.224,1.332,5.432,3.793,13.383,4.231,19.669,8.533,5.135,24.8,3.223,31.816-1.764.167-7.655-.506-13.677-1.991-24.144-2.243-15.789-4.89-19.345-7.236-25.667-.276-1.109-.28-3.358-.536-4.668" transform="translate(617.86 288.545)" fill="#30334c"/>
          <path id="Path_9972" data-name="Path 9972" d="M-480.619,17.6c1.357.449.851,3.678,2.205,4.13.982.324,2.906-.109,3.807.4,4.779,2.695,3.551,8.07,4.13,14.733,2.02,5.111,2.56,9.745.949,12.6-2,3.541-4.116,4.541-6.572,7.479-1.836,2.195-2.439,6.71-2.814,11.561-.066.834.629,2.3.427,3.112-.389,1.558-2.755,2.042-5.4,2.092-6.077.117-15.292-2.094-18-1.993-2.554.095-4.962-1.145-4.712-2.652.173-1.05,1.229-1.483,1.645-3.519.917-4.482,1.62-15.689,2.336-19.488,1.828-9.729,3.166-16.964,7.155-25.931" transform="translate(620.258 263.726)" fill="#f4713d"/>
          <path id="Path_9973" data-name="Path 9973" d="M-481.474,32.813a45.493,45.493,0,0,0-5.512-7.223l-5.194,2.338c2.443,4.68,2.888,10.2,4.009,15.318a12.2,12.2,0,0,0,2.995-.3c.5-.824.314-.413.988-1.6a21.021,21.021,0,0,0,2.715-8.534" transform="translate(634.918 271.839)" fill="#e25833"/>
          <path id="Path_9974" data-name="Path 9974" d="M-471.64,20.931a25.989,25.989,0,0,0,.883-6.718c-.149-3.86-.639-9.451-7.052-11.746S-491.3,1.548-493.4,6.174s-1.612,11.629-1.919,15.374-3.053,8.223-3.053,8.223l13.814,5.948s2.257-4.908,3.185-5.5,1.254,1.751,4.329,1.491c1.308-.111,2.7-2.457,3.757-5.341.03-.087.068-.193.1-.284a13.92,13.92,0,0,0,1.645-.143c.953-.282.875-.7.663-1.308a15.594,15.594,0,0,1-.758-3.706" transform="translate(628.629 247.251)" fill="#ed9c80"/>
          <path id="Path_9975" data-name="Path 9975" d="M-475.627,52.249c0,1.125,2.163,4.176,3.817,4.646a2.454,2.454,0,0,0,1.621-.04c.75.337,3.134.6,2.247-.8,1.512,1.27,3.233,1.2,5.152,1.111.643-.032.623-.782-.784-1.165a7.045,7.045,0,0,1-4.38-3.688c.29-.222.524.187,1.32.314.881.139,1.353-.256,1.379-.641.022-.288-1.036-.627-1.266-.782-.881-.58-1.757-1.161-2.638-1.743a5.04,5.04,0,0,0-2.773-1.014c-.194-.014-2.088.1-1.618.79" transform="translate(651.727 295.046)" fill="#ed9c80"/>
          <path id="Path_9976" data-name="Path 9976" d="M-491.073,31.741c2.288,4.73,8.3,20.411,9.231,22.217,3.674,7.123,22.507,22.575,22.507,22.575a3.827,3.827,0,0,0,3.195-3.721c-5.393-3.741-15.511-19.8-17.609-21.719-1.359-1.248-7.471-26.032-7.471-26.032" transform="translate(636.042 271.303)" fill="#ed9c80"/>
          <path id="Path_9977" data-name="Path 9977" d="M-480.791,22.751c-5.248-2.005-10.269-2.015-14.288-6.036-4.079,3.138,4.924,21.282,7.151,21.769,2.276.5,5.24,10.513,5.8,11.875,7.268-.191,9.926-4.154,9.926-4.154-2.967-9.12-3.5-21.509-8.586-23.454" transform="translate(630.912 262.827)" fill="#f4713d"/>
          <path id="Path_9978" data-name="Path 9978" d="M-474.475,40.256c-.363-1.364-1.393-2.449-1.625-3.844a6.285,6.285,0,0,1,.772-4.136,7.554,7.554,0,0,1,1.8-1.7c2.886-2.278,3.892-4.156,2.925-7.564A9.263,9.263,0,0,1-471.1,19.6c.1-1.044.316-2.134,1.441-2.263.778-.093,1.282.1,1.556.756.194.46-.187,3.763.907,1.893,1.05-1.79,1.983-1.927,1.931-6.055-.006-.49-.173-2.483.131-2.773,1.917,1.4,2.473,3.8,2.7,5.549,1.441-.607,1.848-2.685,1.848-3.477a9.182,9.182,0,0,0-.76-4.136c-2.509-5.381-5.17-6.367-7.415-7.322-2.181-.925-4.442-1.866-6.806-1.8s-5.291.764-5.972,2.535c-3.275-.844-5.147,2.018-5.919,3.043a16.655,16.655,0,0,0-2.527,4.875c-.836,2.586-1.032,5.341-1.693,7.977a11.619,11.619,0,0,1-3.118,5.869c-1.6,1.443-3.837,1.578-5.571,2.9a8.723,8.723,0,0,0-3.309,7.248c.119,2.769,1.544,5.756-.129,8.3-.542.824-1.306,1.485-1.842,2.318a6.313,6.313,0,0,0,.125,6.51c1.181,1.949,3.481,4.178,5.643,4.819a16.52,16.52,0,0,0,6.1.84c3.979-.22,7.326.008,11.535-3.59,2.384-2.038.859-3.2,3.148-5.361,1.282-1.211,3.1-1.856,4.043-3.428a6.134,6.134,0,0,0,.613-4.406c-.012-.054-.026-.109-.04-.161" transform="translate(620.386 245.816)" fill="#7c3327"/>
          <path id="Path_9979" data-name="Path 9979" d="M-255.018-75.632c-16.741,0-27.7,16.96-27.7,16.96s10.96,16.958,27.7,16.958,27.7-16.958,27.7-16.958-10.962-16.96-27.7-16.96" transform="translate(847.623 169.05)" fill="#fff"/>
        </g>
      </g>
      <g id="Group_1335" data-name="Group 1335" transform="translate(575.709 91.636)">
        <g id="Group_1334" data-name="Group 1334" clip-path="url(#clip-path-26)">
          <rect id="Rectangle_752" data-name="Rectangle 752" width="59.646" height="37.484" transform="translate(0.001 0)" fill="#ffc10b"/>
        </g>
      </g>
      <g id="Group_1337" data-name="Group 1337" transform="translate(594.927 99.775)">
        <path id="Path_9981" data-name="Path 9981" d="M-274.237-61.875a10.605,10.605,0,0,0,10.605,10.6,10.6,10.6,0,0,0,10.6-10.6,10.6,10.6,0,0,0-10.6-10.6,10.6,10.6,0,0,0-10.605,10.6" transform="translate(274.237 72.478)" fill="url(#linear-gradient)"/>
        <g id="Group_1336" data-name="Group 1336" clip-path="url(#clip-path-27)">
          <rect id="Rectangle_753" data-name="Rectangle 753" width="21.209" height="21.207" transform="translate(0.001)" fill="url(#linear-gradient)"/>
        </g>
      </g>
      <g id="Group_1339" data-name="Group 1339" transform="translate(12.928)">
        <g id="Group_1338" data-name="Group 1338" clip-path="url(#clip-path-2)">
          <path id="Path_9983" data-name="Path 9983" d="M-264.325-66.663a4.251,4.251,0,0,1-4.253,4.253,4.254,4.254,0,0,1-4.255-4.253,4.254,4.254,0,0,1,4.255-4.253,4.251,4.251,0,0,1,4.253,4.253" transform="translate(857.663 173.839)" fill="#fff"/>
        </g>
      </g>
      <g id="Group_1341" data-name="Group 1341" transform="translate(84.12 167.108)">
        <g id="Group_1340" data-name="Group 1340" clip-path="url(#clip-path-29)">
          <rect id="Rectangle_755" data-name="Rectangle 755" width="53.678" height="44.29" transform="translate(0.001 0)" fill="#ffc10b"/>
        </g>
      </g>
      <g id="Group_1343" data-name="Group 1343" transform="translate(12.928)">
        <g id="Group_1342" data-name="Group 1342" clip-path="url(#clip-path-2)">
          <path id="Path_9985" data-name="Path 9985" d="M-508.451-22.775a3.93,3.93,0,0,1-3.93,3.93,3.93,3.93,0,0,1-3.93-3.93,3.93,3.93,0,0,1,3.93-3.93,3.93,3.93,0,0,1,3.93,3.93" transform="translate(610.413 218.734)" fill="#fff"/>
        </g>
      </g>
      <g id="Group_1345" data-name="Group 1345" transform="translate(80.733 167.219)">
        <g id="Group_1344" data-name="Group 1344" clip-path="url(#clip-path-31)">
          <path id="Path_9986" data-name="Path 9986" d="M-507.615-4.617a13.4,13.4,0,0,1-13.391-13.391A13.406,13.406,0,0,1-507.615-31.4,13.409,13.409,0,0,1-494.22-18.008,13.408,13.408,0,0,1-507.615-4.617m0-23.055a9.672,9.672,0,0,0-9.662,9.664,9.675,9.675,0,0,0,9.662,9.664,9.677,9.677,0,0,0,9.668-9.664,9.675,9.675,0,0,0-9.668-9.664" transform="translate(537.841 46.749)" fill="#fff"/>
          <path id="Path_9987" data-name="Path 9987" d="M-503.161,8.679a22.256,22.256,0,0,1-22.231-22.231,22.258,22.258,0,0,1,22.231-22.233A22.256,22.256,0,0,1-480.93-13.552,22.255,22.255,0,0,1-503.161,8.679m0-40.737a18.527,18.527,0,0,0-18.5,18.506,18.525,18.525,0,0,0,18.5,18.5,18.526,18.526,0,0,0,18.506-18.5,18.528,18.528,0,0,0-18.506-18.506" transform="translate(533.387 42.295)" fill="#fff"/>
        </g>
      </g>
      <g id="Group_1347" data-name="Group 1347" transform="translate(12.928)">
        <g id="Group_1346" data-name="Group 1346" clip-path="url(#clip-path-2)">
          <path id="Path_9989" data-name="Path 9989" d="M-363.624-40.837h-57.05a4.027,4.027,0,0,1-4.027-4.027V-82.035a4.027,4.027,0,0,1,4.027-4.027h57.05a4.027,4.027,0,0,1,4.029,4.027v37.172a4.027,4.027,0,0,1-4.029,4.027" transform="translate(703.442 158.458)" fill="#bdd5ff"/>
          <path id="Path_9990" data-name="Path 9990" d="M-401.543-64.138l-1.846,9.529,14.516-9.529" transform="translate(725.084 180.722)" fill="#bdd5ff"/>
          <path id="Path_9991" data-name="Path 9991" d="M-400.684-52.224A14.884,14.884,0,0,1-415.55-67.092a14.883,14.883,0,0,1,14.866-14.866,14.885,14.885,0,0,1,14.868,14.866,14.886,14.886,0,0,1-14.868,14.868m0-28.223a13.371,13.371,0,0,0-13.355,13.355,13.372,13.372,0,0,0,13.355,13.357,13.372,13.372,0,0,0,13.357-13.357,13.372,13.372,0,0,0-13.357-13.355" transform="translate(712.735 162.626)" fill="#fff"/>
          <path id="Path_9992" data-name="Path 9992" d="M-404.822-52.224c-3.731,0-6.653-6.53-6.653-14.868s2.922-14.866,6.653-14.866,6.653,6.53,6.653,14.866-2.922,14.868-6.653,14.868m0-28.223c-2.431,0-5.142,5.484-5.142,13.355s2.711,13.357,5.142,13.357,5.141-5.484,5.141-13.357-2.711-13.355-5.141-13.355" transform="translate(716.873 162.626)" fill="#fff"/>
          <rect id="Rectangle_757" data-name="Rectangle 757" width="28.223" height="1.512" transform="translate(297.941 94.78)" fill="#fff"/>
          <path id="Path_9993" data-name="Path 9993" d="M-402.538-75.282c-8.187,0-11.065-2.872-11.186-3l1.086-1.052-.542.526.536-.532c.026.026,2.644,2.542,10.105,2.542s10.082-2.515,10.108-2.542l1.08,1.058c-.121.123-3,3-11.188,3" transform="translate(714.589 165.289)" fill="#fff"/>
          <path id="Path_9994" data-name="Path 9994" d="M-412.643-67.786l-1.08-1.058c.119-.121,3-3,11.186-3s11.067,2.874,11.186,3l-1.086,1.054c-.018-.022-2.638-2.537-10.1-2.537s-10.079,2.515-10.106,2.542" transform="translate(714.59 172.902)" fill="#fff"/>
        </g>
      </g>
      <g id="Group_1349" data-name="Group 1349" transform="translate(338.205)">
        <g id="Group_1348" data-name="Group 1348" clip-path="url(#clip-path-33)">
          <rect id="Rectangle_759" data-name="Rectangle 759" width="103.854" height="72.146" transform="translate(0)" fill="#ffc10b"/>
        </g>
      </g>
      <g id="Group_1351" data-name="Group 1351" transform="translate(406.722 70.49)">
        <g id="Group_1350" data-name="Group 1350" clip-path="url(#clip-path-34)">
          <rect id="Rectangle_761" data-name="Rectangle 761" width="23.156" height="15.199" transform="translate(0 0)" fill="#ffc10b"/>
        </g>
      </g>
      <g id="Group_1353" data-name="Group 1353" transform="translate(-112.371)">
        <g id="Group_1352" data-name="Group 1352" clip-path="url(#clip-path-2)">
          <path id="Path_9996" data-name="Path 9996" d="M-296.162-76.968A18.493,18.493,0,0,1-314.634-95.44a18.493,18.493,0,0,1,18.472-18.472A18.5,18.5,0,0,1-277.686-95.44a18.5,18.5,0,0,1-18.476,18.472m0-29.025A10.564,10.564,0,0,0-306.713-95.44a10.562,10.562,0,0,0,10.551,10.553A10.568,10.568,0,0,0-285.6-95.44a10.569,10.569,0,0,0-10.557-10.553" transform="translate(815.214 130.177)" fill="#fff"/>
          <path id="Path_9997" data-name="Path 9997" d="M-323.137-90.521h-7.921v-16.19H-294v7.919h-29.142Z" transform="translate(798.535 137.489)" fill="#fff"/>
          <rect id="Rectangle_762" data-name="Rectangle 762" width="7.921" height="9.231" transform="translate(479.758 34.737)" fill="#fff"/>
        </g>
      </g>
    </g>
  </g>
</svg>
