<svg xmlns="http://www.w3.org/2000/svg" width="74.652" height="74.652" viewBox="0 0 74.652 74.652">
  <g id="Group_1409" data-name="Group 1409" transform="translate(11909 -2434.348)">
    <g id="Group_1408" data-name="Group 1408">
      <rect id="Rectangle" width="74.652" height="74.652" rx="10" transform="translate(-11909 2434.348)" fill="#24275d"/>
    </g>
    <g id="XMLID_91_" transform="translate(-11911.985 2448.5)">
      <path id="XMLID_92_" d="M57.127,33.832c-1.236-.506-1.764-1.178-1.713-2.18a3.341,3.341,0,0,0-.926-2.365,10.25,10.25,0,0,0,0-5.428c-.8-2.339-3.25-5.911-5.776-9.423-1.034-1.442-1.083-3.01-1.139-4.825a14.668,14.668,0,0,0-1.081-5.875A6.076,6.076,0,0,0,40.713,0a7.91,7.91,0,0,0-4.395,1.338c-2.524,1.742-2.19,5.54-1.97,8.053.03.344.059.669.075.947a12.454,12.454,0,0,1-.162,4.153A17.05,17.05,0,0,1,33,16.258c-.61.8-1.3,1.713-1.867,2.561a20.062,20.062,0,0,0-1.749,4.089,19.605,19.605,0,0,1-1.106,2.77,3.771,3.771,0,0,0-.366,2.833,2.911,2.911,0,0,0-.934,1.182c-.376.8-1.137,1.232-2.722,1.537a2.1,2.1,0,0,0-1.493.91,2.58,2.58,0,0,0,.016,2.062,3.208,3.208,0,0,1-.212,2.325c-.073.222-.156.472-.24.749a1.351,1.351,0,0,0,.142,1.18c.6.915,2.344,1.237,4.142,1.45A15.963,15.963,0,0,1,30,40.877a15.884,15.884,0,0,0,3.31.955,3.762,3.762,0,0,0,.468.03,2.754,2.754,0,0,0,2.52-1.479,28,28,0,0,1,4.541-.536,19.723,19.723,0,0,1,4.514.464,3.632,3.632,0,0,0,1.36,1.482,3.3,3.3,0,0,0,1.53.345h0a3.689,3.689,0,0,0,2.689-1.111,24.1,24.1,0,0,1,4.877-3.116c.373-.2.722-.391,1.028-.562a2.3,2.3,0,0,0,1.406-2.041A1.725,1.725,0,0,0,57.127,33.832Zm-20.788-.187c-.117-.823-1.176-1.64-2.4-2.586a8.5,8.5,0,0,1-2.453-2.392,7.211,7.211,0,0,1,.753-5.609,14.244,14.244,0,0,0,1.146-2.765,9.936,9.936,0,0,1,1.2-2.733,6.974,6.974,0,0,0,1.434-3.479,4.342,4.342,0,0,0,2.562,1.393,1.51,1.51,0,0,0,.411-.056,13.843,13.843,0,0,0,2.455-1.236,10.486,10.486,0,0,1,2.086-1.048c.615.883,4.19,8.794,4.555,11.335a12.012,12.012,0,0,1-.17,4.323,3.18,3.18,0,0,0-.426-.031c-1,0-1.259.543-1.328.868a35.144,35.144,0,0,0-.2,4.145,8.237,8.237,0,0,1-4.795,3,20.759,20.759,0,0,1-2.955.233,9.983,9.983,0,0,1-1.458-.09l-1.314-1.5A1.6,1.6,0,0,0,36.339,33.645ZM38.006,8.862q-.062.027-.121.057a2.445,2.445,0,0,0-.027-.27,1.531,1.531,0,0,0-1.3-1.425.919.919,0,0,0-.14.011,1.089,1.089,0,0,0-.8.72c.137-.849.618-1.477,1.188-1.477.67,0,1.236.9,1.236,1.972A2.916,2.916,0,0,1,38.006,8.862Zm5.206.636a2.092,2.092,0,0,0,.094-.626,1.573,1.573,0,0,0-1.4-1.728,1.589,1.589,0,0,0-1.391,1.728q0,.1.009.195l-.119-.045a2.642,2.642,0,0,1-.133-.831,1.92,1.92,0,0,1,1.651-2.1,1.92,1.92,0,0,1,1.651,2.1A2.474,2.474,0,0,1,43.212,9.5Zm-.671,2.255c-.013.059-.041.085-.35.245-.156.081-.35.182-.593.33l-.162.1A15.022,15.022,0,0,1,38.844,13.8c-.281.038-.455-.071-.847-.337-.088-.06-.182-.124-.282-.188A3.319,3.319,0,0,1,36.5,12.1c.23-.178.8-.623,1.092-.886a3.155,3.155,0,0,1,1.484-.921.233.233,0,0,1,.044,0,14.765,14.765,0,0,1,1.827.652c.289.115.538.215.714.278A1.71,1.71,0,0,1,42.541,11.754ZM47.507,37.5a20.458,20.458,0,0,0,.613-4.448c-.013-.256-.036-.535-.058-.8a7.4,7.4,0,0,1-.039-1.476.27.27,0,0,1,.042-.015,2.505,2.505,0,0,0,1.171,2.38,2.591,2.591,0,0,0,1.041.2,4.252,4.252,0,0,0,2.642-.974,4.807,4.807,0,0,0,.67-.88,1.063,1.063,0,0,1,.046.415,2.973,2.973,0,0,0,1.281,2.678l.128.067c.313.164,1.146.6,1.159.809a.184.184,0,0,1-.053.068,12.013,12.013,0,0,1-1.652.928,14.436,14.436,0,0,0-3.326,2.045,4.544,4.544,0,0,1-2.539,1.587.667.667,0,0,1-.2-.028C47.762,39.844,47.211,38.879,47.507,37.5ZM24.7,33.914a1.874,1.874,0,0,1-.064-.816c.042-.181.935-.375,1.317-.458a5.133,5.133,0,0,0,1.454-.457,2.949,2.949,0,0,0,.991-1.329,2.064,2.064,0,0,1,.553-.83.117.117,0,0,1,.064-.015c.391,0,1.21.821,1.682,1.556.12.185.342.556.6.986a31.526,31.526,0,0,0,2.368,3.634c.495.53,1.3,1.549,1.1,2.423a2.654,2.654,0,0,1-1.093,1.352,1.12,1.12,0,0,1-.243.023,15.535,15.535,0,0,1-4.248-1.344l-.165-.069a13.467,13.467,0,0,0-2.628-.586,8.583,8.583,0,0,1-2.035-.458c-.144-.162.023-.688.171-1.152a7.471,7.471,0,0,0,.276-1.039A3.783,3.783,0,0,0,24.7,33.914Z" transform="translate(0)" fill="#fff"/>
    </g>
  </g>
</svg>
