<svg xmlns="http://www.w3.org/2000/svg" viewBox="0 0 2232.39 1488.72"><defs><style>.cls-1{opacity:0.8;}.cls-2{fill:#d7e5ff;}.cls-3{fill:#aec3ff;}.cls-4{fill:#7599ea;}.cls-12,.cls-5{fill:#90aff4;}.cls-6,.cls-7{fill:#5888dd;}.cls-7{opacity:0.4;}.cls-8{fill:#c2d5ff;}.cls-9{fill:#739af0;}.cls-10{fill:#607cf4;}.cls-11{fill:#e9f3fe;}.cls-12{opacity:0.5;}.cls-13{fill:#f99746;}.cls-14{fill:#f78248;}.cls-15{fill:#ffdaa4;}.cls-16{fill:#d5e5fb;}.cls-17{fill:#c6dcf7;}.cls-18{fill:#ebf3fa;}.cls-19{fill:#2c3a64;}.cls-20{fill:#ffb27d;}.cls-21{fill:#2f539b;}.cls-22{fill:#233862;}.cls-23{fill:#5a7de0;}.cls-24{fill:#ed985f;}.cls-25{fill:#ed7d2b;}.cls-26{fill:#163560;}.cls-27{fill:#2a4e96;}.cls-28{fill:#f4a269;}.cls-29{fill:#193b72;}.cls-30{fill:#ef8035;}.cls-31{fill:#fff;}.cls-32{fill:#0e2644;}.cls-33{fill:#1c468a;}.cls-34{fill:#fca56b;}</style></defs><title>Asset 1</title><g id="Layer_2" data-name="Layer 2"><g id="_лой_1" data-name="‘лой_1"><g class="cls-1"><path class="cls-2" d="M930.42,498.85a329.46,329.46,0,0,1-5.29,59,325.81,325.81,0,0,1-51.68,125.61C814.5,769.66,715.36,826.25,603,826.25c-133.65,0-248.59-80.06-299.46-194.86a322.08,322.08,0,0,1-16.68-47.08A329.85,329.85,0,0,1,283,429.17c.05-.26.11-.5.16-.76A328.18,328.18,0,0,1,411,233.64q10.1-7.33,20.77-13.89A325.69,325.69,0,0,1,603,171.43q12.5,0,24.74.93A325.37,325.37,0,0,1,789.92,230h0a328.51,328.51,0,0,1,89.81,93.78q7.51,11.88,14,24.42a326,326,0,0,1,36.63,150.66Z"/><path class="cls-3" d="M491.78,352.29C478.72,373,497.24,408.91,458,399.11s-63.16-14.16-65.33,7.61,29.4,21.78,29.4,44.65S408,481.8,386.18,470.93s-28-26.65-53.36-16.85-40,3.27-45.72-16.33a28.87,28.87,0,0,0-4.07-8.58c.05-.26.11-.5.16-.76A328.18,328.18,0,0,1,411,233.64q10.1-7.33,20.77-13.89c10.21.38,22.41,4.25,32.81,17.12,22.87,28.32,38.1,14.16,32.67,46.82s3.26,37,21.77,35.93,40.29-1.09,42.46,13.07S504.85,331.59,491.78,352.29Z"/><path class="cls-3" d="M494.07,503.48s-19.76,23-36.79,9.79-11.88-21.45-36.82-13.19-35.9-5.44-48.69,4.95-2.41,11.7-11.25,33.72-27.11,25.57-13,47.56,40.39,10.68,54.23,22.31,9.32,23,26.6,27.75,33.77-12.09,34.11,8.78-6.32,41.23,15.15,60.63,17.46,23.78,39.54,33.23,48.46.94,45.11-12.34-31.8-15.94-32.37-30.92,14.58-13.72,8.51-33,10.87-29.65,5.15-42.11S505.21,603.93,509,591.38s33.32-1.9,34.93-28.43-16.31-36-13.67-61.87S497.09,487.58,494.07,503.48Z"/><path class="cls-3" d="M930.42,498.85a329.46,329.46,0,0,1-5.29,59,325.81,325.81,0,0,1-51.68,125.61,37.38,37.38,0,0,1-26.18-.71c-40.83-16.33-10.61-60.42,5.72-82.47S827.68,588,797.46,567.59s3.27-75.13-27.76-66.15-68.6,20.42-86.56-9.8,16.33-35.11.82-60.42,9-40,40-42.47S750.92,364.26,789.3,361s37.56,45.73,80,42.46S909.87,410,909.87,410a19.75,19.75,0,0,1,8.87,1.87A328,328,0,0,1,930.42,498.85Z"/><path class="cls-3" d="M893.79,348.19c-35.31,17.18-49.49-29.55-79.67-15.5-30.43,14.16-25.1-13.07-49-30.49s-71.86,14.16-69.69-13.07,38.1-19.6,45.73-41.37,42.46-16.33,42.46-16.33a23.83,23.83,0,0,1,6.34-1.44s0,0,0,0a328.51,328.51,0,0,1,89.81,93.78Q887.26,335.65,893.79,348.19Z"/><path class="cls-3" d="M596.31,254.29s18.51-26.7-10.89-34.58-28.85,2.43-51.72,0S501.85,235,519,254.29s31,56.41,46.55,36.65S578.07,256.2,596.31,254.29Z"/></g><path class="cls-4" d="M997,851.66l-50.15,596.28s-5.25,36.14,21.63,36.21c44.21.1,220,0,220,0s-33.27-7.53-32.87-24.46c.48-20,58.61-613.67,58.61-613.67Z"/><path class="cls-5" d="M1205.06,1473.57c-8.69,0-178.91.31-222-.24-18.76-.24-22.05-16.68-22.2-27.33a53.11,53.11,0,0,1,.57-8.88l1.3-15.49,3.32-39.5,2.94-34.9,3.77-44.85,3.18-37.85,35.63-423.69,217.26-5.64s-24.49,248.47-41.81,429.33c-1.93,20.15-3.77,39.48-5.47,57.51-.56,5.76-1.08,11.39-1.6,16.87-1.61,17.12-3.07,32.83-4.35,46.7q-1,11-1.86,20.34c-2.21,24.39-3.5,40-3.52,42.93a25.3,25.3,0,0,0,.42,4.82C1174.25,1472.7,1201.8,1473.57,1205.06,1473.57Z"/><polygon class="cls-3" points="469.39 527.19 591.54 1017.85 608.26 1085.05 665.15 1313.59 1722.12 1313.59 1512.43 527.19 469.39 527.19"/><polygon class="cls-5" points="469.38 527.19 452.46 532.84 642.65 1330.65 665.16 1313.59 469.38 527.19"/><polygon class="cls-4" points="642.65 1330.65 1693.11 1330.65 1722.12 1313.59 665.16 1313.59 642.65 1330.65"/><rect class="cls-3" x="1011.54" y="1473.57" width="227.44" height="10.81" transform="translate(2250.52 2957.94) rotate(180)"/><polygon class="cls-6" points="1181.16 1330.65 1179.99 1338.91 966.09 1382.13 969.03 1347.23 970.43 1330.65 1181.16 1330.65"/><path class="cls-7" d="M1205.06,1473.57c-8.69,0-178.91.31-222-.24-18.76-.24-22.05-16.68-22.2-27.33l212.88-40c-2.21,24.39-3.5,40-3.52,42.93a25.3,25.3,0,0,0,.42,4.82C1174.25,1472.7,1201.8,1473.57,1205.06,1473.57Z"/><polygon class="cls-8" points="469.38 527.19 1512.43 527.19 1681.66 1159.2 626.72 1159.2 469.38 527.19"/><polygon class="cls-9" points="1632.47 1131.82 655.86 1131.82 620.96 992.79 607.46 939 601.96 917.06 566.09 774.19 564.23 766.75 545.27 691.23 536.79 657.44 529.55 628.62 512.59 561.05 1475.12 561.05 1493.75 628.62 1501.69 657.44 1511 691.23 1572.37 913.85 1572.37 913.86 1577.57 932.72 1579.99 941.47 1622.36 1095.16 1632.47 1131.82"/><polygon class="cls-10" points="1493.75 628.62 529.55 628.62 512.59 561.05 1475.12 561.05 1493.75 628.62"/><path class="cls-11" d="M552.41,591.59c-1.16-4.67,1.68-8.45,6.34-8.45a11.52,11.52,0,0,1,10.55,8.45c1.17,4.66-1.67,8.44-6.34,8.44A11.54,11.54,0,0,1,552.41,591.59Z"/><path class="cls-11" d="M580.48,591.59c-1.17-4.67,1.67-8.45,6.34-8.45a11.53,11.53,0,0,1,10.55,8.45c1.17,4.66-1.67,8.44-6.34,8.44A11.54,11.54,0,0,1,580.48,591.59Z"/><path class="cls-11" d="M610.7,591.59c-1.16-4.67,1.68-8.45,6.34-8.45a11.55,11.55,0,0,1,10.56,8.45c1.16,4.66-1.68,8.44-6.34,8.44A11.54,11.54,0,0,1,610.7,591.59Z"/><polygon class="cls-12" points="1023 1159.2 665.51 1315.43 626.72 1159.2 1023 1159.2"/><path class="cls-13" d="M712.15,363.48c-17.23,6.45-28.35,21.35-28.35,37.77V765.74c0,74.58,35.41,144.41,94.74,186.93l214.12,137.21a45.24,45.24,0,0,0,47.86,0l214.12-137.21c59.33-42.52,94.74-112.35,94.74-186.93V402.23c0-16.91-11.82-32.13-29.76-38.28-260.1-89.05-364.37-91.43-607.47-.47Z"/><path class="cls-14" d="M1319.62,364c-126.61-43.35-216.29-66.09-303-67.59v800.37a44.51,44.51,0,0,0,23.93-6.85l214.12-137.21c59.33-42.52,94.74-112.35,94.74-186.93V402.22c0-16.9-11.82-32.12-29.76-38.27Z"/><path class="cls-15" d="M1035.85,620.11h-48.7a79.29,79.29,0,0,1-79.21-79.2v-9.47a79.3,79.3,0,0,1,79.21-79.22h48.7a79.3,79.3,0,0,1,79.21,79.22v9.47A79.29,79.29,0,0,1,1035.85,620.11Zm-48.7-136.22a47.59,47.59,0,0,0-47.54,47.55v9.47a47.59,47.59,0,0,0,47.54,47.53h48.7a47.58,47.58,0,0,0,47.54-47.53v-9.47a47.59,47.59,0,0,0-47.54-47.55Z"/><path class="cls-15" d="M878.37,554.78h263.15a37.33,37.33,0,0,1,37.33,37.33V718.95a122.41,122.41,0,0,1-122.41,122.41H979.53a130.3,130.3,0,0,1-130.3-130.3V583.92A29.14,29.14,0,0,1,878.37,554.78Z"/><circle class="cls-14" cx="1014.05" cy="640.77" r="42.98" transform="translate(-154.94 371.78) rotate(-19.33)"/><path class="cls-14" d="M1014.05,660.83h0a9.34,9.34,0,0,1,9.31,9.31v71.64a9.34,9.34,0,0,1-9.31,9.31h0a9.34,9.34,0,0,1-9.32-9.31V670.14A9.34,9.34,0,0,1,1014.05,660.83Z"/><path class="cls-3" d="M1505.27,144.71c-4.71,1.77-7.75,5.85-7.75,10.34v99.76A62.88,62.88,0,0,0,1523.45,306l58.6,37.56a12.38,12.38,0,0,0,13.1,0l58.6-37.56a62.88,62.88,0,0,0,25.93-51.16V155.32c0-4.63-3.23-8.8-8.14-10.48-71.19-24.37-99.73-25-166.27-.13Z"/><path class="cls-7" d="M1671.54,144.84c-34.66-11.86-59.2-18.09-82.94-18.5V345.4a12.18,12.18,0,0,0,6.55-1.87l58.6-37.56a62.88,62.88,0,0,0,25.93-51.16V155.32c0-4.63-3.23-8.8-8.14-10.48Z"/><polygon class="cls-13" points="1598.82 20.67 1621.83 23.69 1605.43 40.12 1609.67 62.93 1588.98 52.41 1568.59 63.49 1572.2 40.57 1555.37 24.6 1578.28 20.95 1588.27 0 1598.82 20.67"/><polygon class="cls-13" points="1598.82 417.15 1621.83 420.17 1605.43 436.6 1609.67 459.41 1588.98 448.89 1568.59 459.97 1572.2 437.05 1555.37 421.08 1578.28 417.43 1588.27 396.48 1598.82 417.15"/><polygon class="cls-13" points="1429.39 118.03 1452.4 121.05 1436 137.48 1440.23 160.29 1419.55 149.78 1399.16 160.85 1402.77 137.93 1385.93 121.96 1408.85 118.31 1418.84 97.36 1429.39 118.03"/><polygon class="cls-13" points="1770.61 118.03 1793.62 121.05 1777.22 137.48 1781.45 160.29 1760.77 149.78 1740.38 160.85 1743.99 137.93 1727.15 121.96 1750.07 118.31 1760.05 97.36 1770.61 118.03"/><polygon class="cls-13" points="1429.39 320.96 1452.4 323.99 1436 340.41 1440.23 363.23 1419.55 352.71 1399.16 363.78 1402.77 340.86 1385.93 324.89 1408.85 321.24 1418.84 300.29 1429.39 320.96"/><polygon class="cls-13" points="1770.61 320.96 1793.62 323.99 1777.22 340.41 1781.45 363.23 1760.77 352.71 1740.38 363.78 1743.99 340.86 1727.15 324.89 1750.07 321.24 1760.05 300.29 1770.61 320.96"/><polygon class="cls-13" points="1502.84 46.87 1525.85 49.89 1509.45 66.31 1513.69 89.13 1493 78.61 1472.61 89.69 1476.22 66.77 1459.38 50.79 1482.3 47.15 1492.29 26.2 1502.84 46.87"/><polygon class="cls-13" points="1699.81 46.87 1722.82 49.89 1706.42 66.31 1710.66 89.13 1689.97 78.61 1669.58 89.69 1673.19 66.77 1656.35 50.79 1679.27 47.15 1689.26 26.2 1699.81 46.87"/><polygon class="cls-13" points="1502.84 391.67 1525.85 394.69 1509.45 411.12 1513.69 433.93 1493 423.41 1472.61 434.49 1476.22 411.57 1459.38 395.6 1482.3 391.95 1492.29 371 1502.84 391.67"/><polygon class="cls-13" points="1699.81 391.67 1722.82 394.69 1706.42 411.12 1710.66 433.93 1689.97 423.41 1669.58 434.49 1673.19 411.57 1656.35 395.6 1679.27 391.95 1689.26 371 1699.81 391.67"/><polygon class="cls-13" points="1402.28 224.77 1425.29 227.8 1408.89 244.22 1413.12 267.04 1392.44 256.52 1372.05 267.6 1375.66 244.67 1358.82 228.7 1381.74 225.05 1391.72 204.1 1402.28 224.77"/><polygon class="cls-13" points="1803.84 224.77 1826.85 227.8 1810.45 244.22 1814.69 267.04 1794 256.52 1773.61 267.6 1777.22 244.67 1760.38 228.7 1783.3 225.05 1793.29 204.1 1803.84 224.77"/><path class="cls-16" d="M166.2,779a2.17,2.17,0,1,1-3.07,0A2.18,2.18,0,0,1,166.2,779Z"/><path class="cls-16" d="M159.12,786.16a2.17,2.17,0,1,1-3.07,0A2.17,2.17,0,0,1,159.12,786.16Z"/><path class="cls-16" d="M148.87,793.42a2.17,2.17,0,1,1,0,3.07A2.18,2.18,0,0,1,148.87,793.42Z"/><path class="cls-16" d="M144.77,800.64a2.17,2.17,0,1,1-3.07,0A2.19,2.19,0,0,1,144.77,800.64Z"/><path class="cls-16" d="M137.69,807.79a2.17,2.17,0,1,1-3.08,0A2.18,2.18,0,0,1,137.69,807.79Z"/><path class="cls-16" d="M127.44,815.05a2.17,2.17,0,1,1,0,3.07A2.18,2.18,0,0,1,127.44,815.05Z"/><path class="cls-16" d="M123.63,822a2.17,2.17,0,1,1-3.08,0A2.17,2.17,0,0,1,123.63,822Z"/><path class="cls-16" d="M116.55,829.13a2.17,2.17,0,1,1-3.08,0A2.18,2.18,0,0,1,116.55,829.13Z"/><path class="cls-16" d="M106.3,836.39a2.17,2.17,0,1,1,0,3.08A2.17,2.17,0,0,1,106.3,836.39Z"/><path class="cls-16" d="M102.2,843.62a2.17,2.17,0,1,1-3.08,0A2.17,2.17,0,0,1,102.2,843.62Z"/><path class="cls-16" d="M95.12,850.77a2.17,2.17,0,1,1-3.08,0A2.17,2.17,0,0,1,95.12,850.77Z"/><path class="cls-16" d="M84.87,858a2.17,2.17,0,1,1,0,3.08A2.17,2.17,0,0,1,84.87,858Z"/><circle class="cls-17" cx="217.29" cy="730.97" r="47.42" transform="matrix(0.16, -0.99, 0.99, 0.16, -539.27, 826.53)"/><path class="cls-18" d="M202.08,711.94a15.22,15.22,0,1,1,15.21,15.22A15.22,15.22,0,0,1,202.08,711.94Z"/><path class="cls-18" d="M217.29,727.16a26.63,26.63,0,0,0-26.63,26.63h53.27A26.64,26.64,0,0,0,217.29,727.16Z"/><path class="cls-17" d="M45.62,877.3,43.86,873a12.33,12.33,0,0,0-11.44-7.72H0V973.61H134.09V885.8H58.21A13.57,13.57,0,0,1,45.62,877.3Z"/><path class="cls-18" d="M87.1,914.71H82.62a12.78,12.78,0,0,0,.2-2.24v-1.53A12.82,12.82,0,0,0,70,898.12H62.14a12.82,12.82,0,0,0-12.81,12.82v1.53a12.78,12.78,0,0,0,.2,2.24h-5a4.72,4.72,0,0,0-4.72,4.72V940A21.08,21.08,0,0,0,60.9,961.06H73.34a19.79,19.79,0,0,0,19.8-19.8V920.75A6,6,0,0,0,87.1,914.71ZM68,935.4V945a1.51,1.51,0,1,1-3,0V935.4a7,7,0,1,1,3,0Zm9.71-22.93a7.88,7.88,0,0,1-.33,2.24H54.79a7.55,7.55,0,0,1-.34-2.24v-1.53a7.7,7.7,0,0,1,7.69-7.69H70a7.7,7.7,0,0,1,7.69,7.69Z"/><path class="cls-19" d="M438.53,868.87s2.53-27.59-28.3-27.59c0,0,9.34,2.53,14.17,7.6,0,0-19.66-11.55-41.06,6.19s-8.1,62.23-14.61,70.68S336.88,935.89,340,963.2s80.43,61.52,75.46,84.12c0,0,30.31-44.55,8.64-64.88,0,0,10.56,9.95,11.63,21.77,0,0,2.87-23.08-11.82-30.47-13-6.54-23.65-30.44-22.53-34.71S438.53,868.87,438.53,868.87Z"/><path class="cls-20" d="M408.18,1001.36s23,95.29,45.64,114.34c13.59,11.45,54,37.72,54,37.72l-16.81,6.1s-56.05-18.93-68.59-33.68-46.91-88.68-46.91-88.68Z"/><path class="cls-13" d="M541.17,1188.25l-5.42-13.4a38,38,0,0,0-35.25-23.79H400.65v333.86H813.71v-270.5H580A41.83,41.83,0,0,1,541.17,1188.25Z"/><path class="cls-21" d="M191.7,1168.77l.63,1.11c5,8.76,16.61,30.23,29.34,53.72,6,11.15,12.33,22.75,18.32,33.67,10.31,18.84,19.69,35.62,25.16,44.48,5.56,9,9.66,15.35,11.32,17.89h0a4.16,4.16,0,0,1,.54,2.61,136.88,136.88,0,0,0,.36,23.63c7.69,76.42,59.22,117.38,59.22,117.38l15.32,2.26s-21.68-80.33-28.07-125.75c-1.08-7.69-1.55-13.93-1.17-18,1.13-11.83-1-29.21-4.95-49.15-7.07-35.44-20.05-79-31.33-113.77-.71-2.22-22.26-80.17-22.26-80.17-18.09,15.81-84.06,22.33-84.06,22.33S168.9,1128.22,191.7,1168.77Z"/><path class="cls-22" d="M384.08,1484.92H320.13s-1.53-9.75,1.81-17.14c3.2-7.1,7.76-7.32.58-18.44,4.06,4.18,17.13,5.91,26.37,4.67,1.14,1.83,7.31,14.16,11.09,16.87C364.16,1473.89,382.79,1472.82,384.08,1484.92Z"/><path class="cls-22" d="M191.7,1168.77l.63,1.11c5,8.76,32.3,59.11,45,82.6-14.76-60.71-4.5-121.42-4.5-121.42Z"/><path class="cls-19" d="M429.81,865c.42-1.68-36.53,16.7-38.4,18.78-17.33,19.21-12.39,44.3-2.47,44.54,6.36.15,5.12,10.72,5.12,10.72l70.84-30S456.37,859.33,429.81,865Z"/><path class="cls-9" d="M406,987.05s10.78,21.53,9.44,39c0,0-13,20.51-46.71,25.71C368.73,1051.77,397.71,987,406,987.05Z"/><path class="cls-21" d="M241.55,1105.78l.22-12c-23.83,3-82.17-28.48-82.17-28.48s-24.93,16.59-28.34,63.94c-1.67,23.11-12.21,120.86-13.37,150-.43,10.58-.57,18.13-.62,21.15a0,0,0,0,1,0,0,4.18,4.18,0,0,1-1,2.46,137.59,137.59,0,0,0-12.91,19.79C67,1390.42,86,1482.35,86,1482.35l8.45-2.15s30.75-95.3,50.84-136.52c3.41-7,6.51-12.43,9.1-15.58,7.56-9.18,15.53-24.76,23.38-43.52C192.61,1249.12,241.55,1105.78,241.55,1105.78Z"/><path class="cls-22" d="M136.86,1484.92h-64s-1.54-9.75,1.81-17.14c3.2-7.1,8.21-10.32,7-18.91,4.06,4.19,10.69,8.87,19.93,7.63,1.13,1.84,7.31,11.67,11.1,14.38C116.94,1473.89,135.57,1472.82,136.86,1484.92Z"/><path class="cls-9" d="M364.41,1065.5c-8.59,1.47,1.41,8.3-10.41,9.58-16.81,1.83-34.18,3.09-43.27,6.72-3.32,1.32-5.54,3-6.23,5-3.94,11.86-28.91,32.23-28.91,32.23-111.36-5.07-118.53-54.7-118.53-54.7,72.27-70.19,133.76-108.45,184.57-113.19,12.37-1.15,29,.4,36.86,3.88,17.77,7.91,27.51,32,27.51,32S397.05,1059.93,364.41,1065.5Z"/><path class="cls-23" d="M354,1075.08c-16.81,1.83-34.18,3.09-43.27,6.72-3.72-55.54,22.49-97.32,22.49-97.32S350.32,1054.06,354,1075.08Z"/><path class="cls-20" d="M368.51,975.08s-42.29-2.31-49.8,24.24,14.09,132.53,18.75,143.46c8.48,19.92,51.23,79.23,51.23,79.23l13.71-7.1s-27.53-86.83-33.67-95.42C359.08,1106,381.17,986.63,368.51,975.08Z"/><path class="cls-20" d="M402.4,1214.91a62.44,62.44,0,0,1,6.38,6.55c2.84,3.47.34,4.73,8.51,20.46,0,0-.42,2.19-2.19,1.79s-7.94-6.5-11.1-6.06c0,0-2.26,1.86-2.51,8-.23,5.76-.25,18.53-1.25,20.93s-8.35-10.06-12-19c-3.17-7.89-.08-34.5-.08-34.5Z"/><path class="cls-9" d="M310.37,1034.83c.11.62,40,7.34,65-5.33,0,0,20.86-65.33-8.94-62.2S319,979.81,318.2,994.08,310.37,1034.83,310.37,1034.83Z"/><path class="cls-20" d="M377.54,959.63c.43,5.29,1.11,11.48,8,18.61,5.3,5.45,13,9.71,18.34,4.34a59.21,59.21,0,0,0,8.32-10.06c4.65-8,10.19-16.16,10.19-16.16l-23.94-21-1.42-1.25a61,61,0,0,1-17.83,20.23C377.59,955.59,377.37,957.61,377.54,959.63Z"/><path class="cls-24" d="M422.42,956.37s-5.54,8.15-10.19,16.15c-14.87-9.17-14.89-27.59-13.74-37.13Z"/><path class="cls-20" d="M423.08,966.88s-36.12-20.1-23.26-42.4,16.87-39.92,40.47-28,23.14,23,20.66,31.45S432.81,971.53,423.08,966.88Z"/><path class="cls-19" d="M467.05,914.89c-1.66-9.9-6.69-10.84-10.19-10.18-13.34-22.06-35.14-13.45-35.14-13.45a49.23,49.23,0,0,1-28.47,17.1s4.2,7.8,21.47,12.62c5.27,1.48,11.26.59,17-1.36a96.43,96.43,0,0,1-24.51,9.24c22.76,2.08,44.42-18.72,46.66-21,1.05,3.23,2.89,10,1.79,14.91-1.5,6.71-7.45,18.86-3.82,20.43C451.87,943.25,469.53,929.74,467.05,914.89Z"/><path class="cls-20" d="M514.43,1153.47S504.35,1161,512,1166s21.16,6.28,21.21,3C533.35,1158.12,527.92,1150.38,514.43,1153.47Z"/><path class="cls-15" d="M666.65,1303.05h-13a37.71,37.71,0,0,0,.59-6.51v-4.45A37.26,37.26,0,0,0,617,1254.88H594.13a37.24,37.24,0,0,0-37.2,37.21v4.45a37.71,37.71,0,0,0,.57,6.51H543a13.69,13.69,0,0,0-13.69,13.7v59.72a61.19,61.19,0,0,0,61.2,61.2h36.13a57.5,57.5,0,0,0,57.51-57.5V1320.6A17.54,17.54,0,0,0,666.65,1303.05Zm-55.51,60.11v27.74a4.38,4.38,0,0,1-8.75,0v-27.74a20.2,20.2,0,1,1,8.75,0Zm28.2-66.62a22.25,22.25,0,0,1-1,6.51H572.78a21.92,21.92,0,0,1-1-6.51v-4.45a22.35,22.35,0,0,1,22.33-22.33H617a22.35,22.35,0,0,1,22.34,22.33Z"/><path class="cls-13" d="M2195.13,1485.52H1693.75c-69.9-80.33-67-178.13,28.37-266.94,17.12-15.94,47-33.1,71.15-38.86,44.47-10.61,94.92-13,95.31-13.26.15-.06,56.07-7.85,72-27.25,49.55-60.26,62.29-68.89,62.29-68.89,50.51-9.87,93.59-12.77,125.53,5.09v0c29.58,16.57,49.62,51,57.11,114.2q2.13,17.93,2.9,39c1.83,51.31,11.9,96.95,17.88,135.6h0C2235,1420.24,2241.11,1462.82,2195.13,1485.52Z"/><path class="cls-25" d="M2123.39,1139.51c-30.65,16.69-34,71.69-82,85.89s-129.4,12.91-175.58,63c-44.56,48.33-93.7-74.64-72.54-109.23,44.47-10.56,94.91-13,95.31-13.2.14-.06,68.41-.34,84.36-19.65,49.55-60,50-76,50-76,50.51-9.83,93.59-12.71,125.53,5.06v0C2183.61,1111.72,2154,1122.81,2123.39,1139.51Z"/><path class="cls-25" d="M2226.32,1362.87c-70.34-87.8-214.84,31.89-252.23,28.52-34.38-3.11,67-123.12,192.81-141,50.84-7.22,38.66-59.76,38.64-61.38,1.42,11.9,2.4,24.82,2.9,38.85C2210.27,1279,2220.34,1324.4,2226.32,1362.87Z"/><path class="cls-20" d="M1834,1410.67c-4.92,9.48-6,26.92-7.49,32.84s-27.23,26-29.45,25c-5.64-2.54-.25-12.36,3.19-19.55.14-.28.27-.57.41-.86,3.39-7.23.47-23.38,2.23-31.73s-6.7-30.8-6.7-30.8l14.24-18s10,19,17.17,22.5a17.72,17.72,0,0,1,3.49,2.23C1836,1396.32,1838.06,1402.87,1834,1410.67Z"/><path class="cls-26" d="M2024.87,932.29a60.22,60.22,0,0,0-36.49,16.85c-6.29,6-13.27,14.27-17.58,24.11-9.39,21.44-6.16,46.38-11.53,60.07s-8.59,16.07,0,22.27,10,12.09-.24,18.66-17.84,27,10.81,28.82,84.18-8.62,91.31-13.91,26.64-13.18,36-27.35c18.68-28.33,3.8-47.37-10.64-52.16C2064.52,1002.33,2072.6,928.29,2024.87,932.29Z"/><path class="cls-9" d="M1987.25,1051s-28.4,64.13-34.32,69.7-33.62,16.48-31.13,25.82,23.35,18.37,32.07,16.19,30.82-39.86,30.82-39.86Z"/><path class="cls-23" d="M1924.11,1152.1s1.53-11,28.45-14.59c14.94-2,39.93-43.64,39.93-43.64l-25,65.69L1943.28,1170Z"/><path class="cls-22" d="M1935.05,1172.82s-140.19-9.81-159.4,12.44c-15.24,17.65,12.51,210.51,12.51,210.51s38.15,1.11,41.16-9c0,0-7.12-93.63-1.16-109.82s2.19-38.61,2.19-38.61,74.64,11.18,98.32,5.51S1935.05,1172.82,1935.05,1172.82Z"/><path class="cls-20" d="M1784,1466.22c-9.86,4.07-22,16.68-26.9,20.26s-37.6,2.3-38.64.11c-2.77-5.8,8.65-9.93,15.91-13.27.11,0,.21-.11.32-.15l0,0c7.18-3.61,15.22-17.48,21.84-22.64s14.75-27.85,14.75-27.85l22.48-4.55s-4.62,21-1.39,28.26a19.44,19.44,0,0,1,.77,2.08C1795.18,1455.2,1792.91,1462.53,1784,1466.22Z"/><path class="cls-27" d="M1996.67,1179.67s-153,15.54-166.39,31.15S1764,1429.44,1764,1429.44s15.6,8.71,29.79.58c0,0,40.47-68.87,58.38-90.49s24.27-78.09,33.82-84.17c2.55-1.63,92.55,8.5,125.56-16.84S1996.67,1179.67,1996.67,1179.67Z"/><path class="cls-9" d="M2063.36,1180a177.51,177.51,0,0,1-12.77,21c-11.45,16-24.71,27.45-39.07,30.43-20.87,4.33-90.82-36.27-87.28-58.67,1.92-12.19,40.8-34.1,47.07-43s10-53.18,13.38-71.28c2.49-13.46,10.84-14.87,21.28-18.45,44.33-15.18,75.89.88,75.89.88C2102.14,1052.3,2090.86,1127.33,2063.36,1180Z"/><path class="cls-26" d="M2061.22,994.73a192.6,192.6,0,0,0,3.33-22.47c.68-8.29-11.91-35.31-31.46-34.19a41.32,41.32,0,0,0-16.5,8.07c-6.18,5.08-14.79,15.59-1.66,41l3.6,8.65Z"/><path class="cls-20" d="M2021.6,1038.41c.63,4.63,4.76,7.27,13.94,6.68s22.49-6.23,21.4-10.53c-1-3.76-5.11-12.58-6.79-35l-1.69.47-28.41,8s1.37,9,2.06,17.58C2022.69,1032.77,2021.27,1036.06,2021.6,1038.41Z"/><path class="cls-28" d="M2020.05,1008s1.37,9,2.06,17.58c16.11-1.72,23.49-17.13,26.35-25.57Z"/><path class="cls-20" d="M2019.44,1021.14s37.17-9.35,31-32.41-5.55-39.8-29.54-34.81-26.24,15-26.05,23.23S2009.61,1023,2019.44,1021.14Z"/><path class="cls-26" d="M2003.89,957.89s12.47,23.79,36,26.35c13.78,1.5,17.56,10.58,17.56,10.58s-4.13-26-11.06-41.83C2046.41,953,2008.07,943,2003.89,957.89Z"/><path class="cls-26" d="M2008.15,961s-8.15,8.31-10.66,14.16c-3.72,8.68,3.53,26.95,6.53,30.89,0,0-17.3-29.35-11.52-42.06C1998.64,950.56,2008.15,961,2008.15,961Z"/><path class="cls-20" d="M1894.75,1175.12s-7.4,7.84-8.3,8.26c-4.9,2.29-11.08.95-14.07,1.71s-2.47-1.11-.27-2.62,7.63-.92,5.41-1.47-14.18-2.78-18.69-1.58c-7.14,1.91-12.76-.33-13.21-1.06s16.29-8.91,21.07-8.63,18.53-.39,18.53-.39Z"/><path class="cls-20" d="M2094.43,1055.34s4.45,109-8.37,124.33c-12.43,14.82-65.52,4.76-88.46-.22a6.42,6.42,0,0,0-5.12,1.48c-1.79,1.61-2.57-10.92-2.57-10.92s69.25-10.13,73.9-11.45c6.69-1.89,2-77,2-77Z"/><path class="cls-20" d="M1995.31,1178s-6.2,6.29-8.57,9.5-18.86,9-19.23,7.31,7.38-7,8.09-8.9,9.15-11.77,14.31-12.88S1995.31,1178,1995.31,1178Z"/><path class="cls-20" d="M1989.91,1170s-25.45,5.89-29.76,7.65-13.48,14.73-9.85,16.67c2.3,1.23,12.34-4.07,17.44-5.18s19.53,1.41,26.14-11.65C1994.63,1176,1989.91,1170,1989.91,1170Z"/><path class="cls-27" d="M1784,1466.22c-9.86,4.07-22,16.68-26.9,20.26s-37.6,2.3-38.64.11c-2.77-5.8,8.65-9.93,15.91-13.27.11,0,.21-.11.32-.15l0,0,1-.33s14.09,5,25.81,0c9.14-3.92,22.68-18.46,31.62-24.37C1795.18,1455.2,1792.91,1462.53,1784,1466.22Z"/><path class="cls-29" d="M1834,1410.67c-4.92,9.48-6,26.92-7.49,32.84s-27.23,26-29.45,25c-5.64-2.54-.25-12.36,3.19-19.55a15.92,15.92,0,0,0,7.87-2.92c6.44-4.3,17.37-20.5,18.35-30.06.79-7.79.29-19,4.62-23.66C1836,1396.32,1838.06,1402.87,1834,1410.67Z"/><polygon class="cls-30" points="1957.1 1197.62 1846.27 1197.62 1812.93 1114.71 1923.59 1114.71 1957.1 1197.62"/><polygon class="cls-25" points="1844.97 1194.39 1991.32 1194.39 1991.32 1197.62 1846.27 1197.62 1844.97 1194.39"/><path class="cls-31" d="M1874.25,1156.17c-.84-2.92.85-5.28,3.76-5.28a7.56,7.56,0,0,1,6.79,5.28c.84,2.91-.85,5.27-3.76,5.27A7.55,7.55,0,0,1,1874.25,1156.17Z"/><path class="cls-23" d="M2063.36,1180a177.51,177.51,0,0,1-12.77,21c-35.52-1.32-44.09-15.68-44.09-15.68Z"/><path class="cls-23" d="M2008.16,1166.38s40.55-9.31,45.59-18,12.1-66.76,12.1-66.76l16.92,21.68-3.43,51s-19.3,19.1-20.55,18.4S2008.16,1166.38,2008.16,1166.38Z"/><path class="cls-9" d="M2081.86,1040.88s9.61,4.84,13.32,11.62c7.05,12.88,14.58,112.69-5.46,129.18s-78.17,13.21-85,1.53c0,0-.48-11,3.45-16.83,0,0,52.34-6.92,54.68-10.21s-1.69-74,.78-80.44S2081.86,1040.88,2081.86,1040.88Z"/><path class="cls-13" d="M2090.56,1180.59s-15.11,14.16-78.33,16.19c-49.44,1.59-101.52,21.52-125.84,55.75-6.79,9.55-11.47,25.27-13.27,35.87-3.3,19.45,120,49.7,122,46.88s81.21-70.89,81.21-70.89Z"/><path class="cls-25" d="M1518.86,790.2s61.49,63.75,64.4,87.75-29.46,61.45-29.46,61.45Z"/><path class="cls-32" d="M1491.08,1450.89s-2.17,33.81-8.71,34.28c-.87.07-33.19,0-33.19,0l-41.25-.33s.29-9.94,12.35-12,32.27-10.5,39.61-26.42C1467.61,1429.65,1491.08,1450.89,1491.08,1450.89Z"/><path class="cls-32" d="M1583,1451.09s-2.17,33.81-8.71,34.28c-.87.07-33.19,0-33.19,0l-41.25-.33s.29-9.94,12.36-12,32.26-10.5,39.6-26.42C1559.49,1429.85,1583,1451.09,1583,1451.09Z"/><path class="cls-26" d="M1446.19,1087.32s10.63,69,50.62,191.61,45.35,175.63,45.35,175.63l43.18-1.11s.66-133.87-17.76-195.51-3.52-222.07-3.52-222.07Z"/><path class="cls-33" d="M1425.28,1039.35s-1.75,104,16,231.69,11.5,181.9,11.5,181.9l43.08,1.52s26-127.66,18.79-191.58,35.74-219.21,35.74-219.21Z"/><path class="cls-20" d="M1509.22,796.19l-23,15-33.16-6.26c.46-2.68,2.68-13.77,4.69-23.82.12-.6.25-1.19.36-1.77l3.22-15.9,31-13.6,11.56-5.07c0,.18-.91,9.49-1,10.85C1500.66,779.77,1509.22,796.19,1509.22,796.19Z"/><path class="cls-25" d="M1461.6,788.5c.64-.27,40-11.79,44.25-10.37s6.78,9.69,6.78,9.69l-64.34,14.4S1453.38,791.94,1461.6,788.5Z"/><path class="cls-13" d="M1566.88,1052.49c-6.73,30.39-117.63,33.75-146.16,6.1-3.24-3.16-3.37-17.79-2.1-37.52,2.48-38.54,10.31-96.51,10.67-126.13a234.57,234.57,0,0,1,4.83-42.22,343.38,343.38,0,0,1,14.17-50.51s54.21-17.39,64.34-14.39C1561.42,802.27,1573.61,1022.11,1566.88,1052.49Z"/><path class="cls-25" d="M1418.62,1021.07c2.48-38.54,10.31-96.51,10.67-126.13a234.57,234.57,0,0,1,4.83-42.22l32.59-5.68S1498.29,977.23,1418.62,1021.07Z"/><path class="cls-20" d="M1436.38,967.38s2.21,5.32-2.46,8.87-7.71,9.32-6.65,13.55,11.27,11.12,14.82,10,10.78-6.64,10-8.87,4.9-19.52-3.74-26.21S1436.38,967.38,1436.38,967.38Z"/><path class="cls-13" d="M1473.19,794.47s-31.79,5.88-57.19,43.13-42.12,65-37.49,78.43,47,60.19,54.38,60.21,19.17-5.29,19.87-17.28c0,0-29.84-44.93-23.93-51.64,2.53-2.86,38.93-32.29,44.09-19C1481.46,910.44,1473.19,794.47,1473.19,794.47Z"/><path class="cls-34" d="M1500.56,756.05c-6.83,11.51-32.21,21.43-42.8,25.07.12-.6.25-1.19.36-1.77l3.22-15.9,31-13.6C1499.21,749.77,1503.37,751.31,1500.56,756.05Z"/><path class="cls-20" d="M1449.66,761.54s49.89,15.68,59.17-15.53,22-50.22-9.47-61.55-41.22-1.27-46.86,8.4S1436.92,756.66,1449.66,761.54Z"/><path class="cls-26" d="M1454.47,689.85s3.1,36.36,10.63,34.8,14.34-2.72,13.21,8.23-11.58,23.59,11.59,25.58,56.59-57.69,50.25-69C1521.86,656.77,1428,650,1454.47,689.85Z"/><path class="cls-16" d="M1857,595.45a2.37,2.37,0,1,0,3.35,0A2.37,2.37,0,0,0,1857,595.45Z"/><path class="cls-16" d="M1864.67,603.23a2.37,2.37,0,1,0,3.35,0A2.37,2.37,0,0,0,1864.67,603.23Z"/><path class="cls-16" d="M1875.83,611.13a2.37,2.37,0,1,0,0,3.35A2.37,2.37,0,0,0,1875.83,611.13Z"/><path class="cls-16" d="M1880.29,619a2.37,2.37,0,1,0,3.35,0A2.37,2.37,0,0,0,1880.29,619Z"/><path class="cls-16" d="M1888,626.78a2.37,2.37,0,1,0,3.35,0A2.37,2.37,0,0,0,1888,626.78Z"/><path class="cls-16" d="M1899.16,634.68a2.37,2.37,0,1,0,0,3.35A2.37,2.37,0,0,0,1899.16,634.68Z"/><path class="cls-16" d="M1903.31,642.23a2.37,2.37,0,1,0,3.35,0A2.37,2.37,0,0,0,1903.31,642.23Z"/><path class="cls-16" d="M1911,650a2.37,2.37,0,1,0,3.35,0A2.36,2.36,0,0,0,1911,650Z"/><path class="cls-16" d="M1922.18,657.92a2.37,2.37,0,1,0,0,3.34A2.37,2.37,0,0,0,1922.18,657.92Z"/><path class="cls-16" d="M1926.64,665.78a2.37,2.37,0,1,0,3.35,0A2.37,2.37,0,0,0,1926.64,665.78Z"/><path class="cls-16" d="M1934.35,673.57a2.37,2.37,0,1,0,3.35,0A2.36,2.36,0,0,0,1934.35,673.57Z"/><path class="cls-16" d="M1945.51,681.47a2.37,2.37,0,1,0,0,3.34A2.37,2.37,0,0,0,1945.51,681.47Z"/><path class="cls-16" d="M1763.17,619.47a2.37,2.37,0,1,0,1.77,2.84A2.37,2.37,0,0,0,1763.17,619.47Z"/><path class="cls-16" d="M1760.71,630.15a2.37,2.37,0,1,0,1.77,2.83A2.36,2.36,0,0,0,1760.71,630.15Z"/><path class="cls-16" d="M1760,643.8a2.37,2.37,0,1,0-2.84,1.78A2.38,2.38,0,0,0,1760,643.8Z"/><path class="cls-16" d="M1755.73,651.78a2.37,2.37,0,1,0,1.78,2.83A2.37,2.37,0,0,0,1755.73,651.78Z"/><path class="cls-16" d="M1753.27,662.45a2.37,2.37,0,1,0,1.78,2.84A2.36,2.36,0,0,0,1753.27,662.45Z"/><path class="cls-16" d="M1752.56,676.11a2.37,2.37,0,1,0-2.84,1.77A2.37,2.37,0,0,0,1752.56,676.11Z"/><path class="cls-16" d="M1748.39,683.65a2.37,2.37,0,1,0,1.78,2.84A2.36,2.36,0,0,0,1748.39,683.65Z"/><path class="cls-16" d="M1745.94,694.32a2.37,2.37,0,1,0,1.77,2.84A2.37,2.37,0,0,0,1745.94,694.32Z"/><path class="cls-16" d="M1745.22,708a2.37,2.37,0,1,0-2.84,1.77A2.36,2.36,0,0,0,1745.22,708Z"/><path class="cls-16" d="M1741,716a2.37,2.37,0,1,0,1.77,2.83A2.36,2.36,0,0,0,1741,716Z"/><path class="cls-16" d="M1738.5,726.63a2.37,2.37,0,1,0,1.77,2.84A2.37,2.37,0,0,0,1738.5,726.63Z"/><path class="cls-16" d="M1737.78,740.28a2.37,2.37,0,1,0-2.83,1.78A2.35,2.35,0,0,0,1737.78,740.28Z"/><path class="cls-17" d="M1853,543.14a51.63,51.63,0,1,0-51.62,51.62A51.62,51.62,0,0,0,1853,543.14Z"/><path class="cls-18" d="M1817.91,522.43A16.57,16.57,0,1,0,1801.34,539,16.57,16.57,0,0,0,1817.91,522.43Z"/><path class="cls-18" d="M1801.34,539a29,29,0,0,1,29,29h-58A29,29,0,0,1,1801.34,539Z"/><path class="cls-17" d="M1927.15,702.45l-1.91-4.73a13.44,13.44,0,0,0-12.46-8.41h-35.29v118h146V711.7h-82.61A14.79,14.79,0,0,1,1927.15,702.45Z"/><path class="cls-18" d="M1972.32,743.18h-4.88a14,14,0,0,0,.22-2.44v-1.67a14,14,0,0,0-14-13.94h-8.58a14,14,0,0,0-13.94,13.94v1.67a14,14,0,0,0,.22,2.44H1926a5.14,5.14,0,0,0-5.13,5.14V770.7a22.94,22.94,0,0,0,22.94,22.94h13.55a21.55,21.55,0,0,0,21.55-21.55V749.76A6.58,6.58,0,0,0,1972.32,743.18Zm-20.81,22.53v10.4a1.64,1.64,0,0,1-3.28,0v-10.4a7.57,7.57,0,1,1,3.28,0Zm10.57-25a8.19,8.19,0,0,1-.37,2.44h-24.58a8.19,8.19,0,0,1-.37-2.44v-1.67a8.39,8.39,0,0,1,8.37-8.37h8.58a8.39,8.39,0,0,1,8.37,8.37Z"/><path class="cls-17" d="M1680.25,813.56c0,26.37,44.65,74.49,44.65,74.49s44.63-48.12,44.63-74.49-20-47.72-44.63-47.72S1680.25,787.21,1680.25,813.56Zm18.74-4.83a25.91,25.91,0,1,1,25.91,25.9A25.92,25.92,0,0,1,1699,808.73Z"/><path class="cls-13" d="M648.9,794.8c-1.11-4.56.89-8.13,5.11-8.14s7.88,3.51,9,8.11-.87,8.13-5.11,8.13S650,799.39,648.9,794.8Zm10.52,0c-.69-2.85-2.62-5-4.7-5s-3,2.09-2.24,5,2.59,5,4.7,5S660.12,797.67,659.42,794.78Z"/><path class="cls-21" d="M587.92,676.78l-2.6.68-1.41-2.82,4.23-1.36h2.38l3.83,15.81H590.9Z"/><path class="cls-21" d="M600.3,681.23c-1.11-4.56.89-8.13,5.11-8.13s7.88,3.51,9,8.11-.87,8.12-5.11,8.13S601.41,685.83,600.3,681.23Zm10.52,0c-.69-2.85-2.62-5-4.7-5s-3,2.1-2.24,5,2.59,5,4.7,5S611.52,684.11,610.82,681.21Z"/><path class="cls-21" d="M674.64,899.73c-1.1-4.55.9-8.12,5.11-8.13s7.89,3.51,9,8.11-.87,8.12-5.11,8.13S675.76,904.33,674.64,899.73Zm10.53,0c-.69-2.85-2.62-5-4.71-5s-2.94,2.09-2.23,5,2.59,5,4.7,5S685.87,902.61,685.17,899.71Z"/><path class="cls-21" d="M605.81,750.68l-2.6.67-1.41-2.82,4.23-1.35h2.38L612.24,763h-3.45Z"/><path class="cls-21" d="M618.19,755.12c-1.1-4.55.89-8.12,5.11-8.13s7.88,3.51,9,8.11-.87,8.12-5.11,8.13S619.3,759.72,618.19,755.12Zm10.52,0c-.69-2.85-2.62-5-4.7-5s-2.94,2.09-2.24,5,2.6,5,4.71,5S629.41,758,628.71,755.1Z"/><path class="cls-13" d="M616.12,713.5l-2.61.68-1.41-2.82,4.24-1.36h2.38l3.83,15.81H619.1Z"/><path class="cls-13" d="M628.49,718c-1.1-4.55.9-8.13,5.11-8.13s7.89,3.51,9,8.11-.87,8.12-5.11,8.13S629.61,722.55,628.49,718Zm10.53,0c-.69-2.85-2.62-5-4.71-5s-2.94,2.09-2.23,5,2.59,5,4.7,5S639.72,720.83,639,717.93Z"/><path class="cls-21" d="M615.43,790.39l-2.61.67-1.41-2.82,4.24-1.36H618l3.83,15.82h-3.45Z"/><path class="cls-21" d="M627.8,794.83c-1.1-4.55.89-8.13,5.11-8.13s7.89,3.51,9,8.11-.87,8.12-5.11,8.13S628.92,799.43,627.8,794.83Zm10.53,0c-.69-2.85-2.62-5-4.71-5s-2.94,2.09-2.23,5,2.59,5,4.7,5S639,797.71,638.33,794.81Z"/><path class="cls-13" d="M660.13,681.21c-1.1-4.55.89-8.12,5.11-8.13s7.89,3.51,9,8.11-.87,8.12-5.11,8.13S661.25,685.81,660.13,681.21Zm10.53,0c-.69-2.85-2.62-5-4.71-5s-2.94,2.09-2.23,5,2.59,5,4.7,5S671.36,684.09,670.66,681.19Z"/><path class="cls-21" d="M626.67,676.8l-2.61.68-1.41-2.83,4.23-1.35h2.39l3.82,15.81h-3.44Z"/><path class="cls-21" d="M639,681.25c-1.1-4.56.89-8.13,5.11-8.14s7.88,3.51,9,8.11-.87,8.13-5.11,8.14S640.15,685.85,639,681.25Zm10.52,0c-.69-2.85-2.61-5-4.7-5s-2.94,2.09-2.24,5,2.6,5,4.71,5S650.26,684.12,649.56,681.23Z"/><path class="cls-13" d="M667.27,871.5c-1.11-4.55.89-8.13,5.11-8.13s7.88,3.51,9,8.11-.87,8.12-5.11,8.13S668.38,876.1,667.27,871.5Zm10.52,0c-.69-2.85-2.62-5-4.7-5s-3,2.1-2.24,5,2.59,5,4.7,5S678.49,874.38,677.79,871.48Z"/><path class="cls-21" d="M624.18,827.38l-2.6.68-1.41-2.83,4.23-1.35h2.38l3.83,15.81h-3.45Z"/><path class="cls-21" d="M636.56,831.83c-1.1-4.56.89-8.13,5.11-8.14s7.88,3.51,9,8.11-.87,8.13-5.11,8.14S637.67,836.43,636.56,831.83Zm10.52,0c-.69-2.85-2.62-5-4.7-5s-2.94,2.09-2.24,5,2.6,5,4.71,5S647.78,834.7,647.08,831.81Z"/><path class="cls-21" d="M657.65,831.79c-1.1-4.55.89-8.12,5.11-8.13s7.88,3.51,9,8.11-.87,8.12-5.11,8.13S658.76,836.39,657.65,831.79Zm10.52,0c-.69-2.85-2.61-5-4.7-5s-2.94,2.09-2.24,5,2.6,5,4.71,5S668.88,834.67,668.17,831.77Z"/><path class="cls-21" d="M680.36,827.29l-2.6.67-1.41-2.82,4.23-1.35H683l3.83,15.82h-3.45Z"/><path class="cls-21" d="M633.8,867.09l-2.61.68-1.41-2.83,4.24-1.35h2.38l3.83,15.82h-3.45Z"/><path class="cls-21" d="M646.17,871.54c-1.1-4.56.89-8.13,5.11-8.14s7.89,3.51,9,8.11-.87,8.13-5.11,8.13S647.29,876.13,646.17,871.54Zm10.53,0c-.69-2.85-2.62-5-4.71-5s-2.94,2.09-2.23,5,2.59,5,4.7,5S657.4,874.41,656.7,871.52Z"/><path class="cls-21" d="M685.92,959.55c-1.11-4.56.89-8.13,5.11-8.14s7.88,3.51,9,8.11-.86,8.13-5.11,8.13S687,964.15,685.92,959.55Zm10.52,0c-.69-2.85-2.62-5-4.7-5s-3,2.09-2.24,5,2.6,5,4.71,5S697.14,962.42,696.44,959.53Z"/><path class="cls-21" d="M708.63,955l-2.61.68-1.41-2.83,4.24-1.35h2.38l3.83,15.81h-3.45Z"/><path class="cls-21" d="M652.45,955.14l-2.6.67L648.44,953l4.23-1.35h2.38l3.83,15.82h-3.45Z"/><path class="cls-21" d="M664.82,959.58c-1.1-4.55.9-8.12,5.11-8.13s7.89,3.51,9,8.11-.87,8.12-5.11,8.13S665.94,964.18,664.82,959.58Zm10.53,0c-.69-2.84-2.62-5-4.71-5s-2.94,2.09-2.23,5,2.59,5,4.7,5S676.05,962.46,675.35,959.56Z"/><path class="cls-13" d="M721,959.49c-1.1-4.56.9-8.13,5.11-8.14s7.89,3.51,9,8.11-.87,8.13-5.11,8.14S722.12,964.09,721,959.49Zm10.53,0c-.69-2.85-2.62-5-4.71-5s-2.94,2.1-2.23,5,2.59,5,4.7,5S732.23,962.36,731.53,959.47Z"/><path class="cls-13" d="M742.1,959.45c-1.11-4.55.89-8.12,5.11-8.13s7.88,3.51,9,8.11-.86,8.12-5.11,8.13S743.21,964.05,742.1,959.45Zm10.52,0c-.69-2.85-2.62-5-4.7-5s-2.95,2.09-2.24,5,2.59,5,4.7,5S753.32,962.33,752.62,959.43Z"/><path class="cls-21" d="M659.86,987.87c-1.11-4.56.89-8.13,5.11-8.13s7.88,3.51,9,8.1-.87,8.13-5.11,8.14S661,992.47,659.86,987.87Zm10.52,0c-.69-2.85-2.62-5-4.71-5s-2.94,2.1-2.23,5,2.59,5,4.7,5S671.08,990.74,670.38,987.85Z"/><path class="cls-21" d="M682.57,983.36,680,984l-1.41-2.82,4.23-1.36h2.39L689,995.67h-3.45Z"/><path class="cls-21" d="M694.94,987.81c-1.1-4.55.89-8.13,5.11-8.13s7.89,3.51,9,8.11-.87,8.12-5.11,8.13S696.06,992.41,694.94,987.81Zm10.53,0c-.69-2.85-2.62-5-4.71-5s-2.94,2.1-2.23,5,2.59,5,4.7,5S706.17,990.69,705.47,987.79Z"/><path class="cls-21" d="M716,987.77c-1.1-4.55.9-8.12,5.11-8.13s7.89,3.51,9,8.11-.87,8.13-5.11,8.13S717.15,992.37,716,987.77Zm10.53,0c-.69-2.85-2.62-5-4.71-5s-2.94,2.09-2.23,5,2.59,5,4.7,5S727.26,990.65,726.56,987.76Z"/><path class="cls-21" d="M1324,959.55c-1.1-4.56.89-8.13,5.11-8.14s7.89,3.51,9,8.11-.87,8.13-5.11,8.13S1325.15,964.15,1324,959.55Zm10.53,0c-.69-2.85-2.62-5-4.71-5s-2.94,2.09-2.23,5,2.59,5,4.7,5S1335.26,962.42,1334.56,959.53Z"/><path class="cls-21" d="M1346.74,955l-2.6.68-1.41-2.83,4.23-1.35h2.38l3.83,15.81h-3.44Z"/><path class="cls-21" d="M1290.56,955.14l-2.6.67-1.41-2.82,4.23-1.35h2.38l3.83,15.82h-3.44Z"/><path class="cls-21" d="M1302.94,959.58c-1.1-4.55.89-8.12,5.11-8.13s7.88,3.51,9,8.11-.87,8.12-5.11,8.13S1304.05,964.18,1302.94,959.58Zm10.52,0c-.69-2.84-2.61-5-4.7-5s-2.94,2.09-2.24,5,2.6,5,4.71,5S1314.16,962.46,1313.46,959.56Z"/><path class="cls-13" d="M1359.12,959.49c-1.1-4.56.89-8.13,5.11-8.14s7.88,3.51,9,8.11-.87,8.13-5.11,8.14S1360.23,964.09,1359.12,959.49Zm10.52,0c-.69-2.85-2.61-5-4.7-5s-2.94,2.1-2.24,5,2.6,5,4.71,5S1370.34,962.36,1369.64,959.47Z"/><path class="cls-13" d="M1380.21,959.45c-1.1-4.55.89-8.12,5.11-8.13s7.89,3.51,9,8.11-.87,8.12-5.11,8.13S1381.33,964.05,1380.21,959.45Zm10.53,0c-.69-2.85-2.62-5-4.71-5s-2.94,2.09-2.23,5,2.59,5,4.7,5S1391.44,962.33,1390.74,959.43Z"/><path class="cls-21" d="M1239.68,987.87c-1.1-4.56.89-8.13,5.11-8.13s7.88,3.51,9,8.1-.86,8.13-5.1,8.14S1240.79,992.47,1239.68,987.87Zm10.52,0c-.69-2.85-2.62-5-4.7-5s-2.94,2.1-2.24,5,2.6,5,4.71,5S1250.9,990.74,1250.2,987.85Z"/><path class="cls-21" d="M1262.39,983.36l-2.61.68-1.41-2.82,4.24-1.36H1265l3.83,15.81h-3.45Z"/><path class="cls-21" d="M1274.77,987.81c-1.11-4.55.89-8.13,5.11-8.13s7.88,3.51,9,8.11-.87,8.12-5.11,8.13S1275.88,992.41,1274.77,987.81Zm10.52,0c-.69-2.85-2.62-5-4.71-5s-2.94,2.1-2.23,5,2.59,5,4.7,5S1286,990.69,1285.29,987.79Z"/><path class="cls-21" d="M1295.86,987.77c-1.11-4.55.89-8.12,5.11-8.13s7.88,3.51,9,8.11-.86,8.13-5.11,8.13S1297,992.37,1295.86,987.77Zm10.52,0c-.69-2.85-2.62-5-4.7-5s-3,2.09-2.24,5,2.6,5,4.71,5S1307.08,990.65,1306.38,987.76Z"/><path class="cls-13" d="M712.71,1062c-1.11-4.55.89-8.12,5.11-8.13s7.88,3.51,9,8.11-.87,8.13-5.11,8.13S713.82,1066.59,712.71,1062Zm10.52,0c-.69-2.85-2.62-5-4.7-5s-2.95,2.09-2.24,5,2.59,5,4.7,5S723.93,1064.87,723.23,1062Z"/><path class="cls-13" d="M735.42,1057.49l-2.61.68-1.41-2.83,4.24-1.35H738l3.83,15.82H738.4Z"/><path class="cls-21" d="M669.62,1017.88l-2.6.67-1.41-2.82,4.23-1.36h2.38l3.83,15.82h-3.44Z"/><path class="cls-21" d="M682,1022.32c-1.1-4.55.89-8.12,5.11-8.13s7.88,3.51,9,8.11-.87,8.12-5.11,8.13S683.11,1026.92,682,1022.32Zm10.52,0c-.69-2.85-2.62-5-4.7-5s-2.94,2.09-2.24,5,2.6,5,4.71,5S693.22,1025.2,692.52,1022.3Z"/><path class="cls-21" d="M703.09,1022.29c-1.1-4.56.89-8.13,5.11-8.14s7.88,3.51,9,8.11-.87,8.13-5.11,8.14S704.2,1026.88,703.09,1022.29Zm10.52,0c-.68-2.85-2.61-5-4.7-5s-2.94,2.09-2.24,5,2.6,5,4.71,5S714.32,1025.16,713.61,1022.27Z"/><path class="cls-21" d="M725.8,1017.78l-2.6.68-1.41-2.83,4.23-1.35h2.38l3.83,15.81h-3.45Z"/><path class="cls-21" d="M1287.07,1017.88l-2.6.67-1.41-2.82,4.23-1.36h2.38l3.83,15.82h-3.45Z"/><path class="cls-21" d="M1299.45,1022.32c-1.11-4.55.89-8.12,5.11-8.13s7.88,3.51,9,8.11-.87,8.12-5.11,8.13S1300.56,1026.92,1299.45,1022.32Zm10.52,0c-.69-2.85-2.62-5-4.7-5s-3,2.09-2.24,5,2.59,5,4.7,5S1310.67,1025.2,1310,1022.3Z"/><path class="cls-21" d="M1320.54,1022.29c-1.1-4.56.89-8.13,5.11-8.14s7.88,3.51,9,8.11-.87,8.13-5.11,8.14S1321.65,1026.88,1320.54,1022.29Zm10.52,0c-.69-2.85-2.62-5-4.7-5s-2.94,2.09-2.24,5,2.6,5,4.71,5S1331.76,1025.16,1331.06,1022.27Z"/><path class="cls-21" d="M1343.25,1017.78l-2.6.68-1.42-2.83,4.24-1.35h2.38l3.83,15.81h-3.45Z"/><path class="cls-21" d="M679.24,1057.59l-2.61.67-1.41-2.82,4.24-1.36h2.38l3.83,15.82h-3.45Z"/><path class="cls-21" d="M691.61,1062c-1.1-4.55.89-8.13,5.11-8.13s7.89,3.51,9,8.11-.87,8.12-5.11,8.13S692.73,1066.63,691.61,1062Zm10.53,0c-.69-2.85-2.62-5-4.71-5s-2.94,2.09-2.23,5,2.59,5,4.7,5S702.84,1064.91,702.14,1062Z"/><path class="cls-21" d="M747.79,1061.94c-1.1-4.56.89-8.13,5.11-8.14s7.89,3.51,9,8.11-.87,8.13-5.11,8.13S748.91,1066.53,747.79,1061.94Zm10.53,0c-.69-2.85-2.62-5-4.71-5s-2.94,2.09-2.23,5,2.59,5,4.7,5S759,1064.81,758.32,1061.92Z"/><path class="cls-21" d="M768.89,1061.9c-1.11-4.55.89-8.13,5.11-8.13s7.88,3.51,9,8.11-.87,8.12-5.11,8.13S770,1066.5,768.89,1061.9Zm10.52,0c-.69-2.85-2.62-5-4.71-5s-2.94,2.09-2.23,5,2.59,5,4.7,5S780.11,1064.78,779.41,1061.88Z"/><path class="cls-13" d="M720.84,1090c-1.1-4.55.89-8.13,5.11-8.13s7.88,3.51,9,8.11-.87,8.12-5.11,8.13S722,1094.63,720.84,1090Zm10.52,0c-.69-2.85-2.61-5-4.7-5s-2.94,2.09-2.24,5,2.6,5,4.71,5S732.06,1092.91,731.36,1090Z"/><path class="cls-13" d="M743.55,1085.53l-2.6.67-1.41-2.82,4.23-1.36h2.38l3.83,15.82h-3.45Z"/><path class="cls-21" d="M699.75,1090.07c-1.11-4.56.89-8.13,5.11-8.14s7.88,3.51,9,8.11-.87,8.13-5.11,8.14S700.86,1094.66,699.75,1090.07Zm10.52,0c-.69-2.85-2.62-5-4.7-5s-3,2.09-2.24,5,2.59,5,4.7,5S711,1092.94,710.27,1090.05Z"/><path class="cls-21" d="M755.93,1090c-1.11-4.55.89-8.12,5.11-8.13s7.88,3.51,9,8.11-.87,8.12-5.11,8.13S757,1094.57,755.93,1090Zm10.52,0c-.69-2.85-2.62-5-4.7-5s-3,2.09-2.24,5,2.59,5,4.7,5S767.15,1092.85,766.45,1090Z"/><path class="cls-21" d="M777,1089.94c-1.1-4.56.89-8.13,5.11-8.14s7.88,3.51,9,8.11-.87,8.13-5.11,8.14S778.13,1094.53,777,1089.94Zm10.52,0c-.69-2.85-2.62-5-4.7-5s-2.94,2.09-2.24,5,2.6,5,4.71,5S788.24,1092.81,787.54,1089.92Z"/><path class="cls-13" d="M849.59,1090c-1.1-4.55.9-8.13,5.11-8.13s7.89,3.51,9,8.11-.87,8.12-5.11,8.13S850.71,1094.63,849.59,1090Zm10.53,0c-.69-2.85-2.62-5-4.71-5s-2.94,2.09-2.23,5,2.59,5,4.7,5S860.82,1092.91,860.12,1090Z"/><path class="cls-13" d="M872.31,1085.53l-2.61.67-1.41-2.82,4.23-1.36h2.39l3.82,15.82h-3.44Z"/><path class="cls-21" d="M828.5,1090.07c-1.1-4.56.89-8.13,5.11-8.14s7.88,3.51,9,8.11-.87,8.13-5.11,8.14S829.61,1094.66,828.5,1090.07Zm10.52,0c-.68-2.85-2.61-5-4.7-5s-2.94,2.09-2.24,5,2.6,5,4.71,5S839.73,1092.94,839,1090.05Z"/><path class="cls-21" d="M884.68,1090c-1.1-4.55.89-8.12,5.11-8.13s7.88,3.51,9,8.11-.87,8.12-5.11,8.13S885.79,1094.57,884.68,1090Zm10.53,0c-.69-2.85-2.62-5-4.71-5s-2.94,2.09-2.24,5,2.6,5,4.71,5S895.91,1092.85,895.21,1090Z"/><path class="cls-21" d="M905.77,1089.94c-1.1-4.56.9-8.13,5.11-8.14s7.89,3.51,9,8.11-.87,8.13-5.11,8.14S906.89,1094.53,905.77,1089.94Zm10.53,0c-.69-2.85-2.62-5-4.71-5s-2.94,2.09-2.23,5,2.59,5,4.7,5S917,1092.81,916.3,1089.92Z"/><path class="cls-13" d="M1142.73,1090c-1.11-4.55.89-8.13,5.11-8.13s7.88,3.51,9,8.11-.86,8.12-5.11,8.13S1143.84,1094.63,1142.73,1090Zm10.52,0c-.69-2.85-2.62-5-4.7-5s-3,2.09-2.24,5,2.59,5,4.7,5S1154,1092.91,1153.25,1090Z"/><path class="cls-13" d="M1165.44,1085.53l-2.61.67-1.41-2.82,4.24-1.36H1168l3.83,15.82h-3.45Z"/><path class="cls-21" d="M1121.63,1090.07c-1.1-4.56.89-8.13,5.11-8.14s7.89,3.51,9,8.11-.87,8.13-5.11,8.14S1122.75,1094.66,1121.63,1090.07Zm10.53,0c-.69-2.85-2.62-5-4.71-5s-2.94,2.09-2.23,5,2.59,5,4.7,5S1132.86,1092.94,1132.16,1090.05Z"/><path class="cls-21" d="M1177.81,1090c-1.1-4.55.9-8.12,5.11-8.13s7.89,3.51,9,8.11-.87,8.12-5.11,8.13S1178.93,1094.57,1177.81,1090Zm10.53,0c-.69-2.85-2.62-5-4.71-5s-2.94,2.09-2.23,5,2.59,5,4.7,5S1189,1092.85,1188.34,1090Z"/><path class="cls-21" d="M1198.91,1089.94c-1.11-4.56.89-8.13,5.11-8.14s7.88,3.51,9,8.11-.87,8.13-5.11,8.14S1200,1094.53,1198.91,1089.94Zm10.52,0c-.69-2.85-2.62-5-4.7-5s-3,2.09-2.24,5,2.59,5,4.7,5S1210.13,1092.81,1209.43,1089.92Z"/><path class="cls-13" d="M1271.48,1090c-1.1-4.55.89-8.13,5.11-8.13s7.89,3.51,9,8.11-.87,8.12-5.11,8.13S1272.6,1094.63,1271.48,1090Zm10.53,0c-.69-2.85-2.62-5-4.71-5s-2.94,2.09-2.23,5,2.59,5,4.7,5S1282.71,1092.91,1282,1090Z"/><path class="cls-13" d="M1294.19,1085.53l-2.6.67-1.41-2.82,4.23-1.36h2.38l3.83,15.82h-3.44Z"/><path class="cls-21" d="M1250.39,1090.07c-1.1-4.56.89-8.13,5.11-8.14s7.88,3.51,9,8.11-.87,8.13-5.11,8.14S1251.5,1094.66,1250.39,1090.07Zm10.52,0c-.69-2.85-2.61-5-4.7-5s-2.94,2.09-2.24,5,2.6,5,4.71,5S1261.61,1092.94,1260.91,1090.05Z"/><path class="cls-21" d="M1306.57,1090c-1.1-4.55.89-8.12,5.11-8.13s7.88,3.51,9,8.11-.87,8.12-5.11,8.13S1307.68,1094.57,1306.57,1090Zm10.52,0c-.69-2.85-2.61-5-4.7-5s-2.94,2.09-2.24,5,2.6,5,4.71,5S1317.79,1092.85,1317.09,1090Z"/><path class="cls-21" d="M1327.66,1089.94c-1.1-4.56.89-8.13,5.11-8.14s7.88,3.51,9,8.11-.87,8.13-5.11,8.14S1328.77,1094.53,1327.66,1089.94Zm10.53,0c-.69-2.85-2.62-5-4.71-5s-2.94,2.09-2.24,5,2.6,5,4.71,5S1338.89,1092.81,1338.19,1089.92Z"/><path class="cls-21" d="M790,1061.86c-1.1-4.55.89-8.12,5.11-8.13s7.88,3.51,9,8.11-.87,8.13-5.11,8.13S791.09,1066.46,790,1061.86Zm10.52,0c-.69-2.85-2.62-5-4.7-5s-2.94,2.09-2.24,5,2.6,5,4.71,5S801.2,1064.74,800.5,1061.85Z"/><path class="cls-21" d="M811.07,1061.83c-1.1-4.56.89-8.13,5.11-8.13s7.88,3.51,9,8.11-.87,8.12-5.11,8.13S812.18,1066.43,811.07,1061.83Zm10.52,0c-.69-2.85-2.61-5-4.7-5s-2.94,2.09-2.24,5,2.6,5,4.71,5S822.3,1064.71,821.59,1061.81Z"/><path class="cls-21" d="M1196.65,1061.86c-1.1-4.55.89-8.12,5.11-8.13s7.89,3.51,9,8.11-.87,8.13-5.11,8.13S1197.77,1066.46,1196.65,1061.86Zm10.53,0c-.69-2.85-2.62-5-4.71-5s-2.94,2.09-2.23,5,2.59,5,4.7,5S1207.88,1064.74,1207.18,1061.85Z"/><path class="cls-21" d="M1217.75,1061.83c-1.11-4.56.89-8.13,5.11-8.13s7.88,3.51,9,8.11-.87,8.12-5.11,8.13S1218.86,1066.43,1217.75,1061.83Zm10.52,0c-.69-2.85-2.62-5-4.7-5s-3,2.09-2.24,5,2.59,5,4.7,5S1229,1064.71,1228.27,1061.81Z"/></g></g></svg>