<svg xmlns="http://www.w3.org/2000/svg" width="74.652" height="74.652" viewBox="0 0 74.652 74.652">
  <g id="Group_1411" data-name="Group 1411" transform="translate(11936 -2223.348)">
    <g id="Group_1406" data-name="Group 1406">
      <rect id="Rectangle" width="74.652" height="74.652" rx="10" transform="translate(-11936 2223.348)" fill="#24275d"/>
    </g>
    <g id="apple-laptop-computer" transform="translate(-11922.627 2230.827)">
      <g id="Group_1013" data-name="Group 1013" transform="translate(0 13.435)">
        <path id="Path_9322" data-name="Path 9322" d="M43.474,38.276V15.209A1.781,1.781,0,0,0,41.7,13.435H6.211a1.78,1.78,0,0,0-1.778,1.774V38.276L0,43.6a2.661,2.661,0,0,0,2.66,2.66H45.247a2.661,2.661,0,0,0,2.66-2.66Zm-15.968,7.1h-7.1a.444.444,0,1,1,0-.888h7.1a.444.444,0,1,1,0,.888ZM16.64,43.6l1.354-1.625H29.914L31.268,43.6Zm24.335-8.463a1.55,1.55,0,0,1-1.547,1.549H8.479a1.554,1.554,0,0,1-1.547-1.549V16.577a1.55,1.55,0,0,1,1.547-1.549H39.428a1.553,1.553,0,0,1,1.547,1.549Z" transform="translate(0 -13.435)" fill="#fff"/>
        <path id="Path_9323" data-name="Path 9323" d="M44.222,35.879a4.174,4.174,0,0,1-1.155-.749,3.332,3.332,0,0,1-.629-.773,4.361,4.361,0,0,1-.326-.639,5.756,5.756,0,0,1-.2-.683,2.766,2.766,0,0,1-.08-.51,4.133,4.133,0,0,1,.08-1.121,4.229,4.229,0,0,1,.3-.872,3.72,3.72,0,0,1,1.472-1.577c.044-.034.094-.062.15-.1a1.413,1.413,0,0,1-.1-.112A4.46,4.46,0,0,0,42.5,27.684a7.077,7.077,0,0,0-.8-.392,2.722,2.722,0,0,0-.5-.147c-.157-.036-.326-.05-.484-.07a4.035,4.035,0,0,0-1.243.086,4.58,4.58,0,0,0-.579.164c-.159.046-.313.111-.466.164-.135.046-.271.111-.408.147-.209.058-.424.112-.637.155a2.494,2.494,0,0,1-1.129-.076c-.173-.042-.337-.107-.506-.161-.2-.065-.392-.135-.593-.2a4.783,4.783,0,0,0-.524-.161c-.209-.044-.426-.074-.641-.112a3.257,3.257,0,0,0-1.362.121,4.532,4.532,0,0,0-.675.259,3.985,3.985,0,0,0-.962.607,5.084,5.084,0,0,0-1.017,1.1,3.313,3.313,0,0,0-.466.872c-.084.235-.161.474-.227.717a4.949,4.949,0,0,0-.125.58c-.032.217-.046.44-.056.659-.012.267-.016.534-.008.8s.034.5.06.749.062.47.1.707c.032.169.076.333.121.5.062.241.122.484.2.719.09.271.191.541.3.8.149.35.3.7.48,1.035a12,12,0,0,0,1.069,1.663,6.067,6.067,0,0,0,.894.98,2.8,2.8,0,0,0,1.354.691,2.416,2.416,0,0,0,1.292-.173c.209-.083.41-.173.617-.259a3.612,3.612,0,0,1,1.087-.275,3.5,3.5,0,0,1,1.338.1,6.358,6.358,0,0,1,.715.259,4.653,4.653,0,0,0,1.02.35,2.088,2.088,0,0,0,1.372-.271,3.636,3.636,0,0,0,1-.82c.281-.326.544-.667.8-1.017a11.561,11.561,0,0,0,.711-1.091c.259-.462.482-.95.721-1.426a.08.08,0,0,0-.042-.118A.508.508,0,0,1,44.222,35.879Z" transform="translate(-12.759 -19.409)" fill="#fff"/>
        <path id="Path_9324" data-name="Path 9324" d="M43.159,23.793a3.8,3.8,0,0,0,1.876-1.374,4.2,4.2,0,0,0,.647-1.271,2.9,2.9,0,0,0,.145-1.066c0-.076,0-.185,0-.294,0-.125-.026-.147-.145-.125a5.337,5.337,0,0,0-.766.191,5.46,5.46,0,0,0-.823.4,3.962,3.962,0,0,0-1.424,1.453,4.228,4.228,0,0,0-.388.886,3.131,3.131,0,0,0-.1.46,2.954,2.954,0,0,0,0,.777c.008.074.03.108.107.107A3,3,0,0,0,43.159,23.793Z" transform="translate(-18.492 -16.164)" fill="#fff"/>
      </g>
    </g>
  </g>
</svg>
