<svg xmlns="http://www.w3.org/2000/svg" width="196" height="192.839" viewBox="0 0 196 192.839">
  <g id="Group_1405" data-name="Group 1405" transform="translate(6365 -4304.161)">
    <g id="activities" transform="translate(-6365 4304.161)">
      <g id="Group_1113" data-name="Group 1113" transform="translate(16.733 83.12)">
        <path id="Path_9420" data-name="Path 9420" d="M78.323,304.256H72V225.224a3.147,3.147,0,0,1,.926-2.235l12.645-12.645,4.47,4.47L78.323,226.533Zm0,0" transform="translate(-60.281 -210.344)" fill="#c18e59"/>
        <path id="Path_9421" data-name="Path 9421" d="M42.344,246.814l4.47-4.47,12.645,12.645-4.47,4.472Zm0,0" transform="translate(-42.344 -229.698)" fill="#c18e59"/>
        <path id="Path_9422" data-name="Path 9422" d="M414.323,304.256H408V225.224a3.147,3.147,0,0,1,.926-2.235l12.645-12.645,4.47,4.47-11.719,11.719Zm0,0" transform="translate(-263.507 -210.344)" fill="#c18e59"/>
        <path id="Path_9423" data-name="Path 9423" d="M378.34,246.818l4.472-4.47,12.645,12.645-4.472,4.47Zm0,0" transform="translate(-245.567 -229.701)" fill="#c18e59"/>
      </g>
      <path id="Path_9424" data-name="Path 9424" d="M24,329.128H201.032a159.278,159.278,0,0,1-88.516-98.569A159.268,159.268,0,0,1,24,329.128Zm0,0" transform="translate(-14.516 -139.451)" fill="#4472b2"/>
      <path id="Path_9425" data-name="Path 9425" d="M56.9,191.613C56.9,174.153,44.165,160,28.452,160S0,174.153,0,191.613s12.738,31.613,28.452,31.613S56.9,209.073,56.9,191.613Zm0,0" transform="translate(0 -96.774)" fill="#ececee"/>
      <path id="Path_9426" data-name="Path 9426" d="M0,191.613a32.707,32.707,0,0,0,11.991,25.755c15.339-9.459,25.945-29.435,25.945-52.626,0-1-.079-1.967-.117-2.953A25.831,25.831,0,0,0,28.452,160C12.736,160,0,174.153,0,191.613Zm0,0" transform="translate(0 -96.774)" fill="#c1c2c3"/>
      <path id="Path_9427" data-name="Path 9427" d="M400.9,191.613c0-17.46-12.738-31.613-28.452-31.613S344,174.153,344,191.613s12.738,31.613,28.452,31.613S400.9,209.073,400.9,191.613Zm0,0" transform="translate(-208.065 -96.774)" fill="#ececee"/>
      <path id="Path_9428" data-name="Path 9428" d="M344,191.613a32.707,32.707,0,0,0,11.991,25.755c15.339-9.459,25.945-29.435,25.945-52.626,0-1-.079-1.967-.117-2.953A25.831,25.831,0,0,0,372.452,160C356.736,160,344,174.153,344,191.613Zm0,0" transform="translate(-208.065 -96.774)" fill="#c1c2c3"/>
      <path id="Path_9429" data-name="Path 9429" d="M234.581,402.581V377.29A25.292,25.292,0,0,1,209.29,352,25.292,25.292,0,0,1,184,377.29v25.29" transform="translate(-111.29 -212.903)" fill="#b8cbd9"/>
      <path id="Path_9430" data-name="Path 9430" d="M400.9,82.968a6.321,6.321,0,0,1-6.323,6.323H372.452a6.321,6.321,0,0,1-6.323-6.323,6.321,6.321,0,0,0-6.323-6.323h-9.484a6.323,6.323,0,0,1,0-12.645h22.129a6.321,6.321,0,0,1,6.323,6.323,6.321,6.321,0,0,0,6.323,6.323h9.484A6.321,6.321,0,0,1,400.9,82.968Zm0,0" transform="translate(-208.065 -38.71)" fill="#edf0f7"/>
      <path id="Path_9431" data-name="Path 9431" d="M64.9,18.968a6.321,6.321,0,0,1-6.323,6.323H36.452a6.321,6.321,0,0,1-6.323-6.323,6.321,6.321,0,0,0-6.323-6.323H14.323A6.323,6.323,0,1,1,14.323,0H36.452a6.321,6.321,0,0,1,6.323,6.323A6.321,6.321,0,0,0,49.1,12.645h9.484A6.321,6.321,0,0,1,64.9,18.968Zm0,0" transform="translate(-4.839)" fill="#edf0f7"/>
      <path id="Path_9432" data-name="Path 9432" d="M234.581,25.29A25.29,25.29,0,1,1,209.29,0,25.29,25.29,0,0,1,234.581,25.29Zm0,0" transform="translate(-111.29)" fill="#ffc10b"/>
      <path id="Path_9433" data-name="Path 9433" d="M23.331,293.058l-2.522-5.8a156.922,156.922,0,0,0,89.5-106.525l3.524-14.606,6.147,1.482-3.526,14.606A163.271,163.271,0,0,1,23.331,293.058Zm0,0" transform="translate(-12.586 -100.481)" fill="#24275d"/>
      <path id="Path_9434" data-name="Path 9434" d="M320.874,293.058a163.262,163.262,0,0,1-93.125-110.841l-3.526-14.606,6.147-1.482,3.524,14.606A156.9,156.9,0,0,0,323.4,287.26Zm0,0" transform="translate(-135.619 -100.481)" fill="#24275d"/>
      <path id="Path_9435" data-name="Path 9435" d="M0,472H196v6.323H0Zm0,0" transform="translate(0 -285.484)" fill="#ececee"/>
    </g>
  </g>
</svg>
