<svg xmlns="http://www.w3.org/2000/svg" xmlns:xlink="http://www.w3.org/1999/xlink" width="230.307" height="272.404" viewBox="0 0 230.307 272.404">
  <defs>
    <linearGradient id="linear-gradient" x1="0.5" y1="0.923" x2="0.5" y2="-0.187" gradientUnits="objectBoundingBox">
      <stop offset="0" stop-color="#fff"/>
      <stop offset="0.126" stop-color="#f8fbfe"/>
      <stop offset="0.305" stop-color="#e5f3fc"/>
      <stop offset="0.516" stop-color="#c6e4f9"/>
      <stop offset="0.752" stop-color="#9bd0f4"/>
      <stop offset="1" stop-color="#67b8ef"/>
    </linearGradient>
  </defs>
  <g id="Group_1405" data-name="Group 1405" transform="translate(-747.044 -411.821)">
    <g id="Group_1046" data-name="Group 1046" transform="translate(702.904 305.964)">
      <path id="Path_9326" data-name="Path 9326" d="M93.007,345.431H225.58c29.547-20.369,48.867-53.96,48.867-91.981,0-62.142-51.556-121.45-115.153-121.45S44.14,191.307,44.14,253.45C44.14,291.471,63.458,325.062,93.007,345.431Z" transform="translate(0 9.473)" opacity="0.42" fill="url(#linear-gradient)"/>
      <ellipse id="Ellipse_383" data-name="Ellipse 383" cx="15.253" cy="82.598" rx="15.253" ry="82.598" transform="matrix(0.224, -0.975, 0.975, 0.224, 59.433, 341.24)" fill="#cee5ed" opacity="0.43"/>
      <g id="Group_1043" data-name="Group 1043" transform="translate(121.441 105.856)">
        <g id="Group_1040" data-name="Group 1040" transform="translate(47.905)">
          <g id="Group_1036" data-name="Group 1036">
            <path id="Path_9327" data-name="Path 9327" d="M149.886,266.421c-7.632-2.782-13.84-11.228-13.84-18.829V118.623c0-7.6,6.208-11.523,13.84-8.741L205.907,130.3c7.632,2.782,13.84,11.228,13.84,18.829V278.1c0,7.6-6.208,11.523-13.84,8.741Z" transform="translate(-136.046 -104.722)" fill="#17161c"/>
            <path id="Path_9328" data-name="Path 9328" d="M150.746,271.816c-8.045-2.932-14.589-11.836-14.589-19.849V116.012c0-8.012,6.545-12.145,14.589-9.212L209.8,128.327c8.045,2.932,14.589,11.836,14.589,19.849V284.131c0,8.012-6.545,12.145-14.589,9.213Z" transform="translate(-136.006 -105.856)" fill="#24275d"/>
            <path id="Path_9329" data-name="Path 9329" d="M148.488,259.7c-4.733-1.725-8.584-6.963-8.584-11.678V119.055c0-4.714,3.851-7.145,8.584-5.419l56.022,20.421c4.733,1.725,8.584,6.964,8.584,11.678V274.7c0,4.714-3.85,7.145-8.583,5.419Z" transform="translate(-134.648 -103.239)" fill="rgba(255,193,11,0.64)"/>
            <path id="Path_9330" data-name="Path 9330" d="M204.265,134.057l-56.022-20.421c-3.35-1.222-6.25-.353-7.664,1.926a7.056,7.056,0,0,1,5.621-.053l56.022,20.421c4.733,1.725,8.584,6.964,8.584,11.678v128.97a6.551,6.551,0,0,1-.918,3.493,5.668,5.668,0,0,0,2.962-5.366V145.734C212.849,141.021,209,135.781,204.265,134.057Z" transform="translate(-134.404 -103.238)" fill="#34648c" opacity="0.25"/>
            <path id="Path_9331" data-name="Path 9331" d="M193.146,129.839,151.47,114.646l1.853,4.972a8.721,8.721,0,0,0,4.9,5.005l28.167,10.266c2.132.778,4.06.215,4.9-1.429Z" transform="translate(-130.458 -102.671)" fill="#0a0c23"/>
          </g>
          <path id="Path_9332" data-name="Path 9332" d="M200.676,146.565,149.2,127.8c-2.761-1.007-5,.406-5,3.157v23.2a7.9,7.9,0,0,0,5,6.8l51.471,18.762c2.761,1.007,5-.406,5-3.156v-23.2A7.9,7.9,0,0,0,200.676,146.565Z" transform="translate(-133.09 -98.022)" fill="rgba(255,193,11,0.76)"/>
          <path id="Path_9333" data-name="Path 9333" d="M200.676,176.512,149.2,157.75c-2.761-1.007-5,.407-5,3.157v23.2a7.9,7.9,0,0,0,5,6.8l51.471,18.763c2.761,1.005,5-.407,5-3.158v-23.2A7.9,7.9,0,0,0,200.676,176.512Z" transform="translate(-133.09 -87.171)" fill="rgba(255,193,11,0.76)"/>
          <path id="Path_9334" data-name="Path 9334" d="M200.676,206.78,149.2,188.017c-2.761-1.005-5,.407-5,3.158v23.2a7.9,7.9,0,0,0,5,6.8l51.471,18.762c2.761,1.007,5-.406,5-3.157v-23.2A7.9,7.9,0,0,0,200.676,206.78Z" transform="translate(-133.09 -76.205)" fill="rgba(255,193,11,0.76)"/>
          <g id="Group_1037" data-name="Group 1037" transform="translate(26.041 45.872)">
            <path id="Path_9335" data-name="Path 9335" d="M178.57,146.081,160.789,139.6a.738.738,0,0,0-1.091.688h0a1.729,1.729,0,0,0,1.091,1.484l17.781,6.482a.738.738,0,0,0,1.09-.688h0A1.728,1.728,0,0,0,178.57,146.081Z" transform="translate(-153.517 -139.528)" fill="#0a0c23"/>
            <path id="Path_9336" data-name="Path 9336" d="M178.57,155.037l-17.781-6.482a.738.738,0,0,0-1.091.688h0a1.729,1.729,0,0,0,1.091,1.484l17.781,6.482a.738.738,0,0,0,1.09-.688h0A1.727,1.727,0,0,0,178.57,155.037Z" transform="translate(-153.517 -136.283)" fill="#0a0c23"/>
            <path id="Path_9337" data-name="Path 9337" d="M185.691,153.214l-29.44-10.731a.737.737,0,0,0-1.09.688h0a1.727,1.727,0,0,0,1.09,1.484l29.44,10.731a.737.737,0,0,0,1.09-.688h0A1.727,1.727,0,0,0,185.691,153.214Z" transform="translate(-155.161 -138.483)" fill="#0a0c23"/>
          </g>
          <g id="Group_1038" data-name="Group 1038" transform="translate(26.041 89.62)">
            <path id="Path_9338" data-name="Path 9338" d="M178.57,178.193l-17.781-6.482a.738.738,0,0,0-1.091.689h0a1.73,1.73,0,0,0,1.091,1.484l17.781,6.481a.737.737,0,0,0,1.09-.688h0A1.729,1.729,0,0,0,178.57,178.193Z" transform="translate(-153.517 -171.641)" fill="#0a0c23"/>
            <path id="Path_9339" data-name="Path 9339" d="M185.691,185.326l-29.44-10.731a.738.738,0,0,0-1.09.688h0a1.727,1.727,0,0,0,1.09,1.484l29.44,10.731a.737.737,0,0,0,1.09-.688h0A1.731,1.731,0,0,0,185.691,185.326Z" transform="translate(-155.161 -170.596)" fill="#0a0c23"/>
          </g>
          <g id="Group_1039" data-name="Group 1039" transform="translate(26.041 127.871)">
            <path id="Path_9340" data-name="Path 9340" d="M178.569,206.271l-17.78-6.482a.738.738,0,0,0-1.091.689h0a1.73,1.73,0,0,0,1.091,1.484l17.78,6.482a.738.738,0,0,0,1.091-.689h0A1.73,1.73,0,0,0,178.569,206.271Z" transform="translate(-153.517 -199.719)" fill="#0a0c23"/>
            <path id="Path_9341" data-name="Path 9341" d="M178.569,215.145l-17.78-6.481a.738.738,0,0,0-1.091.688h0a1.728,1.728,0,0,0,1.091,1.484l17.78,6.482a.738.738,0,0,0,1.091-.689h0A1.73,1.73,0,0,0,178.569,215.145Z" transform="translate(-153.517 -196.503)" fill="#0a0c23"/>
            <path id="Path_9342" data-name="Path 9342" d="M185.691,213.4l-29.44-10.731a.738.738,0,0,0-1.09.688h0a1.727,1.727,0,0,0,1.09,1.484l29.44,10.732a.738.738,0,0,0,1.09-.689h0A1.731,1.731,0,0,0,185.691,213.4Z" transform="translate(-155.161 -198.674)" fill="#0a0c23"/>
          </g>
        </g>
        <g id="Group_1042" data-name="Group 1042" transform="translate(0 38.905)">
          <path id="Path_9343" data-name="Path 9343" d="M139.423,280.5s-2.681-.963-3.024-6.876h-7.837l-.756,8.113,5.843,4.881,5.088-2.543Z" transform="translate(-91.127 -83.976)" fill="#f2bf75"/>
          <path id="Path_9344" data-name="Path 9344" d="M127.915,279.9s9.144,3.026,11.618-1.237c0,0,16.9,6.3,16.776,8.171-.193,2.974-14.163,3.584-17.257,2.828l-2.681-2.681-1.169,3.094h-7.7S127.57,280.385,127.915,279.9Z" transform="translate(-91.237 -82.148)" fill="#1e394c"/>
          <path id="Path_9345" data-name="Path 9345" d="M117.965,280.673s-2.633-1.084-2.706-7.006l-7.829-.361-1.128,8.069,5.613,5.146,5.2-2.308Z" transform="translate(-98.918 -84.09)" fill="#f2bf75"/>
          <path id="Path_9346" data-name="Path 9346" d="M106.536,279.416s9,3.443,11.663-.7c0,0,14.787,5.325,15.637,7.773s-13.567,4.09-16.623,3.192l-2.554-2.8-1.311,3.037-7.692-.354S106.171,279.882,106.536,279.416Z" transform="translate(-99.152 -82.13)" fill="#1e394c"/>
          <path id="Path_9347" data-name="Path 9347" d="M102.421,210.539s5.087,20.626,6.325,24.063,3.85,20.213,3.988,20.762-5.775,43.725-5.775,43.725,7.975,1.787,11.137-.275l8.663-43.586-3.714-42.9Z" transform="translate(-100.324 -106.832)" fill="#1e394c"/>
          <path id="Path_9348" data-name="Path 9348" d="M103.229,211.048s7.836,13.407,14.849,19.387S133.753,252.5,133.753,252.5l1.031,47.849h0a11.091,11.091,0,0,0,11.024.285l.526-.285s1.237-49.7,1.031-53.005S129.628,206.1,129.628,206.1Z" transform="translate(-100.032 -108.441)" fill="#1e394c"/>
          <path id="Path_9349" data-name="Path 9349" d="M132.119,149.16s-6.136,21.665-15.984,21.038c-8.628-.55-10.232-9.5-8.147-20.522,2.166-11.448,11.619-9.934,17.119-10,0,0,6.806,0,7.941-5.259,0,0,7.94,10.828-.929,14.746" transform="translate(-98.604 -134.414)" fill="#1e394c"/>
          <path id="Path_9350" data-name="Path 9350" d="M118.749,164.636s-12.006-2.128-17.562,23.5c-2.332,10.758,9.9,27.636,9.9,27.636l12.787-24.612Z" transform="translate(-100.878 -123.479)" fill="#aac6ce"/>
          <path id="Path_9351" data-name="Path 9351" d="M150.993,158.572s4.538-12.478,4.538-15.881,2.577-.413,2.475,2.166a37.915,37.915,0,0,1-.722,5.466s3.505.309,3.505,1.959-1.133,7.425-2.783,8.352Z" transform="translate(-82.726 -131.968)" fill="#f2bf75"/>
          <path id="Path_9352" data-name="Path 9352" d="M125.426,170.238c7.974,4.1,25.059,14.849,28.978,11.343s14.746-27.637,14.746-27.637l7.013,2.063s-14.988,40.219-19.423,40.116-19.525-3.026-19.525-3.026-1.375,28.394-5.5,36.231c0,0-20.315,7.321-30.834,1.341a38.96,38.96,0,0,0,6.393-27.534C104.9,185.963,109.493,162.039,125.426,170.238Z" transform="translate(-100.882 -127.338)" fill="#cee5ed"/>
          <g id="Group_1041" data-name="Group 1041" transform="translate(17.53 14.746)">
            <path id="Path_9353" data-name="Path 9353" d="M129.734,145.238a20.651,20.651,0,0,0,1.857,5.569,16.527,16.527,0,0,0,3.609,3.507l-1.959,2.474s1.444,8.663-7.734,10.313l-.928,8.559-10.416-3.507-.413-5.877a7.052,7.052,0,0,0,1.805-3.714s-2.063-2.011-1.392-4.383,2.785-4.177,3.764-3.3a4.383,4.383,0,0,1,1.083,2.629h1.341s-.236-3.925.567-5.568A13.059,13.059,0,0,1,129.734,145.238Z" transform="translate(-113.75 -145.238)" fill="#ea9249"/>
            <path id="Path_9354" data-name="Path 9354" d="M122.729,175.66l.928-8.559c9.178-1.65,7.734-10.313,7.734-10.313l1.959-2.474a16.526,16.526,0,0,1-3.609-3.507,20.65,20.65,0,0,1-1.857-5.569c-.417.1-.8.227-1.184.353a30.664,30.664,0,0,1,1.8,7.583c.341,4.428-.36,9.43-6.556,13.2-2.1,1.276-2.861,4.745-3.092,7.986Z" transform="translate(-111.9 -145.238)" fill="#f2bf75"/>
          </g>
        </g>
        <path id="Path_9355" data-name="Path 9355" d="M125.206,237.663c-6.854-1.55-13.332-5.651-18.331-9.651-1.638-6.173-3.738-14.622-4.334-17a19.466,19.466,0,0,0,2.449.71c2.609,4.159,8.188,12.55,13.332,16.926a47.17,47.17,0,0,1,6.783,7.825Z" transform="translate(-100.281 -67.755)" fill="#0f2a3f"/>
      </g>
      <path id="Path_9356" data-name="Path 9356" d="M209.281,268.811c-.1-3.256-16.114-8.869-35.775-12.535s-35.52-4-35.423-.742,16.114,8.869,35.775,12.535S209.379,272.068,209.281,268.811Z" transform="translate(34.038 53.42)" fill="#cee5ed" opacity="0.43"/>
      <g id="Group_1045" data-name="Group 1045" transform="translate(60.518 231.63)">
        <path id="Path_9357" data-name="Path 9357" d="M82.972,235.152s4.819-42.036-12.585-35.476C52.458,206.434,74.94,234.216,82.972,235.152Z" transform="translate(-53.459 -197.889)" fill="#34648c"/>
        <path id="Path_9358" data-name="Path 9358" d="M80.922,252.787s-5.276-42.069-20.583-30.422C46.483,232.907,70.682,249.676,80.922,252.787Z" transform="translate(-56.162 -190.155)" fill="#67b8ef"/>
        <path id="Path_9359" data-name="Path 9359" d="M66.051,232.762c7,9.708,13.8,19.574,15.973,31.58.114.637,1.087.368.971-.268-2.185-12.081-9.021-22.036-16.074-31.821-.376-.522-1.251-.019-.871.51Z" transform="translate(-52.613 -185.913)" fill="#1e394c"/>
        <path id="Path_9360" data-name="Path 9360" d="M84.441,226.473s-6.293-30.925,9.638-28.113S88.457,225,84.441,226.473Z" transform="translate(-46.36 -198.179)" fill="#67b8ef"/>
        <path id="Path_9361" data-name="Path 9361" d="M85.307,247.562c-.811.541-1.606-26.1,9.638-25.168S100.97,237.12,85.307,247.562Z" transform="translate(-45.753 -189.414)" fill="#34648c"/>
        <path id="Path_9362" data-name="Path 9362" d="M81.894,252.15c-1.225-15.672,5.286-33.328,11.359-47.606.251-.59-.617-1.1-.871-.508-6.174,14.513-12.746,32.124-11.5,48.115.05.643,1.059.648,1.008,0Z" transform="translate(-47.259 -196.154)" fill="#1e394c"/>
        <path id="Path_9363" data-name="Path 9363" d="M86.275,268.008c-.809-18.382-2.429-37.046-12.727-52.853-.353-.542-1.226-.037-.871.508,10.211,15.674,11.787,34.122,12.589,52.345.029.646,1.037.65,1.008,0Z" transform="translate(-50.208 -192.113)" fill="#1e394c"/>
        <path id="Path_9364" data-name="Path 9364" d="M84.64,260.868c.416-9.671,1.059-19.329,6.381-27.721.349-.549-.523-1.056-.871-.508-5.4,8.513-6.1,18.405-6.519,28.229-.029.65.981.648,1.008,0Z" transform="translate(-46.209 -185.779)" fill="#1e394c"/>
        <g id="Group_1044" data-name="Group 1044" transform="translate(20.686 70.665)">
          <path id="Path_9365" data-name="Path 9365" d="M71.36,252.467l2.617,23.695a5.845,5.845,0,0,0,5.81,5.2H94.892a5.844,5.844,0,0,0,5.81-5.2l2.617-23.695a2.176,2.176,0,0,0-2.163-2.417H73.523A2.177,2.177,0,0,0,71.36,252.467Z" transform="translate(-71.346 -250.05)" fill="#cee5ed"/>
          <path id="Path_9366" data-name="Path 9366" d="M97.442,250.05H87.861a2.178,2.178,0,0,1,2.165,2.417l-2.617,23.695a5.846,5.846,0,0,1-5.812,5.2h9.581a5.844,5.844,0,0,0,5.81-5.2l2.617-23.695A2.176,2.176,0,0,0,97.442,250.05Z" transform="translate(-67.632 -250.05)" fill="#aac6ce"/>
        </g>
        <path id="Path_9367" data-name="Path 9367" d="M75.212,231.906c2.249,1.857,4.357,3.061,5.918,3.242,0,0,4.782-41.753-12.423-35.525C73.3,205.377,83.116,220.017,75.212,231.906Z" transform="translate(-51.616 -197.885)" fill="#0f2a3f" opacity="0.26"/>
        <path id="Path_9368" data-name="Path 9368" d="M95.915,222.476c.384,5.3.331,19.288-10.963,18.447-.188,3.884.082,6.783.354,6.6C100.5,237.4,105.866,224.122,95.915,222.476Z" transform="translate(-45.753 -189.376)" fill="#0f2a3f" opacity="0.26"/>
        <path id="Path_9369" data-name="Path 9369" d="M94.793,198.443c.35,5.482.268,20.688-11.437,20.077a71.892,71.892,0,0,0,1.034,7.858C88.337,224.931,109.2,201.9,94.793,198.443Z" transform="translate(-46.309 -198.084)" fill="#34648c" opacity="0.42"/>
        <path id="Path_9370" data-name="Path 9370" d="M80.16,252.787s-5.276-42.069-20.583-30.422a14.1,14.1,0,0,0-1.311,1.135c4.783,1.65,20.548,8.554,15.4,26.44A36.93,36.93,0,0,0,80.16,252.787Z" transform="translate(-55.399 -190.155)" fill="#34648c" opacity="0.42"/>
      </g>
    </g>
  </g>
</svg>
