<svg id="renew" xmlns="http://www.w3.org/2000/svg" width="71.02" height="71.02" viewBox="0 0 71.02 71.02">
  <path id="Path_7825" data-name="Path 7825" d="M16.835,47.658l2.752-20.714H7.75L24.025,4.75,21.066,22.505H32.9Z" transform="translate(15.184 9.306)" fill="#ffc10b"/>
  <path id="Path_7826" data-name="Path 7826" d="M33.536,20.755H20.219a2.219,2.219,0,0,1,0-4.439h11.1V5.219a2.219,2.219,0,1,1,4.439,0V18.536A2.22,2.22,0,0,1,33.536,20.755Z" transform="translate(35.265 5.878)" fill="#c1c2c3"/>
  <path id="Path_7827" data-name="Path 7827" d="M2.219,32.755A2.22,2.22,0,0,1,0,30.536V17.219A2.22,2.22,0,0,1,2.219,15H15.536a2.219,2.219,0,1,1,0,4.439H4.439v11.1A2.22,2.22,0,0,1,2.219,32.755Z" transform="translate(0 29.388)" fill="#c1c2c3"/>
  <path id="Path_7828" data-name="Path 7828" d="M2.323,33.38a2.372,2.372,0,0,1-.287-.018A2.218,2.218,0,0,1,.118,30.879,35.529,35.529,0,0,1,35.315,0c15.4,0,30.133,9.955,35.025,23.668a2.218,2.218,0,1,1-4.178,1.488C61.876,13.154,48.9,4.439,35.315,4.439a31.078,31.078,0,0,0-30.793,27,2.222,2.222,0,0,1-2.2,1.938Z" transform="translate(0.195)" fill="#c1c2c3"/>
  <path id="Path_7829" data-name="Path 7829" d="M35.276,46.1c-15.4,0-30.133-9.955-35.025-23.668a2.218,2.218,0,1,1,4.178-1.488c4.285,12,17.258,20.717,30.846,20.717a31.078,31.078,0,0,0,30.793-27,2.22,2.22,0,0,1,4.4.565A35.529,35.529,0,0,1,35.276,46.1Z" transform="translate(0.235 24.921)" fill="#c1c2c3"/>
  <path id="Path_7830" data-name="Path 7830" d="M18.313,51.348a2.262,2.262,0,0,1-.761-.133,2.216,2.216,0,0,1-1.438-2.376l2.412-18.2H9.22a2.219,2.219,0,0,1-1.79-3.53L23.7,4.91a2.22,2.22,0,0,1,3.98,1.675L25.158,21.756h9.215a2.22,2.22,0,0,1,1.87,3.415L20.183,50.324a2.216,2.216,0,0,1-1.87,1.024ZM13.6,26.195h7.457a2.219,2.219,0,0,1,2.2,2.512L21.829,39.5l8.5-13.307H22.536a2.22,2.22,0,0,1-2.19-2.583l1.426-8.564Z" transform="translate(13.714 7.836)" fill="#0a0c23"/>
</svg>
