<svg xmlns="http://www.w3.org/2000/svg" xmlns:xlink="http://www.w3.org/1999/xlink" width="122" height="241" viewBox="0 0 122 241">
  <defs>
    <clipPath id="clip-path">
      <rect id="Rectangle_1552" data-name="Rectangle 1552" width="122" height="241" transform="translate(-16634 -123)" fill="#ffc10b"/>
    </clipPath>
  </defs>
  <g id="Mask_Group_107" data-name="Mask Group 107" transform="translate(-16512 118) rotate(180)" opacity="0.7" clip-path="url(#clip-path)">
    <g id="Group_2841" data-name="Group 2841">
      <g id="Rectangle_1545" data-name="Rectangle 1545" transform="translate(-16849 -2) rotate(-45)" fill="none" stroke="#fff" stroke-width="1.5">
        <rect width="238" height="238" rx="10" stroke="none"/>
        <rect x="0.75" y="0.75" width="236.5" height="236.5" rx="9.25" fill="none"/>
      </g>
      <g id="Rectangle_1546" data-name="Rectangle 1546" transform="translate(-16864 -2) rotate(-45)" fill="none" stroke="#fff" stroke-width="1.5">
        <rect width="238" height="238" rx="10" stroke="none"/>
        <rect x="0.75" y="0.75" width="236.5" height="236.5" rx="9.25" fill="none"/>
      </g>
      <g id="Rectangle_1547" data-name="Rectangle 1547" transform="translate(-16880 -2) rotate(-45)" fill="none" stroke="#fff" stroke-width="1.5">
        <rect width="238" height="238" rx="9" stroke="none"/>
        <rect x="0.75" y="0.75" width="236.5" height="236.5" rx="8.25" fill="none"/>
      </g>
      <g id="Rectangle_1548" data-name="Rectangle 1548" transform="translate(-16895 -2) rotate(-45)" fill="none" stroke="#fff" stroke-width="1.5">
        <rect width="238" height="238" rx="9" stroke="none"/>
        <rect x="0.75" y="0.75" width="236.5" height="236.5" rx="8.25" fill="none"/>
      </g>
      <g id="Rectangle_1549" data-name="Rectangle 1549" transform="translate(-16911 -2) rotate(-45)" fill="none" stroke="#fff" stroke-width="1.5">
        <rect width="238" height="238" rx="8" stroke="none"/>
        <rect x="0.75" y="0.75" width="236.5" height="236.5" rx="7.25" fill="none"/>
      </g>
      <g id="Rectangle_1550" data-name="Rectangle 1550" transform="translate(-16926 -2) rotate(-45)" fill="none" stroke="#fff" stroke-width="1.5">
        <rect width="238" height="238" rx="7" stroke="none"/>
        <rect x="0.75" y="0.75" width="236.5" height="236.5" rx="6.25" fill="none"/>
      </g>
      <g id="Rectangle_1551" data-name="Rectangle 1551" transform="translate(-16942 -2) rotate(-45)" fill="none" stroke="#fff" stroke-width="1.5">
        <rect width="238" height="238" rx="5" stroke="none"/>
        <rect x="0.75" y="0.75" width="236.5" height="236.5" rx="4.25" fill="none"/>
      </g>
    </g>
  </g>
</svg>
