<svg xmlns="http://www.w3.org/2000/svg" width="70" height="70" viewBox="0 0 70 70">
  <g id="Group_2855" data-name="Group 2855" transform="translate(10962.09 3139)">
    <rect id="Rectangle_1557" data-name="Rectangle 1557" width="70" height="70" rx="10" transform="translate(-10962.09 -3139)" fill="#fff"/>
    <g id="XMLID_179_" transform="translate(-10974.73 -3177.822)">
      <g id="XMLID_200_" transform="translate(22 60.193)">
        <path id="XMLID_204_" d="M68.878,152.88A9.616,9.616,0,0,1,73.3,165.787a27.526,27.526,0,0,1-23.464,15.562,28.2,28.2,0,0,1-3.6-.122,27.008,27.008,0,0,1-22.522-17.375C22.608,160.9,22,154.39,22,154.39a26.374,26.374,0,0,0,2.779-5.231C26.816,157.537,33.5,159,42.506,159a20.462,20.462,0,0,0,2.1-.111,35.063,35.063,0,0,0,3.141-2.148c.588-.446,1.155-.912,1.712-1.388a16.171,16.171,0,0,1,3.911-2.584,18.476,18.476,0,0,1,15.511.111Z" transform="translate(-22 -144.4)" fill="#24275d"/>
        <path id="XMLID_201_" d="M258.281,213.4a19.181,19.181,0,0,1-11.651,7.264c-.5.1-1.013.172-1.53.233a35.066,35.066,0,0,0,3.141-2.148,36.467,36.467,0,0,0,2.786-2.361A18.165,18.165,0,0,1,258.281,213.4Z" transform="translate(-222.497 -206.409)" fill="#24275d"/>
      </g>
      <path id="XMLID_191_" d="M44.6,158.878a35.084,35.084,0,0,1-18.237,5.076c-.892,0-1.783-.03-2.654-.1A27.079,27.079,0,0,1,23.9,144.4a19.149,19.149,0,0,0,18.6,14.6A17.934,17.934,0,0,0,44.6,158.878Z" transform="translate(0 -84.207)" fill="#ffc10b"/>
      <circle id="XMLID_180_" cx="6.038" cy="6.038" r="6.038" transform="translate(35.374 50.7)" fill="#ffc10b"/>
    </g>
  </g>
</svg>
