<svg id="Upgrade_Plan" data-name="Upgrade Plan" xmlns="http://www.w3.org/2000/svg" width="71.02" height="71.081" viewBox="0 0 71.02 71.081">
  <path id="Path_7819" data-name="Path 7819" d="M22.3,43.771C21.665,43.5,6.75,37.019,6.75,23.94V12.04L22.3,6.75l15.546,5.29v11.9c0,13.073-14.9,19.556-15.549,19.832h0Z" transform="translate(13.241 13.241)" fill="#ffc10b"/>
  <path id="Path_7820" data-name="Path 7820" d="M27.626,13.847h-7.4a2.221,2.221,0,1,1,0-4.443H25.4V4.221a2.221,2.221,0,1,1,4.443,0v7.4A2.222,2.222,0,0,1,27.626,13.847Z" transform="translate(35.311 3.923)" fill="#c1c2c3"/>
  <path id="Path_7821" data-name="Path 7821" d="M35.54,71.081A35.54,35.54,0,0,1,35.54,0,35.133,35.133,0,0,1,63.318,13.434a2.221,2.221,0,1,1-3.489,2.748A30.721,30.721,0,0,0,35.54,4.443,31.1,31.1,0,1,0,66.582,37.614a2.222,2.222,0,1,1,4.434.293A35.634,35.634,0,0,1,35.54,71.081Z" fill="#c1c2c3"/>
  <path id="Path_7822" data-name="Path 7822" d="M23.77,47.464a2.19,2.19,0,0,1-.9-.19C22.183,46.969,6,39.642,6,24.617V12.981a2.218,2.218,0,0,1,1.57-2.124L23.119,6.1a2.211,2.211,0,0,1,1.3,0l15.549,4.759a2.217,2.217,0,0,1,1.573,2.124V24.617c0,15.025-16.183,22.352-16.873,22.657a2.19,2.19,0,0,1-.9.19ZM10.443,14.624v9.993c0,10.351,10.194,16.5,13.325,18.146C26.892,41.111,37.1,34.927,37.1,24.617V14.624L23.77,10.543Z" transform="translate(11.77 11.77)" fill="#0a0c23"/>
  <path id="Path_7823" data-name="Path 7823" d="M16.4,24.81a2.212,2.212,0,0,1-1.57-.652L9.651,18.976a2.222,2.222,0,0,1,3.142-3.142l3.554,3.554L24.4,10.71a2.221,2.221,0,1,1,3.258,3.021L18.036,24.1a2.231,2.231,0,0,1-1.587.711.256.256,0,0,1-.044,0Z" transform="translate(17.656 19.615)" fill="#0a0c23"/>
</svg>
