<svg xmlns="http://www.w3.org/2000/svg" width="90" height="90" viewBox="0 0 90 90">
  <g id="Group_1461" data-name="Group 1461" transform="translate(13692 -1958)">
    <g id="Avatar" transform="translate(-13692.332 1957.668)">
      <g id="Border" transform="translate(0.332 0.332)" fill="none" stroke="#e6e8ee" stroke-miterlimit="10" stroke-width="1">
        <rect width="90" height="90" rx="45" stroke="none"/>
        <rect x="0.5" y="0.5" width="89" height="89" rx="44.5" fill="none"/>
      </g>
    </g>
    <circle id="Ellipse_126" data-name="Ellipse 126" cx="39" cy="39" r="39" transform="translate(-13686 1964)" fill="#f0f2f6"/>
    <g id="user" transform="translate(-13675.982 1970.786)">
      <g id="Group_150" data-name="Group 150" transform="translate(12.056)">
        <g id="Group_149" data-name="Group 149">
          <path id="Path_6968" data-name="Path 6968" d="M127.6,0a16.81,16.81,0,1,0,16.81,16.81A16.855,16.855,0,0,0,127.6,0Z" transform="translate(-110.791)" fill="#ffc10b"/>
        </g>
      </g>
      <g id="Group_152" data-name="Group 152" transform="translate(0 34.566)">
        <g id="Group_151" data-name="Group 151">
          <path id="Path_6969" data-name="Path 6969" d="M81.766,260.072a15.692,15.692,0,0,0-1.682-3.083,20.8,20.8,0,0,0-14.4-9.1,3.072,3.072,0,0,0-2.12.514,17.79,17.79,0,0,1-21.057,0,2.735,2.735,0,0,0-2.12-.514,20.652,20.652,0,0,0-14.4,9.1,18.1,18.1,0,0,0-1.682,3.083,1.567,1.567,0,0,0,.073,1.395,29.3,29.3,0,0,0,1.974,2.936,27.86,27.86,0,0,0,3.363,3.817,43.864,43.864,0,0,0,3.363,2.936,33.236,33.236,0,0,0,39.775,0,32.191,32.191,0,0,0,3.363-2.936,33.853,33.853,0,0,0,3.363-3.817,25.76,25.76,0,0,0,1.974-2.936A1.257,1.257,0,0,0,81.766,260.072Z" transform="translate(-24.165 -247.841)" fill="#ffc10b"/>
        </g>
      </g>
    </g>
  </g>
</svg>
