<svg id="Group_1461" data-name="Group 1461" xmlns="http://www.w3.org/2000/svg" width="27.663" height="9.558" viewBox="0 0 27.663 9.558">
  <path id="Path_7760" data-name="Path 7760" d="M40.491,71.754l.2-.131a.848.848,0,0,0-.97-1.391c-13.255,9.267-22.9.456-23.309.077a.848.848,0,0,0-1.166,1.233c.018.017.32.294.871.7l-1.7,2.8a.85.85,0,0,0,.284,1.165.863.863,0,0,0,.442.124.852.852,0,0,0,.725-.406l1.66-2.736A20.356,20.356,0,0,0,21.076,74.9l-.818,2.735a.843.843,0,0,0,.566,1.054l.244.036a.849.849,0,0,0,.81-.605l.81-2.7a19.227,19.227,0,0,0,4.366.659V78.79a.847.847,0,1,0,1.695,0V76.065a19.942,19.942,0,0,0,4.378-.75l1.043,2.751a.85.85,0,0,0,.792.546l.3-.053a.847.847,0,0,0,.493-1.092l-1.016-2.68a25.154,25.154,0,0,0,4.321-2.1l1.373,1.833a.852.852,0,0,0,.677.34.83.83,0,0,0,.508-.17A.848.848,0,0,0,41.79,73.5Z" transform="translate(-14.296 -70.079)" fill="#0a0c23"/>
</svg>
