<svg xmlns="http://www.w3.org/2000/svg" width="92.941" height="92.943" viewBox="0 0 92.941 92.943">
  <g id="Group_1405" data-name="Group 1405" transform="translate(13743.471 1361.971)">
    <g id="shuttle" transform="translate(-13743.471 -1361.971)">
      <path id="Path_6753" data-name="Path 6753" d="M.109,6.938A7.224,7.224,0,0,1,6.938.109C14.387-.3,28.965.1,42.9,7.308a70.609,70.609,0,0,1,20.618,17.1c.074.089.146.178.219.266l13.611,1.051a7.185,7.185,0,0,1,5.475,3.222L92.113,42.99a4.977,4.977,0,0,1-3.39,7.663L77.256,52.429c.04.223.081.446.118.669a7.22,7.22,0,0,1-2.024,6.281L59.377,75.352a7.238,7.238,0,0,1-5.109,2.121,7.119,7.119,0,0,1-1.172-.1c-.223-.037-.446-.078-.669-.118L50.652,88.725a4.973,4.973,0,0,1-7.663,3.39L28.944,82.829a7.184,7.184,0,0,1-3.221-5.475L24.671,63.743c-.089-.073-.178-.145-.267-.219A70.6,70.6,0,0,1,7.307,42.9C.1,28.965-.3,14.388.109,6.938ZM31.947,78.286l13.435,8.883,1.731-11.176a61,61,0,0,1-16.646-7.926l.685,8.867a1.774,1.774,0,0,0,.8,1.352ZM55.526,71.5,71.5,55.528A1.765,1.765,0,0,0,72,54a46.845,46.845,0,0,0-2.126-8.089L45.91,69.873A47.038,47.038,0,0,0,53.994,72a1.766,1.766,0,0,0,1.532-.5ZM76.933,31.153l-8.866-.685a61,61,0,0,1,7.926,16.647l11.175-1.731L78.284,31.948A1.774,1.774,0,0,0,76.933,31.153ZM27.892,59.342a62.43,62.43,0,0,0,12.6,8.244L67.585,40.5a63.511,63.511,0,0,0-8.244-12.6A64.983,64.983,0,0,0,40.4,12.145C27.609,5.528,14.13,5.171,7.234,5.547A1.786,1.786,0,0,0,5.546,7.235c-.376,6.9-.019,20.374,6.6,33.168A64.983,64.983,0,0,0,27.892,59.342Z" transform="translate(0 0)" fill="#ffc10b"/>
      <path id="Path_6754" data-name="Path 6754" d="M289.337,113.534a13.6,13.6,0,1,1,9.627-3.981A13.574,13.574,0,0,1,289.337,113.534Zm5.776-19.384a8.168,8.168,0,1,0,2.393,5.776A8.142,8.142,0,0,0,295.113,94.15Z" transform="translate(-260.061 -70.649)" fill="#ffc10b"/>
      <path id="Path_6755" data-name="Path 6755" d="M11.914,357.3a2.713,2.713,0,0,1-1.925-.8l-8.89-8.89a2.723,2.723,0,0,1,3.851-3.851l8.89,8.89a2.723,2.723,0,0,1-1.925,4.648Z" transform="translate(78.25 -280.707)" fill="#ffc10b"/>
      <path id="Path_6756" data-name="Path 6756" d="M.8,388.643a2.723,2.723,0,0,1,3.851,0L21.74,405.735a2.723,2.723,0,1,1-3.851,3.851L.8,392.494A2.723,2.723,0,0,1,.8,388.643Z" transform="translate(70.403 -317.441)" fill="#ffc10b"/>
      <path id="Path_6757" data-name="Path 6757" d="M94.711,433.524l8.89,8.89a2.723,2.723,0,1,1-3.851,3.851l-8.89-8.89a2.723,2.723,0,1,1,3.851-3.851Z" transform="translate(-27.805 -354.175)" fill="#ffc10b"/>
    </g>
  </g>
</svg>
