<svg xmlns="http://www.w3.org/2000/svg" xmlns:xlink="http://www.w3.org/1999/xlink" width="514.961" height="418.455" viewBox="0 0 514.961 418.455">
  <defs>
    <radialGradient id="radial-gradient" cx="-11.706" cy="-19.299" r="0.829" gradientTransform="translate(-4.266 -6.901) scale(0.585 0.593)" gradientUnits="objectBoundingBox">
      <stop offset="0" stop-color="#b5cdc7"/>
      <stop offset="1" stop-color="#fff" stop-opacity="0"/>
    </radialGradient>
    <radialGradient id="radial-gradient-2" cx="-22.947" cy="-10.306" r="0.829" gradientTransform="matrix(-0.585, 0, 0, 0.593, -32, -3.674)" xlink:href="#radial-gradient"/>
    <radialGradient id="radial-gradient-3" cx="-24.388" cy="-9.47" r="0.829" gradientTransform="matrix(-0.585, 0, 0, 0.593, -34.015, -3.374)" xlink:href="#radial-gradient"/>
    <linearGradient id="linear-gradient" x1="-29.567" y1="0.5" x2="-28.567" y2="0.5" gradientUnits="objectBoundingBox">
      <stop offset="0" stop-color="#ffe2c4"/>
      <stop offset="1" stop-color="#ffb870"/>
    </linearGradient>
    <linearGradient id="linear-gradient-2" x1="-76.332" y1="0.5" x2="-75.332" y2="0.5" xlink:href="#linear-gradient"/>
    <linearGradient id="linear-gradient-3" y1="0.5" x2="1" y2="0.5" gradientUnits="objectBoundingBox">
      <stop offset="0" stop-color="#dc7e67"/>
      <stop offset="1" stop-color="#e66748"/>
    </linearGradient>
    <linearGradient id="linear-gradient-4" y1="0.5" x2="1" y2="0.5" gradientUnits="objectBoundingBox">
      <stop offset="0" stop-color="#bf2bb5"/>
      <stop offset="1" stop-color="#7614a3"/>
    </linearGradient>
    <linearGradient id="linear-gradient-6" y1="0.5" x2="1" y2="0.5" gradientUnits="objectBoundingBox">
      <stop offset="0" stop-color="#e66748"/>
      <stop offset="1" stop-color="#9a351d"/>
    </linearGradient>
    <linearGradient id="linear-gradient-7" x1="-147.896" y1="1" x2="-147.896" gradientUnits="objectBoundingBox">
      <stop offset="0" stop-color="#4cc194"/>
      <stop offset="0.284" stop-color="#4cd08b"/>
      <stop offset="0.68" stop-color="#4cdf82"/>
      <stop offset="1" stop-color="#4ce580"/>
    </linearGradient>
    <linearGradient id="linear-gradient-8" x1="-98.955" y1="0.5" x2="-97.955" y2="0.5" xlink:href="#linear-gradient-7"/>
    <radialGradient id="radial-gradient-4" cx="-6.74" cy="-17.837" r="0.829" gradientTransform="translate(-2.446 -6.377) scale(0.585 0.593)" xlink:href="#radial-gradient"/>
    <radialGradient id="radial-gradient-5" cx="-7.696" cy="-18.149" r="0.829" gradientTransform="translate(-2.796 -6.488) scale(0.585 0.593)" xlink:href="#radial-gradient"/>
    <radialGradient id="radial-gradient-6" cx="-8.742" cy="-19.568" r="0.829" gradientTransform="translate(-3.18 -6.998) scale(0.585 0.593)" xlink:href="#radial-gradient"/>
  </defs>
  <g id="Group_1364" data-name="Group 1364" transform="translate(-863.072 -1417.82)">
    <path id="Path_248" data-name="Path 248" d="M703.944,376.811c0,24.779-34.361,44.865-76.748,44.865s-76.747-20.086-76.747-44.865,34.358-44.864,76.747-44.864S703.944,352.032,703.944,376.811Z" transform="translate(674.09 1407.339)" fill="url(#radial-gradient)"/>
    <path id="Path_249" data-name="Path 249" d="M442.548,359.176c0,39.409,54.647,71.351,122.055,71.351s122.06-31.942,122.06-71.351-54.652-71.349-122.06-71.349S442.548,319.773,442.548,359.176Z" transform="translate(607.844 1380.252)" fill="url(#radial-gradient-2)"/>
    <path id="Path_250" data-name="Path 250" d="M469.727,336.925c0,39.408,54.645,71.351,122.053,71.351s122.058-31.943,122.058-71.351-54.65-71.351-122.058-71.351S469.727,297.521,469.727,336.925Z" transform="translate(624.53 1366.59)" fill="url(#radial-gradient-3)"/>
    <g id="Group_89" data-name="Group 89" transform="translate(1091.673 1694.771)">
      <path id="Path_251" data-name="Path 251" d="M587.054,377.513,468.126,308.852v-4.487l157.618,46.324v4.482Z" transform="translate(-468.126 -304.365)" fill="#e66748"/>
    </g>
    <g id="Group_90" data-name="Group 90" transform="translate(1091.673 1694.771)">
      <path id="Path_252" data-name="Path 252" d="M587.054,377.513,468.126,308.852v-4.487L587.058,372.58v4.487Z" transform="translate(-468.126 -304.365)" fill="#ffa791"/>
    </g>
    <g id="Group_91" data-name="Group 91" transform="translate(1091.673 1672.434)">
      <path id="Path_253" data-name="Path 253" d="M587.054,381.524,468.126,312.862l38.7-22.337,118.923,68.661Z" transform="translate(-468.126 -290.525)" fill="#ff8263"/>
    </g>
    <path id="Path_254" data-name="Path 254" d="M497.223,300.4l-7.841-4.53v-.961l12.9,1.609v.96Z" transform="translate(636.597 1384.602)" fill="#ce5b3f"/>
    <path id="Path_255" data-name="Path 255" d="M497.223,300.547l-7.841-4.525,5.061-2.917,7.841,4.527Z" transform="translate(636.597 1383.492)" fill="#ffa791"/>
    <path id="Path_256" data-name="Path 256" d="M502.423,303.406l-7.841-4.528v-.958l12.9,1.609v.958Z" transform="translate(639.79 1386.448)" fill="#ce5b3f"/>
    <path id="Path_257" data-name="Path 257" d="M502.423,303.558l-7.841-4.528,5.055-2.919,7.843,4.528Z" transform="translate(639.79 1385.337)" fill="#ffa791"/>
    <path id="Path_258" data-name="Path 258" d="M507.625,306.411l-7.843-4.53v-.955l12.9,1.608v.96Z" transform="translate(642.983 1388.294)" fill="#ce5b3f"/>
    <path id="Path_259" data-name="Path 259" d="M507.625,306.56l-7.843-4.523,5.061-2.919,7.836,4.527Z" transform="translate(642.983 1387.183)" fill="#ffa791"/>
    <path id="Path_260" data-name="Path 260" d="M512.825,309.418l-7.843-4.53v-.957l12.9,1.608v.96Z" transform="translate(646.175 1390.139)" fill="#ce5b3f"/>
    <path id="Path_261" data-name="Path 261" d="M512.825,309.572l-7.843-4.53,5.056-2.919,7.841,4.527Z" transform="translate(646.175 1389.029)" fill="#ffa791"/>
    <path id="Path_262" data-name="Path 262" d="M518.019,312.421l-7.837-4.522v-.961l12.9,1.606v.963Z" transform="translate(649.368 1391.985)" fill="#ce5b3f"/>
    <path id="Path_263" data-name="Path 263" d="M518.019,312.571l-7.837-4.523,5.056-2.917,7.843,4.523Z" transform="translate(649.368 1390.875)" fill="#ffa791"/>
    <path id="Path_264" data-name="Path 264" d="M523.219,315.43l-7.836-4.527v-.961l12.893,1.611v.96Z" transform="translate(652.561 1393.829)" fill="#6a55e5"/>
    <path id="Path_265" data-name="Path 265" d="M523.219,315.578l-7.836-4.527,5.05-2.916,7.843,4.527Z" transform="translate(652.561 1392.72)" fill="#b4b0ff"/>
    <path id="Path_266" data-name="Path 266" d="M528.423,318.437l-7.843-4.527v-.96l12.9,1.6v.963Z" transform="translate(655.752 1395.676)" fill="#6a55e5"/>
    <path id="Path_267" data-name="Path 267" d="M528.423,318.591l-7.843-4.53,5.059-2.921,7.843,4.525Z" transform="translate(655.752 1394.565)" fill="#b4b0ff"/>
    <path id="Path_268" data-name="Path 268" d="M533.621,321.439l-7.84-4.523v-.96l12.9,1.606v.961Z" transform="translate(658.945 1397.522)" fill="#ce5b3f"/>
    <path id="Path_269" data-name="Path 269" d="M533.621,321.594l-7.84-4.528,5.059-2.917,7.843,4.524Z" transform="translate(658.945 1396.412)" fill="#ffa791"/>
    <path id="Path_270" data-name="Path 270" d="M538.823,324.449l-7.843-4.528v-.958l12.9,1.606v.958Z" transform="translate(662.137 1399.368)" fill="#ce5b3f"/>
    <path id="Path_271" data-name="Path 271" d="M538.823,324.6l-7.843-4.527,5.056-2.919,7.841,4.525Z" transform="translate(662.137 1398.257)" fill="#ffa791"/>
    <path id="Path_272" data-name="Path 272" d="M544.025,327.456l-7.848-4.527v-.961l12.909,1.611v.957Z" transform="translate(665.328 1401.212)" fill="#ce5b3f"/>
    <path id="Path_273" data-name="Path 273" d="M544.025,327.61l-7.848-4.531,5.061-2.921,7.847,4.531Z" transform="translate(665.328 1400.101)" fill="#ffa791"/>
    <path id="Path_274" data-name="Path 274" d="M549.22,330.461l-7.843-4.525v-.961l12.9,1.609v.96Z" transform="translate(668.52 1403.058)" fill="#ce5b3f"/>
    <path id="Path_275" data-name="Path 275" d="M549.22,330.613l-7.843-4.528,5.061-2.919,7.843,4.528Z" transform="translate(668.52 1401.948)" fill="#ffa791"/>
    <path id="Path_276" data-name="Path 276" d="M554.421,333.471l-7.843-4.53v-.96l12.9,1.609v.958Z" transform="translate(671.713 1404.905)" fill="#ce5b3f"/>
    <path id="Path_277" data-name="Path 277" d="M554.421,333.62l-7.843-4.528,5.059-2.919,7.843,4.528Z" transform="translate(671.713 1403.794)" fill="#ffa791"/>
    <path id="Path_278" data-name="Path 278" d="M559.62,336.474l-7.841-4.525v-.96l12.9,1.6v.958Z" transform="translate(674.906 1406.751)" fill="#ce5b3f"/>
    <path id="Path_279" data-name="Path 279" d="M559.62,336.627l-7.841-4.527,5.061-2.921,7.836,4.525Z" transform="translate(674.906 1405.64)" fill="#ffa791"/>
    <path id="Path_280" data-name="Path 280" d="M497.739,305.468,485.333,298.2v-.955l17.46,4.342v.961Z" transform="translate(634.112 1386.036)" fill="#ce5b3f"/>
    <path id="Path_281" data-name="Path 281" d="M497.739,305.621l-12.406-7.261,5.055-2.922,12.406,7.264Z" transform="translate(634.112 1384.924)" fill="#ffa791"/>
    <path id="Path_282" data-name="Path 282" d="M501.2,307.436,493.36,302.9v-.957l12.893,1.609v.957Z" transform="translate(639.04 1388.921)" fill="#ce5b3f"/>
    <path id="Path_283" data-name="Path 283" d="M501.2,307.581l-7.836-4.522,5.056-2.92,7.836,4.53Z" transform="translate(639.04 1387.811)" fill="#ffa791"/>
    <path id="Path_284" data-name="Path 284" d="M506.4,310.44l-7.843-4.523v-.963l12.9,1.609v.958Z" transform="translate(642.231 1390.766)" fill="#ce5b3f"/>
    <path id="Path_285" data-name="Path 285" d="M506.4,310.59l-7.843-4.528,5.059-2.916,7.837,4.525Z" transform="translate(642.231 1389.657)" fill="#ffa791"/>
    <path id="Path_286" data-name="Path 286" d="M511.6,313.446l-7.835-4.528v-.958l12.891,1.608v.96Z" transform="translate(645.426 1392.612)" fill="#ce5b3f"/>
    <path id="Path_287" data-name="Path 287" d="M511.6,313.6l-7.835-4.526,5.055-2.919,7.836,4.527Z" transform="translate(645.426 1391.502)" fill="#ffa791"/>
    <path id="Path_288" data-name="Path 288" d="M516.8,316.456l-7.843-4.53v-.96l12.9,1.608v.96Z" transform="translate(648.616 1394.458)" fill="#6a55e5"/>
    <path id="Path_289" data-name="Path 289" d="M516.8,316.606l-7.843-4.53,5.056-2.919,7.841,4.527Z" transform="translate(648.616 1393.347)" fill="#ffa791"/>
    <path id="Path_290" data-name="Path 290" d="M522,319.458l-7.843-4.527v-.96l12.9,1.609v.958Z" transform="translate(651.809 1396.303)" fill="#6a55e5"/>
    <path id="Path_291" data-name="Path 291" d="M522,319.61l-7.843-4.528,5.056-2.919,7.841,4.528Z" transform="translate(651.809 1395.193)" fill="#b4b0ff"/>
    <path id="Path_292" data-name="Path 292" d="M527.2,322.466l-7.841-4.528v-.961l12.9,1.612v.958Z" transform="translate(655.002 1398.148)" fill="#6a55e5"/>
    <path id="Path_293" data-name="Path 293" d="M527.2,322.617l-7.841-4.531,5.055-2.916,7.843,4.528Z" transform="translate(655.002 1397.039)" fill="#b4b0ff"/>
    <path id="Path_294" data-name="Path 294" d="M532.4,325.471l-7.843-4.527v-.961l12.9,1.612v.955Z" transform="translate(658.192 1399.994)" fill="#ce5b3f"/>
    <path id="Path_295" data-name="Path 295" d="M532.4,325.621l-7.843-4.528,5.059-2.917,7.843,4.53Z" transform="translate(658.192 1398.885)" fill="#ffa791"/>
    <path id="Path_296" data-name="Path 296" d="M537.6,328.48l-7.836-4.53v-.96l12.891,1.609v.958Z" transform="translate(661.388 1401.84)" fill="#ce5b3f"/>
    <path id="Path_297" data-name="Path 297" d="M537.6,328.629,529.76,324.1l5.055-2.919,7.837,4.528Z" transform="translate(661.388 1400.73)" fill="#ffa791"/>
    <path id="Path_298" data-name="Path 298" d="M542.8,331.485l-7.843-4.528V326l12.9,1.6v.961Z" transform="translate(664.578 1403.688)" fill="#ce5b3f"/>
    <path id="Path_299" data-name="Path 299" d="M542.8,331.639l-7.843-4.527,5.056-2.924,7.846,4.528Z" transform="translate(664.578 1402.576)" fill="#ffa791"/>
    <path id="Path_300" data-name="Path 300" d="M548,334.494l-7.843-4.531V329l12.9,1.6v.965Z" transform="translate(667.77 1405.532)" fill="#ce5b3f"/>
    <path id="Path_301" data-name="Path 301" d="M548,334.643l-7.843-4.53,5.056-2.919,7.848,4.524Z" transform="translate(667.77 1404.421)" fill="#ffa791"/>
    <path id="Path_302" data-name="Path 302" d="M556.992,339.727l-11.64-6.76v-.955l16.694,3.835v.955Z" transform="translate(670.961 1407.379)" fill="#ce5b3f"/>
    <path id="Path_303" data-name="Path 303" d="M556.992,339.875l-11.64-6.752,5.061-2.922,11.633,6.757Z" transform="translate(670.961 1406.267)" fill="#ffa791"/>
    <path id="Path_304" data-name="Path 304" d="M490.551,306.02l-9.331-5.436v-.958l13.717,2.126v.96Z" transform="translate(631.587 1387.496)" fill="#ce5b3f"/>
    <path id="Path_305" data-name="Path 305" d="M490.838,306.336l-9.617-5.6,5.055-2.922,9.619,5.6Z" transform="translate(631.587 1386.384)" fill="#ffa791"/>
    <path id="Path_306" data-name="Path 306" d="M494.767,308.436l-7.841-4.525v-.958l12.9,1.609v.961Z" transform="translate(635.09 1389.538)" fill="#ce5b3f"/>
    <path id="Path_307" data-name="Path 307" d="M494.767,308.591l-7.841-4.528,5.055-2.92,7.849,4.53Z" transform="translate(635.09 1388.427)" fill="#ffa791"/>
    <path id="Path_308" data-name="Path 308" d="M499.967,311.447l-7.841-4.528v-.961l12.9,1.612v.958Z" transform="translate(638.282 1391.383)" fill="#ce5b3f"/>
    <path id="Path_309" data-name="Path 309" d="M499.967,311.594l-7.841-4.528,5.061-2.916,7.841,4.528Z" transform="translate(638.282 1390.274)" fill="#ffa791"/>
    <path id="Path_310" data-name="Path 310" d="M505.168,314.45l-7.843-4.528v-.957l12.9,1.6v.961Z" transform="translate(641.474 1393.229)" fill="#ce5b3f"/>
    <path id="Path_311" data-name="Path 311" d="M505.168,314.606l-7.843-4.53,5.061-2.92,7.843,4.525Z" transform="translate(641.474 1392.119)" fill="#ffa791"/>
    <path id="Path_312" data-name="Path 312" d="M510.369,317.46l-7.843-4.531v-.958l12.9,1.609v.956Z" transform="translate(644.668 1395.075)" fill="#ce5b3f"/>
    <path id="Path_313" data-name="Path 313" d="M510.369,317.61l-7.843-4.528,5.059-2.921,7.836,4.53Z" transform="translate(644.668 1393.964)" fill="#ffa791"/>
    <path id="Path_314" data-name="Path 314" d="M515.569,320.46l-7.843-4.525v-.957l12.9,1.608v.958Z" transform="translate(647.86 1396.921)" fill="#6a55e5"/>
    <path id="Path_315" data-name="Path 315" d="M515.569,320.613l-7.843-4.524,5.055-2.921,7.843,4.528Z" transform="translate(647.86 1395.81)" fill="#b4b0ff"/>
    <path id="Path_316" data-name="Path 316" d="M520.769,323.471l-7.843-4.528v-.958l12.9,1.606v.958Z" transform="translate(651.053 1398.767)" fill="#6a55e5"/>
    <path id="Path_317" data-name="Path 317" d="M520.769,323.622l-7.843-4.525,5.056-2.925,7.843,4.531Z" transform="translate(651.053 1397.654)" fill="#b4b0ff"/>
    <path id="Path_318" data-name="Path 318" d="M525.972,326.478l-7.849-4.53v-.96l12.9,1.611v.958Z" transform="translate(654.243 1400.611)" fill="#ce5b3f"/>
    <path id="Path_319" data-name="Path 319" d="M525.972,326.628l-7.849-4.53,5.063-2.919,7.836,4.53Z" transform="translate(654.243 1399.501)" fill="#ffa791"/>
    <path id="Path_320" data-name="Path 320" d="M531.17,329.486l-7.846-4.53V324l12.9,1.609v.958Z" transform="translate(657.436 1402.458)" fill="#ce5b3f"/>
    <path id="Path_321" data-name="Path 321" d="M531.17,329.635l-7.846-4.528,5.059-2.921,7.843,4.53Z" transform="translate(657.436 1401.347)" fill="#ffa791"/>
    <path id="Path_322" data-name="Path 322" d="M536.366,332.493l-7.841-4.53V327l12.9,1.609v.957Z" transform="translate(660.629 1404.303)" fill="#ce5b3f"/>
    <path id="Path_323" data-name="Path 323" d="M536.366,332.64l-7.841-4.528,5.055-2.918,7.848,4.527Z" transform="translate(660.629 1403.193)" fill="#ffa791"/>
    <path id="Path_324" data-name="Path 324" d="M541.567,335.5l-7.843-4.528v-.963l12.9,1.609v.963Z" transform="translate(663.822 1406.149)" fill="#ce5b3f"/>
    <path id="Path_325" data-name="Path 325" d="M541.567,335.646l-7.843-4.528,5.055-2.916,7.843,4.525Z" transform="translate(663.822 1405.04)" fill="#ffa791"/>
    <path id="Path_326" data-name="Path 326" d="M546.761,338.5l-7.836-4.53v-.957l12.9,1.609v.952Z" transform="translate(667.014 1407.995)" fill="#ce5b3f"/>
    <path id="Path_327" data-name="Path 327" d="M546.761,338.653l-7.836-4.528,5.056-2.917,7.841,4.527Z" transform="translate(667.014 1406.885)" fill="#ffa791"/>
    <path id="Path_328" data-name="Path 328" d="M551.111,341.008l-6.99-4.029v-.957l12.049,1.106v.963Z" transform="translate(670.205 1409.841)" fill="#ce5b3f"/>
    <path id="Path_329" data-name="Path 329" d="M551.111,341.159l-6.99-4.025,5.061-2.921,6.989,4.027Z" transform="translate(670.205 1408.73)" fill="#ffa791"/>
    <path id="Path_330" data-name="Path 330" d="M490.449,310.675l-13.372-7.712V302L495.5,306.8v.949Z" transform="translate(629.043 1388.955)" fill="#ce5b3f"/>
    <path id="Path_331" data-name="Path 331" d="M490.449,310.823l-13.372-7.709,5.061-2.92,13.365,7.715Z" transform="translate(629.043 1387.844)" fill="#ffa791"/>
    <path id="Path_332" data-name="Path 332" d="M493.547,312.469,485.7,307.94v-.96l12.9,1.608v.961Z" transform="translate(634.34 1392.011)" fill="#ce5b3f"/>
    <path id="Path_333" data-name="Path 333" d="M493.547,312.614l-7.843-4.523,5.055-2.919L498.6,309.7Z" transform="translate(634.34 1390.901)" fill="#ffa791"/>
    <path id="Path_334" data-name="Path 334" d="M498.747,315.477l-7.843-4.53v-.963l12.9,1.609v.961Z" transform="translate(637.532 1393.855)" fill="#ce5b3f"/>
    <path id="Path_335" data-name="Path 335" d="M498.747,315.622l-7.843-4.528,5.056-2.917L503.8,312.7Z" transform="translate(637.532 1392.746)" fill="#ffa791"/>
    <path id="Path_336" data-name="Path 336" d="M503.943,318.483l-7.843-4.53v-.96L509,314.6v.955Z" transform="translate(640.723 1395.703)" fill="#ce5b3f"/>
    <path id="Path_337" data-name="Path 337" d="M503.943,318.633,496.1,314.1l5.062-2.922L509,315.714Z" transform="translate(640.723 1394.591)" fill="#ffa791"/>
    <path id="Path_338" data-name="Path 338" d="M509.143,321.485,501.3,316.96V316l12.9,1.612v.96Z" transform="translate(643.916 1397.547)" fill="#ce5b3f"/>
    <path id="Path_339" data-name="Path 339" d="M509.143,321.636l-7.841-4.53,5.059-2.916,7.843,4.528Z" transform="translate(643.916 1396.438)" fill="#ffa791"/>
    <path id="Path_340" data-name="Path 340" d="M514.349,324.493l-7.847-4.527V319l12.9,1.609v.958Z" transform="translate(647.108 1399.393)" fill="#ce5b3f"/>
    <path id="Path_341" data-name="Path 341" d="M514.349,324.643l-7.847-4.528,5.061-2.917,7.835,4.527Z" transform="translate(647.108 1398.284)" fill="#ffa791"/>
    <path id="Path_342" data-name="Path 342" d="M519.545,327.5l-7.843-4.53v-.958l12.9,1.608v.958Z" transform="translate(650.301 1401.24)" fill="#ce5b3f"/>
    <path id="Path_343" data-name="Path 343" d="M519.545,327.65l-7.843-4.527,5.061-2.921,7.836,4.528Z" transform="translate(650.301 1400.129)" fill="#ffa791"/>
    <path id="Path_344" data-name="Path 344" d="M524.745,330.5l-7.843-4.528v-.957l12.9,1.606v.96Z" transform="translate(653.494 1403.086)" fill="#ce5b3f"/>
    <path id="Path_345" data-name="Path 345" d="M524.745,330.655,516.9,326.13l5.056-2.921,7.841,4.527Z" transform="translate(653.494 1401.975)" fill="#ffa791"/>
    <path id="Path_346" data-name="Path 346" d="M529.944,333.51l-7.841-4.528v-.955l12.9,1.606v.958Z" transform="translate(656.686 1404.932)" fill="#ce5b3f"/>
    <path id="Path_347" data-name="Path 347" d="M529.944,333.665l-7.841-4.527,5.055-2.922L535,330.744Z" transform="translate(656.686 1403.821)" fill="#ffa791"/>
    <path id="Path_348" data-name="Path 348" d="M535.146,336.52l-7.846-4.53v-.96l12.9,1.609v.958Z" transform="translate(659.877 1406.776)" fill="#ce5b3f"/>
    <path id="Path_349" data-name="Path 349" d="M535.146,336.669l-7.846-4.528,5.059-2.921,7.843,4.53Z" transform="translate(659.877 1405.665)" fill="#ffa791"/>
    <path id="Path_350" data-name="Path 350" d="M540.341,339.523,532.5,335v-.961l12.9,1.6v.966Z" transform="translate(663.07 1408.623)" fill="#ce5b3f"/>
    <path id="Path_351" data-name="Path 351" d="M540.341,339.675,532.5,335.15l5.061-2.922,7.84,4.525Z" transform="translate(663.07 1407.511)" fill="#ffa791"/>
    <path id="Path_352" data-name="Path 352" d="M548.5,344.15l-10.8-6.142v-.965l15.857,3.233v.958Z" transform="translate(666.262 1410.468)" fill="#ce5b3f"/>
    <path id="Path_353" data-name="Path 353" d="M548.5,344.306l-10.8-6.152,5.059-2.922,10.8,6.155Z" transform="translate(666.262 1409.356)" fill="#ffa791"/>
    <path id="Path_354" data-name="Path 354" d="M482.542,310.859l-9.5-5.572v-.955l14.562,2.649v.961Z" transform="translate(626.565 1390.385)" fill="#ce5b3f"/>
    <path id="Path_355" data-name="Path 355" d="M482.542,311.016l-9.5-5.573,5.061-2.919,9.5,5.568Z" transform="translate(626.565 1389.275)" fill="#ffa791"/>
    <path id="Path_356" data-name="Path 356" d="M487.115,313.471l-7.843-4.525v-.96l12.9,1.6v.958Z" transform="translate(630.391 1392.628)" fill="#ce5b3f"/>
    <path id="Path_357" data-name="Path 357" d="M487.115,313.624l-7.843-4.527,5.055-2.922,7.841,4.527Z" transform="translate(630.391 1391.517)" fill="#ffa791"/>
    <path id="Path_358" data-name="Path 358" d="M492.313,316.473l-7.84-4.523v-.958l12.9,1.608v.958Z" transform="translate(633.584 1394.473)" fill="#ce5b3f"/>
    <path id="Path_359" data-name="Path 359" d="M492.313,316.632l-7.84-4.53,5.053-2.919,7.843,4.527Z" transform="translate(633.584 1393.363)" fill="#ffa791"/>
    <path id="Path_360" data-name="Path 360" d="M539.315,343.721,489.67,314.956V314l54.7,25.842v.96Z" transform="translate(636.774 1396.32)" fill="#ce5b3f"/>
    <path id="Path_361" data-name="Path 361" d="M539.315,343.872,489.67,315.111l5.061-2.922,49.638,28.764Z" transform="translate(636.774 1395.208)" fill="#ffa791"/>
    <path id="Path_362" data-name="Path 362" d="M528.712,337.523,520.871,333v-.961l12.9,1.608v.96Z" transform="translate(655.93 1407.393)" fill="#ce5b3f"/>
    <path id="Path_363" data-name="Path 363" d="M528.712,337.669l-7.841-4.525,5.056-2.916,7.841,4.524Z" transform="translate(655.93 1406.284)" fill="#ffa791"/>
    <path id="Path_364" data-name="Path 364" d="M533.91,340.534,526.067,336v-.965l12.9,1.612v.96Z" transform="translate(659.121 1409.238)" fill="#ce5b3f"/>
    <path id="Path_365" data-name="Path 365" d="M533.91,340.677l-7.843-4.528,5.061-2.916,7.843,4.528Z" transform="translate(659.121 1408.129)" fill="#ffa791"/>
    <path id="Path_366" data-name="Path 366" d="M539.11,343.532l-7.841-4.525v-.958l12.9,1.609v.958Z" transform="translate(662.314 1411.085)" fill="#ce5b3f"/>
    <path id="Path_367" data-name="Path 367" d="M539.11,343.687l-7.841-4.528,5.055-2.919,7.847,4.528Z" transform="translate(662.314 1409.975)" fill="#ffa791"/>
    <path id="Path_368" data-name="Path 368" d="M542.674,345.569l-6.205-3.557v-.958l11.261.634v.96Z" transform="translate(665.506 1412.93)" fill="#ce5b3f"/>
    <path id="Path_369" data-name="Path 369" d="M542.674,345.72l-6.205-3.556,5.055-2.919,6.207,3.553Z" transform="translate(665.506 1411.82)" fill="#ffa791"/>
    <g id="Group_161" data-name="Group 161" transform="translate(1146.689 1651.975)">
      <g id="Group_158" data-name="Group 158" transform="translate(0.014 8.027)">
        <path id="Path_370" data-name="Path 370" d="M502.231,294.573h0v-7.6l5.458,2.744,9.593-5.542a12.54,12.54,0,0,1,11.314,0l96.417,55.667,5.486-2.681v7.519h0c.12,1.269-.642,2.555-2.321,3.528l-12.731,7.348a12.51,12.51,0,0,1-11.309,0l-99.581-57.5C502.9,297.1,502.13,295.824,502.231,294.573Z" transform="translate(-502.222 -282.823)" fill="#ffa791"/>
      </g>
      <g id="Group_159" data-name="Group 159" transform="translate(107.739 56.349)">
        <path id="Path_371" data-name="Path 371" d="M584.032,321.456l5.486-2.681v7.519h0c.12,1.269-.642,2.555-2.321,3.528l-12.731,7.348a11.531,11.531,0,0,1-5.5,1.343V312.763Z" transform="translate(-568.969 -312.763)" fill="#e66748"/>
      </g>
      <g id="Group_160" data-name="Group 160">
        <path id="Path_372" data-name="Path 372" d="M615.45,350.574a12.49,12.49,0,0,1-11.309,0l-99.581-57.492c-3.129-1.809-3.129-4.732,0-6.53l12.724-7.35a12.479,12.479,0,0,1,11.314,0L628.181,336.7c3.12,1.8,3.12,4.727,0,6.532Z" transform="translate(-502.214 -277.849)" fill="#ee6e4e"/>
      </g>
    </g>
    <g id="Group_164" data-name="Group 164" transform="translate(1184.983 1639.558)">
      <g id="Group_162" data-name="Group 162" transform="translate(6.941)">
        <path id="Path_373" data-name="Path 373" d="M568.079,335.452l6.946-3.926V296.01l-44.784-25.855Z" transform="translate(-530.241 -270.155)" fill="#e66748"/>
      </g>
      <g id="Group_163" data-name="Group 163" transform="translate(0 3.932)">
        <path id="Path_374" data-name="Path 374" d="M525.94,308.107l44.779,25.85V298.443L525.94,272.592Z" transform="translate(-525.94 -272.592)" fill="#ffa791"/>
      </g>
    </g>
    <g id="Group_165" data-name="Group 165" transform="translate(1111.225 1451.828)">
      <path id="Path_375" data-name="Path 375" d="M480.24,157.935l6.511-3.719a1.872,1.872,0,0,1,.45-.253v0h0a2.726,2.726,0,0,1,2.322.374l187.408,108.2a8.031,8.031,0,0,1,3.636,6.3V412.749a2.554,2.554,0,0,1-1.065,2.356,2.192,2.192,0,0,1-.3.137l-6.482,3.725-1.344-7.011,1.932.8L489.523,306.651a8.034,8.034,0,0,1-3.636-6.306V161.859Z" transform="translate(-480.24 -153.839)" fill="#e66748"/>
    </g>
    <g id="Group_166" data-name="Group 166" transform="translate(1111.225 1451.828)">
      <path id="Path_376" data-name="Path 376" d="M486.751,154.217a1.872,1.872,0,0,1,.45-.253v0h0a2.726,2.726,0,0,1,2.322.374l187.408,108.2a7.177,7.177,0,0,1,2.292,2.284l-125.28,79.025-64.421-37.193a8.034,8.034,0,0,1-3.636-6.306V161.859l-5.647-3.924Z" transform="translate(-480.24 -153.839)" fill="#ffa791"/>
    </g>
    <g id="Group_167" data-name="Group 167" transform="translate(1110.137 1455.672)">
      <path id="Path_377" data-name="Path 377" d="M479.566,302.736a8.043,8.043,0,0,0,3.641,6.3l187.4,108.194c2.014,1.162,3.644.22,3.644-2.1V271.217a8.044,8.044,0,0,0-3.644-6.3l-187.4-108.2c-2.014-1.16-3.641-.218-3.641,2.1Z" transform="translate(-479.566 -156.22)" fill="#ffa791"/>
    </g>
    <g id="Group_168" data-name="Group 168" transform="translate(1113.67 1462.097)">
      <path id="Path_378" data-name="Path 378" d="M481.755,289.749,669.37,398.067V268.518L481.755,160.2Z" transform="translate(-481.755 -160.201)" fill="#f6f5fb"/>
    </g>
    <g id="Group_188" data-name="Group 188" transform="translate(1180.921 1521.369)">
      <g id="Group_187" data-name="Group 187">
        <g id="Group_181" data-name="Group 181" opacity="0.4">
          <g id="Group_180" data-name="Group 180">
            <g id="Group_179" data-name="Group 179">
              <g id="Group_169" data-name="Group 169" transform="translate(0 82.907)">
                <path id="Path_379" data-name="Path 379" d="M623.222,306.738l-99.8-57.617v-.826l99.8,57.618Z" transform="translate(-523.424 -248.295)" fill="#c7c3e2"/>
              </g>
              <g id="Group_170" data-name="Group 170" transform="translate(0 73.755)">
                <path id="Path_380" data-name="Path 380" d="M623.222,301.07l-99.8-57.618v-.827l99.8,57.622Z" transform="translate(-523.424 -242.624)" fill="#c7c3e2"/>
              </g>
              <g id="Group_171" data-name="Group 171" transform="translate(0 64.608)">
                <path id="Path_381" data-name="Path 381" d="M623.222,295.4l-99.8-57.618v-.827l99.8,57.621Z" transform="translate(-523.424 -236.956)" fill="#c7c3e2"/>
              </g>
              <g id="Group_172" data-name="Group 172" transform="translate(0 55.458)">
                <path id="Path_382" data-name="Path 382" d="M623.222,289.733l-99.8-57.618v-.827l99.8,57.618Z" transform="translate(-523.424 -231.288)" fill="#c7c3e2"/>
              </g>
              <g id="Group_173" data-name="Group 173" transform="translate(0 46.31)">
                <path id="Path_383" data-name="Path 383" d="M623.222,284.062l-99.8-57.617v-.825l99.8,57.614Z" transform="translate(-523.424 -225.62)" fill="#c7c3e2"/>
              </g>
              <g id="Group_174" data-name="Group 174" transform="translate(0 37.159)">
                <path id="Path_384" data-name="Path 384" d="M623.222,278.392l-99.8-57.617v-.825l99.8,57.619Z" transform="translate(-523.424 -219.95)" fill="#c7c3e2"/>
              </g>
              <g id="Group_175" data-name="Group 175" transform="translate(0 28.009)">
                <path id="Path_385" data-name="Path 385" d="M623.222,272.724l-99.8-57.619v-.825l99.8,57.618Z" transform="translate(-523.424 -214.28)" fill="#c7c3e2"/>
              </g>
              <g id="Group_176" data-name="Group 176" transform="translate(0 18.3)">
                <path id="Path_386" data-name="Path 386" d="M623.222,266.708l-99.8-57.618v-.826l99.8,57.618Z" transform="translate(-523.424 -208.264)" fill="#c7c3e2"/>
              </g>
              <g id="Group_177" data-name="Group 177" transform="translate(0 9.151)">
                <path id="Path_387" data-name="Path 387" d="M623.222,261.04l-99.8-57.619V202.6l99.8,57.619Z" transform="translate(-523.424 -202.596)" fill="#c7c3e2"/>
              </g>
              <g id="Group_178" data-name="Group 178">
                <path id="Path_388" data-name="Path 388" d="M623.222,255.372l-99.8-57.619v-.827l99.8,57.619Z" transform="translate(-523.424 -196.926)" fill="#c7c3e2"/>
              </g>
            </g>
          </g>
        </g>
        <g id="Group_182" data-name="Group 182" transform="translate(1.77 31.917)">
          <path id="Path_389" data-name="Path 389" d="M621.926,326.259l-14.067-70.238-12.3,16.031-11.435-25.663-11.044-7.3L561.871,220l-10.443,40.275-13.2-24.859L525.72,270.1l-1.2-.43L538,232.284l13.017,24.506,10.39-40.089,12.618,21.487,11.106,7.34,10.719,24.052,12.708-16.559,14.614,72.99Z" transform="translate(-524.521 -216.701)" fill="#f23096"/>
        </g>
        <g id="Group_183" data-name="Group 183" transform="translate(1.781 52.072)">
          <path id="Path_390" data-name="Path 390" d="M621.924,318.6l-14-65-12.3,20.3L584.24,249.088l-11.02,1.333-11.534-18.642-10.4,20.351-13.055-19.849L525.7,262.463l-1.174-.49,13.454-32.4L551.148,249.6l10.432-20.412,12.3,19.872,11.134-1.349,10.768,23.481,12.713-20.988,14.678,68.129Z" transform="translate(-524.527 -229.189)" fill="#f2e941"/>
        </g>
        <g id="Group_185" data-name="Group 185" transform="translate(1.841 64.978)">
          <g id="Group_184" data-name="Group 184">
            <path id="Path_391" data-name="Path 391" d="M621.926,313.78l-14.179-38.26-12.478.7L584.4,250.932,573.49,262.717l-12.072-14.98-10.368,4.557-12.878-13.1-12.554,18.477-1.054-.717,13.43-19.764,13.35,13.589L561.8,246.18l11.76,14.592L584.8,248.631,596.087,274.9l12.527-.708,14.505,39.14Z" transform="translate(-524.564 -237.186)" fill="#8970f2"/>
          </g>
        </g>
        <g id="Group_186" data-name="Group 186" transform="translate(2.007 75.263)">
          <path id="Path_392" data-name="Path 392" d="M621.9,309.957l-14.182-25.333-12.544-1.452-11-25.074-10.9,3.13-11.775-11.485-10.415,8.428-13.145-12.964-12.554,8.711-.727-1.045,13.422-9.315,13.085,12.905,10.412-8.424L573.643,259.8l11.254-3.233,11.151,25.427,12.469,1.441,14.5,25.9Z" transform="translate(-524.667 -243.559)" fill="#f438b1"/>
        </g>
      </g>
      <path id="Path_393" data-name="Path 393" d="M526.585,250.166c0,1.031-.605,1.864-1.346,1.864s-1.349-.833-1.349-1.864.605-1.864,1.349-1.864S526.585,249.138,526.585,250.166Z" transform="translate(-523.137 -165.383)" fill="#fcfcfc"/>
      <path id="Path_394" data-name="Path 394" d="M534.77,245.185c0,1.028-.6,1.863-1.348,1.863s-1.349-.834-1.349-1.863.6-1.864,1.349-1.864S534.77,244.157,534.77,245.185Z" transform="translate(-518.114 -168.441)" fill="#fcfcfc"/>
      <path id="Path_395" data-name="Path 395" d="M534.77,238.362c0,1.028-.6,1.864-1.348,1.864s-1.349-.836-1.349-1.864.6-1.864,1.349-1.864S534.77,237.331,534.77,238.362Z" transform="translate(-518.114 -172.63)" fill="#fcfcfc"/>
      <path id="Path_396" data-name="Path 396" d="M534.77,231.052c0,1.028-.6,1.863-1.348,1.863s-1.349-.834-1.349-1.863.6-1.863,1.349-1.863S534.77,230.024,534.77,231.052Z" transform="translate(-518.114 -177.117)" fill="#fcfcfc"/>
      <path id="Path_397" data-name="Path 397" d="M534.77,228c0,1.026-.6,1.861-1.348,1.861s-1.349-.834-1.349-1.861.6-1.864,1.349-1.864S534.77,226.967,534.77,228Z" transform="translate(-518.114 -178.994)" fill="#fcfcfc"/>
      <path id="Path_398" data-name="Path 398" d="M549.3,218.565c0,1.028-.6,1.863-1.346,1.863s-1.348-.834-1.348-1.863.6-1.864,1.348-1.864S549.3,217.535,549.3,218.565Z" transform="translate(-509.193 -184.785)" fill="#fcfcfc"/>
      <path id="Path_399" data-name="Path 399" d="M549.6,230.651c0,1.028-.6,1.862-1.346,1.862s-1.348-.834-1.348-1.862.6-1.864,1.348-1.864S549.6,229.621,549.6,230.651Z" transform="translate(-509.004 -177.365)" fill="#fcfcfc"/>
      <path id="Path_400" data-name="Path 400" d="M549.284,244.03c0,1.03-.6,1.864-1.348,1.864s-1.348-.834-1.348-1.864.6-1.864,1.348-1.864S549.284,243,549.284,244.03Z" transform="translate(-509.202 -169.151)" fill="#fcfcfc"/>
      <path id="Path_401" data-name="Path 401" d="M549.284,247.858c0,1.028-.6,1.862-1.348,1.862s-1.348-.834-1.348-1.862.6-1.866,1.348-1.866S549.284,246.83,549.284,247.858Z" transform="translate(-509.202 -166.802)" fill="#fcfcfc"/>
      <path id="Path_402" data-name="Path 402" d="M556.728,254.815c0,1.03-.6,1.864-1.348,1.864s-1.346-.834-1.346-1.864.6-1.864,1.346-1.864S556.728,253.789,556.728,254.815Z" transform="translate(-504.631 -162.529)" fill="#fcfcfc"/>
      <path id="Path_403" data-name="Path 403" d="M556.728,252.808c0,1.026-.6,1.861-1.348,1.861s-1.346-.834-1.346-1.861.6-1.864,1.346-1.864S556.728,251.778,556.728,252.808Z" transform="translate(-504.631 -163.761)" fill="#fcfcfc"/>
      <path id="Path_404" data-name="Path 404" d="M556.728,242.549c0,1.033-.6,1.864-1.348,1.864s-1.346-.831-1.346-1.864.6-1.864,1.346-1.864S556.728,241.523,556.728,242.549Z" transform="translate(-504.631 -170.06)" fill="#fcfcfc"/>
      <path id="Path_405" data-name="Path 405" d="M556.728,231.052c0,1.028-.6,1.863-1.348,1.863s-1.346-.834-1.346-1.863.6-1.863,1.346-1.863S556.728,230.024,556.728,231.052Z" transform="translate(-504.631 -177.117)" fill="#fcfcfc"/>
      <path id="Path_406" data-name="Path 406" d="M563.632,235.663c0,1.028-.605,1.864-1.351,1.864s-1.346-.836-1.346-1.864.6-1.864,1.346-1.864S563.632,234.633,563.632,235.663Z" transform="translate(-500.394 -174.288)" fill="#fcfcfc"/>
      <path id="Path_407" data-name="Path 407" d="M563.632,241.722c0,1.028-.605,1.862-1.351,1.862s-1.346-.834-1.346-1.862.6-1.866,1.346-1.866S563.632,240.694,563.632,241.722Z" transform="translate(-500.394 -170.569)" fill="#fcfcfc"/>
      <path id="Path_408" data-name="Path 408" d="M563.632,245.8c0,1.03-.605,1.861-1.351,1.861s-1.346-.831-1.346-1.861.6-1.866,1.346-1.866S563.632,244.769,563.632,245.8Z" transform="translate(-500.394 -168.065)" fill="#fcfcfc"/>
      <path id="Path_409" data-name="Path 409" d="M563.632,253.145c0,1.026-.605,1.862-1.351,1.862s-1.346-.836-1.346-1.862.6-1.864,1.346-1.864S563.632,252.114,563.632,253.145Z" transform="translate(-500.394 -163.554)" fill="#fcfcfc"/>
      <path id="Path_410" data-name="Path 410" d="M570.584,268.63c0,1.026-.605,1.863-1.349,1.863s-1.348-.836-1.348-1.863.6-1.864,1.348-1.864S570.584,267.6,570.584,268.63Z" transform="translate(-496.126 -154.047)" fill="#fcfcfc"/>
      <path id="Path_411" data-name="Path 411" d="M570.584,261.625c0,1.028-.605,1.863-1.349,1.863s-1.348-.834-1.348-1.863.6-1.864,1.348-1.864S570.584,260.6,570.584,261.625Z" transform="translate(-496.126 -158.348)" fill="#fcfcfc"/>
      <path id="Path_412" data-name="Path 412" d="M570.584,256.443c0,1.03-.605,1.866-1.349,1.866s-1.348-.836-1.348-1.866.6-1.864,1.348-1.864S570.584,255.417,570.584,256.443Z" transform="translate(-496.126 -161.53)" fill="#fcfcfc"/>
      <path id="Path_413" data-name="Path 413" d="M570.584,250.836c0,1.028-.605,1.863-1.349,1.863s-1.348-.834-1.348-1.863.6-1.864,1.348-1.864S570.584,249.8,570.584,250.836Z" transform="translate(-496.126 -164.972)" fill="#fcfcfc"/>
      <path id="Path_414" data-name="Path 414" d="M578.227,240.672c0,1.026-.605,1.861-1.349,1.861s-1.349-.834-1.349-1.861.6-1.864,1.349-1.864S578.227,239.644,578.227,240.672Z" transform="translate(-491.435 -171.212)" fill="#fcfcfc"/>
      <path id="Path_415" data-name="Path 415" d="M578.227,243.7c0,1.028-.605,1.864-1.349,1.864s-1.349-.836-1.349-1.864.6-1.864,1.349-1.864S578.227,242.676,578.227,243.7Z" transform="translate(-491.435 -169.351)" fill="#fcfcfc"/>
      <path id="Path_416" data-name="Path 416" d="M578.227,261.439c0,1.031-.605,1.867-1.349,1.867s-1.349-.836-1.349-1.867.6-1.863,1.349-1.863S578.227,260.412,578.227,261.439Z" transform="translate(-491.435 -158.462)" fill="#fcfcfc"/>
      <path id="Path_417" data-name="Path 417" d="M578.227,269.362c0,1.028-.605,1.866-1.349,1.866s-1.349-.838-1.349-1.866.6-1.863,1.349-1.863S578.227,268.333,578.227,269.362Z" transform="translate(-491.435 -153.597)" fill="#fcfcfc"/>
      <path id="Path_418" data-name="Path 418" d="M587.121,284.942c0,1.031-.605,1.864-1.349,1.864s-1.349-.833-1.349-1.864.6-1.864,1.349-1.864S587.121,283.916,587.121,284.942Z" transform="translate(-485.973 -144.033)" fill="#fcfcfc"/>
      <path id="Path_419" data-name="Path 419" d="M543.052,246.546c0,1.028-.6,1.861-1.346,1.861s-1.353-.833-1.353-1.861.605-1.862,1.353-1.862S543.052,245.517,543.052,246.546Z" transform="translate(-513.029 -167.605)" fill="#fcfcfc"/>
      <path id="Path_420" data-name="Path 420" d="M542.733,243.487c0,1.031-.6,1.866-1.346,1.866s-1.348-.834-1.348-1.866.6-1.861,1.348-1.861S542.733,242.46,542.733,243.487Z" transform="translate(-513.223 -169.482)" fill="#fcfcfc"/>
      <path id="Path_421" data-name="Path 421" d="M542.733,252.505c0,1.028-.6,1.863-1.346,1.863s-1.348-.834-1.348-1.863.6-1.862,1.348-1.862S542.733,251.476,542.733,252.505Z" transform="translate(-513.223 -163.946)" fill="#fcfcfc"/>
    </g>
    <g id="Group_189" data-name="Group 189" transform="translate(1113.67 1462.097)">
      <path id="Path_422" data-name="Path 422" d="M483.591,161.261V288.32L669.37,395.576v2.49L481.755,289.749V160.2Z" transform="translate(-481.755 -160.201)" fill="#e66748"/>
    </g>
    <path id="Path_423" data-name="Path 423" d="M479.563,150.363v71.88l93.256,53.841V204.2Z" transform="translate(630.569 1295.856)" fill="#efefef"/>
    <path id="Path_424" data-name="Path 424" d="M467.569,204.648l103.983,60.035V192.8L467.569,132.767Z" transform="translate(623.206 1285.053)" fill="#f69077"/>
    <path id="Path_425" data-name="Path 425" d="M467.567,177.493l103.985,60.036,0-2.859L467.57,174.635Z" transform="translate(623.204 1310.758)" fill="#1c0687"/>
    <path id="Path_426" data-name="Path 426" d="M516.369,205.668l25.221,14.562,0-2.859L516.369,202.81Z" transform="translate(653.166 1328.056)" fill="#ff3956"/>
    <path id="Path_427" data-name="Path 427" d="M487.32,171.9c0,12.828,9,28.428,20.113,34.842s20.115,1.214,20.115-11.614-9.006-28.426-20.115-34.84S487.32,159.074,487.32,171.9Z" transform="translate(635.332 1300.263)" fill="#fff"/>
    <path id="Path_428" data-name="Path 428" d="M495.271,166.083l12.889,17.195-12.889,2.862Z" transform="translate(640.213 1305.508)" fill="#ff3956"/>
    <g id="Group_200" data-name="Group 200" transform="translate(991.924 1473.892)">
      <g id="Group_199" data-name="Group 199">
        <path id="Path_430" data-name="Path 430" d="M413.245,398.664l-6.924-4.344,0-169.487,99.288-57.324,7.662,3.916Z" transform="translate(-406.321 -167.509)" fill="#e66748"/>
      </g>
    </g>
    <g id="Group_203" data-name="Group 203" transform="translate(991.924 1531.153)">
      <g id="Group_202" data-name="Group 202">
        <g id="Group_201" data-name="Group 201">
          <path id="Path_431" data-name="Path 431" d="M406.323,203.051l0,169.487,6.924,4.344,58.629-133.193-65.442-40.7Z" transform="translate(-406.321 -202.988)" fill="#ffa791"/>
        </g>
      </g>
    </g>
    <g id="Group_205" data-name="Group 205" transform="translate(998.848 1477.808)">
      <g id="Group_204" data-name="Group 204">
        <path id="Path_432" data-name="Path 432" d="M510.638,339.421,410.611,397.175V227.688l100.027-57.752Z" transform="translate(-410.611 -169.936)" fill="#f6f5fb"/>
      </g>
    </g>
    <g id="Group_222" data-name="Group 222" transform="translate(1007.728 1587.651)">
      <g id="Group_213" data-name="Group 213">
        <g id="Group_212" data-name="Group 212">
          <g id="Group_206" data-name="Group 206" transform="translate(0 5.255)">
            <path id="Path_433" data-name="Path 433" d="M461.088,244.75l-44.975,25.967v-3.5l44.975-25.965Z" transform="translate(-416.113 -241.25)" fill="#f23096"/>
          </g>
          <g id="Group_207" data-name="Group 207">
            <path id="Path_434" data-name="Path 434" d="M483.321,239.159l-67.207,38.8V276.8l67.207-38.8Z" transform="translate(-416.113 -237.994)" fill="#b7abff"/>
          </g>
          <g id="Group_208" data-name="Group 208" transform="translate(0 4.867)">
            <path id="Path_435" data-name="Path 435" d="M483.321,242.176l-67.207,38.8v-1.166l67.207-38.8Z" transform="translate(-416.113 -241.01)" fill="#b7abff"/>
          </g>
          <g id="Group_209" data-name="Group 209" transform="translate(0 9.736)">
            <path id="Path_436" data-name="Path 436" d="M483.321,245.191,416.113,284v-1.169l67.207-38.8Z" transform="translate(-416.113 -244.026)" fill="#b7abff"/>
          </g>
          <g id="Group_210" data-name="Group 210" transform="translate(0 14.604)">
            <path id="Path_437" data-name="Path 437" d="M483.321,248.211l-67.207,38.8v-1.168l67.207-38.8Z" transform="translate(-416.113 -247.043)" fill="#b7abff"/>
          </g>
          <g id="Group_211" data-name="Group 211" transform="translate(0 19.47)">
            <path id="Path_438" data-name="Path 438" d="M483.321,251.227l-67.207,38.8v-1.166l67.207-38.806Z" transform="translate(-416.113 -250.058)" fill="#b7abff"/>
          </g>
        </g>
      </g>
      <g id="Group_221" data-name="Group 221" transform="translate(0 34.511)">
        <g id="Group_220" data-name="Group 220">
          <g id="Group_214" data-name="Group 214" transform="translate(0 5.261)">
            <path id="Path_439" data-name="Path 439" d="M461.088,266.137,416.113,292.1v-3.5l44.975-25.963Z" transform="translate(-416.113 -262.637)" fill="#f23096"/>
          </g>
          <g id="Group_215" data-name="Group 215">
            <path id="Path_440" data-name="Path 440" d="M483.321,260.543l-67.207,38.806v-1.168l67.207-38.8Z" transform="translate(-416.113 -259.377)" fill="#b7abff"/>
          </g>
          <g id="Group_216" data-name="Group 216" transform="translate(0 4.87)">
            <path id="Path_441" data-name="Path 441" d="M483.321,263.561l-67.207,38.8V301.2l67.207-38.8Z" transform="translate(-416.113 -262.395)" fill="#b7abff"/>
          </g>
          <g id="Group_217" data-name="Group 217" transform="translate(0 9.739)">
            <path id="Path_442" data-name="Path 442" d="M483.321,266.577l-67.207,38.8v-1.168l67.207-38.8Z" transform="translate(-416.113 -265.411)" fill="#b7abff"/>
          </g>
          <g id="Group_218" data-name="Group 218" transform="translate(0 14.606)">
            <path id="Path_443" data-name="Path 443" d="M483.321,269.6l-67.207,38.8v-1.168l67.207-38.8Z" transform="translate(-416.113 -268.427)" fill="#b7abff"/>
          </g>
          <g id="Group_219" data-name="Group 219" transform="translate(0 19.476)">
            <path id="Path_444" data-name="Path 444" d="M483.321,272.609l-67.207,38.8v-1.165l67.207-38.8Z" transform="translate(-416.113 -271.444)" fill="#b7abff"/>
          </g>
        </g>
      </g>
    </g>
    <path id="Path_445" data-name="Path 445" d="M540.09,327.453c-7.484,4.321-19.616,4.321-27.1,0s-7.482-11.325,0-15.646,19.616-4.319,27.1,0S547.573,323.134,540.09,327.453Z" transform="translate(647.647 1392.986)" fill="#eaeaea"/>
    <g id="Group_226" data-name="Group 226" transform="translate(1199.432 1770.907)">
      <g id="Group_225" data-name="Group 225">
        <path id="Path_446" data-name="Path 446" d="M611.607,399.953c1.311-.608,2.573-1.259,3.793-1.964a40.434,40.434,0,0,0,3.409-2.2,35.966,35.966,0,0,0,0-3.936c-3.094-3.083-7.022-2.8-5.915-4.054,1.189-1.362,8.338-1.62,14.685-2.011a16.659,16.659,0,0,0,1.532-5.7c-.111-.029.115-3.911,0-3.938-5.743-1.485-12.474.889-12.866-.566-.41-1.47,5.126-4.085,9.872-6.562-.053-.084,0-3.938,0-3.938-6.249.767-17.7.594-19.595-.5s-.132-5.11,1.2-8.717v-3.94c-4.283,2.745-17.707,7.279-20.263,7.038-2.579-.236-5.19-4.07-7.8-7.429a78.883,78.883,0,0,0-9.879.889c-.663,3.665-1.122,7.782-3.475,8.475-2.274.668-8.291-1.575-13.849-3.418-1.3.61-5.983-.486-7.2.218v3.94c3.2,3.207,7.072,6.687,5.923,8-1.2,1.364-9.45,1.988-15.805,2.379-.87,1.872-.249,3.414-.416,5.331,5.822,1.506,12.469,3.012,12.884,4.5.37,1.375-5.41.321-9.892,2.628v3.94a25.987,25.987,0,0,0,4.5,5.134c6.244-.771,13.2-1.795,15.108-.694,1.74,1,.052,1.43-1.212,4.779-.115.3.11,3.636,0,3.938a64.437,64.437,0,0,0,8.9,2.6c4.288-2.739,8.817-5.936,11.377-5.708,2.581.239,5.186,4.074,7.787,7.437a79.709,79.709,0,0,0,9.879-.886c.676-3.667,1.115-7.791,3.483-8.481C600.029,395.871,606.057,398.111,611.607,399.953ZM565.6,388.216c-9.086-5.249-9.091-13.744-.01-18.986s23.809-5.247,32.894,0,9.074,13.744-.008,18.986S574.682,393.46,565.6,388.216Z" transform="translate(-534.893 -351.539)" fill="#294c5b"/>
      </g>
    </g>
    <g id="Group_228" data-name="Group 228" transform="translate(1199.492 1766.967)">
      <g id="Group_227" data-name="Group 227">
        <path id="Path_447" data-name="Path 447" d="M611.584,397.513q1.966-.913,3.793-1.964t3.409-2.195c-3.186-3.205-7.074-6.682-5.915-7.994,1.189-1.362,8.338-1.616,14.685-2.008a16.676,16.676,0,0,0,1.532-5.7c-5.826-1.514-12.466-3.02-12.866-4.506-.41-1.469,5.126-4.083,9.872-6.561a25.365,25.365,0,0,0-4.5-5.136c-6.249.767-13.192,1.79-15.09.7s-.132-5.11,1.2-8.719a64.694,64.694,0,0,0-8.9-2.6c-4.282,2.745-8.811,5.941-11.367,5.7-2.579-.237-5.19-4.074-7.8-7.432a79.194,79.194,0,0,0-9.879.889c-.663,3.665-1.122,7.786-3.475,8.475-2.274.67-8.291-1.574-13.849-3.418-1.3.613-2.584,1.262-3.8,1.967s-2.34,1.438-3.4,2.19c3.2,3.209,7.072,6.69,5.923,8-1.2,1.361-8.331,1.62-14.685,2.011a16.955,16.955,0,0,0-1.536,5.7c5.821,1.5,12.469,3.007,12.884,4.5.4,1.48-5.14,4.095-9.892,6.566a25.992,25.992,0,0,0,4.5,5.136c6.244-.77,13.2-1.792,15.108-.7s.123,5.113-1.212,8.719a64.443,64.443,0,0,0,8.9,2.6c4.288-2.739,8.817-5.938,11.377-5.707,2.581.236,5.186,4.072,7.787,7.437a79.382,79.382,0,0,0,9.879-.891c.676-3.664,1.115-7.789,3.483-8.48C600.006,393.43,606.034,395.672,611.584,397.513Zm-46.01-11.738c-9.087-5.245-9.091-13.743-.01-18.985s23.809-5.247,32.894,0,9.074,13.743-.008,18.985S574.659,391.019,565.574,385.775Z" transform="translate(-534.93 -349.098)" fill="#4f839a"/>
      </g>
    </g>
    <g id="Group_232" data-name="Group 232" transform="translate(1276.91 1749.131)">
      <g id="Group_231" data-name="Group 231">
        <g id="Group_230" data-name="Group 230">
          <path id="Path_448" data-name="Path 448" d="M630.981,369.329c.822-.381,1.614-.789,2.379-1.232s1.477-.9,2.138-1.373c0,0,.09-3.546,0-3.633-1.941-1.937-4.406-.6-3.71-1.383.746-.854,5.229-1.015,9.211-1.259a10.452,10.452,0,0,0,.962-3.575c-.071-.019.071-3.612,0-3.631-3.6-.931-7.826,1.717-8.073.807s3.216-2.563,6.194-4.114c-.032-.055,0-3.633,0-3.633-3.92.479-11.1,1.533-12.29.846s-.082-3.205.749-5.468v-3.633c-2.686,1.722-11.106,5.726-12.71,5.576s-3.255-2.552-4.892-4.659a49.454,49.454,0,0,0-6.194.557c-.418,2.3-.7,4.882-2.181,5.318-1.425.42-5.2-.988-8.688-2.147-.818.383-3.751-1.467-4.516-1.023V345.3c2,2.013,4.434,4.2,3.712,5.018-.754.855-6.186.959-10.174,1.206,0,0,.106,2.426,0,3.63,3.652.943,7.821,1.885,8.083,2.824.231.859-3.394-.96-6.206.483v3.633a16.267,16.267,0,0,0,2.824,3.221c3.915-.483,8.215-.993,9.477-.434.341.152.032-.265-.76,1.835-.073.187.069,3.444,0,3.633a39.814,39.814,0,0,0,5.58,1.628c2.689-1.716,5.531-3.722,7.137-3.578s3.252,2.555,4.884,4.666a49.86,49.86,0,0,0,6.2-.558c.426-2.3.7-4.887,2.185-5.318C623.716,366.769,627.5,368.176,630.981,369.329Zm-28.861-7.361c-5.7-3.289-5.7-8.62,0-11.906s14.934-3.291,20.633,0,5.691,8.617-.006,11.906S607.817,365.258,602.12,361.967Z" transform="translate(-582.898 -338.047)" fill="#294c5b"/>
        </g>
      </g>
    </g>
    <g id="Group_234" data-name="Group 234" transform="translate(1276.91 1746.415)">
      <g id="Group_233" data-name="Group 233">
        <path id="Path_449" data-name="Path 449" d="M630.981,366.73c.822-.383,1.614-.789,2.379-1.233s1.477-.9,2.138-1.374c-2-2.013-4.438-4.191-3.71-5.015.746-.854,5.229-1.017,9.211-1.259a10.452,10.452,0,0,0,.962-3.575c-3.655-.947-7.821-1.892-8.073-2.826s3.216-2.561,6.194-4.114a15.847,15.847,0,0,0-2.826-3.221c-3.92.479-8.276,1.122-9.464.434s-.082-3.205.749-5.468a40.752,40.752,0,0,0-5.578-1.632c-2.686,1.722-5.528,3.727-7.132,3.575s-3.255-2.55-4.892-4.659a49.748,49.748,0,0,0-6.194.557c-.418,2.3-.7,4.882-2.181,5.318-1.425.42-5.2-.988-8.688-2.145-.818.383-1.62.791-2.384,1.235s-1.469.9-2.132,1.373c2,2.011,4.434,4.2,3.712,5.013-.754.855-5.224,1.02-9.211,1.264a10.627,10.627,0,0,0-.963,3.578c3.652.939,7.821,1.885,8.083,2.821s-3.223,2.568-6.206,4.116a16.32,16.32,0,0,0,2.824,3.223c3.915-.484,8.281-1.125,9.477-.436s.076,3.205-.76,5.468a40.028,40.028,0,0,0,5.58,1.63c2.689-1.716,5.531-3.722,7.137-3.58s3.252,2.555,4.884,4.666a50.159,50.159,0,0,0,6.2-.558c.426-2.3.7-4.885,2.185-5.318C623.716,364.171,627.5,365.576,630.981,366.73Zm-28.861-7.361c-5.7-3.291-5.7-8.62,0-11.911s14.934-3.288,20.633,0,5.691,8.62-.006,11.911S607.817,362.658,602.12,359.369Z" transform="translate(-582.898 -336.364)" fill="#4f839a"/>
      </g>
    </g>
    <path id="Path_450" data-name="Path 450" d="M520.669,316.307s-.439,3.381-.136,4.156,2.119.612,2.8.421c2.227-.633,7.589-3.289,7.452-5.494-.055-.9-1.411-.812-3.594.211s-3.417.846-3.7.211S520.669,316.307,520.669,316.307Z" transform="translate(655.657 1396.794)" fill="#2d2d2d"/>
    <path id="Path_451" data-name="Path 451" d="M508.288,314.062s-.441,3.383-.136,4.159,2.116.61,2.8.418c2.226-.629,7.587-3.289,7.45-5.492-.055-.9-1.409-.812-3.594.21s-3.417.846-3.7.213S508.288,314.062,508.288,314.062Z" transform="translate(648.055 1395.416)" fill="#2d2d2d"/>
    <g id="Group_243" data-name="Group 243" transform="translate(1141.306 1583.46)">
      <path id="Path_452" data-name="Path 452" d="M504.049,249.672s-4.608,8.255-5.171,25.449c.941,3.289,10.336,1.411,11.37,0s0-4.416,0-4.416h-4.135l1.251-8.263Z" transform="translate(-498.878 -226.633)" fill="#bc4f34"/>
      <g id="Group_242" data-name="Group 242" transform="translate(3.386)">
        <g id="Group_237" data-name="Group 237" transform="translate(4.033 61.454)">
          <path id="Path_453" data-name="Path 453" d="M510.441,338.126c-.205-2.987-1.8-30.663-1.9-31.582a118.45,118.45,0,0,0-3.583-17.981,65.774,65.774,0,0,1-1.478-15.089l15.484.647s-1.1,13.313-.931,29.866c.031,3.1-2.711,30.981-2.739,34Z" transform="translate(-503.475 -273.474)" fill="#1c0687"/>
        </g>
        <g id="Group_238" data-name="Group 238" transform="translate(11.357 61.454)">
          <path id="Path_454" data-name="Path 454" d="M521.791,308.8c-1.32-3.088-7.119-14.61-8.449-17.521-6.217-11.74-5.279-17.042-5.279-17.042l19.346-.763s1.864,28.283,3.37,34.371c.244.97,1.018,33.194,1.225,33.995l-3.945.374Z" transform="translate(-508.013 -273.474)" fill="#27079b"/>
        </g>
        <rect id="Rectangle_8" data-name="Rectangle 8" width="26.318" height="20.031" transform="translate(19.506 35.738) rotate(-60.539)" fill="#e8e8e8"/>
        <g id="Group_239" data-name="Group 239" transform="translate(19.977 13.224)">
          <rect id="Rectangle_9" data-name="Rectangle 9" width="25.593" height="19.401" transform="translate(0 22.284) rotate(-60.54)" fill="#574ad8"/>
        </g>
        <g id="Group_240" data-name="Group 240" transform="translate(22.071 15.484)">
          <rect id="Rectangle_10" data-name="Rectangle 10" width="21.958" height="16.645" transform="translate(0 19.119) rotate(-60.539)" fill="#f6f5fb"/>
        </g>
        <path id="Path_455" data-name="Path 455" d="M517.655,238.859a4.714,4.714,0,0,1,4.382,3.4,2.586,2.586,0,0,1,.1,1.557,6.741,6.741,0,0,0,.518,3.568c.751,2.048-.7,5.578-2.056,7.293a2.9,2.9,0,0,1-2.913-.655l-1.048,3.7-8.236-2.1a15.211,15.211,0,0,0,0-7.482c-.991-4.538-.623-6.811,2.339-8.323a13.423,13.423,0,0,1,6.913-.959" transform="translate(-496.719 -233.333)" fill="url(#linear-gradient)"/>
        <g id="Group_241" data-name="Group 241" transform="translate(8.689)">
          <path id="Path_456" data-name="Path 456" d="M521.7,235.4s-2.171,1.459-8.835,1.93-6.89,5.081-5.985,7.435c-1.975.738,2.28,7.958,2.276,10.767a8.316,8.316,0,0,0,6.693-.408,6.067,6.067,0,0,0,.513-4.71c-.844-2.489.72-4.911,1.708-4.238.213.148.516,4.093.686,4.133a2.1,2.1,0,0,0,.492,0c.3-.066-.081-1.077.232-2.778.15-.813,1.217-2.524,1.165-2.981a17.188,17.188,0,0,0-.763-2.41l1.432-.237s1.577.158,1.564-1.349A14.109,14.109,0,0,0,521.7,235.4" transform="translate(-506.36 -235.397)" fill="#1c0687"/>
        </g>
        <path id="Path_457" data-name="Path 457" d="M532.362,258.114s-3.654-4.314-11.291-7.158a37.112,37.112,0,0,0-7.636-1.8s-6.872-.7-10.276.673c-1.93.776-3.339,10.2-.847,16.4s4.143,13.473,2.239,16.966-3.062,13.648-3.062,13.648a25.853,25.853,0,0,0,8.42,2.924s1.758-9.12,1.982-9.12c.121,0,.918,9.682.918,9.682a37.021,37.021,0,0,0,21.541-3.9c-.817-4.585-4.12-13.475-5-17.757s3.008-20.552,3.008-20.552" transform="translate(-500.976 -227.061)" fill="#e66748"/>
        <path id="Path_458" data-name="Path 458" d="M525.653,265.241a16.377,16.377,0,0,1,0-3.793,3.353,3.353,0,0,0-.663-2.8c-.362-.52.258-1.916,1.4-.675a5.236,5.236,0,0,1,1.3,2.71l2.894-5.123s2.421,5.215-1.688,12.061C526.2,269.009,525.653,265.241,525.653,265.241Z" transform="translate(-486.296 -223.015)" fill="url(#linear-gradient-2)"/>
        <path id="Path_459" data-name="Path 459" d="M525.16,263.343a7.876,7.876,0,0,0-1.927-8.244,6.434,6.434,0,0,0-1.582-1.115c-3.581-1.762-6.046,1.259-6.186,7.765s.539,16.007,4.287,22.048c2.292,3.47,11.456,1.946,16.175-14.743-1.194-1.693-5.45-2.832-5.45-2.832s-4.214,10.71-5.828,9.293c-2.1-1.848-.83-8.249.512-12.171" transform="translate(-492.091 -224.29)" fill="#fc8669"/>
      </g>
    </g>
    <path id="Path_460" data-name="Path 460" d="M464.994,235.159a12.181,12.181,0,0,1-1.712-3.136,6.28,6.28,0,0,0-2.095-3.376,29.814,29.814,0,0,0-3.969-2.324c-.291-.065-1.1.3-.2.917s2.193,1.457,2.271,2.064c.048.366-1.561,2.761-.478,4.233s.56.284,3.61,3.749C465.009,239.118,464.994,235.159,464.994,235.159Z" transform="translate(616.474 1342.487)" fill="#fec7a9"/>
    <path id="Path_461" data-name="Path 461" d="M462.919,230.836a4.856,4.856,0,0,0-3.838,2.539c.439.45,1.1,1.231,1.895,2.13,2.973,2.1,3.065-2.947,3.065-2.947A16.886,16.886,0,0,1,462.919,230.836Z" transform="translate(617.994 1345.262)" fill="#fff"/>
    <g id="Group_246" data-name="Group 246" transform="translate(1077.522 1577.098)">
      <path id="Path_462" data-name="Path 462" d="M489.946,248.464s-12.726-3.635-15.8-5.67-10.575-11.338-10.575-11.338a4.19,4.19,0,0,0-4.212,3.233c3.525,6.72,9.385,11.232,12.1,13.525s12.392,6.023,15.529,6.351S489.946,248.464,489.946,248.464Z" transform="translate(-459.358 -231.456)" fill="url(#linear-gradient-3)"/>
    </g>
    <g id="Group_260" data-name="Group 260" transform="translate(1056.163 1570.466)">
      <g id="Group_247" data-name="Group 247" transform="translate(11.783 48.22)">
        <path id="Path_463" data-name="Path 463" d="M461.763,257.336a3.54,3.54,0,0,0-2.907.523,5.176,5.176,0,0,1-3.983.576,1.474,1.474,0,0,0-.489,2.849,9.446,9.446,0,0,0,5.71.657c.623-.139,1.921-.825,2.361-.972S461.763,257.336,461.763,257.336Z" transform="translate(-453.424 -257.223)" fill="#fec7a9"/>
      </g>
      <path id="Path_464" data-name="Path 464" d="M452.268,270.407l-6.144-13.831,20.055-8.867,7.165,13.608Z" transform="translate(-446.124 -214.845)" fill="#f23096"/>
      <path id="Path_465" data-name="Path 465" d="M452.6,268.115l-5.244-11.805,17.118-7.569,6.117,11.614Z" transform="translate(-445.366 -214.211)" fill="#f6f5fb"/>
      <g id="Group_248" data-name="Group 248" transform="translate(40.88 71.523)">
        <path id="Path_466" data-name="Path 466" d="M480.273,272.375s1.717,5.883.886,10.487-2.44,15.278-2.716,18.273.831,6.047.554,7.71-7.544,3.33-7.544,3.33a7.372,7.372,0,0,0,2.773-4.161c.721-2.826,1-3.217,1-4.55s-.416-22.907-.5-28.4S480.273,272.375,480.273,272.375Z" transform="translate(-471.453 -271.662)" fill="#f9bb9d"/>
      </g>
      <g id="Group_249" data-name="Group 249" transform="translate(33.575 73.962)">
        <path id="Path_467" data-name="Path 467" d="M470.906,273.173a31.336,31.336,0,0,0,.552,5.487c.471,1.606,1.47,22.09,1.012,26.169s-3.659,9.608-4.948,10.605-.362,1.3,1.636,1.056,2.744-3.3,3.577-4.493,3.966-2.634,3.966-2.634a23.421,23.421,0,0,0-.805-2.745c-.331-.747.723-14.312,1.669-17.363a22.309,22.309,0,0,0,.454-9.17c-.391-1.549.93-6.911.93-6.911Z" transform="translate(-466.927 -273.173)" fill="#fec7a9"/>
      </g>
      <g id="Group_250" data-name="Group 250" transform="translate(38.095 106.797)">
        <path id="Path_468" data-name="Path 468" d="M478.671,303.221h.747s.8-5.071,1.026-5.993.444-3.021-1.109-3.573-2.526.665-3.081,1.83-2.963,4.63-4.576,5.239a4.573,4.573,0,0,0-1.829,1.361s-.639.579,1,.579,4.13.086,5.1-.331.97-1.275,1-2.08a2.411,2.411,0,0,1,1.025-1.885C478.337,300.865,478.671,303.221,478.671,303.221Z" transform="translate(-469.728 -293.518)" fill="url(#linear-gradient-4)"/>
      </g>
      <g id="Group_251" data-name="Group 251" transform="translate(31.119 109.259)">
        <path id="Path_469" data-name="Path 469" d="M478.5,297.627s-.129-2.665-2.088-2.582-2.934,2.08-3.5,3.719-.818,3.273-2.65,3.522-1.922-.178-1.922-.178a6.219,6.219,0,0,0-2.929.788c.665,1.275,3.3,1.3,5.434,1.33s2.44-.137,2.829-1.077,1.08-3.94,2.331-3.915c.278,2.489.61,5.383.61,5.383h.667s.828-3.8,1.023-5.186S478.567,298.163,478.5,297.627Z" transform="translate(-465.405 -295.043)" fill="url(#linear-gradient-4)"/>
      </g>
      <g id="Group_252" data-name="Group 252" transform="translate(35.023 57.997)">
        <path id="Path_470" data-name="Path 470" d="M467.824,263.281l.868,16.293s1.494,2.332,7.042,2a17.272,17.272,0,0,0,8.875-2.884,61.071,61.071,0,0,1,.667-6.244c.5-2.91,1.829-7.79,1.829-7.79Z" transform="translate(-467.824 -263.281)" fill="#3305af"/>
      </g>
      <g id="Group_253" data-name="Group 253" transform="translate(34.253 19.258)">
        <path id="Path_471" data-name="Path 471" d="M477.413,240.591s-7.032,4.187-7.987,8.451c-.283,1.267-2.5,3.007-1.5,7.084s2.332,9.451,2.332,11.783-2.912,8.4-2.912,11.566c6.737,4.743,17.056,4.243,22.046,0-.082-8.9-1.745-11.648-3.825-15.726s.249-7.571,1.33-11.4,3.037-8.861.5-11.524S479.784,239.523,477.413,240.591Z" transform="translate(-467.347 -239.279)" fill="url(#linear-gradient-6)"/>
      </g>
      <g id="Group_256" data-name="Group 256" transform="translate(38.22)">
        <g id="Group_254" data-name="Group 254" transform="translate(0.627 4.792)">
          <path id="Path_472" data-name="Path 472" d="M471.921,230.4a9.577,9.577,0,0,1-.749,3.286c-.791,2.122-1.33,4.7-.709,6.74s1.331,2.912,3.205,3c.915.208,1.456,1.164,1.58,2.745,2.7,1.081,5.907-.623,5.867-1.041-.418-1.83-.5-2.661.21-3.993s1.414-6.946-1.085-9.151S471.921,230.4,471.921,230.4Z" transform="translate(-470.193 -230.315)" fill="#fec7a9"/>
        </g>
        <g id="Group_255" data-name="Group 255">
          <path id="Path_473" data-name="Path 473" d="M472.326,236.3s-4.036-2.5-1.895-5.408,4.918-3.357,7.5-3.522,7.295.612,8.625,4.771c1.541,1.83,2.663,7.6,3.163,11.979s-4.049,8.875-10.486,8.875-7.343-4.383-7.343-4.383a3.516,3.516,0,0,0,4.125-2.939c.665-3.551-.663-7.929-1-8.872A3.505,3.505,0,0,1,472.326,236.3Z" transform="translate(-469.805 -227.346)" fill="#3305af"/>
        </g>
      </g>
      <g id="Group_257" data-name="Group 257" transform="translate(15.51 48.695)">
        <path id="Path_474" data-name="Path 474" d="M458.258,259.624s-2.235-.649-2.5-1.682c-.208-.8.955-.287,1.551.071s2.113-.781,3.2.332C460.315,259.707,458.258,259.624,458.258,259.624Z" transform="translate(-455.734 -257.518)" fill="#fec7a9"/>
      </g>
      <g id="Group_259" data-name="Group 259" transform="translate(19.395 25.883)">
        <path id="Path_475" data-name="Path 475" d="M460.717,256.788l-2.071.328a3.091,3.091,0,0,0-.287,2.884c.62,1.738,1.115,1.929,1.115,1.929l2.169-.562Z" transform="translate(-458.141 -235.154)" fill="#fff"/>
        <g id="Group_258" data-name="Group 258" transform="translate(1.346)">
          <path id="Path_476" data-name="Path 476" d="M476.589,243.431c-2.389.455-3.422,5.483-2.766,8.853.607,3.1,1.022,6.533-1.535,8.5a129.065,129.065,0,0,0-13.1,4.254,4.6,4.6,0,0,0,1.9,5.176c3.861-1.12,12.492-3.315,14.167-4.146.678-.337,4.053-2.027,5.01-7.891.733-3.233,1.264-8.354.323-11.059C480.158,245.9,478.975,242.976,476.589,243.431Z" transform="translate(-458.976 -243.383)" fill="#e66748"/>
        </g>
      </g>
    </g>
    <path id="Path_477" data-name="Path 477" d="M445.588,213.2l-11.83-4.935-1.1,7.332c-8.312,6.924-14.632,18.88-15.142,29.258l5.51-3.183c.431-6.322,3.809-13.394,8.473-18.349l-.649,4.333Z" transform="translate(592.476 1331.404)" fill="#e66748"/>
    <path id="Path_478" data-name="Path 478" d="M442.19,238.355l7.652-8.591-4.513-1.005a30.354,30.354,0,0,0,.562-5.665c0-7.81-3.488-12.676-8.752-13.638l-2.783,7.095c3.64.791,6.038,4.241,6.038,9.718,0,.455-.018.913-.052,1.378l-3.333-.742-1.285,18.707,6.283-7.051.079.019C442.122,238.505,442.155,238.43,442.19,238.355Z" transform="translate(602.815 1332.136)" fill="#e66748"/>
    <path id="Path_479" data-name="Path 479" d="M443.63,231.574a25.023,25.023,0,0,1-6.551,5.692c-3.255,1.88-6.249,2.306-8.618,1.5l3.368-3.352-11.937-4.724-2.744,19.329,5.542-5.512c3.546,2.5,8.681,2.4,14.388-.893a35.488,35.488,0,0,0,9.638-8.544Z" transform="translate(592.25 1345.173)" fill="#e66748"/>
    <path id="Path_480" data-name="Path 480" d="M446.018,212v36.98l38.64-22.309V189.694Z" transform="translate(609.974 1320.003)" fill="#574ad8"/>
    <g id="Group_276" data-name="Group 276" transform="translate(1066.066 1518.679)">
      <g id="Group_270" data-name="Group 270">
        <g id="Group_266" data-name="Group 266" transform="translate(0 23.484)">
          <path id="Path_481" data-name="Path 481" d="M452.26,222.629l21.717-12.539v-.28L452.26,222.349Z" transform="translate(-452.26 -209.81)" fill="#fff"/>
        </g>
        <g id="Group_267" data-name="Group 267" transform="translate(0 15.656)">
          <path id="Path_482" data-name="Path 482" d="M452.26,217.776l21.717-12.537v-.279L452.26,217.5Z" transform="translate(-452.26 -204.96)" fill="#fff"/>
        </g>
        <g id="Group_268" data-name="Group 268" transform="translate(0 7.828)">
          <path id="Path_483" data-name="Path 483" d="M452.26,212.927l21.717-12.538v-.28L452.26,212.647Z" transform="translate(-452.26 -200.109)" fill="#fff"/>
        </g>
        <g id="Group_269" data-name="Group 269">
          <path id="Path_484" data-name="Path 484" d="M452.26,208.076l21.717-12.539v-.278L452.26,207.8Z" transform="translate(-452.26 -195.259)" fill="#fff"/>
        </g>
      </g>
      <g id="Group_275" data-name="Group 275" transform="translate(0 3.824)">
        <g id="Group_271" data-name="Group 271" transform="translate(0 23.484)">
          <path id="Path_485" data-name="Path 485" d="M452.26,225l21.717-12.537v-.28L452.26,224.718Z" transform="translate(-452.26 -212.179)" fill="#fff"/>
        </g>
        <g id="Group_272" data-name="Group 272" transform="translate(0 15.656)">
          <path id="Path_486" data-name="Path 486" d="M452.26,220.146l21.717-12.539v-.278L452.26,219.866Z" transform="translate(-452.26 -207.329)" fill="#fff"/>
        </g>
        <g id="Group_273" data-name="Group 273" transform="translate(0 7.828)">
          <path id="Path_487" data-name="Path 487" d="M452.26,215.3l21.717-12.538v-.279L452.26,215.017Z" transform="translate(-452.26 -202.479)" fill="#fff"/>
        </g>
        <g id="Group_274" data-name="Group 274">
          <path id="Path_488" data-name="Path 488" d="M452.26,210.445l21.717-12.538v-.278L452.26,210.166Z" transform="translate(-452.26 -197.628)" fill="#fff"/>
        </g>
      </g>
    </g>
    <g id="Group_283" data-name="Group 283" transform="translate(1067.25 1523.97)">
      <g id="Group_277" data-name="Group 277" transform="translate(16.587 3.782)">
        <path id="Path_489" data-name="Path 489" d="M463.271,221.394l2.823-1.629V200.881l-2.823,1.629Z" transform="translate(-463.271 -200.881)" fill="#e3f4ff"/>
        <path id="Path_490" data-name="Path 490" d="M463.271,220.374l2.823-1.629v-16.2l-2.823,1.63Z" transform="translate(-463.271 -199.861)" fill="#f23096"/>
      </g>
      <g id="Group_279" data-name="Group 279" transform="translate(11.058)">
        <path id="Path_491" data-name="Path 491" d="M459.845,226.025l2.821-1.629V198.538l-2.821,1.629Z" transform="translate(-459.845 -198.538)" fill="#e3f4ff"/>
        <g id="Group_278" data-name="Group 278" transform="translate(0 7.461)">
          <path id="Path_492" data-name="Path 492" d="M459.845,223.187l2.821-1.629v-18.4l-2.821,1.63Z" transform="translate(-459.845 -203.161)" fill="#b7abff"/>
        </g>
      </g>
      <g id="Group_280" data-name="Group 280" transform="translate(5.527 5.519)">
        <path id="Path_493" data-name="Path 493" d="M456.418,227.118l2.823-1.628V201.957l-2.823,1.629Z" transform="translate(-456.418 -201.957)" fill="#e3f4ff"/>
        <path id="Path_494" data-name="Path 494" d="M456.418,226.07l2.823-1.628V203.665l-2.823,1.627Z" transform="translate(-456.418 -200.908)" fill="url(#linear-gradient-7)"/>
      </g>
      <g id="Group_282" data-name="Group 282" transform="translate(0 9.99)">
        <path id="Path_495" data-name="Path 495" d="M452.993,228.609l2.82-1.628V204.727l-2.82,1.627Z" transform="translate(-452.993 -204.727)" fill="#e3f4ff"/>
        <g id="Group_281" data-name="Group 281" transform="translate(0 3.369)">
          <path id="Path_496" data-name="Path 496" d="M452.993,227.327l2.82-1.628V206.815l-2.82,1.628Z" transform="translate(-452.993 -206.815)" fill="#ffea50"/>
        </g>
      </g>
    </g>
    <g id="Group_285" data-name="Group 285" transform="translate(1058.665 1545.251)">
      <path id="Path_497" data-name="Path 497" d="M447.674,216.208l3.959-2.285v-2.2l-3.959,2.284Z" transform="translate(-447.674 -211.723)" fill="#f23096"/>
    </g>
    <g id="Group_287" data-name="Group 287" transform="translate(1058.666 1549.659)">
      <g id="Group_286" data-name="Group 286">
        <path id="Path_498" data-name="Path 498" d="M447.675,218.941l3.958-2.285v-2.2l-3.958,2.286Z" transform="translate(-447.675 -214.454)" fill="#b7abff"/>
      </g>
    </g>
    <g id="Group_288" data-name="Group 288" transform="translate(1058.665 1554.067)">
      <path id="Path_499" data-name="Path 499" d="M447.674,221.672l3.959-2.285v-2.2l-3.959,2.286Z" transform="translate(-447.674 -217.185)" fill="url(#linear-gradient-8)"/>
    </g>
    <g id="Group_290" data-name="Group 290" transform="translate(1058.665 1558.475)">
      <g id="Group_289" data-name="Group 289">
        <path id="Path_500" data-name="Path 500" d="M447.674,224.4l3.959-2.285v-2.2l-3.958,2.286Z" transform="translate(-447.674 -219.917)" fill="#ffea50"/>
      </g>
    </g>
    <path id="Path_501" data-name="Path 501" d="M479.979,352.3c0,24.781-34.361,44.866-76.75,44.866s-76.745-20.086-76.745-44.866,34.358-44.863,76.745-44.863S479.979,327.521,479.979,352.3Z" transform="translate(536.587 1392.29)" fill="url(#radial-gradient-4)"/>
    <g id="Group_308" data-name="Group 308" transform="translate(911.158 1598.306)">
      <g id="Group_293" data-name="Group 293">
        <path id="Path_502" data-name="Path 502" d="M421.31,248.9l-5.542-3.812v0c-.8-.665-2.019-.678-3.38.107l-51.73,29.868a9.675,9.675,0,0,0-4.379,7.582v109.75a3.212,3.212,0,0,0,1.077,2.689h-.008l6.181,4.217-.466-5.765,49.325-28.48a9.678,9.678,0,0,0,4.375-7.582V253.066Z" transform="translate(-356.279 -244.596)" fill="#ffb19e"/>
      </g>
      <g id="Group_294" data-name="Group 294" transform="translate(1.028)">
        <path id="Path_503" data-name="Path 503" d="M416.372,253.066l4.546-4.169-5.542-3.812v0c-.8-.665-2.019-.678-3.38.107l-51.73,29.868a9.173,9.173,0,0,0-3.351,3.772l59.456,36.24Z" transform="translate(-356.916 -244.596)" fill="#ff9075"/>
      </g>
      <g id="Group_295" data-name="Group 295" transform="translate(4.379 0.597)">
        <line id="Line_14" data-name="Line 14" x1="51.73" y2="29.868" fill="#8970f2"/>
      </g>
      <g id="Group_296" data-name="Group 296" transform="translate(6.023 4.106)">
        <path id="Path_504" data-name="Path 504" d="M420.494,360.015a9.67,9.67,0,0,1-4.375,7.581L364.39,397.463c-2.418,1.4-4.379.265-4.379-2.526V285.186a9.677,9.677,0,0,1,4.379-7.584l51.729-29.863c2.416-1.4,4.375-.266,4.375,2.524Z" transform="translate(-360.011 -247.14)" fill="#e66748"/>
      </g>
      <path id="Path_505" data-name="Path 505" d="M414.962,351.251a8.387,8.387,0,0,1-3.8,6.574l-44.869,25.909c-2.1,1.21-3.8.229-3.8-2.193v-95.2a8.4,8.4,0,0,1,3.8-6.578l44.869-25.9c2.1-1.212,3.8-.231,3.8,2.19Z" transform="translate(-352.463 -239.229)" fill="#f6f5fb"/>
      <g id="Group_299" data-name="Group 299" transform="translate(0.855 55.633)">
        <g id="Group_297" data-name="Group 297" transform="translate(0.082)">
          <path id="Path_506" data-name="Path 506" d="M359.909,292.488a1.04,1.04,0,0,1-1.533,1.018l.192-.244a2.957,2.957,0,0,1-1.343-2.326l-.365-10.784a1.128,1.128,0,0,1,1.708-.931h0a2.962,2.962,0,0,1,1.341,2.326Z" transform="translate(-356.86 -279.066)" fill="#574ad8"/>
        </g>
        <g id="Group_298" data-name="Group 298" transform="translate(0 0.28)">
          <path id="Path_507" data-name="Path 507" d="M359.493,292.689c0,.857-.6,1.2-1.34.776h0a2.97,2.97,0,0,1-1.344-2.327V280.2c0-.859.6-1.2,1.344-.776h0a2.963,2.963,0,0,1,1.34,2.324Z" transform="translate(-356.809 -279.239)" fill="#8970f2"/>
        </g>
      </g>
      <g id="Group_302" data-name="Group 302" transform="translate(0.855 70.347)">
        <g id="Group_300" data-name="Group 300" transform="translate(0.115)">
          <path id="Path_508" data-name="Path 508" d="M359.9,301.608c0,.857-.768,1.49-1.509,1.059l.168-.284a2.96,2.96,0,0,1-1.343-2.326l-.332-10.8a1.1,1.1,0,0,1,1.675-.922h0a2.966,2.966,0,0,1,1.341,2.329Z" transform="translate(-356.88 -288.183)" fill="#574ad8"/>
        </g>
        <g id="Group_301" data-name="Group 301" transform="translate(0 0.284)">
          <path id="Path_509" data-name="Path 509" d="M359.493,301.808c0,.859-.6,1.206-1.34.776h0a2.973,2.973,0,0,1-1.344-2.326V289.318c0-.859.6-1.2,1.344-.775h0a2.958,2.958,0,0,1,1.34,2.324Z" transform="translate(-356.809 -288.359)" fill="#8970f2"/>
        </g>
      </g>
      <g id="Group_305" data-name="Group 305" transform="translate(0.855 128.688)">
        <g id="Group_303" data-name="Group 303" transform="translate(0.115)">
          <path id="Path_510" data-name="Path 510" d="M359.9,337.756c0,.859-.768,1.488-1.509,1.06l.168-.284a2.965,2.965,0,0,1-1.343-2.326l-.332-10.8a1.1,1.1,0,0,1,1.675-.92h0a2.959,2.959,0,0,1,1.341,2.324Z" transform="translate(-356.88 -324.331)" fill="#574ad8"/>
        </g>
        <g id="Group_304" data-name="Group 304" transform="translate(0 0.285)">
          <path id="Path_511" data-name="Path 511" d="M359.493,337.958c0,.854-.6,1.2-1.34.775h0a2.972,2.972,0,0,1-1.344-2.324V325.464c0-.855.6-1.2,1.344-.773h0a2.956,2.956,0,0,1,1.34,2.327Z" transform="translate(-356.809 -324.507)" fill="#8970f2"/>
        </g>
      </g>
      <g id="Group_306" data-name="Group 306" transform="translate(7.526 29.827)">
        <path id="Path_512" data-name="Path 512" d="M364.483,265.122a3.244,3.244,0,0,1-2.936,0,.9.9,0,0,1,0-1.695,3.244,3.244,0,0,1,2.936,0A.9.9,0,0,1,364.483,265.122Z" transform="translate(-360.942 -263.076)" fill="#2f2caf"/>
      </g>
      <g id="Group_307" data-name="Group 307" transform="translate(15.942 24.867)">
        <path id="Path_513" data-name="Path 513" d="M369.7,262.048a3.261,3.261,0,0,1-2.934,0,.894.894,0,0,1,0-1.695,3.251,3.251,0,0,1,2.934,0A.9.9,0,0,1,369.7,262.048Z" transform="translate(-366.157 -260.003)" fill="#2f2caf"/>
      </g>
    </g>
    <g id="Group_310" data-name="Group 310" transform="translate(927.248 1662.04)">
      <path id="Path_514" data-name="Path 514" d="M405.585,284.559l-11.7,6.617a6.008,6.008,0,0,0-1.386,1.135c-1.43-5.886-6.683-7.847-12.931-4.24-7.343,4.24-13.318,14.587-13.318,23.067s5.975,11.929,13.318,7.689c6.248-3.607,11.5-11.633,12.931-19.172a3.268,3.268,0,0,0,1.386-.465l11.7-6.617a7.667,7.667,0,0,0,3.47-6.012C409.055,284.35,407.5,283.452,405.585,284.559Zm-26.018,30.232c-5.416,3.129-9.824.584-9.824-5.671s4.408-13.89,9.824-17.016,9.824-.584,9.824,5.673S384.983,311.666,379.566,314.792Z" transform="translate(-366.248 -284.085)" fill="#574ad8"/>
    </g>
    <path id="Path_515" data-name="Path 515" d="M523.082,357.516c0,24.781-34.359,44.865-76.746,44.865s-76.746-20.084-76.746-44.865,34.358-44.863,76.746-44.863S523.082,332.739,523.082,357.516Z" transform="translate(563.051 1395.494)" fill="url(#radial-gradient-5)"/>
    <g id="Group_316" data-name="Group 316" transform="translate(982.962 1708.459)">
      <g id="Group_313" data-name="Group 313" transform="translate(0.019)">
        <path id="Path_516" data-name="Path 516" d="M427.2,343.359,453.631,328.1,427.2,312.847,400.78,328.1Z" transform="translate(-400.78 -312.847)" fill="#fffaca"/>
      </g>
      <g id="Group_314" data-name="Group 314" transform="translate(26.425 15.257)">
        <path id="Path_517" data-name="Path 517" d="M417.142,352.71l26.444-15.266V322.3l-26.444,15.265Z" transform="translate(-417.142 -322.3)" fill="#f9ed98"/>
      </g>
      <g id="Group_315" data-name="Group 315" transform="translate(0 15.257)">
        <path id="Path_518" data-name="Path 518" d="M427.211,352.71l-26.442-15.266V322.3l26.442,15.265Z" transform="translate(-400.769 -322.3)" fill="#fcf188"/>
      </g>
    </g>
    <g id="Group_320" data-name="Group 320" transform="translate(982.962 1685.624)">
      <g id="Group_317" data-name="Group 317" transform="translate(0.019)">
        <path id="Path_519" data-name="Path 519" d="M427.2,329.212l26.427-15.257L427.2,298.7,400.78,313.955Z" transform="translate(-400.78 -298.698)" fill="#25efe0"/>
      </g>
      <g id="Group_318" data-name="Group 318" transform="translate(26.425 15.257)">
        <path id="Path_520" data-name="Path 520" d="M417.142,338.561,443.586,323.3V308.151l-26.444,15.266Z" transform="translate(-417.142 -308.151)" fill="#00ead9"/>
      </g>
      <g id="Group_319" data-name="Group 319" transform="translate(0 15.257)">
        <path id="Path_521" data-name="Path 521" d="M427.211,338.561,400.769,323.3V308.151l26.442,15.266Z" transform="translate(-400.769 -308.151)" fill="#00ded3"/>
      </g>
    </g>
    <g id="Group_322" data-name="Group 322" transform="translate(982.962 1662.791)">
      <g id="Group_321" data-name="Group 321" transform="translate(0.019)">
        <path id="Path_522" data-name="Path 522" d="M427.2,315.063l26.427-15.255L427.2,284.551,400.78,299.808Z" transform="translate(-400.78 -284.551)" fill="#fc27b5"/>
      </g>
      <path id="Path_523" data-name="Path 523" d="M417.142,324.415l26.444-15.266V294L417.142,309.27Z" transform="translate(-390.716 -278.747)" fill="#f23096"/>
      <path id="Path_524" data-name="Path 524" d="M427.211,324.415l-26.442-15.266V294l26.442,15.266Z" transform="translate(-400.769 -278.747)" fill="#db1285"/>
    </g>
    <g id="Group_326" data-name="Group 326" transform="translate(982.962 1639.958)">
      <g id="Group_323" data-name="Group 323" transform="translate(0.019)">
        <path id="Path_525" data-name="Path 525" d="M427.2,300.917l26.427-15.257L427.2,270.4,400.78,285.66Z" transform="translate(-400.78 -270.403)" fill="#8970f2"/>
      </g>
      <g id="Group_324" data-name="Group 324" transform="translate(26.425 15.257)">
        <path id="Path_526" data-name="Path 526" d="M417.142,310.266,443.586,295V279.856l-26.444,15.266Z" transform="translate(-417.142 -279.856)" fill="#574ad8"/>
      </g>
      <g id="Group_325" data-name="Group 325" transform="translate(0 15.257)">
        <path id="Path_527" data-name="Path 527" d="M427.211,310.266,400.769,295V279.856l26.442,15.266Z" transform="translate(-400.769 -279.856)" fill="#b7abff"/>
      </g>
    </g>
    <path id="Path_528" data-name="Path 528" d="M570.264,381.308c0,24.781-34.359,44.866-76.748,44.866s-76.746-20.086-76.746-44.866,34.359-44.863,76.746-44.863S570.264,356.531,570.264,381.308Z" transform="translate(592.018 1410.101)" fill="url(#radial-gradient-6)"/>
    <g id="Group_341" data-name="Group 341" transform="translate(918.261 1525.414)">
      <path id="Path_536" data-name="Path 536" d="M412.552,200.1l-46.328,26.748a12.259,12.259,0,0,0-5.544,9.6v28.2c0,3.535,4.463,6.482,7.524,4.714l17.2-12.589,19.547,6.147V245.489l7.6-4.388a12.253,12.253,0,0,0,5.544-9.6l3.292-27.7C421.39,200.266,415.616,198.328,412.552,200.1Z" transform="translate(-360.68 -199.432)" fill="#294c5b"/>
    </g>
    <g id="Group_342" data-name="Group 342" transform="translate(921.625 1526.756)">
      <path id="Path_537" data-name="Path 537" d="M414.636,201.021l-46.33,26.748a12.252,12.252,0,0,0-5.542,9.6v28.2c0,3.535,2.482,4.968,5.542,3.2L387.488,257.7l19.547,6.147V246.414l7.6-4.388a12.256,12.256,0,0,0,5.544-9.6v-28.2C420.182,200.686,417.7,199.252,414.636,201.021Z" transform="translate(-362.764 -200.263)" fill="#4f839a"/>
    </g>
    <g id="Group_344" data-name="Group 344" transform="translate(929.776 1537.569)">
      <path id="Path_538" data-name="Path 538" d="M410.091,206.963l-42.276,24.8v1.625l42.276-24.8Z" transform="translate(-367.814 -206.963)" fill="#f5f3ff"/>
    </g>
    <g id="Group_345" data-name="Group 345" transform="translate(929.776 1542.844)">
      <path id="Path_539" data-name="Path 539" d="M410.091,210.232l-42.276,24.8v1.624l42.276-24.8Z" transform="translate(-367.814 -210.232)" fill="#f5f3ff"/>
    </g>
    <g id="Group_346" data-name="Group 346" transform="translate(929.776 1548.119)">
      <path id="Path_540" data-name="Path 540" d="M410.091,213.5l-42.276,24.8v1.624l42.276-24.8Z" transform="translate(-367.814 -213.5)" fill="#f5f3ff"/>
    </g>
    <g id="Group_347" data-name="Group 347" transform="translate(929.776 1553.393)">
      <path id="Path_541" data-name="Path 541" d="M410.091,216.768l-42.276,24.8v1.625l42.276-24.8Z" transform="translate(-367.814 -216.768)" fill="#f5f3ff"/>
    </g>
    <g id="Group_348" data-name="Group 348" transform="translate(929.776 1558.668)">
      <path id="Path_542" data-name="Path 542" d="M410.091,220.036l-42.276,24.8v1.625l42.276-24.8Z" transform="translate(-367.814 -220.036)" fill="#f5f3ff"/>
    </g>
  </g>
</svg>
