<svg xmlns="http://www.w3.org/2000/svg" xmlns:xlink="http://www.w3.org/1999/xlink" width="388.289" height="482.819" viewBox="0 0 388.289 482.819">
  <defs>
    <linearGradient id="linear-gradient" x1="0.5" y1="1.108" x2="0.5" y2="0.05" gradientUnits="objectBoundingBox">
      <stop offset="0" stop-color="#00eaf9"/>
      <stop offset="1" stop-color="#00bff9"/>
    </linearGradient>
    <linearGradient id="linear-gradient-2" y1="0.5" x2="1" y2="0.5" gradientUnits="objectBoundingBox">
      <stop offset="0" stop-color="#006ee6"/>
      <stop offset="0.979" stop-color="#00bff9"/>
    </linearGradient>
    <linearGradient id="linear-gradient-3" y1="0.5" x2="1" y2="0.5" gradientUnits="objectBoundingBox">
      <stop offset="0" stop-color="#0031ba"/>
      <stop offset="1" stop-color="#0089f9"/>
    </linearGradient>
    <linearGradient id="linear-gradient-4" x1="0.5" y1="1.057" x2="0.5" y2="-0.017" xlink:href="#linear-gradient"/>
    <linearGradient id="linear-gradient-5" x1="0" x2="1" xlink:href="#linear-gradient-2"/>
    <linearGradient id="linear-gradient-7" x1="0.5" y1="1.114" x2="0.5" y2="-0.032" xlink:href="#linear-gradient"/>
    <linearGradient id="linear-gradient-10" x1="1.335" y1="0.861" x2="0.605" y2="0.298" gradientUnits="objectBoundingBox">
      <stop offset="0.038" stop-color="#fffdf5"/>
      <stop offset="1" stop-color="#efebda"/>
    </linearGradient>
    <linearGradient id="linear-gradient-11" x1="2.036" y1="1.165" x2="0.694" y2="0.128" xlink:href="#linear-gradient-10"/>
    <linearGradient id="linear-gradient-12" x1="1.655" y1="1.159" x2="0.659" y2="0.207" gradientUnits="objectBoundingBox">
      <stop offset="0" stop-color="#e66748"/>
      <stop offset="0.804" stop-color="#ce5d42"/>
      <stop offset="1" stop-color="#c85a40"/>
    </linearGradient>
    <linearGradient id="linear-gradient-13" x1="1.225" y1="0.914" x2="0.6" y2="0.316" gradientUnits="objectBoundingBox">
      <stop offset="0" stop-color="#fca08a"/>
      <stop offset="1" stop-color="#e66748"/>
    </linearGradient>
    <linearGradient id="linear-gradient-14" x1="3.263" y1="2.076" x2="0.88" y2="-0.201" gradientUnits="objectBoundingBox">
      <stop offset="0" stop-color="#e66748"/>
      <stop offset="1" stop-color="#e2755a"/>
    </linearGradient>
    <linearGradient id="linear-gradient-15" x1="0.568" y1="0.504" x2="0.217" y2="0.175" gradientUnits="objectBoundingBox">
      <stop offset="0" stop-color="#e66748"/>
      <stop offset="1" stop-color="#ff6641"/>
    </linearGradient>
    <linearGradient id="linear-gradient-16" x1="-0.215" y1="1.153" x2="0.665" y2="0.403" gradientUnits="objectBoundingBox">
      <stop offset="0" stop-color="#e66748"/>
      <stop offset="0.979" stop-color="#f1866c"/>
      <stop offset="1" stop-color="#e66748"/>
    </linearGradient>
    <linearGradient id="linear-gradient-18" x1="-0.466" y1="1.285" x2="1.317" y2="-0.223" xlink:href="#linear-gradient-3"/>
    <linearGradient id="linear-gradient-19" x1="11.365" y1="2.906" x2="5.817" y2="-2.126" gradientUnits="objectBoundingBox">
      <stop offset="0" stop-color="#8e3620"/>
      <stop offset="0.979" stop-color="#e66748"/>
      <stop offset="1" stop-color="#ffa088"/>
    </linearGradient>
    <linearGradient id="linear-gradient-25" x1="3.043" y1="1.218" x2="2.319" y2="0.381" gradientUnits="objectBoundingBox">
      <stop offset="0" stop-color="#e66748"/>
      <stop offset="1" stop-color="#b4543d"/>
      <stop offset="1" stop-color="#f57455"/>
    </linearGradient>
    <linearGradient id="linear-gradient-28" x1="8.157" y1="1.563" x2="5.515" y2="-0.548" gradientUnits="objectBoundingBox">
      <stop offset="0" stop-color="#e66748"/>
      <stop offset="1" stop-color="#d15d41"/>
    </linearGradient>
    <linearGradient id="linear-gradient-30" x1="0.946" y1="0.998" x2="0.185" y2="0.148" xlink:href="#linear-gradient-2"/>
    <linearGradient id="linear-gradient-31" x1="0.5" y1="1.54" x2="0.5" y2="-0.114" gradientUnits="objectBoundingBox">
      <stop offset="0" stop-color="#0089f9"/>
      <stop offset="1" stop-color="#0031ba"/>
    </linearGradient>
    <linearGradient id="linear-gradient-32" x1="0.946" y1="0.998" x2="0.185" y2="0.148" xlink:href="#linear-gradient-2"/>
    <linearGradient id="linear-gradient-34" x1="0.5" y1="0.888" x2="0.5" y2="0.09" gradientUnits="objectBoundingBox">
      <stop offset="0" stop-color="#fff"/>
      <stop offset="1" stop-color="#fff" stop-opacity="0"/>
    </linearGradient>
    <radialGradient id="radial-gradient" cx="0.5" cy="0.5" r="0.5" gradientTransform="translate(0)" gradientUnits="objectBoundingBox">
      <stop offset="0" stop-color="#fff"/>
      <stop offset="1"/>
    </radialGradient>
    <radialGradient id="radial-gradient-2" cx="0.397" cy="0.449" r="0.5" gradientTransform="translate(0 0)" xlink:href="#radial-gradient"/>
    <radialGradient id="radial-gradient-3" cx="0.526" cy="0.511" r="0.5" gradientTransform="translate(0 0)" xlink:href="#radial-gradient"/>
    <radialGradient id="radial-gradient-4" cx="0.5" cy="0.5" r="0.5" xlink:href="#radial-gradient"/>
    <radialGradient id="radial-gradient-5" cx="0.5" cy="0.5" r="0.5" xlink:href="#radial-gradient"/>
    <radialGradient id="radial-gradient-6" cx="0.5" cy="0.5" r="0.5" xlink:href="#radial-gradient"/>
    <radialGradient id="radial-gradient-7" cx="0.599" cy="0.56" r="0.5" gradientTransform="translate(0 0)" xlink:href="#radial-gradient"/>
    <linearGradient id="linear-gradient-35" x1="0.5" y1="0.887" x2="0.5" y2="0.116" gradientUnits="objectBoundingBox">
      <stop offset="0" stop-color="#fffb03"/>
      <stop offset="1" stop-color="#ff7006"/>
    </linearGradient>
    <linearGradient id="linear-gradient-36" x1="0.5" y1="0.82" x2="0.5" y2="0.358" xlink:href="#linear-gradient-10"/>
    <radialGradient id="radial-gradient-8" cx="-45.632" cy="-166.73" r="2.615" gradientTransform="translate(-30.344 -98.937) scale(0.171 0.261)" gradientUnits="objectBoundingBox">
      <stop offset="0.014" stop-color="#afa477"/>
      <stop offset="0.152" stop-color="#b2a77c"/>
      <stop offset="0.334" stop-color="#bcb38d"/>
      <stop offset="0.54" stop-color="#ccc5a8"/>
      <stop offset="0.765" stop-color="#e2decf"/>
      <stop offset="1" stop-color="#fff"/>
    </radialGradient>
    <linearGradient id="linear-gradient-37" x1="0.876" y1="0.958" x2="0.299" y2="0.11" xlink:href="#linear-gradient-31"/>
    <linearGradient id="linear-gradient-38" x1="1.293" y1="1.063" x2="-0.191" y2="0.022" gradientUnits="objectBoundingBox">
      <stop offset="0.021" stop-color="#00bff9"/>
      <stop offset="1" stop-color="#006ee6"/>
    </linearGradient>
    <linearGradient id="linear-gradient-39" y1="0.5" x2="1" y2="0.5" gradientUnits="objectBoundingBox">
      <stop offset="0.074" stop-color="#bfb89d"/>
      <stop offset="1" stop-color="#efebda"/>
    </linearGradient>
    <linearGradient id="linear-gradient-40" x1="0" y1="0.5" x2="1" y2="0.5" xlink:href="#linear-gradient-10"/>
    <linearGradient id="linear-gradient-41" x1="0.236" y1="0.934" x2="0.611" y2="0.242" xlink:href="#linear-gradient-31"/>
    <linearGradient id="linear-gradient-42" x1="-0.135" y1="1.01" x2="1.035" y2="0.105" xlink:href="#linear-gradient-38"/>
    <linearGradient id="linear-gradient-43" x1="-2.288" y1="0.5" x2="-1.288" y2="0.5" xlink:href="#linear-gradient-10"/>
    <linearGradient id="linear-gradient-44" x1="-0.101" y1="0.381" x2="0.995" y2="0.64" xlink:href="#linear-gradient-10"/>
    <linearGradient id="linear-gradient-45" x1="-0.025" y1="0.5" x2="1.004" y2="0.5" xlink:href="#linear-gradient-3"/>
    <linearGradient id="linear-gradient-46" x1="1.159" y1="0.819" x2="0.241" y2="0.314" xlink:href="#linear-gradient-3"/>
    <linearGradient id="linear-gradient-47" x1="1.408" y1="0.884" x2="-0.303" y2="-0.297" xlink:href="#linear-gradient-3"/>
    <linearGradient id="linear-gradient-48" x1="0.112" x2="1.112" xlink:href="#linear-gradient-2"/>
    <linearGradient id="linear-gradient-49" x1="-4.585" y1="0.884" x2="-6.296" y2="-0.297" xlink:href="#linear-gradient-3"/>
    <linearGradient id="linear-gradient-50" x1="-5.853" x2="-4.853" xlink:href="#linear-gradient-2"/>
    <linearGradient id="linear-gradient-52" x1="0.036" y1="0.894" x2="0.866" y2="0.19" xlink:href="#linear-gradient-3"/>
    <linearGradient id="linear-gradient-53" x1="-0.167" y1="1.095" x2="0.92" y2="0.024" xlink:href="#linear-gradient-3"/>
    <linearGradient id="linear-gradient-54" x1="-0.048" y1="1.104" x2="1.04" y2="0.033" xlink:href="#linear-gradient-3"/>
    <linearGradient id="linear-gradient-55" x1="1.149" y1="1.16" x2="0.296" y2="0.036" xlink:href="#linear-gradient-3"/>
    <linearGradient id="linear-gradient-56" x1="0.169" y1="0.706" x2="1.904" y2="-0.653" gradientUnits="objectBoundingBox">
      <stop offset="0" stop-color="#fff" stop-opacity="0"/>
      <stop offset="1" stop-color="#fff"/>
    </linearGradient>
    <linearGradient id="linear-gradient-57" x1="0.281" y1="0.727" x2="2.023" y2="-0.636" xlink:href="#linear-gradient-56"/>
    <linearGradient id="linear-gradient-58" x1="1.086" y1="1.316" x2="0.051" y2="0.228" xlink:href="#linear-gradient-3"/>
  </defs>
  <g id="Group_1362" data-name="Group 1362" transform="translate(-175.251 -2119.63)">
    <path id="Path_544" data-name="Path 544" d="M663.227,383.073c9.448,5.456,9.5,14.3.11,19.76L578.15,452.338c-9.387,5.456-24.662,5.456-34.112,0l-85.745-49.505c-9.448-5.456-9.5-14.3-.112-19.758l85.189-49.505c9.388-5.456,24.662-5.456,34.112,0Z" transform="translate(-191.364 2061.461)" fill="#020b19" opacity="0.45"/>
    <g id="Group_397" data-name="Group 397" transform="translate(186.019 2103.073)">
      <g id="Group_363" data-name="Group 363" transform="translate(7.339 137.32)">
        <g id="Group_354" data-name="Group 354" transform="translate(76.451)">
          <g id="Group_351" data-name="Group 351" transform="translate(26.019 15.121)">
            <path id="Path_546" data-name="Path 546" d="M501.856,233.76l.108,111.178-25.224,14.34L476.632,248.1Z" transform="translate(-476.632 -233.76)" fill="url(#linear-gradient)"/>
          </g>
          <g id="Group_352" data-name="Group 352" transform="translate(0 14.34)">
            <path id="Path_547" data-name="Path 547" d="M484.369,359.507l-26.02-15.121-.108-111.178,26.019,15.121Z" transform="translate(-458.241 -233.208)" fill="url(#linear-gradient-2)"/>
          </g>
          <g id="Group_353" data-name="Group 353">
            <path id="Path_548" data-name="Path 548" d="M484.261,252.533l-26.019-15.121,25.224-14.34,26.02,15.121Z" transform="translate(-458.241 -223.072)" fill="url(#linear-gradient-3)"/>
          </g>
        </g>
        <g id="Group_358" data-name="Group 358" transform="translate(38.939 60.01)">
          <g id="Group_355" data-name="Group 355" transform="translate(26.02 15.121)">
            <path id="Path_549" data-name="Path 549" d="M475.343,276.174l.108,72.836-25.224,14.34-.108-72.836Z" transform="translate(-450.118 -276.174)" fill="url(#linear-gradient-4)"/>
          </g>
          <g id="Group_356" data-name="Group 356" transform="translate(0 14.34)">
            <path id="Path_550" data-name="Path 550" d="M457.856,363.58l-26.02-15.121-.108-72.836,26.02,15.121Z" transform="translate(-431.728 -275.623)" fill="url(#linear-gradient-5)"/>
          </g>
          <g id="Group_357" data-name="Group 357">
            <path id="Path_551" data-name="Path 551" d="M457.747,294.948l-26.02-15.121,25.224-14.34,26.019,15.121Z" transform="translate(-431.728 -265.487)" fill="url(#linear-gradient-3)"/>
          </g>
        </g>
        <g id="Group_362" data-name="Group 362" transform="translate(0 117.263)">
          <g id="Group_359" data-name="Group 359" transform="translate(26.02 15.121)">
            <path id="Path_552" data-name="Path 552" d="M447.821,316.641l.108,38.117L422.7,369.1l-.108-38.117Z" transform="translate(-422.596 -316.641)" fill="url(#linear-gradient-7)"/>
          </g>
          <g id="Group_360" data-name="Group 360" transform="translate(0 14.34)">
            <path id="Path_553" data-name="Path 553" d="M430.334,369.327l-26.02-15.121-.108-38.117,26.02,15.121Z" transform="translate(-404.206 -316.089)" fill="url(#linear-gradient-5)"/>
          </g>
          <g id="Group_361" data-name="Group 361">
            <path id="Path_554" data-name="Path 554" d="M430.226,335.414l-26.02-15.121,25.224-14.34,26.019,15.121Z" transform="translate(-404.206 -305.953)" fill="url(#linear-gradient-3)"/>
          </g>
        </g>
      </g>
      <g id="Group_369" data-name="Group 369" transform="translate(225.357 28.257)">
        <g id="Group_364" data-name="Group 364" transform="translate(8.885 18.1)">
          <path id="Path_555" data-name="Path 555" d="M633.691,223.174c-.062,21.927-15.58,30.783-34.674,19.76s-34.5-37.734-34.437-59.66,15.58-30.771,34.662-19.754S633.753,201.248,633.691,223.174Zm-34.649,11.37c15.062,8.7,27.309,1.729,27.359-15.579s-12.12-38.37-27.18-47.066-27.3-1.711-27.349,15.584,12.12,38.37,27.171,47.06" transform="translate(-564.58 -158.78)" fill="url(#linear-gradient-10)"/>
        </g>
        <g id="Group_365" data-name="Group 365" transform="translate(24.665 38.399)">
          <path id="Path_556" data-name="Path 556" d="M613.284,208.112c-.034,11.921-8.468,16.726-18.841,10.737s-18.744-20.5-18.71-32.417,8.468-16.715,18.832-10.732S613.317,196.2,613.284,208.112Zm-18.819,2.264c6.3,3.638,11.423.72,11.443-6.521s-5.067-16.041-11.368-19.679-11.412-.715-11.432,6.514,5.067,16.053,11.357,19.686" transform="translate(-575.733 -173.127)" fill="url(#linear-gradient-11)"/>
        </g>
        <g id="Group_366" data-name="Group 366" transform="translate(16.176 27.481)">
          <path id="Path_557" data-name="Path 557" d="M596.9,231.793c15.062,8.7,27.309,1.729,27.359-15.579s-12.12-38.37-27.18-47.066-27.3-1.711-27.349,15.584S581.853,223.1,596.9,231.793Zm.028-9.743c-10.365-5.983-18.744-20.5-18.71-32.417s8.468-16.715,18.832-10.732,18.752,20.5,18.72,32.411-8.468,16.726-18.841,10.737" transform="translate(-569.733 -165.41)" fill="url(#linear-gradient-12)"/>
        </g>
        <g id="Group_367" data-name="Group 367" transform="translate(0 6.672)">
          <path id="Path_558" data-name="Path 558" d="M558.3,181.494c-.078,27.577,19.305,61.149,43.294,75s43.509,2.738,43.587-24.839-19.305-61.138-43.3-74.994S558.378,153.929,558.3,181.494Zm43.322,64.79c-19.082-11.017-34.5-37.734-34.437-59.66s15.58-30.771,34.662-19.754S636.358,204.6,636.3,226.524s-15.58,30.783-34.674,19.76" transform="translate(-558.3 -150.703)" fill="url(#linear-gradient-13)"/>
        </g>
        <g id="Group_368" data-name="Group 368" transform="translate(32.041 47.885)">
          <path id="Path_559" data-name="Path 559" d="M580.946,187.908c.02-7.228,5.14-10.147,11.432-6.514s11.389,12.449,11.368,19.679-5.14,10.159-11.442,6.521S580.925,195.149,580.946,187.908Z" transform="translate(-580.946 -179.832)" fill="url(#linear-gradient-14)"/>
        </g>
        <path id="Path_560" data-name="Path 560" d="M594.625,156.754q-1.042-.505-2.071-.945c-.242-.1-.487-.215-.729-.314-.647-.265-1.287-.507-1.926-.733-.156-.055-.313-.12-.468-.174-.789-.27-1.57-.509-2.344-.723-.458-.126-.911-.232-1.362-.338-.207-.048-.416-.106-.621-.151-.662-.141-1.317-.265-1.967-.364-.986-.153-1.95-.238-2.9-.291-.191-.011-.383-.024-.574-.031-.853-.031-1.694-.028-2.516.02-.146.008-.286.027-.43.038q-1,.076-1.959.229c-.2.033-.4.062-.6.1a22.08,22.08,0,0,0-2.169.5c-.034.008-.065.023-.1.033-.668.2-1.317.432-1.954.689-.187.075-.372.156-.556.236q-.819.359-1.6.782c-.173.093-.351.175-.521.274l11.5-6.682c.079-.045.158-.092.238-.136s.191-.088.282-.139q.783-.424,1.6-.782c.1-.044.2-.1.3-.146.083-.034.174-.057.258-.091.637-.258,1.285-.492,1.952-.689.028-.008.055-.021.083-.03l.017,0c.7-.205,1.432-.364,2.169-.5.086-.016.167-.042.253-.058.113-.02.233-.023.348-.041q.964-.153,1.961-.229c.106-.009.208-.03.316-.037.037,0,.075,0,.113,0,.822-.05,1.661-.051,2.514-.021.083,0,.163-.006.246,0,.109,0,.224.027.332.033.951.054,1.914.14,2.9.291h.006c.645.1,1.3.222,1.957.364.211.047.426.106.638.156.409.095.815.185,1.227.3.04.011.082.027.122.038.774.212,1.555.451,2.344.723.156.052.313.117.47.174.637.226,1.278.467,1.924.731.085.035.168.061.255.1.157.065.318.15.475.216q1.027.441,2.069.945c.262.127.522.252.785.385.911.46,1.828.945,2.753,1.479,1.153.666,2.292,1.391,3.422,2.145.194.129.386.255.579.386q1.617,1.1,3.2,2.322c.205.157.409.318.613.48,1.07.842,2.129,1.711,3.171,2.625.091.079.178.163.269.242q1.509,1.337,2.971,2.77c.1.095.2.181.3.277.059.059.119.123.178.184.748.741,1.488,1.5,2.216,2.271.049.052.1.108.146.16q1.019,1.091,2.011,2.226c.065.074.132.143.2.218.082.093.157.2.239.29q1.636,1.9,3.193,3.891c.031.038.064.074.093.113.079.1.154.212.233.316q1.237,1.609,2.415,3.277c.079.11.164.215.242.327.035.051.068.1.1.156q1.129,1.617,2.2,3.281c.069.108.144.209.212.317.1.16.2.324.3.485q.864,1.365,1.686,2.759c.085.144.177.284.262.43.033.054.061.11.092.166q.929,1.6,1.8,3.226c.048.089.1.177.149.266.095.18.181.364.274.543q.681,1.3,1.323,2.609c.089.181.187.359.275.542.052.108.1.218.15.327.528,1.106,1.04,2.217,1.527,3.336.016.035.034.071.048.106.052.12.1.242.15.364q.649,1.515,1.242,3.04c.065.166.139.327.2.492.054.136.1.274.149.412.456,1.2.893,2.407,1.3,3.615.007.024.017.048.025.072.024.074.042.149.068.222.41,1.244.787,2.49,1.14,3.737.044.156.1.311.143.467.024.086.04.171.062.256q.6,2.173,1.065,4.344c.027.127.066.256.093.385.041.187.069.374.109.56.116.569.224,1.136.327,1.7.072.395.144.788.209,1.183.1.584.182,1.167.265,1.75.04.274.089.55.124.825.01.072.013.143.021.215q.238,1.874.366,3.727c.018.263.032.525.047.787.075,1.268.125,2.527.122,3.772-.04,13.7-4.874,23.338-12.673,27.87l-11.5,6.682c7.8-4.532,12.632-14.17,12.671-27.87,0-1.245-.047-2.506-.12-3.772-.016-.262-.03-.525-.048-.788q-.132-1.851-.366-3.724c-.044-.348-.1-.7-.146-1.047-.082-.58-.167-1.162-.263-1.745-.066-.395-.139-.791-.211-1.187-.1-.565-.211-1.13-.327-1.7-.065-.315-.134-.632-.2-.949q-.473-2.169-1.065-4.345c-.067-.239-.136-.478-.2-.716-.354-1.249-.731-2.5-1.143-3.745-.031-.1-.059-.192-.092-.289-.4-1.208-.842-2.414-1.3-3.616-.115-.3-.232-.6-.349-.907-.4-1.016-.809-2.029-1.242-3.038-.068-.156-.13-.314-.2-.47-.487-1.119-1-2.231-1.527-3.338-.139-.29-.283-.577-.423-.866q-.645-1.318-1.327-2.619c-.14-.265-.276-.532-.417-.8q-.872-1.63-1.8-3.232c-.116-.2-.238-.4-.355-.6q-.821-1.394-1.685-2.76c-.168-.266-.335-.533-.507-.8q-1.072-1.662-2.2-3.282c-.113-.163-.232-.321-.345-.484q-1.178-1.664-2.414-3.271c-.112-.144-.219-.291-.33-.436q-1.553-2-3.195-3.889c-.146-.168-.287-.338-.433-.505q-1-1.142-2.026-2.243c-.044-.047-.086-.1-.13-.143q-1.091-1.163-2.217-2.274c-.157-.156-.317-.306-.475-.46q-1.464-1.43-2.973-2.77c-.091-.079-.178-.163-.269-.242-1.04-.914-2.1-1.783-3.171-2.625-.2-.161-.407-.323-.613-.481q-1.581-1.214-3.2-2.322c-.192-.13-.386-.256-.58-.385-1.13-.754-2.269-1.479-3.422-2.145-.925-.535-1.842-1.019-2.753-1.48C595.146,157.006,594.885,156.881,594.625,156.754Z" transform="translate(-554.585 -145.987)" fill="url(#linear-gradient-15)"/>
      </g>
      <g id="Group_372" data-name="Group 372" transform="translate(6.506 87.133)">
        <g id="Group_371" data-name="Group 371">
          <g id="Group_370" data-name="Group 370">
            <path id="Path_561" data-name="Path 561" d="M481.1,205.159,502.753,187.6l-4.322,27.436-6.369-3.624L479.84,232.59l-9.438-5.379-27.557,47.737-16.033-9.136L407.741,298.85l-4.124-2.35,23.168-40.129,16.033,9.13,27.557-47.73,9.438,5.379,8.131-14.083Z" transform="translate(-403.617 -187.6)" fill="url(#linear-gradient-16)"/>
          </g>
        </g>
      </g>
      <g id="Group_382" data-name="Group 382" transform="translate(0 77.72)">
        <g id="Group_373" data-name="Group 373" transform="translate(42.847 15.194)">
          <path id="Path_562" data-name="Path 562" d="M429.3,192.928c.017-.417.024-.831.023-1.242Q429.328,192.3,429.3,192.928Z" transform="translate(-429.303 -191.686)" fill="#127171"/>
        </g>
        <g id="Group_374" data-name="Group 374" transform="translate(39.184 24.322)">
          <path id="Path_563" data-name="Path 563" d="M426.714,205.038c.3-.682.586-1.371.85-2.059a46.211,46.211,0,0,0,1.582-4.842,45.516,45.516,0,0,1-1.582,4.847Q427.163,204.017,426.714,205.038Z" transform="translate(-426.714 -198.138)" fill="#1bafaf"/>
        </g>
        <g id="Group_379" data-name="Group 379">
          <g id="Group_375" data-name="Group 375" transform="translate(36.543 1.402)">
            <path id="Path_564" data-name="Path 564" d="M424.847,181.938a10.794,10.794,0,0,1,3.422,3.13A10.829,10.829,0,0,0,424.847,181.938Z" transform="translate(-424.847 -181.938)" fill="#1bafaf"/>
          </g>
          <g id="Group_376" data-name="Group 376" transform="translate(32.091 0.049)">
            <path id="Path_565" data-name="Path 565" d="M421.7,180.982a10.789,10.789,0,0,1,4.451,1.353A10.936,10.936,0,0,0,421.7,180.982Z" transform="translate(-421.701 -180.982)" fill="#1bafaf"/>
          </g>
          <g id="Group_377" data-name="Group 377" transform="translate(25.57)">
            <path id="Path_566" data-name="Path 566" d="M423.023,180.958a15.07,15.07,0,0,0-4.587.563q-.664.176-1.344.413.679-.238,1.344-.419A15.235,15.235,0,0,1,423.023,180.958Z" transform="translate(-417.092 -180.947)" fill="#1bafaf"/>
          </g>
          <g id="Group_378" data-name="Group 378" transform="translate(0 2.94)">
            <path id="Path_567" data-name="Path 567" d="M420.382,183.025l.068,23.745,17.439,5.236c-.673,1.466-1.418,2.909-2.228,4.312a50.914,50.914,0,0,1-4.43,6.48,44.336,44.336,0,0,1-5.161,5.45,34.2,34.2,0,0,1-5.548,4.037,23.33,23.33,0,0,1-5.552,2.371,14.916,14.916,0,0,1-5.175.519,10.55,10.55,0,0,1-7.874-4.482,14.764,14.764,0,0,1-2.159-4.709,23,23,0,0,1-.743-5.954,33.812,33.812,0,0,1,.707-6.794,44.38,44.38,0,0,1,2.124-7.182,51.981,51.981,0,0,1,7.823-13.544,44.567,44.567,0,0,1,5.163-5.45A34.6,34.6,0,0,1,420.382,183.025Z" transform="translate(-399.019 -183.025)" fill="url(#linear-gradient-5)"/>
          </g>
        </g>
        <g id="Group_380" data-name="Group 380" transform="translate(39.965 4.531)">
          <path id="Path_568" data-name="Path 568" d="M427.266,184.15a13.418,13.418,0,0,1,1.442,2.606A13.73,13.73,0,0,0,427.266,184.15Z" transform="translate(-427.266 -184.15)" fill="#1bafaf"/>
        </g>
        <g id="Group_381" data-name="Group 381" transform="translate(21.363 0)">
          <path id="Path_569" data-name="Path 569" d="M414.118,183.887a24.532,24.532,0,0,1,4.208-1.952q.679-.236,1.344-.413a14.886,14.886,0,0,1,4.874-.548c.1.006.2.014.3.023a10.508,10.508,0,0,1,7.874,4.482,13.73,13.73,0,0,1,1.442,2.606,16.551,16.551,0,0,1,.72,2.1,23.17,23.17,0,0,1,.743,5.958c0,.415-.006.828-.023,1.245a35.419,35.419,0,0,1-.683,5.549q-.238,1.167-.548,2.337a46.211,46.211,0,0,1-1.582,4.842c-.265.688-.552,1.377-.85,2.059-.1.235-.207.467-.313.7l-17.441-5.238Z" transform="translate(-414.118 -180.948)" fill="url(#linear-gradient-18)"/>
        </g>
      </g>
      <g id="Group_387" data-name="Group 387" transform="translate(241.121 164.244)">
        <g id="Group_384" data-name="Group 384" transform="translate(38.941 44.119)">
          <path id="Path_570" data-name="Path 570" d="M607.39,285.957l-10.011,5.818a1.009,1.009,0,0,1,.961.017l10.01-5.818A1.006,1.006,0,0,0,607.39,285.957Z" transform="translate(-596.795 -268.074)" fill="none"/>
          <path id="Path_571" data-name="Path 571" d="M618.864,286.576l10.011-5.818a17.614,17.614,0,0,0-8.046-.815l-10.01,5.818A17.61,17.61,0,0,1,618.864,286.576Z" transform="translate(-591.219 -270.59)" fill="none"/>
          <path id="Path_572" data-name="Path 572" d="M607.781,280.335l10.011-5.818a3.037,3.037,0,0,0-1-.979,1.4,1.4,0,0,0-1.406-.11l-10.01,5.816a1.4,1.4,0,0,1,1.406.112A3.033,3.033,0,0,1,607.781,280.335Z" transform="translate(-593.477 -273.285)" fill="none"/>
          <g id="Group_383" data-name="Group 383" transform="translate(0.584)">
            <path id="Path_573" data-name="Path 573" d="M622.593,318.7c4.277,2.469,7.752.487,7.766-4.428a17,17,0,0,0-7.715-13.363c-4.276-2.469-7.753-.487-7.766,4.426A17.006,17.006,0,0,0,622.593,318.7Z" transform="translate(-590.12 -262.264)" fill="url(#linear-gradient-19)"/>
            <path id="Path_574" data-name="Path 574" d="M623.859,338.417a1,1,0,0,1-.457.828l10.011-5.818a1,1,0,0,0,.456-.828l.666-7.516L624.524,330.9Z" transform="translate(-586.584 -251.796)" fill="url(#linear-gradient-19)"/>
            <path id="Path_575" data-name="Path 575" d="M608.35,285.974l-.062-.028a1.382,1.382,0,0,0-.177-.061,1.182,1.182,0,0,0-.133-.028,1.058,1.058,0,0,0-.113-.011.824.824,0,0,0-.1,0c-.032,0-.064.006-.095.01a.669.669,0,0,0-.092.023.749.749,0,0,0-.089.031.546.546,0,0,0-.086.042l-.008,0-10.011,5.818.01-.006a.61.61,0,0,1,.086-.041.919.919,0,0,1,.088-.033c.03-.009.061-.016.092-.021s.064-.008.1-.011.068,0,.1,0a1.032,1.032,0,0,1,.113.011.894.894,0,0,1,.133.028,1.316,1.316,0,0,1,.177.061l.064.027,6.866,3.23,10.011-5.818Z" transform="translate(-597.379 -268.074)" fill="url(#linear-gradient-19)"/>
            <path id="Path_576" data-name="Path 576" d="M661.773,325.4v-.009l0-.03c-.013-.088-.027-.175-.045-.262-.009-.04-.02-.079-.03-.119l-.014-.059-.014-.058c-.02-.069-.04-.139-.062-.207-.014-.042-.031-.083-.047-.126l-.01-.03-.011-.03c-.021-.058-.045-.115-.069-.173s-.048-.108-.074-.161l-.018-.034-.013-.024-.047-.095c-.027-.051-.055-.1-.083-.149s-.054-.091-.082-.136l0,0,0-.006c-.033-.048-.064-.1-.1-.143s-.071-.1-.107-.147l-.037-.045-.028-.034c-.02-.024-.04-.051-.061-.075-.054-.061-.11-.12-.167-.177l-.02-.017a2.786,2.786,0,0,0-.337-.28l-6.858-4.7c-.095-.546-.2-1.094-.317-1.641-.013-.059-.021-.117-.034-.175-.033-.156-.072-.311-.108-.467-.055-.248-.11-.5-.171-.743-.054-.225-.112-.451-.17-.676-.064-.249-.127-.5-.2-.747-.023-.083-.042-.167-.065-.25s-.044-.137-.064-.207q-.321-1.138-.695-2.271c-.01-.033-.018-.064-.03-.1-.023-.068-.05-.136-.074-.205q-.352-1.042-.747-2.081c-.014-.035-.025-.072-.038-.108l-.02-.048q-.278-.722-.576-1.437l4.416-3.557a.791.791,0,0,0,.18-.216.964.964,0,0,0,.041-.095,1.229,1.229,0,0,0,.074-.192,1.366,1.366,0,0,0,.023-.136,1.617,1.617,0,0,0,.027-.211c0-.052,0-.108,0-.163,0-.076,0-.151-.013-.232,0-.018,0-.035,0-.057-.011-.088-.027-.178-.047-.27v-.008l-.006-.018c-.014-.066-.03-.134-.049-.2s-.04-.137-.064-.208v-.006l0-.01q-.03-.089-.064-.178t-.076-.187l-.027-.058-.016-.037c-.014-.03-.027-.059-.041-.089-.03-.059-.06-.12-.092-.181s-.06-.108-.089-.161l-4.222-7.312-.013-.021c-.035-.062-.074-.124-.112-.184s-.082-.126-.125-.185c-.018-.027-.038-.051-.057-.076l-.03-.04c-.018-.025-.037-.051-.055-.075-.055-.072-.11-.14-.167-.205-.025-.03-.052-.055-.078-.083l-.068-.072c-.025-.027-.051-.055-.076-.081-.057-.057-.115-.1-.171-.151-.037-.033-.073-.068-.11-.1a2.829,2.829,0,0,0-.345-.241,2.065,2.065,0,0,0-.238-.119l-.02-.006c-.016-.007-.033-.011-.048-.017-.041-.014-.082-.031-.122-.041s-.057-.013-.085-.018l-.028-.006-.023-.006a1.064,1.064,0,0,0-.113-.011.761.761,0,0,0-.1,0h0c-.03,0-.058.006-.086.01s-.054.011-.081.02a.373.373,0,0,0-.057.018l-5.32,1.991-.252-.327c-.1-.124-.2-.245-.294-.369-.184-.233-.368-.467-.555-.7-.144-.177-.289-.351-.433-.525-.187-.224-.375-.447-.564-.668-.067-.076-.132-.157-.2-.233s-.129-.141-.192-.214q-.473-.539-.956-1.06c-.093-.1-.185-.205-.28-.306q-.611-.649-1.239-1.273c-.026-.025-.051-.054-.076-.079-.066-.065-.134-.126-.2-.191q-.526-.516-1.064-1.009c-.123-.113-.245-.226-.369-.338-.446-.4-.894-.8-1.348-1.176l-10.011,5.818c.456.379.9.774,1.35,1.176.123.112.246.225.368.338q.537.492,1.064,1.009c.092.089.187.178.279.27.417.415.831.84,1.239,1.273.093.1.187.2.28.306q.482.52.955,1.058c.13.149.262.3.392.45.19.219.376.443.562.666.146.174.291.348.434.523.188.232.372.465.557.7s.365.46.543.695l5.32-1.991a.79.79,0,0,1,.224-.048h0a.953.953,0,0,1,.235.014l.028.007a1.306,1.306,0,0,1,.207.059c.017.006.033.01.049.017a1.932,1.932,0,0,1,.256.125,2.831,2.831,0,0,1,.345.24c.038.03.074.065.11.1.083.072.167.147.248.232l.068.072c.1.113.2.233.3.362l.03.041a5.083,5.083,0,0,1,.3.467l4.222,7.312c.082.143.156.287.222.432l.017.037c.064.142.119.283.167.423l0,.008a3.938,3.938,0,0,1,.116.416l0,.02a3.336,3.336,0,0,1,.052.335c.008.081.01.156.011.231,0,.055,0,.112,0,.164a1.886,1.886,0,0,1-.027.211c-.009.045-.013.093-.023.136a1.107,1.107,0,0,1-.075.192c-.014.031-.024.066-.04.095a.815.815,0,0,1-.181.216l-4.416,3.557q.3.715.576,1.438c.02.051.038.1.058.156.266.693.514,1.388.748,2.084.034.1.069.2.1.3q.376,1.133.695,2.271c.044.153.088.306.13.46.068.249.132.5.2.746q.087.337.17.673c.06.25.116.5.173.751.047.211.095.423.139.634.116.549.224,1.1.317,1.644l6.858,4.7a2.477,2.477,0,0,1,.337.28,3.242,3.242,0,0,1,.248.269l.028.034a3.782,3.782,0,0,1,.245.341l0,0a4.112,4.112,0,0,1,.214.378l.013.025a4.323,4.323,0,0,1,.171.4l.011.03c.048.129.088.26.123.39l.014.059a3.685,3.685,0,0,1,.074.379l.006.031a3.367,3.367,0,0,1,.028.426v.061l-8.407,4.885a17.386,17.386,0,0,1-3.355,7.312l4.38,8.635a3.368,3.368,0,0,1,.168.395l.009.024a3.093,3.093,0,0,1,.109.386l0,.023c.017.089.025.175.035.263a2.559,2.559,0,0,1,.01.388c0,.023,0,.047,0,.069a1.774,1.774,0,0,1-.086.4c-.01.034-.025.064-.038.1a1.351,1.351,0,0,1-.139.252c-.02.028-.04.058-.062.085a1.071,1.071,0,0,1-.274.236l10.011-5.818a1.014,1.014,0,0,0,.273-.236c.024-.027.042-.057.064-.085a1.389,1.389,0,0,0,.137-.252c.013-.033.028-.062.04-.095a1.727,1.727,0,0,0,.085-.4c0-.023,0-.047,0-.069a2.243,2.243,0,0,0-.01-.388c0-.023,0-.042,0-.065-.008-.065-.02-.132-.034-.2l0-.023v-.01c-.013-.059-.027-.119-.044-.178s-.03-.1-.047-.156l-.016-.042-.008-.024c-.009-.025-.017-.051-.027-.076q-.025-.066-.055-.132c-.018-.042-.037-.085-.058-.127l-.028-.058-4.382-8.636a15.112,15.112,0,0,0,1.74-2.75l-.008,3.193a1.439,1.439,0,0,1-.565,1.307L661.216,334a.88.88,0,0,0,.233-.2,1.716,1.716,0,0,0,.331-1.109l.018-6.883A3,3,0,0,0,661.773,325.4Z" transform="translate(-586.207 -268.435)" fill="url(#linear-gradient-19)"/>
            <path id="Path_577" data-name="Path 577" d="M642.8,281.566q0-.064-.013-.127c-.008-.068-.02-.139-.035-.208l-.011-.044-.007-.034c-.008-.031-.014-.062-.024-.093-.014-.051-.03-.1-.047-.154s-.03-.088-.047-.132l0-.007,0-.009c-.018-.048-.038-.095-.058-.141s-.042-.095-.065-.141-.033-.064-.048-.1l-.01-.02-.014-.027q-.038-.072-.081-.144c-.03-.051-.061-.1-.092-.15l-.031-.047-.02-.031-.055-.081c-.041-.058-.082-.115-.126-.17-.018-.025-.04-.05-.06-.074l-.042-.051c-.018-.023-.035-.045-.054-.066-.071-.082-.144-.16-.221-.235l-.006-.006c-.072-.071-.149-.133-.225-.2-.038-.033-.076-.071-.116-.1a3.149,3.149,0,0,0-.364-.245l-5.99-3.459a2.6,2.6,0,0,0-.3-.15c-.025-.011-.05-.017-.075-.027l-.076-.025c-.033-.01-.065-.024-.1-.033a1.848,1.848,0,0,0-.182-.04c-.017,0-.033,0-.05,0l-.031,0c-.024,0-.047-.006-.071-.007-.044,0-.088,0-.13,0a1.062,1.062,0,0,0-.117.014h-.013c-.031.006-.062.013-.092.021a.967.967,0,0,0-.1.034.772.772,0,0,0-.091.044l-.009.006-10.011,5.816a.911.911,0,0,1,.289-.1h.006a1.166,1.166,0,0,1,.324-.01l.031,0a1.766,1.766,0,0,1,.328.078l.076.025a2.579,2.579,0,0,1,.379.177l2.435,1.406c-.035,0-.074-.01-.109-.011a15.57,15.57,0,0,0-1.668.014q-.635.04-1.247.134l-5.294-8.12-.072-.106q-.047-.068-.1-.132c-.038-.05-.078-.1-.119-.144-.054-.062-.108-.12-.164-.175a2.706,2.706,0,0,0-.546-.422,1.974,1.974,0,0,0-.252-.124,1.7,1.7,0,0,0-.221-.076,1.533,1.533,0,0,0-.174-.037,1.365,1.365,0,0,0-.15-.014.866.866,0,0,0-.136,0,.912.912,0,0,0-.125.014,1.12,1.12,0,0,0-.119.027,1.057,1.057,0,0,0-.112.04,1.127,1.127,0,0,0-.109.054l-.01.006-4.249,2.421-10.01,5.818,4.249-2.422.008,0a.875.875,0,0,1,.109-.054,1.073,1.073,0,0,1,.113-.04,1.092,1.092,0,0,1,.117-.027,1.217,1.217,0,0,1,.126-.016c.044,0,.089,0,.134,0s.1.009.151.016a1.576,1.576,0,0,1,.173.037,1.8,1.8,0,0,1,.222.076,2.07,2.07,0,0,1,.252.124,2.751,2.751,0,0,1,.546.422c.055.055.11.113.164.174s.079.1.119.146.065.086.1.132.048.071.072.106l5.3,8.12q.611-.093,1.247-.134a15.556,15.556,0,0,1,1.668-.014,17.545,17.545,0,0,1,1.879.187,20.249,20.249,0,0,1,2.221.471q.512.138,1.03.306l8.331-4.842.212.123a3.365,3.365,0,0,1,.364.246c.04.03.076.066.115.1.076.064.154.127.226.2a4.143,4.143,0,0,1,.282.307l.041.051c.085.1.166.212.241.324l.021.031c.078.12.151.243.216.368l.01.02a3.751,3.751,0,0,1,.174.388l0,.009a3.211,3.211,0,0,1,.116.378l.008.033a2.436,2.436,0,0,1,.059.381l.621,8.26,10.011-5.818Z" transform="translate(-595.307 -273.285)" fill="url(#linear-gradient-19)"/>
            <path id="Path_578" data-name="Path 578" d="M639.765,335.844c-2.987.631-6.6-.074-10.49-2.319-10.239-5.911-18.515-20.245-18.481-32.015.016-5.328,1.736-9.209,4.56-11.32-4.878,1.03-8.09,5.623-8.111,12.918-.033,11.77,8.243,26.1,18.481,32.015C631.329,338.358,636.354,338.395,639.765,335.844Z" transform="translate(-593.287 -266.272)" fill="url(#linear-gradient-19)"/>
          </g>
          <path id="Path_579" data-name="Path 579" d="M596.966,303.469a4,4,0,0,0,1.512,3.045l6.863,4.7a51.81,51.81,0,0,0,3.3,11.153l-4.42,3.554c-.552.45-.441,1.719.255,2.919l4.22,7.312a4.119,4.119,0,0,0,1.4,1.51,1.185,1.185,0,0,0,1,.174l5.324-1.988a52.409,52.409,0,0,0,8.025,8.464l.617,8.257a4.01,4.01,0,0,0,1.88,2.835l5.99,3.458c.985.567,1.807.282,1.887-.659l.665-7.517a17.649,17.649,0,0,0,8.046.815l5.291,8.117a3.007,3.007,0,0,0,1,.979,1.412,1.412,0,0,0,1.411.115l4.249-2.422c.7-.4.813-1.534.266-2.617l-4.38-8.635a17.386,17.386,0,0,0,3.355-7.312l6.862,3.227c.862.4,1.522-.16,1.525-1.29l.02-6.883a3.989,3.989,0,0,0-1.514-3.045l-6.858-4.7a52.11,52.11,0,0,0-3.3-11.153l4.416-3.557c.55-.45.441-1.719-.25-2.916L651.4,302.1A4.146,4.146,0,0,0,650,300.585a1.188,1.188,0,0,0-1-.174l-5.32,1.991a52.468,52.468,0,0,0-8.023-8.464l-.621-8.26a3.987,3.987,0,0,0-1.877-2.833l-5.989-3.458c-.985-.567-1.807-.282-1.892.657l-.662,7.52a17.609,17.609,0,0,0-8.045-.815l-5.3-8.12a3.034,3.034,0,0,0-1-.979,1.4,1.4,0,0,0-1.406-.112l-4.249,2.422c-.7.393-.818,1.532-.272,2.615l4.386,8.638a17.32,17.32,0,0,0-3.355,7.312l-6.866-3.229c-.857-.4-1.522.158-1.525,1.29Zm14.542,4.946c.034-11.764,8.363-16.511,18.6-10.6s18.513,20.245,18.479,32.009-8.357,16.52-18.6,10.606S611.475,320.185,611.508,308.415Z" transform="translate(-596.966 -271.579)" fill="url(#linear-gradient-25)"/>
        </g>
        <g id="Group_386" data-name="Group 386">
          <path id="Path_580" data-name="Path 580" d="M575.792,249.82l-6.1,3.543a.615.615,0,0,1,.584.01l6.1-3.543A.615.615,0,0,0,575.792,249.82Z" transform="translate(-569.338 -238.929)" fill="none"/>
          <path id="Path_581" data-name="Path 581" d="M582.78,250.2l6.1-3.543a10.716,10.716,0,0,0-4.9-.5l-6.1,3.543A10.716,10.716,0,0,1,582.78,250.2Z" transform="translate(-565.943 -240.461)" fill="none"/>
          <path id="Path_582" data-name="Path 582" d="M576.029,246.4l6.1-3.543a1.845,1.845,0,0,0-.608-.6.854.854,0,0,0-.856-.068l-6.1,3.544a.848.848,0,0,1,.856.068A1.824,1.824,0,0,1,576.029,246.4Z" transform="translate(-567.318 -242.102)" fill="none"/>
          <g id="Group_385" data-name="Group 385" transform="translate(0.357 0.001)">
            <path id="Path_583" data-name="Path 583" d="M585.051,269.764c2.6,1.5,4.721.3,4.73-2.7a10.354,10.354,0,0,0-4.7-8.14c-2.6-1.5-4.721-.3-4.73,2.7A10.361,10.361,0,0,0,585.051,269.764Z" transform="translate(-565.274 -235.391)" fill="#f57455"/>
            <path id="Path_584" data-name="Path 584" d="M585.822,281.769a.611.611,0,0,1-.279.505l6.1-3.544a.607.607,0,0,0,.277-.5l.406-4.577-6.1,3.543Z" transform="translate(-563.121 -229.015)" fill="#c86148" stroke="rgba(0,0,0,0)" stroke-width="1"/>
            <path id="Path_585" data-name="Path 585" d="M576.376,249.83l-.038-.017a.692.692,0,0,0-.107-.037.556.556,0,0,0-.081-.018.6.6,0,0,0-.069-.006.461.461,0,0,0-.062,0,.379.379,0,0,0-.058.007.361.361,0,0,0-.057.013l-.054.018c-.018.008-.035.017-.052.027l-.006,0-6.1,3.543.006,0a.361.361,0,0,1,.052-.025.348.348,0,0,1,.054-.02.365.365,0,0,1,.057-.013c.018,0,.038-.006.058-.007a.461.461,0,0,1,.062,0,.394.394,0,0,1,.069.007.409.409,0,0,1,.081.017.876.876,0,0,1,.107.037l.038.017,4.182,1.967,6.1-3.543Z" transform="translate(-569.695 -238.929)" fill="#d55e41"/>
            <path id="Path_586" data-name="Path 586" d="M608.912,273.84v-.006l0-.018c-.007-.054-.016-.106-.027-.16l-.017-.072-.01-.035-.009-.037c-.011-.041-.024-.083-.038-.125-.008-.025-.018-.051-.027-.078l-.007-.017-.007-.018c-.013-.035-.027-.071-.042-.1s-.03-.066-.045-.1l-.01-.021-.008-.014-.028-.058-.051-.091c-.016-.027-.032-.055-.049-.082l0,0v0c-.018-.03-.038-.059-.058-.088s-.044-.061-.066-.089l-.023-.027-.017-.021-.037-.045c-.033-.038-.066-.074-.1-.108l-.013-.011a1.5,1.5,0,0,0-.2-.17l-4.178-2.861c-.057-.332-.122-.665-.192-1-.007-.035-.013-.071-.02-.106-.021-.095-.044-.19-.065-.283-.034-.151-.068-.3-.1-.454s-.068-.274-.1-.41c-.04-.153-.078-.3-.12-.456-.013-.051-.026-.1-.04-.153s-.027-.083-.038-.126q-.2-.692-.423-1.384l-.018-.058c-.013-.041-.03-.082-.044-.125q-.214-.635-.456-1.268l-.024-.065-.011-.03c-.113-.293-.229-.584-.351-.876l2.69-2.166a.47.47,0,0,0,.109-.132.426.426,0,0,0,.026-.058.68.68,0,0,0,.045-.117c.006-.025.008-.055.013-.082a1.189,1.189,0,0,0,.017-.129c0-.031,0-.065,0-.1s0-.092-.007-.141v-.034c-.007-.054-.017-.109-.028-.164l0-.006,0-.011c-.01-.041-.018-.082-.031-.123s-.024-.083-.038-.126v0l0-.006c-.011-.037-.024-.072-.038-.109s-.03-.076-.047-.115l-.016-.035-.011-.021-.024-.054c-.018-.037-.037-.075-.057-.112s-.035-.065-.054-.1l-2.571-4.453-.007-.013c-.023-.038-.045-.076-.069-.113s-.049-.076-.076-.113l-.034-.045-.017-.025-.034-.045c-.034-.044-.068-.085-.1-.125-.016-.018-.033-.034-.048-.051l-.041-.044c-.016-.016-.031-.034-.047-.049-.034-.034-.069-.061-.1-.092s-.044-.041-.067-.059a1.564,1.564,0,0,0-.211-.146,1.14,1.14,0,0,0-.144-.072l-.011,0-.03-.01a.574.574,0,0,0-.074-.025.388.388,0,0,0-.052-.011l-.017,0-.014,0-.069-.007h-.061l-.052.006c-.017,0-.033.007-.05.011l-.034.011-3.24,1.213c-.051-.066-.1-.133-.154-.2s-.119-.15-.178-.225c-.112-.141-.225-.284-.338-.424q-.132-.161-.263-.318-.172-.206-.344-.407c-.041-.047-.081-.1-.12-.143s-.079-.086-.117-.13q-.289-.327-.583-.645c-.057-.062-.113-.124-.171-.185q-.371-.4-.754-.777l-.047-.048-.123-.116c-.214-.209-.429-.413-.647-.614l-.225-.207c-.272-.243-.545-.484-.822-.716l-6.1,3.544c.277.231.55.471.822.716.075.068.15.136.224.205q.327.3.648.614c.057.055.113.109.17.166.255.253.506.511.754.775.058.061.115.125.171.185q.295.318.581.645l.239.274c.115.133.229.269.342.4.088.106.177.212.265.32.113.141.226.283.338.426s.224.28.332.423l3.24-1.212a.474.474,0,0,1,.134-.03h0a.7.7,0,0,1,.143.008l.018,0a.967.967,0,0,1,.126.037l.028.01a1.149,1.149,0,0,1,.157.076,1.835,1.835,0,0,1,.211.146c.023.018.044.04.067.059.051.044.1.091.151.141l.041.044c.062.069.125.143.183.222l.018.024q.1.134.187.284l2.571,4.452c.05.088.095.175.134.263l.01.023a2.574,2.574,0,0,1,.1.257l0,.006c.028.086.052.171.071.253V263a1.85,1.85,0,0,1,.033.205c0,.048.006.095.007.14s0,.068,0,.1a1.13,1.13,0,0,1-.017.129c0,.028-.007.057-.013.082a.747.747,0,0,1-.047.119c-.009.018-.014.04-.024.057a.475.475,0,0,1-.109.132l-2.69,2.166q.18.437.351.876c.011.033.023.064.035.1q.242.632.456,1.268c.02.061.043.122.062.181.153.461.293.921.423,1.384.025.093.052.187.079.28.041.151.079.3.119.454s.069.273.1.41c.037.153.072.3.106.457.028.129.058.257.085.386.069.334.136.668.192,1l4.177,2.859a1.444,1.444,0,0,1,.205.17,2.1,2.1,0,0,1,.151.164l.017.021a2.5,2.5,0,0,1,.149.207l0,0a2.579,2.579,0,0,1,.129.229l.009.016c.038.078.074.16.1.242l.006.018c.03.079.054.158.075.238l.008.037a1.875,1.875,0,0,1,.045.231l0,.018a2.02,2.02,0,0,1,.018.259v.038l-5.12,2.975a10.581,10.581,0,0,1-2.043,4.453l2.668,5.259a2.077,2.077,0,0,1,.1.24l.006.014a1.936,1.936,0,0,1,.065.235l0,.014a1.329,1.329,0,0,1,.021.16,1.5,1.5,0,0,1,.007.236c0,.014,0,.028,0,.042a1.118,1.118,0,0,1-.052.245.484.484,0,0,1-.024.058.792.792,0,0,1-.083.153c-.013.018-.024.035-.038.052a.626.626,0,0,1-.167.144l6.1-3.543a.655.655,0,0,0,.167-.144c.014-.017.026-.035.038-.052a.765.765,0,0,0,.085-.154c.007-.018.017-.037.024-.058a1.019,1.019,0,0,0,.051-.243c0-.014,0-.028,0-.042a1.666,1.666,0,0,0-.006-.236c0-.013,0-.025,0-.04-.006-.04-.013-.079-.021-.12v-.02c-.009-.037-.017-.072-.027-.109s-.018-.064-.028-.095l-.01-.025-.006-.014-.016-.047c-.011-.027-.021-.054-.034-.081s-.023-.052-.035-.078l-.017-.035-2.668-5.259a9.345,9.345,0,0,0,1.06-1.675l-.006,1.944a.878.878,0,0,1-.344.8l6.1-3.543a.541.541,0,0,0,.142-.12,1.044,1.044,0,0,0,.2-.676l.013-4.192A1.914,1.914,0,0,0,608.912,273.84Z" transform="translate(-562.891 -239.149)" stroke="rgba(0,0,0,0)" stroke-width="1" fill="url(#linear-gradient-19)"/>
            <path id="Path_587" data-name="Path 587" d="M597.355,247.146c0-.025,0-.051-.007-.078s-.013-.083-.021-.127l-.007-.027-.006-.02-.014-.057c-.009-.031-.017-.064-.028-.095s-.018-.052-.028-.079v0l0-.006c-.01-.028-.023-.058-.035-.086s-.026-.058-.038-.086l-.03-.058-.007-.011-.007-.017c-.017-.03-.033-.059-.049-.088s-.037-.062-.057-.092l-.018-.028-.013-.018-.033-.05c-.025-.035-.051-.069-.076-.1l-.037-.045-.025-.031-.034-.041c-.042-.048-.088-.1-.133-.141l0,0c-.044-.042-.091-.081-.137-.12-.024-.02-.047-.042-.071-.061a1.98,1.98,0,0,0-.221-.15l-3.649-2.107a1.722,1.722,0,0,0-.185-.092l-.045-.016-.047-.016c-.018-.006-.038-.016-.058-.02-.038-.01-.075-.018-.11-.024l-.031,0h-.018l-.042-.006h-.081a.564.564,0,0,0-.071.008h-.008l-.055.013a.362.362,0,0,0-.059.021c-.018.008-.037.017-.054.027l-.006,0-6.1,3.543a.587.587,0,0,1,.175-.064h0a.7.7,0,0,1,.2-.006h.018a1.01,1.01,0,0,1,.2.047l.047.016a1.592,1.592,0,0,1,.231.108l1.483.857-.065-.007a9.726,9.726,0,0,0-1.017.009c-.257.017-.511.044-.758.082l-3.224-4.945-.044-.065-.059-.081-.072-.088c-.033-.037-.067-.072-.1-.106a1.631,1.631,0,0,0-.333-.258,1.08,1.08,0,0,0-.153-.075.851.851,0,0,0-.136-.047,1,1,0,0,0-.1-.023c-.031,0-.062-.007-.092-.008a.8.8,0,0,0-.082,0,.468.468,0,0,0-.076.01.664.664,0,0,0-.072.016l-.068.024c-.023.01-.045.021-.066.033l-.006,0-2.588,1.476-6.1,3.543,2.588-1.474.006,0c.021-.011.042-.023.065-.033s.045-.017.069-.024.047-.011.072-.016.049-.007.076-.01a.8.8,0,0,1,.082,0c.03,0,.061,0,.091.008a.952.952,0,0,1,.106.023,1.156,1.156,0,0,1,.134.047,1.207,1.207,0,0,1,.154.076,1.612,1.612,0,0,1,.332.256c.034.034.068.069.1.106s.048.058.072.089l.059.079.042.065,3.226,4.945c.248-.038.5-.065.758-.081a9.334,9.334,0,0,1,1.016-.01,10.843,10.843,0,0,1,1.145.113,12.642,12.642,0,0,1,1.353.287q.312.085.628.187l5.074-2.949.129.075a2.051,2.051,0,0,1,.222.15c.024.018.047.041.069.061.047.04.093.078.139.122a2.344,2.344,0,0,1,.17.185l.027.031c.051.064.1.13.146.2l.013.018q.072.11.132.225l.007.011c.04.078.075.157.106.236v.006a2.03,2.03,0,0,1,.071.229l.006.021a1.7,1.7,0,0,1,.035.231l.379,5.031,6.1-3.544Z" transform="translate(-568.433 -242.102)" stroke="rgba(0,0,0,0)" stroke-width="1" fill="url(#linear-gradient-19)"/>
            <path id="Path_588" data-name="Path 588" d="M595.509,280.2a9.176,9.176,0,0,1-6.39-1.413c-6.235-3.6-11.275-12.329-11.255-19.5.01-3.246,1.057-5.61,2.777-6.9-2.97.628-4.926,3.425-4.939,7.868-.02,7.169,5.02,15.9,11.255,19.5C590.371,281.734,593.431,281.756,595.509,280.2Z" transform="translate(-567.203 -237.832)" stroke="rgba(0,0,0,0)" stroke-width="1" fill="url(#linear-gradient-28)"/>
          </g>
          <path id="Path_589" data-name="Path 589" d="M569.443,260.485a2.442,2.442,0,0,0,.921,1.855l4.181,2.861a31.617,31.617,0,0,0,2.01,6.793l-2.692,2.165c-.335.273-.269,1.047.156,1.777l2.571,4.454a2.51,2.51,0,0,0,.855.92.725.725,0,0,0,.608.106L581.3,280.2a32.013,32.013,0,0,0,4.887,5.154l.375,5.028a2.438,2.438,0,0,0,1.146,1.726l3.649,2.107c.6.347,1.1.171,1.149-.4l.406-4.577a10.753,10.753,0,0,0,4.9.5l3.222,4.942a1.846,1.846,0,0,0,.608.6.86.86,0,0,0,.859.069l2.588-1.474c.424-.242.5-.935.163-1.594l-2.668-5.259a10.581,10.581,0,0,0,2.043-4.453l4.179,1.965c.525.245.927-.1.928-.787l.013-4.192a2.429,2.429,0,0,0-.922-1.853l-4.177-2.859a31.773,31.773,0,0,0-2.01-6.794l2.69-2.166c.335-.273.267-1.046-.153-1.776L602.6,259.65a2.523,2.523,0,0,0-.857-.921.72.72,0,0,0-.608-.106l-3.24,1.212A31.964,31.964,0,0,0,593,254.681l-.379-5.031a2.427,2.427,0,0,0-1.143-1.725l-3.647-2.107c-.6-.345-1.1-.171-1.152.4l-.4,4.58a10.716,10.716,0,0,0-4.9-.5l-3.226-4.945a1.824,1.824,0,0,0-.607-.6.848.848,0,0,0-.856-.068l-2.588,1.474c-.427.241-.5.932-.166,1.593l2.671,5.26a10.536,10.536,0,0,0-2.043,4.452l-4.182-1.967c-.522-.245-.927.1-.928.785ZM578.3,263.5c.02-7.165,5.093-10.055,11.329-6.456s11.275,12.33,11.255,19.5-5.091,10.061-11.329,6.459S578.28,270.666,578.3,263.5Z" transform="translate(-569.443 -241.063)" fill="url(#linear-gradient-25)"/>
        </g>
      </g>
      <g id="Group_396" data-name="Group 396" transform="translate(294.271 157.171)">
        <g id="Group_393" data-name="Group 393" transform="translate(28.301)">
          <path id="Path_594" data-name="Path 594" d="M627.107,237.1l-.1,33.622,10.353,5.977.1-33.622Z" transform="translate(-627.011 -237.102)" fill="#8dfff9"/>
        </g>
        <g id="Group_394" data-name="Group 394" transform="translate(14.095 7.916)">
          <path id="Path_595" data-name="Path 595" d="M617.02,242.7l-.05,17.533,10.353,5.977.05-17.533Z" transform="translate(-616.97 -242.697)" fill="#8dfff9"/>
        </g>
        <g id="Group_395" data-name="Group 395" transform="translate(0 5.687)">
          <path id="Path_596" data-name="Path 596" d="M607.041,241.122l-.032,11.487,10.353,5.977.033-11.487Z" transform="translate(-607.008 -241.122)" fill="#8dfff9"/>
        </g>
      </g>
    </g>
    <g id="Group_429" data-name="Group 429" transform="translate(259.729 2119.63)">
      <g id="Group_400" data-name="Group 400" transform="translate(0 0)">
        <g id="Group_398" data-name="Group 398" transform="translate(0 246.998)">
          <path id="Path_597" data-name="Path 597" d="M663.227,365.891c9.448,5.456,9.5,14.3.11,19.76L578.15,435.155c-9.387,5.456-24.662,5.456-34.112,0L458.293,385.65c-9.448-5.454-9.5-14.3-.112-19.758l85.189-49.505c9.388-5.456,24.662-5.456,34.112,0Z" transform="translate(-451.093 -312.295)" fill="url(#linear-gradient-30)"/>
          <path id="Path_598" data-name="Path 598" d="M670.352,357.673c-.007.122-.014.243-.027.365-.01.1-.026.211-.04.316-.017.122-.034.242-.057.362s-.042.214-.067.32-.054.233-.086.351-.059.212-.093.318-.074.233-.115.349-.076.208-.119.311c-.048.123-.1.245-.153.366-.047.1-.093.2-.143.3-.059.122-.122.242-.187.364-.052.1-.106.194-.163.29-.083.144-.173.287-.265.429-.055.086-.109.173-.168.258-.107.157-.224.314-.341.468-.051.068-.1.136-.151.2-.2.246-.4.49-.625.73-.057.062-.119.123-.177.184-.175.182-.357.365-.546.543-.088.082-.174.164-.263.245-.113.1-.231.2-.348.3s-.219.185-.333.277-.249.2-.378.3-.236.18-.359.269-.269.192-.407.287-.253.174-.383.259-.29.187-.439.279c-.184.113-.366.229-.559.341l-85.187,49.505c-.522.3-1.07.584-1.627.855-.146.071-.294.14-.443.208-.5.233-1.017.454-1.545.661-.069.027-.136.057-.2.083-.565.215-1.145.409-1.732.593-.408.129-.826.242-1.244.355-.315.086-.627.177-.947.255-.44.106-.888.2-1.336.286-.324.065-.644.14-.971.2-.136.024-.274.044-.412.065q-.828.136-1.667.236c-.164.02-.327.041-.489.058q-.974.106-1.958.164l-.365.018c-.44.023-.881.028-1.323.037s-.881.011-1.323.006c-.368,0-.736-.016-1.1-.03-.409-.017-.816-.037-1.224-.066-.373-.025-.744-.057-1.115-.092-.4-.04-.8-.085-1.2-.136q-.541-.068-1.078-.151c-.43-.066-.856-.141-1.279-.222-.444-.085-.889-.168-1.326-.269l-.315-.071c-.614-.147-1.22-.311-1.817-.488-.17-.051-.338-.1-.508-.157q-.745-.236-1.466-.5c-.14-.052-.281-.1-.42-.154-.437-.168-.86-.357-1.283-.545-.205-.092-.419-.174-.62-.27-.608-.289-1.2-.6-1.77-.924l-85.745-49.505c-4.755-2.745-7.129-6.348-7.119-9.948l-.081,24.023c-.01,3.6,2.364,7.2,7.119,9.948l85.745,49.505c.569.328,1.162.634,1.77.924.2.095.414.178.62.269.361.161.716.328,1.089.475.064.024.13.045.194.071.139.054.28.1.42.153q.722.267,1.466.5c.17.054.337.107.508.158.115.034.225.072.341.1.485.139.979.265,1.476.382.1.025.211.048.315.072.241.055.481.113.724.163.2.041.4.067.6.1.424.081.849.156,1.279.222.171.027.34.065.511.089.188.027.379.04.567.064.4.051.8.1,1.2.134.192.018.382.048.574.065s.361.016.54.028q.611.042,1.222.065c.205.008.409.028.614.034.164,0,.327-.006.491,0,.441.006.881,0,1.323-.006.219,0,.439,0,.658,0s.444-.023.666-.033l.362-.018c.55-.033,1.1-.072,1.647-.127.1-.01.208-.026.313-.037.164-.018.325-.038.49-.058q.838-.1,1.668-.236c.136-.023.275-.042.41-.065.065-.011.132-.02.2-.031.262-.048.515-.113.775-.167.447-.091.894-.178,1.334-.284.32-.078.631-.17.948-.256.417-.113.835-.226,1.242-.354.088-.028.18-.048.266-.076.5-.161.985-.335,1.466-.518.068-.027.134-.057.2-.083.528-.205,1.041-.427,1.545-.659.149-.068.3-.137.443-.208.557-.27,1.105-.55,1.627-.855l85.188-49.507c.1-.057.2-.115.294-.174s.175-.112.265-.167c.148-.092.294-.184.437-.277s.259-.173.386-.26.275-.19.406-.286.242-.18.361-.27.253-.2.375-.294.225-.185.335-.279.233-.2.345-.3c.047-.042.1-.083.144-.126s.078-.079.12-.119q.284-.27.545-.543c.06-.062.122-.123.178-.185.221-.24.43-.482.625-.729l.027-.031c.045-.058.082-.116.126-.173.117-.156.232-.31.34-.467.059-.085.113-.173.168-.258.092-.143.181-.286.265-.429.023-.038.049-.076.072-.116.033-.058.059-.117.091-.175.065-.12.127-.24.187-.362.049-.1.1-.2.143-.306q.081-.183.153-.365c.023-.055.049-.109.069-.164s.031-.1.049-.147c.041-.116.079-.233.115-.349s.065-.212.093-.32.06-.233.086-.349c.014-.064.034-.127.047-.191.008-.044.011-.086.02-.13.023-.12.04-.24.057-.361s.03-.211.04-.317c.013-.122.02-.243.027-.365,0-.071.013-.141.014-.212s0-.141,0-.212l.081-24.021C670.37,357.39,670.359,357.531,670.352,357.673Z" transform="translate(-451.117 -293.704)" fill="url(#linear-gradient-31)"/>
        </g>
        <g id="Group_399" data-name="Group 399" transform="translate(31.114 248.132)">
          <path id="Path_599" data-name="Path 599" d="M629.7,352.663c6.977,4.028,7.013,10.56.082,14.587L566.89,403.8c-6.93,4.027-18.208,4.027-25.183,0l-63.3-36.547c-6.975-4.028-7.012-10.56-.082-14.587l62.89-36.548c6.931-4.027,18.208-4.027,25.183,0Z" transform="translate(-473.09 -313.096)" fill="url(#linear-gradient-32)"/>
          <path id="Path_600" data-name="Path 600" d="M634.958,346.6c-.006.089-.011.18-.02.269s-.018.156-.03.233-.026.178-.041.267-.033.157-.05.236-.04.173-.064.259-.044.157-.069.235-.054.173-.085.259-.057.153-.086.229-.074.18-.115.27c-.032.075-.068.15-.1.225s-.091.178-.139.267c-.038.072-.078.143-.119.215-.062.106-.129.211-.2.317-.041.064-.081.127-.123.19-.079.116-.166.231-.252.345-.038.049-.074.1-.112.15q-.216.272-.463.538c-.041.047-.086.092-.13.137-.129.134-.263.269-.4.4-.064.061-.127.12-.194.181-.083.075-.17.15-.258.224s-.161.137-.245.205-.184.146-.279.218-.176.133-.265.2-.2.141-.3.212-.187.129-.284.191-.214.137-.323.205c-.136.085-.27.17-.413.252l-62.89,36.548c-.386.224-.79.432-1.2.631q-.161.079-.327.153c-.372.173-.751.335-1.14.488l-.151.061c-.416.159-.845.3-1.278.439-.3.095-.61.178-.918.262-.232.064-.463.132-.7.188-.324.079-.655.144-.986.211-.239.048-.475.1-.716.146-.1.017-.2.031-.3.048q-.611.1-1.231.174l-.361.044c-.48.051-.962.092-1.446.12l-.269.014c-.326.016-.651.02-.976.027s-.652.009-.978,0c-.272,0-.543-.011-.815-.023q-.452-.017-.9-.048c-.275-.02-.548-.042-.822-.069-.3-.028-.594-.061-.89-.1-.266-.034-.531-.071-.8-.112-.317-.049-.631-.106-.944-.166-.328-.062-.656-.123-.979-.2-.078-.017-.156-.034-.232-.052-.454-.108-.9-.229-1.341-.359-.126-.038-.25-.078-.375-.117q-.552-.172-1.084-.369c-.1-.038-.207-.074-.308-.113-.324-.124-.637-.263-.948-.4-.151-.068-.31-.129-.458-.2-.449-.214-.886-.44-1.306-.682l-63.3-36.547c-3.51-2.027-5.263-4.687-5.256-7.344l-.059,17.734c-.007,2.657,1.746,5.318,5.256,7.344l63.3,36.547c.42.243.857.468,1.306.682.149.071.306.132.458.2.266.119.529.242.8.351.047.018.1.034.144.052.1.04.207.075.308.113q.533.2,1.082.369c.126.04.249.079.376.116.083.025.166.054.25.078.359.1.723.2,1.091.283.076.018.154.034.232.052.178.041.355.083.535.12.146.031.3.049.444.078q.469.089.944.164c.127.02.25.047.378.065s.279.03.417.047c.3.038.591.071.89.1.141.013.281.035.424.047s.266.013.4.021q.45.032.9.048c.151.006.3.021.453.024.12,0,.242,0,.362,0,.327,0,.651,0,.976,0,.163,0,.324,0,.485,0s.328-.017.494-.025l.267-.014c.406-.023.811-.052,1.215-.093.076-.007.153-.018.231-.027.12-.013.24-.028.361-.042.413-.049.823-.109,1.231-.175.1-.016.2-.03.3-.048.048-.009.1-.014.144-.023.194-.035.38-.083.573-.123.33-.066.661-.132.985-.211.236-.057.467-.125.7-.188.308-.083.617-.167.918-.262.064-.02.133-.035.2-.055.366-.119.727-.248,1.081-.382.051-.02.1-.042.151-.062.389-.151.768-.315,1.14-.487.11-.051.219-.1.327-.154.412-.2.815-.406,1.2-.631l62.89-36.547c.074-.042.146-.086.218-.129s.129-.083.2-.125c.109-.067.218-.134.323-.2s.191-.129.284-.192.2-.14.3-.211.18-.133.266-.2.187-.144.277-.218.167-.136.248-.205.173-.149.255-.224c.035-.03.072-.061.106-.092s.058-.059.089-.089c.14-.132.274-.265.4-.4.042-.045.089-.091.132-.136.163-.178.317-.357.461-.539l.02-.023c.032-.042.061-.085.092-.127.088-.115.173-.229.252-.345.042-.062.083-.126.125-.19.067-.1.133-.211.2-.316.016-.03.037-.058.052-.086.024-.044.044-.086.068-.13.047-.089.093-.178.137-.267s.071-.15.1-.225c.041-.091.078-.18.115-.27.016-.04.035-.079.05-.12s.024-.072.037-.109c.031-.086.058-.171.085-.258s.048-.157.069-.236.044-.173.064-.259c.01-.047.024-.093.034-.142.006-.031.009-.062.014-.095.017-.089.03-.178.042-.266s.021-.157.03-.235.014-.178.018-.269c0-.052.01-.1.011-.157s0-.1,0-.156l.059-17.735C634.971,346.387,634.964,346.492,634.958,346.6Z" transform="translate(-473.108 -299.371)" fill="url(#linear-gradient-31)"/>
        </g>
        <path id="Path_601" data-name="Path 601" d="M483.048,137.718V432.51c.072,2.128,1.538,4.237,4.345,5.846l52.346,30.232c5.775,3.325,15.089,3.325,20.828,0l52.007-30.232c2.772-1.609,4.2-3.7,4.273-5.792V137.718Z" transform="translate(-437.871 -137.718)" fill="url(#linear-gradient-34)"/>
        <path id="Path_602" data-name="Path 602" d="M613.127,351.316c5.812,3.356,5.842,8.8.068,12.155l-52.4,30.452c-5.774,3.356-15.171,3.356-20.984,0l-52.744-30.452c-5.812-3.356-5.843-8.8-.068-12.154l52.4-30.453c5.775-3.356,15.171-3.356,20.983,0Z" transform="translate(-438.021 -62.786)" fill="#8dfff9"/>
      </g>
      <g id="Group_401" data-name="Group 401" transform="translate(54.669 56.776)">
        <ellipse id="Ellipse_3" data-name="Ellipse 3" cx="6.346" cy="6.346" rx="6.346" ry="6.346" transform="translate(91.823 188.934)" fill="url(#radial-gradient)"/>
        <path id="Path_603" data-name="Path 603" d="M571.229,282.127A3.033,3.033,0,1,1,568.2,279.1,3.032,3.032,0,0,1,571.229,282.127Z" transform="translate(-458.475 -135.845)" fill="url(#radial-gradient-2)"/>
        <path id="Path_604" data-name="Path 604" d="M501.087,217a5.665,5.665,0,1,1-5.665-5.666A5.665,5.665,0,0,1,501.087,217Z" transform="translate(-489.757 -163.956)" fill="url(#radial-gradient-3)"/>
        <path id="Path_605" data-name="Path 605" d="M507.372,189.926a2.079,2.079,0,1,1-2.078-2.078A2.079,2.079,0,0,1,507.372,189.926Z" transform="translate(-484.174 -173.698)" fill="url(#radial-gradient-4)"/>
        <path id="Path_606" data-name="Path 606" d="M552.506,180.855a3.009,3.009,0,1,1-3.008-3.008A3.009,3.009,0,0,1,552.506,180.855Z" transform="translate(-466.222 -177.847)" fill="url(#radial-gradient-5)"/>
        <path id="Path_607" data-name="Path 607" d="M562.251,205.405a3.011,3.011,0,1,1-3.012-3.012A3.012,3.012,0,0,1,562.251,205.405Z" transform="translate(-462.182 -167.664)" fill="url(#radial-gradient-6)"/>
        <path id="Path_608" data-name="Path 608" d="M510.386,307.668a3.024,3.024,0,1,1-3.023-3.025A3.024,3.024,0,0,1,510.386,307.668Z" transform="translate(-483.708 -125.247)" fill="url(#radial-gradient-7)"/>
      </g>
      <g id="Group_428" data-name="Group 428" transform="translate(58.26 50.757)">
        <g id="Group_403" data-name="Group 403" transform="translate(30.682 138.182)">
          <g id="Group_402" data-name="Group 402" transform="translate(8.077 8.223)">
            <path id="Path_609" data-name="Path 609" d="M547.722,301.892c0-13.708-6.275-24.82-14.015-24.82s-14.017,11.112-14.017,24.82,14.017,63.68,14.017,63.68S547.722,315.6,547.722,301.892Z" transform="translate(-519.69 -277.071)" fill="url(#linear-gradient-35)"/>
          </g>
          <path id="Path_610" data-name="Path 610" d="M513.981,271.259a52.439,52.439,0,0,0,4.43,15.72c9.7,5.177,24.617,5.2,34.32.089a52.416,52.416,0,0,0,4.472-15.809Z" transform="translate(-513.981 -271.259)" fill="url(#linear-gradient-36)"/>
          <path id="Path_611" data-name="Path 611" d="M514.906,276.3c4.451,2.544,11.866,4.212,20.265,4.212,8.839,0,16.588-1.848,20.94-4.618q.282-1.254.509-2.524c-12.458,5.485-29.859,5.46-42.325-.085C514.475,274.3,514.674,275.306,514.906,276.3Z" transform="translate(-513.851 -270.417)" fill="url(#radial-gradient-8)"/>
        </g>
        <g id="Group_407" data-name="Group 407" transform="translate(77.76 107.282)">
          <g id="Group_406" data-name="Group 406">
            <path id="Path_612" data-name="Path 612" d="M562.229,273.83c-.429-5.225-2.359-7.96-4.683-9.311l-3.251-1.89c2.323,1.351,4.253,4.086,4.682,9.312a2.015,2.015,0,0,0,.88,1.674l3.253,1.89A2.018,2.018,0,0,1,562.229,273.83Z" transform="translate(-544.334 -243.939)" fill="url(#linear-gradient-37)"/>
            <g id="Group_404" data-name="Group 404" transform="translate(3.253 1.888)">
              <path id="Path_613" data-name="Path 613" d="M549.554,250.886c19.784-2.325,19.419,26.8,19.4,28.329l-1.749,1.01c-1.573.908-2.869.257-3.009-1.469-1.19-14.491-13.921-9.832-14.591-9.587Z" transform="translate(-549.554 -250.754)" fill="url(#linear-gradient-38)"/>
            </g>
            <path id="Path_614" data-name="Path 614" d="M556.48,251.219l-.13-.075-.1-.051c-.154-.086-.311-.168-.471-.249l-.156-.078c-.2-.1-.406-.191-.615-.28l-.023-.01-.091-.034q-.248-.1-.505-.2c-.064-.024-.129-.047-.194-.068q-.242-.083-.488-.157c-.04-.013-.078-.027-.117-.038l-.048-.013c-.215-.062-.434-.119-.658-.171-.045-.011-.091-.02-.134-.03-.184-.04-.368-.078-.556-.112-.034-.006-.066-.014-.1-.02s-.076-.011-.115-.017c-.181-.03-.364-.057-.549-.079-.061-.008-.119-.017-.18-.024-.242-.027-.487-.049-.736-.065l-.037,0-.106,0c-.225-.013-.451-.021-.682-.024l-.222,0c-.277,0-.556,0-.842.017h0c-.139.007-.28.018-.42.027-.086.006-.17.01-.255.017-.229.018-.46.042-.695.069l3.253,1.89c.233-.028.465-.051.693-.069.085-.007.167-.011.25-.017.143-.01.286-.021.427-.027.284-.013.565-.017.84-.017l.222,0c.231,0,.458.011.682.024.048,0,.1,0,.143.007.249.016.5.038.736.065.061.007.12.016.18.024.185.023.368.05.549.079l.216.037c.188.034.374.071.556.112l.134.028c.224.052.443.11.659.173l.166.049c.164.05.327.1.487.157l.2.069c.17.061.34.126.505.2.037.014.075.028.112.044.209.088.415.182.615.28.054.025.1.052.157.078.158.081.315.163.471.249.075.042.153.082.226.126Z" transform="translate(-547.255 -249.419)" fill="url(#linear-gradient-39)"/>
            <g id="Group_405" data-name="Group 405" transform="translate(0.001 0.13)">
              <path id="Path_615" data-name="Path 615" d="M550.559,269.685l-3.252-1.89-.052-18.284,3.252,1.89Z" transform="translate(-547.255 -249.511)" fill="url(#linear-gradient-40)"/>
            </g>
          </g>
        </g>
        <g id="Group_410" data-name="Group 410" transform="translate(0 107.412)">
          <g id="Group_409" data-name="Group 409">
            <path id="Path_616" data-name="Path 616" d="M495.918,273.83c.429-5.225,2.359-7.96,4.683-9.311l3.251-1.89c-2.323,1.351-4.253,4.086-4.682,9.312a2.015,2.015,0,0,1-.88,1.674l-3.253,1.89A2.018,2.018,0,0,0,495.918,273.83Z" transform="translate(-491.157 -244.069)" fill="url(#linear-gradient-41)"/>
            <path id="Path_617" data-name="Path 617" d="M511.7,250.886c-19.784-2.325-19.419,26.8-19.4,28.329l1.749,1.01c1.573.908,2.869.257,3.009-1.469,1.19-14.491,13.921-9.832,14.591-9.587Z" transform="translate(-492.295 -248.995)" fill="url(#linear-gradient-42)"/>
            <g id="Group_408" data-name="Group 408" transform="translate(19.352)">
              <path id="Path_618" data-name="Path 618" d="M505.973,269.685l3.252-1.89.052-18.284-3.252,1.89Z" transform="translate(-505.973 -249.511)" fill="url(#linear-gradient-43)"/>
            </g>
          </g>
        </g>
        <path id="Path_619" data-name="Path 619" d="M576.575,281.253a89.752,89.752,0,0,1-7.923,30.626c-16.172,8.526-41.039,8.479-57.2-.147a89.8,89.8,0,0,1-7.862-30.6c-1.87-21.418,2.465-43.665,8.724-61.241a137.056,137.056,0,0,1,5.855-14.025c8.391-17.193,17.76-29.349,20.86-31.9a1.665,1.665,0,0,1,2.109,0c3.1,2.547,12.478,14.7,20.87,31.9a135.8,135.8,0,0,1,5.886,14.123C574.147,237.583,578.462,259.835,576.575,281.253Z" transform="translate(-487.792 -173.593)" fill="url(#linear-gradient-44)"/>
        <path id="Path_620" data-name="Path 620" d="M561.536,212.624c-.992-2.377-2.013-4.636-3.049-6.759-8.393-17.193-17.77-29.349-20.87-31.9a1.665,1.665,0,0,0-2.109,0c-3.1,2.547-12.469,14.7-20.86,31.9q-1.537,3.149-3.015,6.678C526.346,219.063,546.847,219.092,561.536,212.624Z" transform="translate(-484.273 -173.593)" fill="url(#linear-gradient-45)"/>
        <path id="Path_621" data-name="Path 621" d="M537.044,173.666a277.371,277.371,0,0,0-12.854,42.669,56.322,56.322,0,0,1-12.562-3.788c.32-.771.652-1.529.971-2.274.426-.956.85-1.9,1.276-2.818.266-.531.518-1.063.771-1.595,8.4-17.187,17.759-29.349,20.869-31.889a1.686,1.686,0,0,1,1.29-.359A1.656,1.656,0,0,1,537.044,173.666Z" transform="translate(-484.275 -173.59)" fill="url(#linear-gradient-46)"/>
        <path id="Path_622" data-name="Path 622" d="M540.557,173.671a1.658,1.658,0,0,0-1.531.3c-3.1,2.547-12.469,14.7-20.86,31.9a137.056,137.056,0,0,0-5.855,14.025c-6.259,17.577-10.594,39.823-8.724,61.241a89.8,89.8,0,0,0,7.862,30.6,55.184,55.184,0,0,0,16.026,5.352C510.871,254.733,534.253,189.465,540.557,173.671Z" transform="translate(-487.792 -173.59)" fill="#c4bc9a" opacity="0.38"/>
        <path id="Path_623" data-name="Path 623" d="M521.611,246.78a77.094,77.094,0,0,1-18.29-5.7c-.04-.572-.067-1.143-.081-1.729a.025.025,0,0,1,0-.04c.027-.877.066-1.754.133-2.632a71.468,71.468,0,0,0,18.225,6.048v.013C521.586,244.082,521.6,245.425,521.611,246.78Z" transform="translate(-487.758 -147.423)" fill="#0031ba" opacity="0.53"/>
        <path id="Path_624" data-name="Path 624" d="M522.026,253.758a77.245,77.245,0,0,1-18.676-5.768c-.093-1.449-.147-2.912-.187-4.373v-.146a70.93,70.93,0,0,0,18.636,6.207C521.866,251.033,521.932,252.39,522.026,253.758Z" transform="translate(-487.787 -144.605)" fill="#0031ba" opacity="0.53"/>
        <g id="Group_413" data-name="Group 413" transform="translate(6.395 116.031)">
          <path id="Path_625" data-name="Path 625" d="M499.438,316.795c-.034-1.82-.669-36.414,23.189-61.192l-4.147.156s-21.773,19.9-21.665,59.515Z" transform="translate(-496.815 -255.603)" fill="url(#linear-gradient-47)"/>
          <g id="Group_412" data-name="Group 412" transform="translate(2.616 0.001)">
            <g id="Group_411" data-name="Group 411">
              <path id="Path_626" data-name="Path 626" d="M521.862,255.6C498,280.384,498.639,314.975,498.671,316.8l2.114-1.22a8.112,8.112,0,0,0,3.619-5.965c1.334-19.127,18.614-32.629,19.423-33.269Z" transform="translate(-498.664 -255.604)" fill="url(#linear-gradient-48)"/>
            </g>
          </g>
        </g>
        <g id="Group_416" data-name="Group 416" transform="translate(67.775 116.031)">
          <path id="Path_627" data-name="Path 627" d="M564.778,316.795c.032-1.82.669-36.414-23.191-61.192l4.148.156s21.772,19.9,21.664,59.515Z" transform="translate(-539.622 -255.603)" fill="url(#linear-gradient-49)"/>
          <g id="Group_415" data-name="Group 415" transform="translate(0 0.001)">
            <g id="Group_414" data-name="Group 414">
              <path id="Path_628" data-name="Path 628" d="M542.163,255.6c23.861,24.78,23.223,59.371,23.189,61.192l-2.114-1.22a8.111,8.111,0,0,1-3.618-5.965c-1.336-19.127-18.614-32.629-19.423-33.269Z" transform="translate(-540.198 -255.604)" fill="url(#linear-gradient-50)"/>
            </g>
          </g>
        </g>
        <g id="Group_420" data-name="Group 420" transform="translate(24.44 54.682)">
          <g id="Group_417" data-name="Group 417" transform="translate(0 1.616)">
            <path id="Path_629" data-name="Path 629" d="M522.22,215.114c6.963,4.02,12.592,13.765,12.57,21.77s-5.689,11.224-12.652,7.2-12.592-13.765-12.569-21.764S515.258,211.095,522.22,215.114Z" transform="translate(-509.569 -213.384)" fill="url(#linear-gradient-5)"/>
          </g>
          <g id="Group_418" data-name="Group 418" transform="translate(2.883 5.324)">
            <path id="Path_630" data-name="Path 630" d="M521.365,217.339c5.371,3.1,9.713,10.617,9.7,16.793s-4.387,8.657-9.758,5.557-9.713-10.617-9.7-16.788S516,214.239,521.365,217.339Z" transform="translate(-511.607 -216.005)" fill="url(#linear-gradient-52)"/>
          </g>
          <g id="Group_419" data-name="Group 419" transform="translate(3.451 6.846)">
            <path id="Path_631" data-name="Path 631" d="M526.179,221.35l-11.44,11.433a22.623,22.623,0,0,1-2.731-6.2l9.5-9.5A18.124,18.124,0,0,1,526.179,221.35Z" transform="translate(-512.008 -217.081)" fill="url(#linear-gradient-53)"/>
            <path id="Path_632" data-name="Path 632" d="M529.13,227.857l-9.4,9.406a17.7,17.7,0,0,1-4.711-4.23l11.418-11.418A22.351,22.351,0,0,1,529.13,227.857Z" transform="translate(-510.761 -215.2)" fill="url(#linear-gradient-54)"/>
          </g>
          <path id="Path_633" data-name="Path 633" d="M536.484,235.174c-.007-.2-.016-.406-.028-.61-.007-.093-.016-.187-.023-.28l-.01-.12c-.006-.071-.01-.141-.017-.214-.02-.205-.042-.412-.069-.618s-.057-.422-.089-.632l0-.018,0-.023c-.033-.2-.067-.4-.1-.6-.041-.218-.086-.439-.134-.658-.017-.078-.035-.156-.054-.233l-.033-.136c-.023-.1-.042-.194-.066-.291-.055-.222-.115-.446-.177-.668-.045-.164-.093-.327-.143-.49l-.025-.089-.026-.088q-.1-.327-.209-.652c-.072-.215-.146-.429-.224-.642-.014-.04-.03-.079-.045-.119l-.035-.1c-.051-.134-.1-.267-.151-.4-.079-.2-.161-.409-.246-.611-.062-.149-.126-.294-.19-.441l-.033-.075-.035-.085c-.091-.2-.182-.407-.277-.61q-.157-.333-.323-.665c-.017-.034-.035-.066-.052-.1s-.045-.088-.068-.132c-.089-.175-.178-.351-.27-.525-.117-.219-.242-.433-.365-.649-.061-.109-.12-.219-.184-.327-.024-.044-.047-.088-.072-.13-.11-.188-.233-.368-.347-.553-.168-.272-.333-.545-.509-.809-.027-.042-.052-.088-.081-.129q-.386-.579-.8-1.136h0q-.276-.374-.56-.736-.231-.295-.471-.582l-.008-.011-.007-.008q-.24-.289-.487-.569c-.161-.184-.325-.366-.491-.543l-.081-.086c-.03-.031-.059-.061-.088-.092-.116-.122-.231-.245-.347-.362q-.263-.267-.531-.526c-.057-.052-.113-.1-.168-.156s-.083-.078-.124-.116c-.088-.081-.174-.164-.262-.243q-.278-.25-.562-.49c-.082-.069-.166-.136-.249-.2l-.126-.1c-.062-.049-.123-.1-.185-.151-.184-.144-.368-.286-.555-.422-.133-.1-.269-.194-.4-.289-.025-.017-.05-.035-.074-.052s-.047-.034-.069-.05c-.178-.122-.357-.239-.536-.354s-.355-.222-.533-.327l-.125-.072c-.133-.078-.267-.153-.4-.225-.173-.093-.345-.183-.516-.267-.112-.055-.222-.1-.332-.156l-.081-.038-.1-.047c-.17-.075-.338-.147-.505-.214s-.341-.133-.509-.192l-.085-.027-.076-.025c-.115-.038-.229-.078-.344-.112-.174-.054-.348-.1-.521-.144-.083-.021-.164-.037-.246-.055-.037-.007-.074-.016-.109-.024-.054-.011-.109-.025-.161-.035-.187-.037-.371-.066-.552-.091-.113-.016-.222-.024-.333-.034-.038,0-.078-.01-.117-.013l-.112-.011c-.2-.014-.4-.02-.593-.02-.086,0-.168.008-.253.013-.066,0-.132,0-.2.008s-.137,0-.2.01a6.768,6.768,0,0,0-.727.106l-.013,0c-.051.011-.1.03-.151.042a6.271,6.271,0,0,0-.716.2c-.027.01-.052.023-.079.033s-.076.031-.115.047a5.82,5.82,0,0,0-.826.393h0l-2.78,1.616a6,6,0,0,1,.828-.393c.038-.016.075-.033.113-.047a6.227,6.227,0,0,1,.8-.229c.051-.013.1-.031.15-.042a7.022,7.022,0,0,1,.944-.117l.2-.01a8.1,8.1,0,0,1,.959.018l.117.013a9.353,9.353,0,0,1,1.044.16l.109.025a11.151,11.151,0,0,1,1.112.31l.075.025q.59.2,1.2.48l.081.038c.412.191.828.4,1.249.648s.848.515,1.262.8l.075.052c.386.27.768.559,1.143.862l.126.1q.545.448,1.072.937l.126.116q.533.5,1.044,1.044c.03.031.059.061.088.092q.548.584,1.067,1.207l.008.011c.354.426.7.866,1.031,1.317h0c.3.412.6.836.879,1.265.175.266.341.538.508.809.14.228.286.451.42.683.062.108.122.218.184.327.219.388.433.778.635,1.174l.068.132c.242.482.473.969.688,1.46l.032.075q.314.724.586,1.454l.037.1q.276.749.5,1.5l.026.089q.216.724.386,1.449l.033.136c.113.5.212.995.29,1.488l0,.023c.079.5.137.993.18,1.484l.009.119c.04.492.061.979.059,1.459s-.026.939-.067,1.382c0,.041-.009.081-.013.12q-.062.611-.171,1.176l-.03.149a10.7,10.7,0,0,1-.27,1.048c-.02.062-.041.123-.062.185a9.5,9.5,0,0,1-.351.9c-.016.033-.027.066-.041.1a7.916,7.916,0,0,1-.506.918c-.024.038-.054.072-.078.109a7.088,7.088,0,0,1-.49.645c-.062.074-.127.143-.192.212a6.265,6.265,0,0,1-.473.458c-.068.059-.134.12-.205.177a5.985,5.985,0,0,1-.729.507h0l2.782-1.616a6.08,6.08,0,0,0,.727-.507c.071-.057.137-.119.205-.177a6.551,6.551,0,0,0,.473-.458c.065-.069.13-.139.194-.212a6.835,6.835,0,0,0,.488-.645c.026-.037.054-.071.078-.109l.018-.025a7.833,7.833,0,0,0,.475-.862l.013-.031c.016-.031.027-.065.041-.1.088-.191.173-.385.249-.589.037-.1.068-.208.1-.313.02-.061.041-.122.061-.184s.038-.109.055-.167c.061-.209.117-.423.168-.644.017-.076.031-.158.047-.238.011-.05.021-.1.031-.149.014-.078.031-.151.045-.229.034-.2.064-.4.091-.6.014-.113.024-.229.035-.345l.013-.119c0-.048.01-.093.014-.143.016-.194.028-.392.037-.594s.013-.4.014-.608v-.037C536.493,235.554,536.49,235.365,536.484,235.174Z" transform="translate(-508.49 -212.242)" fill="url(#linear-gradient-55)"/>
          <path id="Path_634" data-name="Path 634" d="M526.179,221.35l-11.44,11.433a22.623,22.623,0,0,1-2.731-6.2l9.5-9.5A18.124,18.124,0,0,1,526.179,221.35Z" transform="translate(-508.557 -210.235)" fill="url(#linear-gradient-56)"/>
          <path id="Path_635" data-name="Path 635" d="M529.13,227.857l-9.4,9.406a17.7,17.7,0,0,1-4.711-4.23l11.418-11.418A22.351,22.351,0,0,1,529.13,227.857Z" transform="translate(-507.31 -208.354)" fill="url(#linear-gradient-57)"/>
        </g>
        <g id="Group_421" data-name="Group 421" transform="translate(27.353)">
          <path id="Path_636" data-name="Path 636" d="M561.536,212.624c-.992-2.377-2.013-4.636-3.049-6.759-8.393-17.193-17.77-29.349-20.87-31.9a1.665,1.665,0,0,0-2.109,0c-3.1,2.547-12.469,14.7-20.86,31.9q-1.537,3.149-3.015,6.678C526.346,219.063,546.847,219.092,561.536,212.624Z" transform="translate(-511.626 -173.593)" fill="url(#linear-gradient-58)"/>
          <path id="Path_637" data-name="Path 637" d="M537.044,173.666a277.371,277.371,0,0,0-12.854,42.669,56.322,56.322,0,0,1-12.562-3.788c.32-.771.652-1.529.971-2.274.426-.956.85-1.9,1.276-2.818.266-.531.518-1.063.771-1.595,8.4-17.187,17.759-29.349,20.869-31.889a1.686,1.686,0,0,1,1.29-.359A1.656,1.656,0,0,1,537.044,173.666Z" transform="translate(-511.628 -173.59)" fill="#0031ba" opacity="0.53"/>
        </g>
        <g id="Group_424" data-name="Group 424" transform="translate(15.382 88.441)">
          <g id="Group_422" data-name="Group 422" transform="translate(0 9.731)">
            <path id="Path_638" data-name="Path 638" d="M576.855,247.543c.078-1.52.12-3.04.14-4.563-10.139,5.524-23.392,8.561-37.536,8.561-13.539,0-26.289-2.783-36.292-7.865.028,1.508.092,3.015.177,4.52C524.876,258.175,555.81,257.959,576.855,247.543Z" transform="translate(-503.167 -242.98)" fill="url(#linear-gradient-5)"/>
          </g>
          <g id="Group_423" data-name="Group 423">
            <path id="Path_639" data-name="Path 639" d="M576.855,240.665c.078-1.52.12-3.04.14-4.563-10.139,5.525-23.392,8.561-37.536,8.561-13.539,0-26.289-2.783-36.292-7.865.028,1.508.092,3.015.177,4.52C524.876,251.3,555.81,251.082,576.855,240.665Z" transform="translate(-503.167 -236.102)" fill="url(#linear-gradient-5)"/>
          </g>
        </g>
        <g id="Group_427" data-name="Group 427" transform="translate(15.376 89.135)" opacity="0.53">
          <g id="Group_425" data-name="Group 425" transform="translate(0 9.731)" opacity="0.4">
            <path id="Path_640" data-name="Path 640" d="M522.026,253.758a77.245,77.245,0,0,1-18.676-5.768c-.093-1.449-.147-2.912-.187-4.373v-.146a70.93,70.93,0,0,0,18.636,6.207C521.866,251.033,521.932,252.39,522.026,253.758Z" transform="translate(-503.163 -243.471)" fill="#0031ba"/>
          </g>
          <g id="Group_426" data-name="Group 426">
            <path id="Path_641" data-name="Path 641" d="M521.639,246.815a77.094,77.094,0,0,1-18.29-5.7c-.04-.572-.067-1.143-.081-1.729a.025.025,0,0,1,0-.04c-.052-.917-.079-1.834-.106-2.752l.239.12a71.468,71.468,0,0,0,18.225,6.048v.013C521.614,244.117,521.627,245.46,521.639,246.815Z" transform="translate(-503.163 -236.593)" fill="#0031ba" opacity="0.4"/>
          </g>
        </g>
      </g>
    </g>
  </g>
</svg>
