<svg xmlns="http://www.w3.org/2000/svg" width="1071.901" height="239.294" viewBox="0 0 1071.901 239.294">
  <g id="Group_1001" data-name="Group 1001" transform="translate(-315 -4973.995)">
    <path id="Path_29207" data-name="Path 29207" d="M16.617,0H1055.2a16.617,16.617,0,0,1,16.617,16.617V222.673A16.617,16.617,0,0,1,1055.2,239.29H16.617A16.617,16.617,0,0,1,0,222.673V16.617A16.617,16.617,0,0,1,16.617,0Z" transform="translate(315 4974)" fill="#ffc10b"/>
    <path id="Path_29197" data-name="Path 29197" d="M4914.04,1429.317s-18.528-44.618,28.631-50.6,42.1-36.63,33.684-56.813-16-54.57,26.948-61.3c22.46-3.519,27.52-22.367,27.231-39.671-.257-15.547,13.335-30.215,42.412-29.828,0,0,96.568.3,126.446.006s38.646,2.113,36.871,30.534c-.2,4.492.1,149.791,0,176.84s7.1,31.374-35.767,30.855C5199.832,1429.84,4914.04,1429.317,4914.04,1429.317Z" transform="translate(-3849.844 3782.904)" fill="#fff" opacity="0.15"/>
    <path id="Path_29198" data-name="Path 29198" d="M4913.6,1429.317s-16.236-44.618,25.092-50.6,36.9-36.63,29.521-56.813-14.022-54.57,23.615-61.3c19.685-3.519,24.117-22.367,23.866-39.671-.226-15.547,11.685-30.215,37.168-29.828,0,0,71.03.3,97.218.006s33.868,2.113,32.313,30.534c-.178,4.492.093,149.791,0,176.84s6.219,31.374-31.346,30.856C5150.462,1429.84,4913.6,1429.317,4913.6,1429.317Z" transform="translate(-3795.838 3782.904)" fill="#fff" opacity="0.15"/>
  </g>
</svg>
