<svg xmlns="http://www.w3.org/2000/svg" xmlns:xlink="http://www.w3.org/1999/xlink" width="122" height="241" viewBox="0 0 122 241">
  <defs>
    <clipPath id="clip-path">
      <rect id="Rectangle_1544" data-name="Rectangle 1544" width="122" height="241" transform="translate(-16634 -123)" fill="#ffc10b"/>
    </clipPath>
  </defs>
  <g id="_1" data-name="1" transform="translate(16634 123)" opacity="0.5" clip-path="url(#clip-path)">
    <g id="Group_2840" data-name="Group 2840">
      <g id="Rectangle_1537" data-name="Rectangle 1537" transform="translate(-16849 -2) rotate(-45)" fill="none" stroke="#fff" stroke-width="1.5">
        <rect width="238" height="238" rx="10" stroke="none"/>
        <rect x="0.75" y="0.75" width="236.5" height="236.5" rx="9.25" fill="none"/>
      </g>
      <g id="Rectangle_1538" data-name="Rectangle 1538" transform="translate(-16864 -2) rotate(-45)" fill="none" stroke="#fff" stroke-width="1.5">
        <rect width="238" height="238" rx="10" stroke="none"/>
        <rect x="0.75" y="0.75" width="236.5" height="236.5" rx="9.25" fill="none"/>
      </g>
      <g id="Rectangle_1539" data-name="Rectangle 1539" transform="translate(-16880 -2) rotate(-45)" fill="none" stroke="#fff" stroke-width="1.5">
        <rect width="238" height="238" rx="9" stroke="none"/>
        <rect x="0.75" y="0.75" width="236.5" height="236.5" rx="8.25" fill="none"/>
      </g>
      <g id="Rectangle_1540" data-name="Rectangle 1540" transform="translate(-16895 -2) rotate(-45)" fill="none" stroke="#fff" stroke-width="1.5">
        <rect width="238" height="238" rx="9" stroke="none"/>
        <rect x="0.75" y="0.75" width="236.5" height="236.5" rx="8.25" fill="none"/>
      </g>
      <g id="Rectangle_1541" data-name="Rectangle 1541" transform="translate(-16911 -2) rotate(-45)" fill="none" stroke="#fff" stroke-width="1.5">
        <rect width="238" height="238" rx="8" stroke="none"/>
        <rect x="0.75" y="0.75" width="236.5" height="236.5" rx="7.25" fill="none"/>
      </g>
      <g id="Rectangle_1542" data-name="Rectangle 1542" transform="translate(-16926 -2) rotate(-45)" fill="none" stroke="#fff" stroke-width="1.5">
        <rect width="238" height="238" rx="7" stroke="none"/>
        <rect x="0.75" y="0.75" width="236.5" height="236.5" rx="6.25" fill="none"/>
      </g>
      <g id="Rectangle_1543" data-name="Rectangle 1543" transform="translate(-16942 -2) rotate(-45)" fill="none" stroke="#fff" stroke-width="1.5">
        <rect width="238" height="238" rx="5" stroke="none"/>
        <rect x="0.75" y="0.75" width="236.5" height="236.5" rx="4.25" fill="none"/>
      </g>
    </g>
  </g>
</svg>
